<svg height="274" view_box="0 0 505 274" width="505" xmlns="http://www.w3.org/2000/svg" xmlns:link="http://www.w3.org/1999/xlink">\n\n<desc>Généré par Mocodo 2.0 le Sun, 30 Aug 2015 20:52:06</desc>

<rect fill="none" height="274" id="frame" stroke="none" stroke-width="0" width="505" x="0" y="0"/>

<!-- Association DF -->
<line stroke="#726f83" stroke-width="1" x1="53" x2="53" y1="145" y2="47"/>
<text fill="#726f83" font-family="Futura" font-size="11" x="57.0" y="100.9">1,1</text>
<line stroke="#726f83" stroke-width="1" x1="162" x2="53" y1="47" y2="47"/>
<text fill="#726f83" font-family="Futura" font-size="11" x="94" y="62.9">1,N</text>
<g id="association-DF">
	<circle cx="53" cy="47" fill="#b2bba4" r="19.0" stroke="#85956b" stroke-width="1.5"/>
	<text fill="#27360c" font-family="Copperplate" font-size="18" x="41" y="52.8">DF</text>
</g>

<!-- Association Enseigner -->
<line stroke="#726f83" stroke-width="1" x1="296" x2="296" y1="145" y2="235"/>
<text fill="#726f83" font-family="Futura" font-size="11" x="300.0" y="198.9">1,1</text>
<line stroke="#726f83" stroke-width="1" x1="162" x2="296" y1="235" y2="235"/>
<text fill="#726f83" font-family="Futura" font-size="11" x="220" y="250.9">1,N</text>
<g id="association-Enseigner">
	<path d="M 336 206 a 14 14 90 0 1 14 14 V 234 h -108 V 220 a 14 14 90 0 1 14 -14" fill="#b2bba4" stroke="#b2bba4" stroke-width="0"/>
	<path d="M 350 234 v 16 a 14 14 90 0 1 -14 14 H 256 a 14 14 90 0 1 -14 -14 V 234 H 108" fill="#ccd6ba" stroke="#ccd6ba" stroke-width="0"/>
	<rect fill="none" height="58" rx="14" stroke="#85956b" stroke-width="1.5" width="108" x="242" y="206"/>
	<line stroke="#85956b" stroke-width="1.5" x1="242" x2="350" y1="234" y2="234"/>
	<text fill="#27360c" font-family="Copperplate" font-size="18" x="249" y="227.3">Enseigner</text>
</g>

<!-- Association Relever -->
<line stroke="#726f83" stroke-width="1" x1="440" x2="440" y1="47" y2="145"/>
<text fill="#726f83" font-family="Futura" font-size="11" x="444.0" y="100.9">0,N</text>
<line stroke="#726f83" stroke-width="1" x1="296" x2="440" y1="145" y2="145"/>
<text fill="#726f83" font-family="Futura" font-size="11" x="341" y="160.9">1,1</text>
<g id="association-Relever">
	<path d="M 470 116 a 14 14 90 0 1 14 14 V 144 h -88 V 130 a 14 14 90 0 1 14 -14" fill="#b2bba4" stroke="#b2bba4" stroke-width="0"/>
	<path d="M 484 144 v 16 a 14 14 90 0 1 -14 14 H 410 a 14 14 90 0 1 -14 -14 V 144 H 88" fill="#ccd6ba" stroke="#ccd6ba" stroke-width="0"/>
	<rect fill="none" height="58" rx="14" stroke="#85956b" stroke-width="1.5" width="88" x="396" y="116"/>
	<line stroke="#85956b" stroke-width="1.5" x1="396" x2="484" y1="144" y2="144"/>
	<text fill="#27360c" font-family="Copperplate" font-size="18" x="403" y="137.3">Relever</text>
</g>

<!-- Association Noter -->
<line stroke="#726f83" stroke-width="1" x1="53" x2="162" y1="145" y2="145"/>
<text fill="#726f83" font-family="Futura" font-size="11" x="101" y="160.9">1,N</text>
<line stroke="#726f83" stroke-width="1" x1="296" x2="162" y1="145" y2="145"/>
<text fill="#726f83" font-family="Futura" font-size="11" x="233" y="160.9">0,N</text>
<line stroke="#726f83" stroke-width="1" x1="162" x2="162" y1="235" y2="145"/>
<text fill="#726f83" font-family="Futura" font-size="11" x="166.0" y="198.9">0,N</text>
<line stroke="#726f83" stroke-width="1" x1="53" x2="162" y1="235" y2="145"/>
<text fill="#726f83" font-family="Futura" font-size="11" x="86" y="223.652293578">1,N</text>
<g id="association-Noter">
	<path d="M 183 116 a 14 14 90 0 1 14 14 V 144 h -70 V 130 a 14 14 90 0 1 14 -14" fill="#b2bba4" stroke="#b2bba4" stroke-width="0"/>
	<path d="M 197 144 v 16 a 14 14 90 0 1 -14 14 H 141 a 14 14 90 0 1 -14 -14 V 144 H 70" fill="#ccd6ba" stroke="#ccd6ba" stroke-width="0"/>
	<rect fill="none" height="58" rx="14" stroke="#85956b" stroke-width="1.5" width="70" x="127" y="116"/>
	<line stroke="#85956b" stroke-width="1.5" x1="127" x2="197" y1="144" y2="144"/>
	<text fill="#27360c" font-family="Copperplate" font-size="18" x="134" y="137.3">Noter</text>
	<text fill="#607734" font-family="Gill Sans" font-size="15" x="134" y="162.05">Note</text>
</g>

<!-- Association Faire Cours -->
<line stroke="#726f83" stroke-width="1" x1="162" x2="296" y1="47" y2="47"/>
<text fill="#726f83" font-family="Futura" font-size="11" x="212" y="62.9">1,N</text>
<line stroke="#726f83" stroke-width="1" x1="296" x2="296" y1="145" y2="47"/>
<text fill="#726f83" font-family="Futura" font-size="11" x="300.0" y="100.9">1,N</text>
<g id="association-Faire Cours">
	<path d="M 344 18 a 14 14 90 0 1 14 14 V 46 h -124 V 32 a 14 14 90 0 1 14 -14" fill="#b2bba4" stroke="#b2bba4" stroke-width="0"/>
	<path d="M 358 46 v 16 a 14 14 90 0 1 -14 14 H 248 a 14 14 90 0 1 -14 -14 V 46 H 124" fill="#ccd6ba" stroke="#ccd6ba" stroke-width="0"/>
	<rect fill="none" height="58" rx="14" stroke="#85956b" stroke-width="1.5" width="124" x="234" y="18"/>
	<line stroke="#85956b" stroke-width="1.5" x1="234" x2="358" y1="46" y2="46"/>
	<text fill="#27360c" font-family="Copperplate" font-size="18" x="241" y="39.3">Faire Cours</text>
	<text fill="#607734" font-family="Gill Sans" font-size="15" x="241" y="64.05">Vol. horaire</text>
</g>

<!-- Entity Matière -->
<g id="entity-Matière">
	<g id="frame-Matière">
		<rect fill="#97b8ff" height="30" stroke="#97b8ff" stroke-width="0" width="108" x="108" y="205"/>
		<rect fill="#c0d4ff" height="30" stroke="#c0d4ff" stroke-width="0" width="108" x="108" y="235"/>
		<rect fill="none" height="60" stroke="#578dff" stroke-width="1.5" width="108" x="108" y="205"/>
		<line stroke="#578dff" stroke-width="1.5" x1="108" x2="216" y1="235" y2="235"/>
	</g>
	<text fill="#131114" font-family="Copperplate" font-size="18" x="126" y="226.3">Matière</text>
	<text fill="#3e3c42" font-family="Gill Sans" font-size="15" x="116" y="252.05">Libellé matière</text>
	<line stroke="#3e3c42" stroke-width="1" x1="116" x2="208" y1="255" y2="255"/>
</g>

<!-- Entity Classe -->
<g id="entity-Classe">
	<g id="frame-Classe">
		<rect fill="#97b8ff" height="30" stroke="#97b8ff" stroke-width="0" width="92" x="116" y="9"/>
		<rect fill="#c0d4ff" height="46" stroke="#c0d4ff" stroke-width="0" width="92" x="116" y="39"/>
		<rect fill="none" height="76" stroke="#578dff" stroke-width="1.5" width="92" x="116" y="9"/>
		<line stroke="#578dff" stroke-width="1.5" x1="116" x2="208" y1="39" y2="39"/>
	</g>
	<text fill="#131114" font-family="Copperplate" font-size="18" x="130" y="30.3">Classe</text>
	<text fill="#3e3c42" font-family="Gill Sans" font-size="15" x="124" y="56.05">Num. classe</text>
	<line stroke="#3e3c42" stroke-width="1" x1="124" x2="199" y1="59" y2="59"/>
	<text fill="#3e3c42" font-family="Gill Sans" font-size="15" x="124" y="73.05">Num. salle</text>
</g>

<!-- Entity Catégorie -->
<g id="entity-Catégorie">
	<g id="frame-Catégorie">
		<rect fill="#97b8ff" height="30" stroke="#97b8ff" stroke-width="0" width="112" x="384" y="9"/>
		<rect fill="#c0d4ff" height="46" stroke="#c0d4ff" stroke-width="0" width="112" x="384" y="39"/>
		<rect fill="none" height="76" stroke="#578dff" stroke-width="1.5" width="112" x="384" y="9"/>
		<line stroke="#578dff" stroke-width="1.5" x1="384" x2="496" y1="39" y2="39"/>
	</g>
	<text fill="#131114" font-family="Copperplate" font-size="18" x="394" y="30.3">Catégorie</text>
	<text fill="#3e3c42" font-family="Gill Sans" font-size="15" x="392" y="56.05">Code catégorie</text>
	<line stroke="#3e3c42" stroke-width="1" x1="392" x2="488" y1="59" y2="59"/>
	<text fill="#3e3c42" font-family="Gill Sans" font-size="15" x="392" y="73.05">Nom catégorie</text>
</g>

<!-- Entity Élève -->
<g id="entity-Élève">
	<g id="frame-Élève">
		<rect fill="#97b8ff" height="30" stroke="#97b8ff" stroke-width="0" width="88" x="9" y="107"/>
		<rect fill="#c0d4ff" height="46" stroke="#c0d4ff" stroke-width="0" width="88" x="9" y="137"/>
		<rect fill="none" height="76" stroke="#578dff" stroke-width="1.5" width="88" x="9" y="107"/>
		<line stroke="#578dff" stroke-width="1.5" x1="9" x2="97" y1="137" y2="137"/>
	</g>
	<text fill="#131114" font-family="Copperplate" font-size="18" x="27" y="128.3">Élève</text>
	<text fill="#3e3c42" font-family="Gill Sans" font-size="15" x="17" y="154.05">Num. élève</text>
	<line stroke="#3e3c42" stroke-width="1" x1="17" x2="88" y1="157" y2="157"/>
	<text fill="#3e3c42" font-family="Gill Sans" font-size="15" x="17" y="171.05">Nom élève</text>
</g>

<!-- Entity Date -->
<g id="entity-Date">
	<g id="frame-Date">
		<rect fill="#97b8ff" height="30" stroke="#97b8ff" stroke-width="0" width="58" x="24" y="205"/>
		<rect fill="#c0d4ff" height="30" stroke="#c0d4ff" stroke-width="0" width="58" x="24" y="235"/>
		<rect fill="none" height="60" stroke="#578dff" stroke-width="1.5" width="58" x="24" y="205"/>
		<line stroke="#578dff" stroke-width="1.5" x1="24" x2="82" y1="235" y2="235"/>
	</g>
	<text fill="#131114" font-family="Copperplate" font-size="18" x="32" y="226.3">Date</text>
	<text fill="#3e3c42" font-family="Gill Sans" font-size="15" x="32" y="252.05">Date</text>
	<line stroke="#3e3c42" stroke-width="1" x1="32" x2="62" y1="255" y2="255"/>
</g>

<!-- Entity Prof -->
<g id="entity-Prof">
	<g id="frame-Prof">
		<rect fill="#97b8ff" height="30" stroke="#97b8ff" stroke-width="0" width="82" x="255" y="107"/>
		<rect fill="#c0d4ff" height="46" stroke="#c0d4ff" stroke-width="0" width="82" x="255" y="137"/>
		<rect fill="none" height="76" stroke="#578dff" stroke-width="1.5" width="82" x="255" y="107"/>
		<line stroke="#578dff" stroke-width="1.5" x1="255" x2="337" y1="137" y2="137"/>
	</g>
	<text fill="#131114" font-family="Copperplate" font-size="18" x="274" y="128.3">Prof</text>
	<text fill="#3e3c42" font-family="Gill Sans" font-size="15" x="263" y="154.05">Num. prof</text>
	<line stroke="#3e3c42" stroke-width="1" x1="263" x2="328" y1="157" y2="157"/>
	<text fill="#3e3c42" font-family="Gill Sans" font-size="15" x="263" y="171.05">Nom prof</text>
</g>
</svg>