<svg aria-roledescription="er" role="graphics-document document" viewBox="0 0 552.3271484375 349" height="349" xmlns="http://www.w3.org/2000/svg" width="552.3271484375" id="container"><style>#container{font-family:"trebuchet ms",verdana,arial,sans-serif;font-size:16px;fill:#333;}#container .error-icon{fill:#552222;}#container .error-text{fill:#552222;stroke:#552222;}#container .edge-thickness-normal{stroke-width:2px;}#container .edge-thickness-thick{stroke-width:3.5px;}#container .edge-pattern-solid{stroke-dasharray:0;}#container .edge-pattern-dashed{stroke-dasharray:3;}#container .edge-pattern-dotted{stroke-dasharray:2;}#container .marker{fill:#333333;stroke:#333333;}#container .marker.cross{stroke:#333333;}#container svg{font-family:"trebuchet ms",verdana,arial,sans-serif;font-size:16px;}#container .entityBox{fill:#ECECFF;stroke:#9370DB;}#container .attributeBoxOdd{fill:#ffffff;stroke:#9370DB;}#container .attributeBoxEven{fill:#f2f2f2;stroke:#9370DB;}#container .relationshipLabelBox{fill:hsl(80, 100%, 96.2745098039%);opacity:0.7;background-color:hsl(80, 100%, 96.2745098039%);}#container .relationshipLabelBox rect{opacity:0.5;}#container .relationshipLine{stroke:#333333;}#container .entityTitleText{text-anchor:middle;font-size:18px;fill:#333;}#container #MD_PARENT_START{fill:#f5f5f5!important;stroke:#333333!important;stroke-width:1;}#container #MD_PARENT_END{fill:#f5f5f5!important;stroke:#333333!important;stroke-width:1;}#container :root{--mermaid-font-family:"trebuchet ms",verdana,arial,sans-serif;}</style><g></g><defs><marker orient="auto" markerHeight="240" markerWidth="190" refY="7" refX="0" id="MD_PARENT_START"><path d="M 18,7 L9,13 L1,7 L9,1 Z"></path></marker></defs><defs><marker orient="auto" markerHeight="28" markerWidth="20" refY="7" refX="19" id="MD_PARENT_END"><path d="M 18,7 L9,13 L1,7 L9,1 Z"></path></marker></defs><defs><marker orient="auto" markerHeight="18" markerWidth="18" refY="9" refX="0" id="ONLY_ONE_START"><path d="M9,0 L9,18 M15,0 L15,18" fill="none" stroke="gray"></path></marker></defs><defs><marker orient="auto" markerHeight="18" markerWidth="18" refY="9" refX="18" id="ONLY_ONE_END"><path d="M3,0 L3,18 M9,0 L9,18" fill="none" stroke="gray"></path></marker></defs><defs><marker orient="auto" markerHeight="18" markerWidth="30" refY="9" refX="0" id="ZERO_OR_ONE_START"><circle r="6" cy="9" cx="21" fill="white" stroke="gray"></circle><path d="M9,0 L9,18" fill="none" stroke="gray"></path></marker></defs><defs><marker orient="auto" markerHeight="18" markerWidth="30" refY="9" refX="30" id="ZERO_OR_ONE_END"><circle r="6" cy="9" cx="9" fill="white" stroke="gray"></circle><path d="M21,0 L21,18" fill="none" stroke="gray"></path></marker></defs><defs><marker orient="auto" markerHeight="36" markerWidth="45" refY="18" refX="18" id="ONE_OR_MORE_START"><path d="M0,18 Q 18,0 36,18 Q 18,36 0,18 M42,9 L42,27" fill="none" stroke="gray"></path></marker></defs><defs><marker orient="auto" markerHeight="36" markerWidth="45" refY="18" refX="27" id="ONE_OR_MORE_END"><path d="M3,9 L3,27 M9,18 Q27,0 45,18 Q27,36 9,18" fill="none" stroke="gray"></path></marker></defs><defs><marker orient="auto" markerHeight="36" markerWidth="57" refY="18" refX="18" id="ZERO_OR_MORE_START"><circle r="6" cy="18" cx="48" fill="white" stroke="gray"></circle><path d="M0,18 Q18,0 36,18 Q18,36 0,18" fill="none" stroke="gray"></path></marker></defs><defs><marker orient="auto" markerHeight="36" markerWidth="57" refY="18" refX="39" id="ZERO_OR_MORE_END"><circle r="6" cy="18" cx="9" fill="white" stroke="gray"></circle><path d="M21,18 Q39,0 57,18 Q39,36 21,18" fill="none" stroke="gray"></path></marker></defs><path style="stroke: gray; fill: none;" marker-start="url(#ONLY_ONE_START)" marker-end="url(#ZERO_OR_MORE_END)" d="M94.71240234375,136L94.71240234375,144.33333333333334C94.71240234375,152.66666666666666,94.71240234375,169.33333333333334,99.03019163563256,186C103.34798092751511,202.66666666666666,111.98355951128023,219.33333333333334,116.3013488031628,227.66666666666666L120.61913809504534,236" class="er relationshipLine"></path><path style="stroke: gray; fill: none;" marker-start="url(#ONE_OR_MORE_START)" marker-end="url(#ONLY_ONE_END)" stroke-dasharray="8,8" d="M369.5854700229786,101.5L351.67179442629396,115.58333333333333C333.75811882960943,129.66666666666666,297.93076763624026,157.83333333333334,269.87969876674725,180.25C241.82862989725433,202.66666666666666,221.55384335163754,219.33333333333334,211.41645007882917,227.66666666666666L201.27905680602078,236" class="er relationshipLine"></path><path style="stroke: gray; fill: none;" marker-start="url(#ZERO_OR_MORE_START)" marker-end="url(#ONLY_ONE_END)" stroke-dasharray="8,8" d="M410.3565583405671,101.5L416.8766200689622,115.58333333333333C423.3966817973572,129.66666666666666,436.4368052541474,157.83333333333334,442.9568669825424,180.25C449.4769287109375,202.66666666666666,449.4769287109375,219.33333333333334,449.4769287109375,227.66666666666666L449.4769287109375,236" class="er relationshipLine"></path><g transform="translate(20,20 )" id="entity-CLIENT-4e758595-4f1b-56da-a7d5-19191cf4cb1e"><rect height="116" width="149.4248046875" y="0" x="0" class="er entityBox"></rect><text style="dominant-baseline: middle; text-anchor: middle; font-size: 12px;" transform="translate(74.71240234375,12)" y="0" x="0" id="text-entity-CLIENT-4e758595-4f1b-56da-a7d5-19191cf4cb1e" class="er entityLabel">CLIENT</text><rect height="23" width="73.875" y="24" x="0" class="er attributeBoxOdd"></rect><text style="dominant-baseline: middle; font-size: 10.2px;" transform="translate(5,35.5)" y="0" x="0" id="text-entity-CLIENT-4e758595-4f1b-56da-a7d5-19191cf4cb1e-attr-1-type" class="er entityLabel">VARCHAR(8)</text><rect height="23" width="53.6279296875" y="24" x="73.875" class="er attributeBoxOdd"></rect><text style="dominant-baseline: middle; font-size: 10.2px;" transform="translate(78.875,35.5)" y="0" x="0" id="text-entity-CLIENT-4e758595-4f1b-56da-a7d5-19191cf4cb1e-attr-1-name" class="er entityLabel">ref_client</text><rect height="23" width="21.921875" y="24" x="127.5029296875" class="er attributeBoxOdd"></rect><text style="dominant-baseline: middle; font-size: 10.2px;" transform="translate(132.5029296875,35.5)" y="0" x="0" id="text-entity-CLIENT-4e758595-4f1b-56da-a7d5-19191cf4cb1e-attr-1-key" class="er entityLabel">PK</text><rect height="23" width="73.875" y="47" x="0" class="er attributeBoxEven"></rect><text style="dominant-baseline: middle; font-size: 10.2px;" transform="translate(5,58.5)" y="0" x="0" id="text-entity-CLIENT-4e758595-4f1b-56da-a7d5-19191cf4cb1e-attr-2-type" class="er entityLabel">VARCHAR(255)</text><rect height="23" width="53.6279296875" y="47" x="73.875" class="er attributeBoxEven"></rect><text style="dominant-baseline: middle; font-size: 10.2px;" transform="translate(78.875,58.5)" y="0" x="0" id="text-entity-CLIENT-4e758595-4f1b-56da-a7d5-19191cf4cb1e-attr-2-name" class="er entityLabel">nom</text><rect height="23" width="21.921875" y="47" x="127.5029296875" class="er attributeBoxEven"></rect><text style="dominant-baseline: middle; font-size: 10.2px;" transform="translate(132.5029296875,58.5)" y="0" x="0" id="text-entity-CLIENT-4e758595-4f1b-56da-a7d5-19191cf4cb1e-attr-2-key" class="er entityLabel"></text><rect height="23" width="73.875" y="70" x="0" class="er attributeBoxOdd"></rect><text style="dominant-baseline: middle; font-size: 10.2px;" transform="translate(5,81.5)" y="0" x="0" id="text-entity-CLIENT-4e758595-4f1b-56da-a7d5-19191cf4cb1e-attr-3-type" class="er entityLabel">VARCHAR(255)</text><rect height="23" width="53.6279296875" y="70" x="73.875" class="er attributeBoxOdd"></rect><text style="dominant-baseline: middle; font-size: 10.2px;" transform="translate(78.875,81.5)" y="0" x="0" id="text-entity-CLIENT-4e758595-4f1b-56da-a7d5-19191cf4cb1e-attr-3-name" class="er entityLabel">prenom</text><rect height="23" width="21.921875" y="70" x="127.5029296875" class="er attributeBoxOdd"></rect><text style="dominant-baseline: middle; font-size: 10.2px;" transform="translate(132.5029296875,81.5)" y="0" x="0" id="text-entity-CLIENT-4e758595-4f1b-56da-a7d5-19191cf4cb1e-attr-3-key" class="er entityLabel"></text><rect height="23" width="73.875" y="93" x="0" class="er attributeBoxEven"></rect><text style="dominant-baseline: middle; font-size: 10.2px;" transform="translate(5,104.5)" y="0" x="0" id="text-entity-CLIENT-4e758595-4f1b-56da-a7d5-19191cf4cb1e-attr-4-type" class="er entityLabel">VARCHAR(255)</text><rect height="23" width="53.6279296875" y="93" x="73.875" class="er attributeBoxEven"></rect><text style="dominant-baseline: middle; font-size: 10.2px;" transform="translate(78.875,104.5)" y="0" x="0" id="text-entity-CLIENT-4e758595-4f1b-56da-a7d5-19191cf4cb1e-attr-4-name" class="er entityLabel">adresse</text><rect height="23" width="21.921875" y="93" x="127.5029296875" class="er attributeBoxEven"></rect><text style="dominant-baseline: middle; font-size: 10.2px;" transform="translate(132.5029296875,104.5)" y="0" x="0" id="text-entity-CLIENT-4e758595-4f1b-56da-a7d5-19191cf4cb1e-attr-4-key" class="er entityLabel"></text></g><g transform="translate(52.815643310546875,236 )" id="entity-COMMANDE-6a677fbb-11e7-526d-964b-91afe7d301cd"><rect height="93" width="183.79351806640625" y="0" x="0" class="er entityBox"></rect><text style="dominant-baseline: middle; text-anchor: middle; font-size: 12px;" transform="translate(91.89675903320312,12)" y="0" x="0" id="text-entity-COMMANDE-6a677fbb-11e7-526d-964b-91afe7d301cd" class="er entityLabel">COMMANDE</text><rect height="23" width="74.46875" y="24" x="0" class="er attributeBoxOdd"></rect><text style="dominant-baseline: middle; font-size: 10.2px;" transform="translate(5,35.5)" y="0" x="0" id="text-entity-COMMANDE-6a677fbb-11e7-526d-964b-91afe7d301cd-attr-1-type" class="er entityLabel">VARCHAR(8)</text><rect height="23" width="87.40289306640625" y="24" x="74.46875" class="er attributeBoxOdd"></rect><text style="dominant-baseline: middle; font-size: 10.2px;" transform="translate(79.46875,35.5)" y="0" x="0" id="text-entity-COMMANDE-6a677fbb-11e7-526d-964b-91afe7d301cd-attr-1-name" class="er entityLabel">num_commande</text><rect height="23" width="21.921875" y="24" x="161.87164306640625" class="er attributeBoxOdd"></rect><text style="dominant-baseline: middle; font-size: 10.2px;" transform="translate(166.87164306640625,35.5)" y="0" x="0" id="text-entity-COMMANDE-6a677fbb-11e7-526d-964b-91afe7d301cd-attr-1-key" class="er entityLabel">PK</text><rect height="23" width="74.46875" y="47" x="0" class="er attributeBoxEven"></rect><text style="dominant-baseline: middle; font-size: 10.2px;" transform="translate(5,58.5)" y="0" x="0" id="text-entity-COMMANDE-6a677fbb-11e7-526d-964b-91afe7d301cd-attr-2-type" class="er entityLabel">DATE</text><rect height="23" width="87.40289306640625" y="47" x="74.46875" class="er attributeBoxEven"></rect><text style="dominant-baseline: middle; font-size: 10.2px;" transform="translate(79.46875,58.5)" y="0" x="0" id="text-entity-COMMANDE-6a677fbb-11e7-526d-964b-91afe7d301cd-attr-2-name" class="er entityLabel">date</text><rect height="23" width="21.921875" y="47" x="161.87164306640625" class="er attributeBoxEven"></rect><text style="dominant-baseline: middle; font-size: 10.2px;" transform="translate(166.87164306640625,58.5)" y="0" x="0" id="text-entity-COMMANDE-6a677fbb-11e7-526d-964b-91afe7d301cd-attr-2-key" class="er entityLabel"></text><rect height="23" width="74.46875" y="70" x="0" class="er attributeBoxOdd"></rect><text style="dominant-baseline: middle; font-size: 10.2px;" transform="translate(5,81.5)" y="0" x="0" id="text-entity-COMMANDE-6a677fbb-11e7-526d-964b-91afe7d301cd-attr-3-type" class="er entityLabel">DECIMAL(10-2)</text><rect height="23" width="87.40289306640625" y="70" x="74.46875" class="er attributeBoxOdd"></rect><text style="dominant-baseline: middle; font-size: 10.2px;" transform="translate(79.46875,81.5)" y="0" x="0" id="text-entity-COMMANDE-6a677fbb-11e7-526d-964b-91afe7d301cd-attr-3-name" class="er entityLabel">montant</text><rect height="23" width="21.921875" y="70" x="161.87164306640625" class="er attributeBoxOdd"></rect><text style="dominant-baseline: middle; font-size: 10.2px;" transform="translate(166.87164306640625,81.5)" y="0" x="0" id="text-entity-COMMANDE-6a677fbb-11e7-526d-964b-91afe7d301cd-attr-3-key" class="er entityLabel"></text></g><g transform="translate(339.4073028564453,54.5 )" id="entity-INCLURE-eef88099-aa51-549a-8f12-cb5026d5114b"><rect height="47" width="120.13925170898438" y="0" x="0" class="er entityBox"></rect><text style="dominant-baseline: middle; text-anchor: middle; font-size: 12px;" transform="translate(60.06962585449219,12)" y="0" x="0" id="text-entity-INCLURE-eef88099-aa51-549a-8f12-cb5026d5114b" class="er entityLabel">INCLURE</text><rect height="23" width="48.609375" y="24" x="0" class="er attributeBoxOdd"></rect><text style="dominant-baseline: middle; font-size: 10.2px;" transform="translate(5,35.5)" y="0" x="0" id="text-entity-INCLURE-eef88099-aa51-549a-8f12-cb5026d5114b-attr-1-type" class="er entityLabel">INTEGER</text><rect height="23" width="49.608001708984375" y="24" x="48.609375" class="er attributeBoxOdd"></rect><text style="dominant-baseline: middle; font-size: 10.2px;" transform="translate(53.609375,35.5)" y="0" x="0" id="text-entity-INCLURE-eef88099-aa51-549a-8f12-cb5026d5114b-attr-1-name" class="er entityLabel">quantite</text><rect height="23" width="21.921875" y="24" x="98.21737670898438" class="er attributeBoxOdd"></rect><text style="dominant-baseline: middle; font-size: 10.2px;" transform="translate(103.21737670898438,35.5)" y="0" x="0" id="text-entity-INCLURE-eef88099-aa51-549a-8f12-cb5026d5114b-attr-1-key" class="er entityLabel">PK</text></g><g transform="translate(366.6266632080078,236 )" id="entity-PRODUIT-90b23dbe-42cb-56cb-9504-9005294752b5"><rect height="93" width="165.70053100585938" y="0" x="0" class="er entityBox"></rect><text style="dominant-baseline: middle; text-anchor: middle; font-size: 12px;" transform="translate(82.85026550292969,12)" y="0" x="0" id="text-entity-PRODUIT-90b23dbe-42cb-56cb-9504-9005294752b5" class="er entityLabel">PRODUIT</text><rect height="23" width="74.46875" y="24" x="0" class="er attributeBoxOdd"></rect><text style="dominant-baseline: middle; font-size: 10.2px;" transform="translate(5,35.5)" y="0" x="0" id="text-entity-PRODUIT-90b23dbe-42cb-56cb-9504-9005294752b5-attr-1-type" class="er entityLabel">VARCHAR(8)</text><rect height="23" width="69.30990600585938" y="24" x="74.46875" class="er attributeBoxOdd"></rect><text style="dominant-baseline: middle; font-size: 10.2px;" transform="translate(79.46875,35.5)" y="0" x="0" id="text-entity-PRODUIT-90b23dbe-42cb-56cb-9504-9005294752b5-attr-1-name" class="er entityLabel">ref_produit</text><rect height="23" width="21.921875" y="24" x="143.77865600585938" class="er attributeBoxOdd"></rect><text style="dominant-baseline: middle; font-size: 10.2px;" transform="translate(148.77865600585938,35.5)" y="0" x="0" id="text-entity-PRODUIT-90b23dbe-42cb-56cb-9504-9005294752b5-attr-1-key" class="er entityLabel">PK</text><rect height="23" width="74.46875" y="47" x="0" class="er attributeBoxEven"></rect><text style="dominant-baseline: middle; font-size: 10.2px;" transform="translate(5,58.5)" y="0" x="0" id="text-entity-PRODUIT-90b23dbe-42cb-56cb-9504-9005294752b5-attr-2-type" class="er entityLabel">VARCHAR(50)</text><rect height="23" width="69.30990600585938" y="47" x="74.46875" class="er attributeBoxEven"></rect><text style="dominant-baseline: middle; font-size: 10.2px;" transform="translate(79.46875,58.5)" y="0" x="0" id="text-entity-PRODUIT-90b23dbe-42cb-56cb-9504-9005294752b5-attr-2-name" class="er entityLabel">libelle</text><rect height="23" width="21.921875" y="47" x="143.77865600585938" class="er attributeBoxEven"></rect><text style="dominant-baseline: middle; font-size: 10.2px;" transform="translate(148.77865600585938,58.5)" y="0" x="0" id="text-entity-PRODUIT-90b23dbe-42cb-56cb-9504-9005294752b5-attr-2-key" class="er entityLabel"></text><rect height="23" width="74.46875" y="70" x="0" class="er attributeBoxOdd"></rect><text style="dominant-baseline: middle; font-size: 10.2px;" transform="translate(5,81.5)" y="0" x="0" id="text-entity-PRODUIT-90b23dbe-42cb-56cb-9504-9005294752b5-attr-3-type" class="er entityLabel">DECIMAL(10-2)</text><rect height="23" width="69.30990600585938" y="70" x="74.46875" class="er attributeBoxOdd"></rect><text style="dominant-baseline: middle; font-size: 10.2px;" transform="translate(79.46875,81.5)" y="0" x="0" id="text-entity-PRODUIT-90b23dbe-42cb-56cb-9504-9005294752b5-attr-3-name" class="er entityLabel">prix_unitaire</text><rect height="23" width="21.921875" y="70" x="143.77865600585938" class="er attributeBoxOdd"></rect><text style="dominant-baseline: middle; font-size: 10.2px;" transform="translate(148.77865600585938,81.5)" y="0" x="0" id="text-entity-PRODUIT-90b23dbe-42cb-56cb-9504-9005294752b5-attr-3-key" class="er entityLabel"></text></g><rect height="14" width="39.75" y="181.0491485595703" x="79.70751953125" class="er relationshipLabelBox"></rect><text style="text-anchor: middle; dominant-baseline: middle; font-size: 12px;" y="188.0491485595703" x="99.58251953125" id="rel1" class="er relationshipLabel">PASSER</text><rect height="14" width="13.728057861328125" y="161.20741271972656" x="278.13365173339844" class="er relationshipLabelBox"></rect><text style="text-anchor: middle; dominant-baseline: middle; font-size: 12px;" y="168.20741271972656" x="284.9976806640625" id="rel2" class="er relationshipLabel">DF</text><rect height="14" width="13.728057861328125" y="159.50473022460938" x="431.5869598388672" class="er relationshipLabelBox"></rect><text style="text-anchor: middle; dominant-baseline: middle; font-size: 12px;" y="166.50473022460938" x="438.45098876953125" id="rel3" class="er relationshipLabel">DF</text></svg>