<?xml version="1.0" encoding="utf-8"?>
<!-- Generated by Mocodo 4.0.0 -->
<svg width="770" height="128" viewBox="0 0 770 128" xmlns="http://www.w3.org/2000/svg">
<rect x="0" y="0" width="770" height="128" fill="#f7f7f7" stroke="none" stroke-width="0"/>

<!-- Association PASSER -->
<g>
	<line x1="51" y1="64" x2="166" y2="64" stroke="#9970ab" stroke-width="1"/>
	<line x1="302" y1="64" x2="166" y2="64" stroke="#9970ab" stroke-width="1"/>
	<g>
		<path d="M196 35 a14 14 90 0 1 14 14 V63 h-88 V49 a14 14 90 0 1 14 -14" fill="#c2a5cf" stroke="#c2a5cf" stroke-width="0"/>
		<path d="M210 63 v16 a14 14 90 0 1 -14 14 H136 a14 14 90 0 1 -14 -14 V63 H88" fill="#e7d4e8" stroke="#e7d4e8" stroke-width="0"/>
		<rect x="122" y="35" width="88" height="58" fill="none" rx="14" stroke="#9970ab" stroke-width="1.5"/>
		<line x1="122" y1="63" x2="210" y2="63" stroke="#9970ab" stroke-width="1.5"/>
		<text x="129" y="56.3" fill="#000000" font-family="Copperplate" font-size="18">PASSER</text>
	</g>
	<text x="98" y="80" fill="#1b7837" font-family="Futura" font-size="11">0,N</text>
	<text x="216" y="80" fill="#1b7837" font-family="Futura" font-size="11">1,1</text>
</g>

<!-- Association DF0 -->
<g>
	<line x1="513" y1="64" x2="414" y2="64" stroke="#9970ab" stroke-width="1"/>
	<line x1="302" y1="64" x2="414" y2="64" stroke="#9970ab" stroke-width="1"/>
	<g>
		<circle cx="414" cy="64" r="20" stroke="#9970ab" stroke-width="1.5" fill="#c2a5cf"/>
		<text x="401" y="68.8" fill="#000000" font-family="Copperplate" font-size="18">DF</text>
	</g>
	<text x="440" y="80" fill="#1b7837" font-family="Futura" font-size="11">1,1</text>
	<line x1="440" y1="82" x2="458" y2="82" stroke="#1b7837" stroke-width="1"/>
	<text x="370" y="80" fill="#1b7837" font-family="Futura" font-size="11">1,N</text>
</g>

<!-- Association DF1 -->
<g>
	<line x1="513" y1="64" x2="612" y2="64" stroke="#9970ab" stroke-width="1"/>
	<line x1="711" y1="64" x2="612" y2="64" stroke="#9970ab" stroke-width="1"/>
	<g>
		<circle cx="612" cy="64" r="20" stroke="#9970ab" stroke-width="1.5" fill="#c2a5cf"/>
		<text x="599" y="68.8" fill="#000000" font-family="Copperplate" font-size="18">DF</text>
	</g>
	<text x="568" y="80" fill="#1b7837" font-family="Futura" font-size="11">1,1</text>
	<line x1="568" y1="82" x2="586" y2="82" stroke="#1b7837" stroke-width="1"/>
	<text x="637" y="80" fill="#1b7837" font-family="Futura" font-size="11">0,N</text>
</g>

<!-- Entity CLIENT -->
<g>
	<g>
		<rect x="9" y="9" width="84" height="30" fill="#a6dba0" stroke="none" stroke-width="0" opacity="1"/>
		<rect x="9" y="39" width="84" height="80" fill="#d9f0d3" stroke="none" stroke-width="0" opacity="1"/>
		<rect x="9" y="9" width="84" height="110" fill="none" stroke="#5aae61" stroke-width="1.5" opacity="1"/>
		<line x1="9" y1="39" x2="93" y2="39" stroke="#5aae61" stroke-width="1.5"/>
	</g>
	<text x="17" y="30.3" fill="#000000" font-family="Copperplate" font-size="18">CLIENT</text>
	<text x="17" y="56.1" fill="#000000" font-family="Gill Sans" font-size="15">Réf. client</text>
	<line x1="17" y1="59" x2="79" y2="59" stroke="#000000" stroke-width="1"/>
	<text x="17" y="73.1" fill="#000000" font-family="Gill Sans" font-size="15">Nom</text>
	<text x="17" y="90.1" fill="#000000" font-family="Gill Sans" font-size="15">Prénom</text>
	<text x="17" y="107" fill="#000000" font-family="Gill Sans" font-size="15">Adresse</text>
</g>

<!-- Entity COMMANDE -->
<g>
	<g>
		<rect x="239" y="17" width="126" height="30" fill="#a6dba0" stroke="none" stroke-width="0" opacity="1"/>
		<rect x="239" y="47" width="126" height="64" fill="#d9f0d3" stroke="none" stroke-width="0" opacity="1"/>
		<rect x="239" y="17" width="126" height="94" fill="none" stroke="#5aae61" stroke-width="1.5" opacity="1"/>
		<line x1="239" y1="47" x2="365" y2="47" stroke="#5aae61" stroke-width="1.5"/>
	</g>
	<text x="248" y="38.3" fill="#000000" font-family="Copperplate" font-size="18">COMMANDE</text>
	<text x="247" y="64.1" fill="#000000" font-family="Gill Sans" font-size="15">Num. commande</text>
	<line x1="247" y1="67" x2="355" y2="67" stroke="#000000" stroke-width="1"/>
	<text x="247" y="81.1" fill="#000000" font-family="Gill Sans" font-size="15">Date</text>
	<text x="247" y="98" fill="#000000" font-family="Gill Sans" font-size="15">Montant</text>
</g>

<!-- Entity INCLURE -->
<g>
	<g>
		<rect x="463" y="34" width="100" height="30" fill="#a6dba0" stroke="none" stroke-width="0" opacity="1"/>
		<rect x="463" y="64" width="100" height="30" fill="#d9f0d3" stroke="none" stroke-width="0" opacity="1"/>
		<rect x="463" y="34" width="100" height="60" fill="none" stroke="#5aae61" stroke-width="1.5" opacity="1"/>
		<line x1="463" y1="64" x2="563" y2="64" stroke="#5aae61" stroke-width="1.5"/>
	</g>
	<text x="472" y="55.3" fill="#000000" font-family="Copperplate" font-size="18">INCLURE</text>
	<text x="471" y="81.1" fill="#000000" font-family="Gill Sans" font-size="15">Quantité</text>
</g>

<!-- Entity PRODUIT -->
<g>
	<g>
		<rect x="661" y="17" width="100" height="30" fill="#a6dba0" stroke="none" stroke-width="0" opacity="1"/>
		<rect x="661" y="47" width="100" height="64" fill="#d9f0d3" stroke="none" stroke-width="0" opacity="1"/>
		<rect x="661" y="17" width="100" height="94" fill="none" stroke="#5aae61" stroke-width="1.5" opacity="1"/>
		<line x1="661" y1="47" x2="761" y2="47" stroke="#5aae61" stroke-width="1.5"/>
	</g>
	<text x="670" y="38.3" fill="#000000" font-family="Copperplate" font-size="18">PRODUIT</text>
	<text x="669" y="64.1" fill="#000000" font-family="Gill Sans" font-size="15">Réf. produit</text>
	<line x1="669" y1="67" x2="744" y2="67" stroke="#000000" stroke-width="1"/>
	<text x="669" y="81.1" fill="#000000" font-family="Gill Sans" font-size="15">Libellé</text>
	<text x="669" y="98" fill="#000000" font-family="Gill Sans" font-size="15">Prix unitaire</text>
</g>
</svg>