<svg xmlns="http://www.w3.org/2000/svg" width="1281.965" height="174.5"><style>@font-face{font-family:&apos;Open Sans&apos;}</style><svg x="251.392" y="27.5" width="67" height="147"><path d="M4 22h15q10 0 10 10v79q0 10 10 10h15-15q-10 0-10-10V32q0-10-10-10H4m10-4v8m40 91-10 4 10 4" fill="none" stroke="#9B9CA4"/><text x="7" y="19" style="font-family:&quot;Open Sans&quot;,sans-serif;font-size:14px;font-weight:400;fill:transparent">1</text><text x="43.289" y="118" style="font-family:&quot;Open Sans&quot;,sans-serif;font-size:14px;font-weight:400;fill:transparent">*</text></svg><svg x="603.446" y="27.5" width="67" height="48"><path d="M4 22h50H4m10-4v8m40-8-10 4 10 4" fill="none" stroke="#9B9CA4"/><text x="7" y="19" style="font-family:&quot;Open Sans&quot;,sans-serif;font-size:14px;font-weight:400;fill:transparent">1</text><text x="43.289" y="19" style="font-family:&quot;Open Sans&quot;,sans-serif;font-size:14px;font-weight:400;fill:transparent">*</text></svg><svg x="955.5" y="27.5" width="67" height="81"><path d="M4 55h15q10 0 10-10V32q0-10 10-10h15-15q-10 0-10 10v13q0 10-10 10H4m0-4 10 4-10 4m40-41v8" fill="none" stroke="#9B9CA4"/><text x="7" y="52" style="font-family:&quot;Open Sans&quot;,sans-serif;font-size:14px;font-weight:400;fill:transparent">*</text><text x="42.995" y="19" style="font-family:&quot;Open Sans&quot;,sans-serif;font-size:14px;font-weight:400;fill:transparent">1</text></svg><svg><path fill="#222" d="M0 0h255.392v33H0z"/><text x="10" y="19.75" style="font-family:&quot;Open Sans&quot;,sans-serif;font-size:13px;font-weight:700;fill:#fff">CLIENT</text></svg><svg y="33"><path fill="#37383F" d="M0 0h255.392v33H0z"/><text x="10" y="19.75" style="font-family:&quot;Open Sans&quot;,sans-serif;font-size:13px;font-weight:700;fill:#d7d7d9">Réf. client</text><path fill="#D7D7D9" d="M85.43 10.734a2.953 2.953 0 1 1-1.101 5.695l-.869.868h-.656v.984h-.984v.985H79.85v-1.97l2.752-2.75a2.953 2.953 0 0 1 2.826-3.81zm0-.984a3.937 3.937 0 0 0-3.901 4.477l-2.518 2.518a.493.493 0 0 0-.144.348v2.665c0 .272.22.492.492.492h2.953c.272 0 .492-.22.492-.492v-.492h.492c.272 0 .493-.22.493-.493v-.41l.82-.823a3.937 3.937 0 1 0 .82-7.79zm0 2.953a.984.984 0 1 0 1.968 0 .984.984 0 0 0-1.969 0z"/><path fill="#666" d="M223.392 7h20s2 0 2 2v12s0 2-2 2h-20s-2 0-2-2V9s0-2 2-2"/><path fill="#D7D7D9" d="M232.203 19.5h-1.168l-4.75-7.56h-.047l.042.69c.016.254.028.527.036.819.012.287.018.58.018.88V19.5h-.942v-9h1.162l4.732 7.535h.041a157.13 157.13 0 0 1-.066-1.465 33.296 33.296 0 0 1-.011-.856V10.5h.953v9zM241.392 19.5h-1.168l-4.75-7.56h-.047l.042.69c.016.254.028.527.036.819.011.287.017.58.017.88V19.5h-.941v-9h1.162l4.731 7.535h.042a158.366 158.366 0 0 1-.065-1.465 33.065 33.065 0 0 1-.012-.856V10.5h.953v9z"/><text x="139.367" y="19.75" style="font-family:&quot;Open Sans&quot;,sans-serif;font-size:13px;font-weight:700;fill:#999">VARCHAR(8)</text></svg><svg y="66"><path fill="#37383F" d="M0 0h255.392v33H0z"/><text x="10" y="19.75" style="font-family:&quot;Open Sans&quot;,sans-serif;font-size:13px;fill:#d7d7d9">Nom</text><text x="157.414" y="19.75" style="font-family:&quot;Open Sans&quot;,sans-serif;font-size:13px;fill:#999">VARCHAR(255)</text></svg><svg y="99"><path fill="#37383F" d="M0 0h255.392v33H0z"/><text x="10" y="19.75" style="font-family:&quot;Open Sans&quot;,sans-serif;font-size:13px;fill:#d7d7d9">Prénom</text><text x="157.414" y="19.75" style="font-family:&quot;Open Sans&quot;,sans-serif;font-size:13px;fill:#999">VARCHAR(255)</text></svg><svg y="132"><path fill="#37383F" d="M0 0h255.392v33H0z"/><text x="10" y="19.75" style="font-family:&quot;Open Sans&quot;,sans-serif;font-size:13px;fill:#d7d7d9">Adresse</text><text x="157.414" y="19.75" style="font-family:&quot;Open Sans&quot;,sans-serif;font-size:13px;fill:#999">VARCHAR(255)</text></svg><svg x="305.392"><path fill="#222" d="M0 0h302.054v33H0z"/><text x="10" y="19.75" style="font-family:&quot;Open Sans&quot;,sans-serif;font-size:13px;font-weight:700;fill:#fff">COMMANDE</text></svg><svg x="305.392" y="33"><path fill="#37383F" d="M0 0h302.054v33H0z"/><text x="10" y="19.75" style="font-family:&quot;Open Sans&quot;,sans-serif;font-size:13px;font-weight:700;fill:#d7d7d9">Num. commande</text><path fill="#D7D7D9" d="M132.09 10.734a2.953 2.953 0 1 1-1.1 5.695l-.868.868h-.656v.984h-.985v.985h-1.968v-1.97l2.751-2.75a2.953 2.953 0 0 1 2.827-3.81zm0-.984a3.937 3.937 0 0 0-3.9 4.477l-2.518 2.518a.493.493 0 0 0-.144.348v2.665c0 .272.22.492.493.492h2.953c.271 0 .492-.22.492-.492v-.492h.492c.272 0 .492-.22.492-.493v-.41l.822-.823a3.937 3.937 0 1 0 .82-7.79zm0 2.953a.984.984 0 1 0 1.97 0 .984.984 0 0 0-1.97 0z"/><path fill="#666" d="M270.054 7h20s2 0 2 2v12s0 2-2 2h-20s-2 0-2-2V9s0-2 2-2"/><path fill="#D7D7D9" d="M278.865 19.5h-1.168l-4.75-7.56h-.047l.042.69c.016.254.027.527.035.819.012.287.018.58.018.88V19.5h-.941v-9h1.162l4.731 7.535h.042a157.13 157.13 0 0 1-.066-1.465 33.296 33.296 0 0 1-.012-.856V10.5h.954v9zM288.054 19.5h-1.168l-4.75-7.56h-.047l.041.69c.016.254.028.527.036.819.012.287.018.58.018.88V19.5h-.941v-9h1.162l4.731 7.535h.042a158.366 158.366 0 0 1-.066-1.465 33.065 33.065 0 0 1-.012-.856V10.5h.954v9z"/><text x="186.028" y="19.75" style="font-family:&quot;Open Sans&quot;,sans-serif;font-size:13px;font-weight:700;fill:#999">VARCHAR(8)</text></svg><svg x="305.392" y="66"><path fill="#37383F" d="M0 0h302.054v33H0z"/><text x="10" y="19.75" style="font-family:&quot;Open Sans&quot;,sans-serif;font-size:13px;fill:#d7d7d9">Date</text><text x="260.017" y="19.75" style="font-family:&quot;Open Sans&quot;,sans-serif;font-size:13px;fill:#999">DATE</text></svg><svg x="305.392" y="99"><path fill="#37383F" d="M0 0h302.054v33H0z"/><text x="10" y="19.75" style="font-family:&quot;Open Sans&quot;,sans-serif;font-size:13px;fill:#d7d7d9">Montant</text><text x="203.548" y="19.75" style="font-family:&quot;Open Sans&quot;,sans-serif;font-size:13px;fill:#999">DECIMAL(10,2)</text></svg><svg x="305.392" y="132"><path fill="#37383F" d="M0 0h302.054v33H0z"/><text x="10" y="19.75" style="font-family:&quot;Open Sans&quot;,sans-serif;font-size:13px;fill:#d7d7d9">Réf. client</text><path fill="#666" d="M270.054 7h20s2 0 2 2v12s0 2-2 2h-20s-2 0-2-2V9s0-2 2-2"/><path fill="#D7D7D9" d="M278.865 19.5h-1.168l-4.75-7.56h-.047l.042.69c.016.254.027.527.035.819.012.287.018.58.018.88V19.5h-.941v-9h1.162l4.731 7.535h.042a157.13 157.13 0 0 1-.066-1.465 33.296 33.296 0 0 1-.012-.856V10.5h.954v9zM288.054 19.5h-1.168l-4.75-7.56h-.047l.041.69c.016.254.028.527.036.819.012.287.018.58.018.88V19.5h-.941v-9h1.162l4.731 7.535h.042a158.366 158.366 0 0 1-.066-1.465 33.065 33.065 0 0 1-.012-.856V10.5h.954v9z"/><text x="190.941" y="19.75" style="font-family:&quot;Open Sans&quot;,sans-serif;font-size:13px;fill:#999">VARCHAR(8)</text></svg><svg x="657.446"><path fill="#222" d="M0 0h302.054v33H0z"/><text x="10" y="19.75" style="font-family:&quot;Open Sans&quot;,sans-serif;font-size:13px;font-weight:700;fill:#fff">INCLURE</text></svg><svg x="657.446" y="33"><path fill="#37383F" d="M0 0h302.054v33H0z"/><text x="10" y="19.75" style="font-family:&quot;Open Sans&quot;,sans-serif;font-size:13px;font-weight:700;fill:#d7d7d9">Num. commande</text><path fill="#D7D7D9" d="M132.09 10.734a2.953 2.953 0 1 1-1.1 5.695l-.868.868h-.656v.984h-.985v.985h-1.968v-1.97l2.751-2.75a2.953 2.953 0 0 1 2.827-3.81zm0-.984a3.937 3.937 0 0 0-3.9 4.477l-2.518 2.518a.493.493 0 0 0-.144.348v2.665c0 .272.22.492.493.492h2.953c.271 0 .492-.22.492-.492v-.492h.492c.272 0 .492-.22.492-.493v-.41l.822-.823a3.937 3.937 0 1 0 .82-7.79zm0 2.953a.984.984 0 1 0 1.97 0 .984.984 0 0 0-1.97 0z"/><path fill="#666" d="M270.054 7h20s2 0 2 2v12s0 2-2 2h-20s-2 0-2-2V9s0-2 2-2"/><path fill="#D7D7D9" d="M278.865 19.5h-1.168l-4.75-7.56h-.047l.042.69c.016.254.027.527.035.819.012.287.018.58.018.88V19.5h-.941v-9h1.162l4.731 7.535h.042a157.13 157.13 0 0 1-.066-1.465 33.296 33.296 0 0 1-.012-.856V10.5h.954v9zM288.054 19.5h-1.168l-4.75-7.56h-.047l.041.69c.016.254.028.527.036.819.012.287.018.58.018.88V19.5h-.941v-9h1.162l4.731 7.535h.042a158.366 158.366 0 0 1-.066-1.465 33.065 33.065 0 0 1-.012-.856V10.5h.954v9z"/><text x="186.028" y="19.75" style="font-family:&quot;Open Sans&quot;,sans-serif;font-size:13px;font-weight:700;fill:#999">VARCHAR(8)</text></svg><svg x="657.446" y="66"><path fill="#37383F" d="M0 0h302.054v33H0z"/><text x="10" y="19.75" style="font-family:&quot;Open Sans&quot;,sans-serif;font-size:13px;font-weight:700;fill:#d7d7d9">Réf. produit</text><path fill="#D7D7D9" d="M97.502 10.734a2.953 2.953 0 1 1-1.1 5.695l-.868.868h-.657v.984h-.984v.985h-1.969v-1.97l2.752-2.75a2.953 2.953 0 0 1 2.826-3.81zm0-.984a3.937 3.937 0 0 0-3.9 4.477l-2.518 2.518a.493.493 0 0 0-.144.348v2.665c0 .272.22.492.492.492h2.953c.272 0 .492-.22.492-.492v-.492h.493c.271 0 .492-.22.492-.493v-.41l.821-.823a3.937 3.937 0 1 0 .82-7.79zm0 2.953a.984.984 0 1 0 1.97 0 .984.984 0 0 0-1.97 0z"/><path fill="#666" d="M270.054 7h20s2 0 2 2v12s0 2-2 2h-20s-2 0-2-2V9s0-2 2-2"/><path fill="#D7D7D9" d="M278.865 19.5h-1.168l-4.75-7.56h-.047l.042.69c.016.254.027.527.035.819.012.287.018.58.018.88V19.5h-.941v-9h1.162l4.731 7.535h.042a157.13 157.13 0 0 1-.066-1.465 33.296 33.296 0 0 1-.012-.856V10.5h.954v9zM288.054 19.5h-1.168l-4.75-7.56h-.047l.041.69c.016.254.028.527.036.819.012.287.018.58.018.88V19.5h-.941v-9h1.162l4.731 7.535h.042a158.366 158.366 0 0 1-.066-1.465 33.065 33.065 0 0 1-.012-.856V10.5h.954v9z"/><text x="186.028" y="19.75" style="font-family:&quot;Open Sans&quot;,sans-serif;font-size:13px;font-weight:700;fill:#999">VARCHAR(8)</text></svg><svg x="657.446" y="99"><path fill="#37383F" d="M0 0h302.054v33H0z"/><text x="10" y="19.75" style="font-family:&quot;Open Sans&quot;,sans-serif;font-size:13px;fill:#d7d7d9">Quantité</text><text x="239.552" y="19.75" style="font-family:&quot;Open Sans&quot;,sans-serif;font-size:13px;fill:#999">INTEGER</text></svg><svg x="1009.5"><path fill="#222" d="M0 0h267.465v33H0z"/><text x="10" y="19.75" style="font-family:&quot;Open Sans&quot;,sans-serif;font-size:13px;font-weight:700;fill:#fff">PRODUIT</text></svg><svg x="1009.5" y="33"><path fill="#37383F" d="M0 0h267.465v33H0z"/><text x="10" y="19.75" style="font-family:&quot;Open Sans&quot;,sans-serif;font-size:13px;font-weight:700;fill:#d7d7d9">Réf. produit</text><path fill="#D7D7D9" d="M97.502 10.734a2.953 2.953 0 1 1-1.1 5.695l-.868.868h-.657v.984h-.984v.985h-1.969v-1.97l2.752-2.75a2.953 2.953 0 0 1 2.826-3.81zm0-.984a3.937 3.937 0 0 0-3.9 4.477l-2.518 2.518a.493.493 0 0 0-.144.348v2.665c0 .272.22.492.492.492h2.953c.272 0 .492-.22.492-.492v-.492h.493c.271 0 .492-.22.492-.493v-.41l.821-.823a3.937 3.937 0 1 0 .82-7.79zm0 2.953a.984.984 0 1 0 1.97 0 .984.984 0 0 0-1.97 0z"/><path fill="#666" d="M235.465 7h20s2 0 2 2v12s0 2-2 2h-20s-2 0-2-2V9s0-2 2-2"/><path fill="#D7D7D9" d="M244.277 19.5h-1.168l-4.75-7.56h-.047c.011.202.025.431.041.69.016.254.028.527.036.819.012.287.018.58.018.88V19.5h-.942v-9h1.162l4.732 7.535h.042a157.13 157.13 0 0 1-.066-1.465 33.296 33.296 0 0 1-.012-.856V10.5h.954v9zM253.465 19.5h-1.168l-4.749-7.56h-.048l.042.69c.016.254.028.527.036.819.012.287.018.58.018.88V19.5h-.942v-9h1.162l4.732 7.535h.041a158.366 158.366 0 0 1-.065-1.465 33.065 33.065 0 0 1-.012-.856V10.5h.953v9z"/><text x="151.44" y="19.75" style="font-family:&quot;Open Sans&quot;,sans-serif;font-size:13px;font-weight:700;fill:#999">VARCHAR(8)</text></svg><svg x="1009.5" y="66"><path fill="#37383F" d="M0 0h267.465v33H0z"/><text x="10" y="19.75" style="font-family:&quot;Open Sans&quot;,sans-serif;font-size:13px;fill:#d7d7d9">Libellé</text><text x="176.92" y="19.75" style="font-family:&quot;Open Sans&quot;,sans-serif;font-size:13px;fill:#999">VARCHAR(50)</text></svg><svg x="1009.5" y="99"><path fill="#37383F" d="M0 0h267.465v33H0z"/><text x="10" y="19.75" style="font-family:&quot;Open Sans&quot;,sans-serif;font-size:13px;fill:#d7d7d9">Prix unitaire</text><text x="168.96" y="19.75" style="font-family:&quot;Open Sans&quot;,sans-serif;font-size:13px;fill:#999">DECIMAL(10,2)</text></svg></svg>