<?xml version="1.0" standalone="no"?>
<svg xmlns="http://www.w3.org/2000/svg" xmlns:xlink="http://www.w3.org/1999/xlink" width="630" height="128" stroke-linecap="round"><rect width="630" height="128" fill="white"/><g><path d="M-1.06 -1.596 L630.807 -1.855 L631.901 128.197 L-1.478 128.266" stroke="none" stroke-width="0" fill="rgb(255, 255, 255)"/><path d="M-0.45 -0.202 C233.615 2.212, 466.516 1.88, 630.477 -0.088 M629.047 1.082 C628.543 31.435, 630.025 67.433, 631.528 128.898 M630.283 127.683 C430.049 128.725, 229.418 128.444, -0.034 127.899 M-1.961 127.951 C1.353 99.566, 0.911 68.901, 0.779 0.829" stroke="rgb(255, 255, 255)" stroke-width="1" fill="none"/></g><g><path d="M51.697 64.145 C92.389 64.752, 136.462 66.606, 165.823 63.426 M50.088 64.972 C76.624 63.996, 99.509 64.96, 165.945 64.762" stroke="rgb(0, 0, 0)" stroke-width="1" fill="none"/></g><g><path d="M300.519 65.491 C268.152 61.331, 238.876 61.747, 165.177 64.167" stroke="rgb(0, 0, 0)" stroke-width="1" fill="none"/></g><g><path d="M195.556 36.609 L202.609 38.218 L208.519 43.427 L208.238 63.724 L121.478 64.623 L123.543 44.204 L126.83 37.108 L135.163 35.512" stroke="none" stroke-width="0" fill="rgb(255, 255, 255)"/><path d="M196 35 M196 35 C202.002 35.769, 209.069 42.084, 210 49 M210 49 C210.7 55.434, 210.666 58.964, 210 63 M210 63 C173.737 64.083, 138.716 63.814, 122 63 M122 63 C120.555 60.299, 123.278 57.736, 122 49 M122 49 C120.165 41.783, 126.999 33.429, 136 35" stroke="rgb(255, 255, 255)" stroke-width="0" fill="none"/></g><g><path d="M211.476 63.191 L210.074 85.862 L203.543 89.393 L196.938 93.355 L132.416 94.579 L128.836 91.229 L121.548 82.995 L123.662 61.375 L87.248 62.767" stroke="none" stroke-width="0" fill="rgb(255, 255, 255)"/><path d="M210 63 M210 63 C208.487 67.033, 208.421 73.127, 210 79 M210 63 C210.751 68.303, 210.696 73.955, 210 79 M210 79 C208.301 85.44, 203.487 94.76, 196 93 M210 79 C208.622 85.621, 203.81 94.128, 196 93 M196 93 C177.891 94.927, 161.953 91.782, 136 93 M196 93 C180.574 94.158, 165.119 92.859, 136 93 M136 93 C130.08 94.14, 121.341 85.708, 122 79 M136 93 C125.981 92.938, 123.828 85.602, 122 79 M122 79 C121.581 76.22, 120.879 69.731, 122 63 M122 79 C122.009 72.828, 121.889 67.365, 122 63 M122 63 C113.395 63.53, 103.045 61.87, 88 63 M122 63 C107.973 62.917, 96.341 63.343, 88 63" stroke="rgb(255, 255, 255)" stroke-width="0" fill="none"/></g><g><path d="M136 35 M136 35 C153.497 34.938, 167.845 35.416, 196 35 M136 35 C155.221 34.433, 175.12 35.781, 196 35 M196 35 C202.146 36.493, 211.287 43.12, 210 49 M196 35 C202.542 33.407, 208.747 43.519, 210 49 M210 49 C210.481 57.206, 208.02 70.025, 210 79 M210 49 C209.684 57.298, 208.847 65.909, 210 79 M210 79 C209.873 86.65, 202.305 93.46, 196 93 M210 79 C210.834 85.486, 202.169 93.839, 196 93 M196 93 C179.189 94.481, 165.509 91.996, 136 93 M196 93 C172.924 92.495, 150.516 92.799, 136 93 M136 93 C127.072 92.697, 122.644 86.077, 122 79 M136 93 C129.609 93.024, 119.757 84.957, 122 79 M122 79 C122.298 67.592, 122.641 56.771, 122 49 M122 79 C121.232 69.484, 122.941 58.788, 122 49 M122 49 C121.673 42.206, 130.968 36.971, 136 35 M122 49 C122.246 41.614, 127.974 33.677, 136 35 M136 35 C136 35, 136 35, 136 35 M136 35 C136 35, 136 35, 136 35" stroke="rgb(0, 0, 0)" stroke-width="1.5" fill="none"/></g><g><path d="M121.193 61.628 C152.435 65.545, 184.502 64.06, 209.106 62.766 M122.942 63.972 C143.651 61.991, 165.153 63.049, 209.037 63.469" stroke="rgb(0, 0, 0)" stroke-width="1.5" fill="none"/></g><g class="text-container"><text x="129" y="56.3" fill="rgb(0, 0, 0)" font-family="Copperplate" font-size="18" style="font-style: normal;font-weight: 400;font-size: 18px;font-family: Comic Sans MS, cursive;" stroke="none" stroke-width="1px" text-anchor="start" dominant-baseline="auto">PASSER</text></g><g class="text-container"><text x="98" y="80" fill="rgb(0, 0, 0)" font-family="Futura" font-size="11" style="font-style: normal;font-weight: 400;font-size: 11px;font-family: Comic Sans MS, cursive;" stroke="none" stroke-width="1px" text-anchor="start" dominant-baseline="auto">0,N</text></g><g class="text-container"><text x="216" y="80" fill="rgb(0, 0, 0)" font-family="Futura" font-size="11" style="font-style: normal;font-weight: 400;font-size: 11px;font-family: Comic Sans MS, cursive;" stroke="none" stroke-width="1px" text-anchor="start" dominant-baseline="auto">1,1</text></g><g><path d="M300.562 65.477 C339.607 63.146, 376.165 64.677, 444.897 65.905" stroke="rgb(0, 0, 0)" stroke-width="1" fill="none"/></g><g><path d="M572.623 65.257 C524.999 64.389, 479.587 64.76, 442.107 65.013" stroke="rgb(0, 0, 0)" stroke-width="1" fill="none"/></g><g><path d="M478.351 33.689 L484.4 38.972 L492.813 44.122 L491.981 62.833 L394.357 63.181 L395.762 44.53 L400.912 36.699 L407.359 36.46" stroke="none" stroke-width="0" fill="rgb(255, 255, 255)"/><path d="M478 35 M478 35 C483.913 36.925, 490.198 40.144, 492 49 M492 49 C492.492 53.547, 492.902 58.636, 492 63 M492 63 C469.415 63.156, 448.864 63.365, 394 63 M394 63 C394.943 60.184, 395.295 56.07, 394 49 M394 49 C393.817 40.821, 399.396 36.593, 408 35" stroke="rgb(255, 255, 255)" stroke-width="0" fill="none"/></g><g><path d="M492.478 62.474 L492.846 84.672 L486.532 91.295 L479.512 93.415 L406.197 91.498 L400.789 93.092 L395.469 87.426 L395.48 82.962 L395.845 64.816 L99.821 62.689" stroke="none" stroke-width="0" fill="rgb(255, 255, 255)"/><path d="M492 63 M492 63 C491.024 68.796, 490.863 74.188, 492 79 M492 79 C491.49 86.93, 486.582 93.977, 478 93 M478 93 C453.21 92.372, 432.799 92.606, 408 93 M408 93 C399.452 92.017, 394.957 85.601, 394 79 M394 79 C393.653 76.94, 393.416 71.958, 394 63 M394 63 C285.97 62.715, 175.752 63.633, 98 63" stroke="rgb(255, 255, 255)" stroke-width="0" fill="none"/></g><g><path d="M408 35 M408 35 C431.553 36.815, 452.664 36.366, 478 35 M408 35 C424.435 35.169, 440.475 34.533, 478 35 M478 35 C486.675 35.857, 490.244 40.772, 492 49 M478 35 C486.477 36.278, 491.609 41.154, 492 49 M492 49 C493.592 57.919, 491.442 65.12, 492 79 M492 49 C491.864 58.772, 492.109 69.598, 492 79 M492 79 C492.28 86.31, 483.712 91.361, 478 93 M492 79 C490.193 88.923, 483.367 93.376, 478 93 M478 93 C460.219 95.079, 443.921 95.26, 408 93 M478 93 C460.928 92.686, 445.273 94.132, 408 93 M408 93 C398.3 93.733, 395.383 86.865, 394 79 M408 93 C400.912 93.552, 392.173 85.087, 394 79 M394 79 C393.987 67.089, 394.255 58.047, 394 49 M394 79 C393.636 72.825, 393.463 65.524, 394 49 M394 49 C395.577 41.871, 401.492 33.405, 408 35 M394 49 C394.39 41.224, 401.101 35.781, 408 35 M408 35 C408 35, 408 35, 408 35 M408 35 C408 35, 408 35, 408 35" stroke="rgb(0, 0, 0)" stroke-width="1.5" fill="none"/></g><g><path d="M395.081 63.376 C417.011 62.843, 443.388 62.726, 492.207 64.937" stroke="rgb(0, 0, 0)" stroke-width="1.5" fill="none"/></g><g class="text-container"><text x="402" y="56.3" fill="rgb(0, 0, 0)" font-family="Copperplate" font-size="18" style="font-style: normal;font-weight: 400;font-size: 18px;font-family: Comic Sans MS, cursive;" stroke="none" stroke-width="1px" text-anchor="start" dominant-baseline="auto">INCLURE</text></g><g class="text-container"><text x="401" y="81.1" fill="rgb(0, 0, 0)" font-family="Gill Sans" font-size="15" style="font-style: normal;font-weight: 400;font-size: 15px;font-family: Comic Sans MS, cursive;" stroke="none" stroke-width="1px" text-anchor="start" dominant-baseline="auto">Quantité</text></g><g class="text-container"><text x="370" y="80" fill="rgb(0, 0, 0)" font-family="Futura" font-size="11" style="font-style: normal;font-weight: 400;font-size: 11px;font-family: Comic Sans MS, cursive;" stroke="none" stroke-width="1px" text-anchor="start" dominant-baseline="auto">1,N</text></g><g class="text-container"><text x="497" y="80" fill="rgb(0, 0, 0)" font-family="Futura" font-size="11" style="font-style: normal;font-weight: 400;font-size: 11px;font-family: Comic Sans MS, cursive;" stroke="none" stroke-width="1px" text-anchor="start" dominant-baseline="auto">0,N</text></g><g><path d="M8.96 7.153 L94.716 10.095 L94.008 38.657 L8.375 40.066" stroke="none" stroke-width="0" fill="rgb(255, 255, 255)"/><path d="M7.202 10.549 C36.142 7.068, 66.716 9.212, 91.421 9.104 M92.176 10.2 C93.443 15.977, 92.609 25.225, 92.089 37.051 M93.239 37.228 C74.171 38.274, 56.708 40.125, 10.469 37.176 M8.833 39.125 C10.266 27.637, 7.368 19.29, 9.909 7.299" stroke="rgb(255, 255, 255)" stroke-width="1" fill="none"/></g><g><path d="M10.525 40.838 L93.856 39.239 L92.326 118.855 L9.475 120.149" stroke="none" stroke-width="0" fill="rgb(255, 255, 255)"/><path d="M7.103 39.353 C29.339 41.161, 46.963 37.674, 94.408 39.468 M91.468 37.043 C94.222 65.024, 94.27 95.25, 92.611 117.166 M91.929 118.753 C60.914 116.274, 29.746 119.832, 10.964 120.435 M7.298 119.547 C8.234 97.553, 6.525 72.15, 9.517 38.831" stroke="rgb(255, 255, 255)" stroke-width="1" fill="none"/></g><g><path d="M10.753 10.159 C26.413 7.289, 47.998 9.089, 91.852 7.81 M92.643 8.241 C90.868 50.769, 94.441 93.47, 94.328 117.263 M93.235 118.895 C59.004 117.811, 25.289 119.37, 8.563 118.974 M9.994 119.726 C9.521 88.381, 10.837 56.907, 9.548 7.081" stroke="rgb(0, 0, 0)" stroke-width="1.5" fill="none"/></g><g><path d="M10.871 40.974 C28.412 40.241, 49.359 39.799, 93.409 40.412" stroke="rgb(0, 0, 0)" stroke-width="1.5" fill="none"/></g><g class="text-container"><text x="17" y="30.3" fill="rgb(0, 0, 0)" font-family="Copperplate" font-size="18" style="font-style: normal;font-weight: 400;font-size: 18px;font-family: Comic Sans MS, cursive;" stroke="none" stroke-width="1px" text-anchor="start" dominant-baseline="auto">CLIENT</text></g><g class="text-container"><text x="17" y="56.1" fill="rgb(0, 0, 0)" font-family="Gill Sans" font-size="15" style="font-style: normal;font-weight: 400;font-size: 15px;font-family: Comic Sans MS, cursive;" stroke="none" stroke-width="1px" text-anchor="start" dominant-baseline="auto">Réf. client</text></g><g><path d="M16.66 57.409 C33.161 57.527, 51.192 58.175, 79.64 58.627" stroke="rgb(0, 0, 0)" stroke-width="1" fill="none"/></g><g class="text-container"><text x="17" y="73.1" fill="rgb(0, 0, 0)" font-family="Gill Sans" font-size="15" style="font-style: normal;font-weight: 400;font-size: 15px;font-family: Comic Sans MS, cursive;" stroke="none" stroke-width="1px" text-anchor="start" dominant-baseline="auto">Nom</text></g><g class="text-container"><text x="17" y="90.1" fill="rgb(0, 0, 0)" font-family="Gill Sans" font-size="15" style="font-style: normal;font-weight: 400;font-size: 15px;font-family: Comic Sans MS, cursive;" stroke="none" stroke-width="1px" text-anchor="start" dominant-baseline="auto">Prénom</text></g><g class="text-container"><text x="17" y="107" fill="rgb(0, 0, 0)" font-family="Gill Sans" font-size="15" style="font-style: normal;font-weight: 400;font-size: 15px;font-family: Comic Sans MS, cursive;" stroke="none" stroke-width="1px" text-anchor="start" dominant-baseline="auto">Adresse</text></g><g><path d="M239.261 15.094 L366.844 16.542 L366.563 47.157 L239.535 48.833" stroke="none" stroke-width="0" fill="rgb(255, 255, 255)"/><path d="M239.046 16.407 C288.214 14.133, 336.48 15.047, 365.075 17.324 M366.696 18.306 C363.584 25.422, 366.54 38.785, 363.614 45.378 M366.325 47.212 C320.69 47.103, 278.615 45.409, 240.347 45.82 M238.673 46.131 C239.847 41.096, 240.118 33.818, 240.501 17.638" stroke="rgb(255, 255, 255)" stroke-width="1" fill="none"/></g><g><path d="M237.962 48.413 L363.283 46.365 L363.859 110.576 L240.593 110.739" stroke="none" stroke-width="0" fill="rgb(255, 255, 255)"/><path d="M239.034 48.104 C279.465 44.149, 322.052 44.994, 364.882 46.428 M365.02 47.661 C363.845 67.607, 365.09 89.057, 365.941 110.144 M366.534 112.884 C325.278 111.17, 288.257 112.956, 240.21 110.825 M238.392 110.867 C240.73 91.114, 238.553 67.806, 239.251 45.417" stroke="rgb(255, 255, 255)" stroke-width="1" fill="none"/></g><g><path d="M238.556 18.508 C271.064 16.692, 305.093 20.161, 365.262 17.98 M366.251 15.23 C363.926 45.068, 366.384 72.592, 363.487 112.476 M364.738 112.862 C328.943 113.007, 293.287 111.438, 237.246 110.629 M238.881 111.999 C240.002 78.178, 238.206 42.083, 239.581 17.67" stroke="rgb(0, 0, 0)" stroke-width="1.5" fill="none"/></g><g><path d="M239.22 45.804 C286.398 45.673, 329.941 45.762, 363.246 47.509" stroke="rgb(0, 0, 0)" stroke-width="1.5" fill="none"/></g><g class="text-container"><text x="248" y="38.3" fill="rgb(0, 0, 0)" font-family="Copperplate" font-size="18" style="font-style: normal;font-weight: 400;font-size: 18px;font-family: Comic Sans MS, cursive;" stroke="none" stroke-width="1px" text-anchor="start" dominant-baseline="auto">COMMANDE</text></g><g class="text-container"><text x="247" y="64.1" fill="rgb(0, 0, 0)" font-family="Gill Sans" font-size="15" style="font-style: normal;font-weight: 400;font-size: 15px;font-family: Comic Sans MS, cursive;" stroke="none" stroke-width="1px" text-anchor="start" dominant-baseline="auto">Num. commande</text></g><g><path d="M247.605 68.479 C273.6 64.564, 297.264 67.773, 353.598 68.509 M247.435 67.973 C280.298 67.966, 312.409 68.226, 355.731 66.787" stroke="rgb(0, 0, 0)" stroke-width="1" fill="none"/></g><g class="text-container"><text x="247" y="81.1" fill="rgb(0, 0, 0)" font-family="Gill Sans" font-size="15" style="font-style: normal;font-weight: 400;font-size: 15px;font-family: Comic Sans MS, cursive;" stroke="none" stroke-width="1px" text-anchor="start" dominant-baseline="auto">Date</text></g><g class="text-container"><text x="247" y="98" fill="rgb(0, 0, 0)" font-family="Gill Sans" font-size="15" style="font-style: normal;font-weight: 400;font-size: 15px;font-family: Comic Sans MS, cursive;" stroke="none" stroke-width="1px" text-anchor="start" dominant-baseline="auto">Montant</text></g><g><path d="M521.609 15.515 L619.243 17.916 L621.674 47.446 L519.883 47.539" stroke="none" stroke-width="0" fill="rgb(255, 255, 255)"/><path d="M520.71 18.204 C551.417 16.818, 576.634 17.409, 619.747 15.916 M619.842 16.63 C619.876 29.011, 619.342 41.94, 622.052 47.198 M619.683 47.639 C582.446 48.545, 544.007 47.382, 521.441 46.848 M521.836 47.333 C519.049 38.989, 520.712 29.115, 520.366 15.106" stroke="rgb(255, 255, 255)" stroke-width="1" fill="none"/></g><g><path d="M521.309 47.437 L621.522 48.875 L621.917 109.249 L521.829 112.423" stroke="none" stroke-width="0" fill="rgb(255, 255, 255)"/><path d="M520.848 46.985 C552.192 46.115, 588.403 46.916, 620.347 47.429 M619.275 47.509 C620.808 70.152, 621.078 95.987, 620.361 112.245 M621.298 110.569 C585.122 111.089, 546.607 111.553, 520.92 109.85 M520.408 110.244 C520.37 94.495, 521.257 73.795, 522.043 46.377" stroke="rgb(255, 255, 255)" stroke-width="1" fill="none"/></g><g><path d="M521.02 18.627 C543.436 15.106, 570.824 17.533, 619.032 16.3 M622.083 15.369 C620.045 43.515, 619.891 66.544, 622.746 112.075 M619.778 110.403 C582.734 108.883, 543.821 111.46, 521.366 112.967 M519.633 110.691 C521.293 80.501, 520.685 48.732, 522.006 17.951" stroke="rgb(0, 0, 0)" stroke-width="1.5" fill="none"/></g><g><path d="M522.468 46.9 C541.266 48.089, 560.203 45.574, 621.612 46.8" stroke="rgb(0, 0, 0)" stroke-width="1.5" fill="none"/></g><g class="text-container"><text x="530" y="38.3" fill="rgb(0, 0, 0)" font-family="Copperplate" font-size="18" style="font-style: normal;font-weight: 400;font-size: 18px;font-family: Comic Sans MS, cursive;" stroke="none" stroke-width="1px" text-anchor="start" dominant-baseline="auto">PRODUIT</text></g><g class="text-container"><text x="529" y="64.1" fill="rgb(0, 0, 0)" font-family="Gill Sans" font-size="15" style="font-style: normal;font-weight: 400;font-size: 15px;font-family: Comic Sans MS, cursive;" stroke="none" stroke-width="1px" text-anchor="start" dominant-baseline="auto">Réf. produit</text></g><g><path d="M530.496 68.465 C549.811 67.706, 567.23 67.336, 603.83 68.202" stroke="rgb(0, 0, 0)" stroke-width="1" fill="none"/></g><g class="text-container"><text x="529" y="81.1" fill="rgb(0, 0, 0)" font-family="Gill Sans" font-size="15" style="font-style: normal;font-weight: 400;font-size: 15px;font-family: Comic Sans MS, cursive;" stroke="none" stroke-width="1px" text-anchor="start" dominant-baseline="auto">Libellé</text></g><g class="text-container"><text x="529" y="98" fill="rgb(0, 0, 0)" font-family="Gill Sans" font-size="15" style="font-style: normal;font-weight: 400;font-size: 15px;font-family: Comic Sans MS, cursive;" stroke="none" stroke-width="1px" text-anchor="start" dominant-baseline="auto">Prix unitaire</text></g></svg>