<svg xmlns="http://www.w3.org/2000/svg" width="670" height="412" viewBox="0 0 670 412">
<rect id="frame" x="0" y="0" width="670" height="412" fill="none" stroke="none" stroke-width="0"/>

<!-- Association Porttitor -->
<g class="page_0_vq2zByog diagram_page" visibility="visible">
	<line x1="189" y1="73" x2="325" y2="73" stroke="#000" stroke-width="1"/>
	<text x="243" y="89" fill="#000" font-family="Futura" font-size="11">1,N</text>
	<line x1="325" y1="190" x2="325" y2="73" stroke="#000" stroke-width="1"/>
	<text x="330" y="144" fill="#000" font-family="Futura" font-size="11">1,N</text>
	<g>
		<path d="M363 44 a14 14 90 0 1 14 14 V72 h-104 V58 a14 14 90 0 1 14 -14" fill="#FFF" stroke="#FFF" stroke-width="0"/>
		<path d="M377 72 v16 a14 14 90 0 1 -14 14 H287 a14 14 90 0 1 -14 -14 V72 H104" fill="#FFF" stroke="#FFF" stroke-width="0"/>
		<rect x="273" y="44" width="104" height="58" fill="none" rx="14" stroke="#000" stroke-width="1.5"/>
		<line x1="273" y1="72" x2="377" y2="72" stroke="#000" stroke-width="1.5"/>
		<text x="280" y="65.3" fill="#000" font-family="Copperplate" font-size="18">Porttitor</text>
	</g>
</g>

<!-- Association Ultricies -->
<g class="page_0_vq2zByog diagram_page" visibility="visible">
	<line x1="189" y1="73" x2="59" y2="190" stroke="#000" stroke-width="1"/>
	<text x="117" y="115.65" fill="#000" font-family="Futura" font-size="11">1,1</text>
	<line x1="189" y1="290" x2="59" y2="190" stroke="#000" stroke-width="1"/>
	<text x="120" y="265.61" fill="#000" font-family="Futura" font-size="11">0,N</text>
	<g>
		<path d="M95 161 a14 14 90 0 1 14 14 V189 h-100 V175 a14 14 90 0 1 14 -14" fill="#FFF" stroke="#FFF" stroke-width="0"/>
		<path d="M109 189 v16 a14 14 90 0 1 -14 14 H23 a14 14 90 0 1 -14 -14 V189 H100" fill="#FFF" stroke="#FFF" stroke-width="0"/>
		<rect x="9" y="161" width="100" height="58" fill="none" rx="14" stroke="#000" stroke-width="1.5"/>
		<line x1="9" y1="189" x2="109" y2="189" stroke="#000" stroke-width="1.5"/>
		<text x="16" y="182.3" fill="#000" font-family="Copperplate" font-size="18">Ultricies</text>
	</g>
</g>

<!-- Association Imperdiet -->
<g class="page_0_vq2zByog diagram_page" visibility="visible">
	<line x1="189" y1="290" x2="189" y2="190" stroke="#000" stroke-width="1"/>
	<text x="194" y="235" fill="#000" font-family="Futura" font-size="11">0,N</text>
	<line x1="325" y1="190" x2="189" y2="190" stroke="#000" stroke-width="1"/>
	<text x="245" y="206" fill="#000" font-family="Futura" font-size="11">0,N</text>
	<line x1="325" y1="373" x2="189" y2="190" stroke="#000" stroke-width="1"/>
	<text x="302.09" y="335" fill="#000" font-family="Futura" font-size="11">0,N</text>
	<g>
		<path d="M226 161 a14 14 90 0 1 14 14 V189 h-102 V175 a14 14 90 0 1 14 -14" fill="#FFF" stroke="#FFF" stroke-width="0"/>
		<path d="M240 189 v16 a14 14 90 0 1 -14 14 H152 a14 14 90 0 1 -14 -14 V189 H102" fill="#FFF" stroke="#FFF" stroke-width="0"/>
		<rect x="138" y="161" width="102" height="58" fill="none" rx="14" stroke="#000" stroke-width="1.5"/>
		<line x1="138" y1="189" x2="240" y2="189" stroke="#000" stroke-width="1.5"/>
		<text x="146" y="182.3" fill="#000" font-family="Copperplate" font-size="18">Imperdiet</text>
	</g>
</g>

<!-- Association Mollis -->
<g class="page_0_vq2zByog diagram_page" visibility="visible">
	<path d="M325 190 C372.67 158 419 158 464 190" fill="none" stroke="#000" stroke-width="1"/>
	<text x="386" y="183" fill="#000" font-family="Futura" font-size="11">0,N</text>
	<path d="M325 190 C372.67 222 419 222 464 190" fill="none" stroke="#000" stroke-width="1"/>
	<text x="386" y="205" fill="#000" font-family="Futura" font-size="11">0,N</text>
	<g>
		<path d="M489 161 a14 14 90 0 1 14 14 V189 h-78 V175 a14 14 90 0 1 14 -14" fill="#FFF" stroke="#FFF" stroke-width="0"/>
		<path d="M503 189 v16 a14 14 90 0 1 -14 14 H439 a14 14 90 0 1 -14 -14 V189 H78" fill="#FFF" stroke="#FFF" stroke-width="0"/>
		<rect x="425" y="161" width="78" height="58" fill="none" rx="14" stroke="#000" stroke-width="1.5"/>
		<line x1="425" y1="189" x2="503" y2="189" stroke="#000" stroke-width="1.5"/>
		<text x="433" y="182.3" fill="#000" font-family="Copperplate" font-size="18">Mollis</text>
	</g>
</g>

<!-- Association Pharetra -->
<g class="page_0_vq2zByog diagram_page" visibility="visible">
	<line x1="325" y1="190" x2="325" y2="290" stroke="#000" stroke-width="1"/>
	<text x="301" y="244" fill="#000" font-family="Futura" font-size="11">0,N</text>
	<line x1="325" y1="373" x2="325" y2="290" stroke="#000" stroke-width="1"/>
	<text x="330" y="335" fill="#000" font-family="Futura" font-size="11">0,N</text>
	<line x1="464" y1="290" x2="325" y2="290" stroke="#000" stroke-width="1"/>
	<text x="380" y="306" fill="#000" font-family="Futura" font-size="11">0,N</text>
	<g>
		<path d="M361 261 a14 14 90 0 1 14 14 V289 h-100 V275 a14 14 90 0 1 14 -14" fill="#FFF" stroke="#FFF" stroke-width="0"/>
		<path d="M375 289 v16 a14 14 90 0 1 -14 14 H289 a14 14 90 0 1 -14 -14 V289 H100" fill="#FFF" stroke="#FFF" stroke-width="0"/>
		<rect x="275" y="261" width="100" height="58" fill="none" rx="14" stroke="#000" stroke-width="1.5"/>
		<line x1="275" y1="289" x2="375" y2="289" stroke="#000" stroke-width="1.5"/>
		<text x="282" y="282.3" fill="#000" font-family="Copperplate" font-size="18">Pharetra</text>
		<text x="282" y="307.1" fill="#000" font-family="Gill Sans" font-size="15">massa</text>
	</g>
</g>

<!-- Association adipiscing -->
<g class="page_0_vq2zByog diagram_page" visibility="visible">
	<path d="M325 190 C314.2 220.45 408.2 253.79 607 290" fill="none" stroke="#000" stroke-width="1"/>
	<text x="386" y="230.77" fill="#000" font-family="Futura" font-size="11">0,N</text>
	<line x1="464" y1="290" x2="607" y2="290" stroke="#000" stroke-width="1"/>
	<text x="529" y="306" fill="#000" font-family="Futura" font-size="11">0,N</text>
	<line x1="325" y1="373" x2="607" y2="290" stroke="#000" stroke-width="1"/>
	<text x="363" y="377.0" fill="#000" font-family="Futura" font-size="11">0,N</text>
	<g>
		<path d="M647 261 a14 14 90 0 1 14 14 V289 h-108 V275 a14 14 90 0 1 14 -14" fill="#FFF" stroke="#FFF" stroke-width="0"/>
		<path d="M661 289 v16 a14 14 90 0 1 -14 14 H567 a14 14 90 0 1 -14 -14 V289 H108" fill="#FFF" stroke="#FFF" stroke-width="0"/>
		<rect x="553" y="261" width="108" height="58" fill="none" rx="14" stroke="#000" stroke-width="1.5"/>
		<line x1="553" y1="289" x2="661" y2="289" stroke="#000" stroke-width="1.5"/>
		<text x="561" y="282.3" fill="#000" font-family="Copperplate" font-size="18">adipiscing</text>
	</g>
</g>

<!-- Entity Rhoncus -->
<g class="page_0_vq2zByog diagram_page" visibility="visible">
	<g>
		<rect x="140" y="9" width="98" height="30" fill="#FFF" stroke="#FFF" stroke-width="0" opacity="1"/>
		<rect x="140" y="39" width="98" height="98" fill="#FFF" stroke="#FFF" stroke-width="0" opacity="1"/>
		<rect x="140" y="9" width="98" height="128" fill="none" stroke="#000" stroke-width="1.5" opacity="1"/>
		<line x1="140" y1="39" x2="238" y2="39" stroke="#000" stroke-width="1.5"/>
	</g>
	<text x="149" y="30.3" fill="#000" font-family="Copperplate" font-size="18">Rhoncus</text>
	<text x="148" y="56.1" fill="#000" font-family="Gill Sans" font-size="15">dolor a</text>
	<line x1="148" y1="59" x2="194" y2="59" stroke="#000" stroke-width="1"/>
	<text x="148" y="73.1" fill="#000" font-family="Gill Sans" font-size="15">bibendum</text>
	<text x="148" y="90.1" fill="#000" font-family="Gill Sans" font-size="15">euismod</text>
	<text x="148" y="107" fill="#000" font-family="Gill Sans" font-size="15">consectetuer</text>
	<text x="148" y="124" fill="#000" font-family="Gill Sans" font-size="15">leo</text>
</g>

<!-- Entity Curabitur -->
<g class="page_0_vq2zByog diagram_page" visibility="visible">
	<g>
		<rect x="269" y="152" width="112" height="30" fill="#FFF" stroke="#FFF" stroke-width="0" opacity="1"/>
		<rect x="269" y="182" width="112" height="46" fill="#FFF" stroke="#FFF" stroke-width="0" opacity="1"/>
		<rect x="269" y="152" width="112" height="76" fill="none" stroke="#000" stroke-width="1.5" opacity="1"/>
		<line x1="269" y1="182" x2="381" y2="182" stroke="#000" stroke-width="1.5"/>
	</g>
	<text x="277" y="173.3" fill="#000" font-family="Copperplate" font-size="18">Curabitur</text>
	<text x="277" y="199.1" fill="#000" font-family="Gill Sans" font-size="15">blandit</text>
	<line x1="277" y1="202" x2="319" y2="202" stroke="#000" stroke-width="1"/>
	<text x="277" y="216.1" fill="#000" font-family="Gill Sans" font-size="15">suscipit</text>
</g>

<!-- Entity Egestas -->
<g class="page_0_vq2zByog diagram_page" visibility="visible">
	<g>
		<rect x="144" y="243" width="90" height="30" fill="#FFF" stroke="#FFF" stroke-width="0" opacity="1"/>
		<rect x="144" y="273" width="90" height="64" fill="#FFF" stroke="#FFF" stroke-width="0" opacity="1"/>
		<rect x="144" y="243" width="90" height="94" fill="none" stroke="#000" stroke-width="1.5" opacity="1"/>
		<line x1="144" y1="273" x2="234" y2="273" stroke="#000" stroke-width="1.5"/>
	</g>
	<text x="153" y="264.3" fill="#000" font-family="Copperplate" font-size="18">Egestas</text>
	<text x="152" y="290.1" fill="#000" font-family="Gill Sans" font-size="15">vivamus</text>
	<line x1="152" y1="293" x2="202" y2="293" stroke="#000" stroke-width="1"/>
	<text x="152" y="307.1" fill="#000" font-family="Gill Sans" font-size="15">semper</text>
	<text x="152" y="324" fill="#000" font-family="Gill Sans" font-size="15">aliquam</text>
</g>

<!-- Entity Vitae justo -->
<g class="page_0_vq2zByog diagram_page" visibility="visible">
	<g>
		<rect x="404" y="252" width="120" height="30" fill="#FFF" stroke="#FFF" stroke-width="0" opacity="1"/>
		<rect x="404" y="282" width="120" height="46" fill="#FFF" stroke="#FFF" stroke-width="0" opacity="1"/>
		<rect x="404" y="252" width="120" height="76" fill="none" stroke="#000" stroke-width="1.5" opacity="1"/>
		<line x1="404" y1="282" x2="524" y2="282" stroke="#000" stroke-width="1.5"/>
	</g>
	<text x="413" y="273.3" fill="#000" font-family="Copperplate" font-size="18">Vitae justo</text>
	<text x="412" y="299.1" fill="#000" font-family="Gill Sans" font-size="15">lobortis</text>
	<line x1="412" y1="302" x2="461" y2="302" stroke="#000" stroke-width="1"/>
	<text x="412" y="316.1" fill="#000" font-family="Gill Sans" font-size="15">purus</text>
</g>

<!-- Entity DATE -->
<g class="page_0_vq2zByog diagram_page" visibility="visible">
	<g>
		<rect x="292" y="343" width="66" height="30" fill="#FFF" stroke="#FFF" stroke-width="0" opacity="1"/>
		<rect x="292" y="373" width="66" height="30" fill="#FFF" stroke="#FFF" stroke-width="0" opacity="1"/>
		<rect x="292" y="343" width="66" height="60" fill="none" stroke="#000" stroke-width="1.5" opacity="1"/>
		<line x1="292" y1="373" x2="358" y2="373" stroke="#000" stroke-width="1.5"/>
	</g>
	<text x="301" y="364.3" fill="#000" font-family="Copperplate" font-size="18">DATE</text>
	<text x="300" y="390.1" fill="#000" font-family="Gill Sans" font-size="15">date</text>
	<line x1="300" y1="393" x2="328" y2="393" stroke="#000" stroke-width="1"/>
</g>
</svg>