<svg xmlns="http://www.w3.org/2000/svg" width="549" height="368" viewBox="0 0 549 368">
<rect id="frame" x="0" y="0" width="549" height="368" fill="none" stroke="none" stroke-width="0"/>

<!-- Association DF -->
<g class="page_0_8ppXCoOq diagram_page" visibility="visible">
	<path d="M494 120 C456.67 71.67 456.67 41.33 494 29" fill="none" stroke="#000" stroke-width="1"/>
	<text x="473" y="65" fill="#000" font-family="Futura" font-size="11">1,1</text>
	<path d="M494 120 C532.67 71.67 532.67 41.33 494 29" fill="none" stroke="#000" stroke-width="1"/>
	<text x="497" y="65" fill="#000" font-family="Futura" font-size="11">0,N</text>
	<g>
		<circle cx="494" cy="29" r="20" stroke="#000" stroke-width="1.5" fill="#FFF"/>
		<text x="481" y="33.8" fill="#000" font-family="Copperplate" font-size="18">DF</text>
	</g>
</g>

<!-- Association AMET -->
<g class="page_0_8ppXCoOq diagram_page" visibility="visible">
	<line x1="50" y1="229" x2="50" y2="120" stroke="#000" stroke-width="1"/>
	<text x="55" y="174" fill="#000" font-family="Futura" font-size="11">1,1</text>
	<polygon points="50 182 44 170 50 174 56 170" fill="#000" stroke-width="0"/>
	<line x1="200" y1="120" x2="50" y2="120" stroke="#000" stroke-width="1"/>
	<text x="93" y="136" fill="#000" font-family="Futura" font-size="11">0,1</text>
	<g>
		<path d="M73 91 a14 14 90 0 1 14 14 V119 h-74 V105 a14 14 90 0 1 14 -14" fill="#FFF" stroke="#FFF" stroke-width="0"/>
		<path d="M87 119 v16 a14 14 90 0 1 -14 14 H27 a14 14 90 0 1 -14 -14 V119 H74" fill="#FFF" stroke="#FFF" stroke-width="0"/>
		<rect x="13" y="91" width="74" height="58" fill="none" rx="14" stroke="#000" stroke-width="1.5"/>
		<line x1="13" y1="119" x2="87" y2="119" stroke="#000" stroke-width="1.5"/>
		<text x="25" y="112.3" fill="#000" font-family="Copperplate" font-size="18">AMET</text>
		<text x="20" y="137.1" fill="#000" font-family="Gill Sans" font-size="15">adipiscing</text>
	</g>
</g>

<!-- Association TORTOR -->
<g class="page_0_8ppXCoOq diagram_page" visibility="visible">
	<line x1="494" y1="120" x2="362" y2="120" stroke="#000" stroke-width="1"/>
	<text x="427" y="136" fill="#000" font-family="Futura" font-size="11">0,N</text>
	<line x1="362" y1="229" x2="362" y2="120" stroke="#000" stroke-width="1"/>
	<text x="367" y="174" fill="#000" font-family="Futura" font-size="11">1,1</text>
	<line x1="200" y1="120" x2="362" y2="120" stroke="#000" stroke-width="1"/>
	<text x="289" y="136" fill="#000" font-family="Futura" font-size="11">1,N</text>
	<g>
		<path d="M394 91 a14 14 90 0 1 14 14 V119 h-92 V105 a14 14 90 0 1 14 -14" fill="#FFF" stroke="#FFF" stroke-width="0"/>
		<path d="M408 119 v16 a14 14 90 0 1 -14 14 H330 a14 14 90 0 1 -14 -14 V119 H92" fill="#FFF" stroke="#FFF" stroke-width="0"/>
		<rect x="316" y="91" width="92" height="58" fill="none" rx="14" stroke="#000" stroke-width="1.5"/>
		<line x1="316" y1="119" x2="408" y2="119" stroke="#000" stroke-width="1.5"/>
		<text x="324" y="112.3" fill="#000" font-family="Copperplate" font-size="18">TORTOR</text>
		<text x="323" y="137.1" fill="#000" font-family="Gill Sans" font-size="15">nec</text>
	</g>
</g>

<!-- Association SOLLICITUDIN -->
<g class="page_0_8ppXCoOq diagram_page" visibility="visible">
	<line x1="200" y1="329" x2="200" y2="229" stroke="#000" stroke-width="1"/>
	<text x="205" y="291" fill="#000" font-family="Futura" font-size="11">0,N</text>
	<line x1="200" y1="120" x2="200" y2="229" stroke="#000" stroke-width="1"/>
	<text x="205" y="174" fill="#000" font-family="Futura" font-size="11">0,N</text>
	<line x1="50" y1="229" x2="200" y2="229" stroke="#000" stroke-width="1"/>
	<text x="96" y="245" fill="#000" font-family="Futura" font-size="11">0,N</text>
	<g>
		<path d="M259 200 a14 14 90 0 1 14 14 V228 h-146 V214 a14 14 90 0 1 14 -14" fill="#FFF" stroke="#FFF" stroke-width="0"/>
		<path d="M273 228 v16 a14 14 90 0 1 -14 14 H141 a14 14 90 0 1 -14 -14 V228 H146" fill="#FFF" stroke="#FFF" stroke-width="0"/>
		<rect x="127" y="200" width="146" height="58" fill="none" rx="14" stroke="#000" stroke-width="1.5"/>
		<line x1="127" y1="228" x2="273" y2="228" stroke="#000" stroke-width="1.5"/>
		<text x="135" y="221.3" fill="#000" font-family="Copperplate" font-size="18">SOLLICITUDIN</text>
		<text x="134" y="246.1" fill="#000" font-family="Gill Sans" font-size="15">lectus</text>
	</g>
</g>

<!-- Association SEMPER -->
<g class="page_0_8ppXCoOq diagram_page" visibility="visible">
	<line x1="494" y1="120" x2="494" y2="229" stroke="#000" stroke-width="1"/>
	<text x="499" y="183" fill="#000" font-family="Futura" font-size="11">0,N</text>
	<line x1="362" y1="229" x2="494" y2="229" stroke="#000" stroke-width="1"/>
	<text x="424" y="245" fill="#000" font-family="Futura" font-size="11">1,N</text>
	<g>
		<path d="M526 200 a14 14 90 0 1 14 14 V228 h-92 V214 a14 14 90 0 1 14 -14" fill="#FFF" stroke="#FFF" stroke-width="0"/>
		<path d="M540 228 v16 a14 14 90 0 1 -14 14 H462 a14 14 90 0 1 -14 -14 V228 H92" fill="#FFF" stroke="#FFF" stroke-width="0"/>
		<rect x="448" y="200" width="92" height="58" fill="none" rx="14" stroke="#000" stroke-width="1.5"/>
		<line x1="448" y1="228" x2="540" y2="228" stroke="#000" stroke-width="1.5"/>
		<text x="456" y="221.3" fill="#000" font-family="Copperplate" font-size="18">SEMPER</text>
	</g>
</g>

<!-- Association DF1 -->
<g class="page_0_8ppXCoOq diagram_page" visibility="visible">
	<line x1="50" y1="229" x2="50" y2="329" stroke="#000" stroke-width="1"/>
	<text x="55" y="292" fill="#000" font-family="Futura" font-size="11">1,1</text>
	<line x1="200" y1="329" x2="50" y2="329" stroke="#000" stroke-width="1"/>
	<text x="102" y="345" fill="#000" font-family="Futura" font-size="11">1,N</text>
	<g>
		<circle cx="50" cy="329" r="20" stroke="#000" stroke-width="1.5" fill="#FFF"/>
		<text x="37" y="333.8" fill="#000" font-family="Copperplate" font-size="18">DF</text>
	</g>
</g>

<!-- Association MAECENAS -->
<g class="page_0_8ppXCoOq diagram_page" visibility="visible">
	<path d="M362 229 C400.67 274.33 400.67 307.67 362 329" fill="none" stroke="#000" stroke-width="1"/>
	<text x="365" y="292" fill="#000" font-family="Futura" font-size="11">1,N</text>
	<path d="M362 229 C323.33 274.33 323.33 307.67 362 329" fill="none" stroke="#000" stroke-width="1"/>
	<text x="340" y="292" fill="#000" font-family="Futura" font-size="11">1,N</text>
	<g>
		<path d="M407 300 a14 14 90 0 1 14 14 V328 h-118 V314 a14 14 90 0 1 14 -14" fill="#FFF" stroke="#FFF" stroke-width="0"/>
		<path d="M421 328 v16 a14 14 90 0 1 -14 14 H317 a14 14 90 0 1 -14 -14 V328 H118" fill="#FFF" stroke="#FFF" stroke-width="0"/>
		<rect x="303" y="300" width="118" height="58" fill="none" rx="14" stroke="#000" stroke-width="1.5"/>
		<line x1="303" y1="328" x2="421" y2="328" stroke="#000" stroke-width="1.5"/>
		<text x="311" y="321.3" fill="#000" font-family="Copperplate" font-size="18">MAECENAS</text>
	</g>
</g>

<!-- Entity CONSECTETUER -->
<g class="page_0_8ppXCoOq diagram_page" visibility="visible">
	<g>
		<rect x="116" y="82" width="168" height="30" fill="#FFF" stroke="#FFF" stroke-width="0" opacity="1"/>
		<rect x="116" y="112" width="168" height="46" fill="#FFF" stroke="#FFF" stroke-width="0" opacity="1"/>
		<rect x="116" y="82" width="168" height="76" fill="none" stroke="#000" stroke-width="1.5" opacity="1"/>
		<line x1="116" y1="112" x2="284" y2="112" stroke="#000" stroke-width="1.5"/>
	</g>
	<text x="125" y="103.3" fill="#000" font-family="Copperplate" font-size="18">CONSECTETUER</text>
	<text x="124" y="129.1" fill="#000" font-family="Gill Sans" font-size="15">elit</text>
	<line x1="124" y1="132" x2="144" y2="132" stroke="#000" stroke-width="1"/>
	<text x="124" y="146.1" fill="#000" font-family="Gill Sans" font-size="15">sed</text>
</g>

<!-- Entity RISUS -->
<g class="page_0_8ppXCoOq diagram_page" visibility="visible">
	<g>
		<rect x="451" y="73" width="86" height="30" fill="#FFF" stroke="#FFF" stroke-width="0" opacity="1"/>
		<rect x="451" y="103" width="86" height="64" fill="#FFF" stroke="#FFF" stroke-width="0" opacity="1"/>
		<rect x="451" y="73" width="86" height="94" fill="none" stroke="#000" stroke-width="1.5" opacity="1"/>
		<line x1="451" y1="103" x2="537" y2="103" stroke="#000" stroke-width="1.5"/>
	</g>
	<text x="466" y="94.3" fill="#000" font-family="Copperplate" font-size="18">RISUS</text>
	<text x="459" y="120.1" fill="#000" font-family="Gill Sans" font-size="15">ultricies</text>
	<line x1="459" y1="123" x2="509" y2="123" stroke="#000" stroke-width="1"/>
	<text x="459" y="137.1" fill="#000" font-family="Gill Sans" font-size="15">cras</text>
	<line x1="459" y1="140" x2="485" y2="140" stroke="#000" stroke-width="1"/>
	<text x="459" y="154" fill="#000" font-family="Gill Sans" font-size="15">elementum</text>
</g>

<!-- Entity LOREM -->
<g class="page_0_8ppXCoOq diagram_page" visibility="visible">
	<g>
		<rect x="9" y="182" width="82" height="30" fill="#FFF" stroke="#FFF" stroke-width="0" opacity="1"/>
		<rect x="9" y="212" width="82" height="64" fill="#FFF" stroke="#FFF" stroke-width="0" opacity="1"/>
		<rect x="9" y="182" width="82" height="94" fill="none" stroke="#000" stroke-width="1.5" opacity="1"/>
		<line x1="9" y1="212" x2="91" y2="212" stroke="#000" stroke-width="1.5"/>
	</g>
	<text x="17" y="203.3" fill="#000" font-family="Copperplate" font-size="18">LOREM</text>
	<text x="17" y="229.1" fill="#000" font-family="Gill Sans" font-size="15">ipsum</text>
	<line x1="17" y1="232" x2="54" y2="232" stroke="#000" stroke-width="1"/>
	<text x="17" y="246.1" fill="#000" font-family="Gill Sans" font-size="15">dolor</text>
	<text x="17" y="263" fill="#000" font-family="Gill Sans" font-size="15">sit</text>
</g>

<!-- Entity DIGNISSIM -->
<g class="page_0_8ppXCoOq diagram_page" visibility="visible">
	<g>
		<rect x="305" y="182" width="114" height="30" fill="#FFF" stroke="#FFF" stroke-width="0" opacity="1"/>
		<rect x="305" y="212" width="114" height="64" fill="#FFF" stroke="#FFF" stroke-width="0" opacity="1"/>
		<rect x="305" y="182" width="114" height="94" fill="none" stroke="#000" stroke-width="1.5" opacity="1"/>
		<line x1="305" y1="212" x2="419" y2="212" stroke="#000" stroke-width="1.5"/>
	</g>
	<text x="313" y="203.3" fill="#000" font-family="Copperplate" font-size="18">DIGNISSIM</text>
	<text x="313" y="229.1" fill="#000" font-family="Gill Sans" font-size="15">ligula</text>
	<line x1="313" y1="232" x2="345" y2="232" stroke="#000" stroke-width="1"/>
	<text x="313" y="246.1" fill="#000" font-family="Gill Sans" font-size="15">massa</text>
	<text x="313" y="263" fill="#000" font-family="Gill Sans" font-size="15">varius</text>
</g>

<!-- Entity SUSPENDISSE -->
<g class="page_0_8ppXCoOq diagram_page" visibility="visible">
	<g>
		<rect x="126" y="299" width="148" height="30" fill="#FFF" stroke="#FFF" stroke-width="0" opacity="1"/>
		<rect x="126" y="329" width="148" height="30" fill="#FFF" stroke="#FFF" stroke-width="0" opacity="1"/>
		<rect x="126" y="299" width="148" height="60" fill="none" stroke="#000" stroke-width="1.5" opacity="1"/>
		<line x1="126" y1="329" x2="274" y2="329" stroke="#000" stroke-width="1.5"/>
	</g>
	<text x="135" y="320.3" fill="#000" font-family="Copperplate" font-size="18">SUSPENDISSE</text>
	<text x="134" y="346.1" fill="#000" font-family="Gill Sans" font-size="15">diam</text>
	<line x1="134" y1="349" x2="164" y2="349" stroke="#000" stroke-width="1"/>
</g>
</svg>