<svg xmlns="http://www.w3.org/2000/svg" width="406" height="341" viewBox="0 0 406 341">
<rect id="frame" x="0" y="0" width="406" height="341" fill="none" stroke="none" stroke-width="0"/>

<!-- Association LIGULA -->
<g class="page_0_W25ncFnk diagram_page" visibility="visible">
	<line x1="349" y1="166" x2="230" y2="166" stroke="#000" stroke-width="1"/>
	<text x="281" y="187" fill="#000" font-family="Futura" font-size="11">0,N</text>
	<line x1="230" y1="276" x2="230" y2="166" stroke="#000" stroke-width="1" stroke-dasharray="4"/>
	<text x="240" y="216" fill="#000" font-family="Futura" font-size="11">1,N</text>
	<line x1="230" y1="56" x2="230" y2="166" stroke="#000" stroke-width="1"/>
	<text x="240" y="115" fill="#000" font-family="Futura" font-size="11">0,N</text>
	<line x1="84" y1="166" x2="230" y2="166" stroke="#000" stroke-width="1"/>
	<text x="160" y="187" fill="#000" font-family="Futura" font-size="11">0,N</text>
	<g>
		<path d="M257 137 a14 14 90 0 1 14 14 V165 h-82 V151 a14 14 90 0 1 14 -14" fill="#FFF" stroke="#FFF" stroke-width="0"/>
		<path d="M271 165 v16 a14 14 90 0 1 -14 14 H203 a14 14 90 0 1 -14 -14 V165 H82" fill="#FFF" stroke="#FFF" stroke-width="0"/>
		<rect x="189" y="137" width="82" height="58" fill="none" rx="14" stroke="#000" stroke-width="1.5"/>
		<line x1="189" y1="165" x2="271" y2="165" stroke="#000" stroke-width="1.5"/>
		<text x="197" y="158.3" fill="#000" font-family="Copperplate" font-size="18">LIGULA</text>
		<text x="196" y="183.1" fill="#000" font-family="Gill Sans" font-size="15">metus</text>
	</g>
</g>

<!-- Entity TELLUS -->
<g class="page_0_W25ncFnk diagram_page" visibility="visible">
	<g>
		<rect x="186" y="18" width="88" height="30" fill="#FFF" stroke="#FFF" stroke-width="0" opacity="1"/>
		<rect x="186" y="48" width="88" height="46" fill="#FFF" stroke="#FFF" stroke-width="0" opacity="1"/>
		<rect x="186" y="18" width="88" height="76" fill="none" stroke="#000" stroke-width="1.5" opacity="1"/>
		<line x1="186" y1="48" x2="274" y2="48" stroke="#000" stroke-width="1.5"/>
	</g>
	<text x="195" y="39.3" fill="#000" font-family="Copperplate" font-size="18">TELLUS</text>
	<text x="194" y="65.1" fill="#000" font-family="Gill Sans" font-size="15">integer</text>
	<line x1="194" y1="68" x2="238" y2="68" stroke="#000" stroke-width="1"/>
	<text x="194" y="82.1" fill="#000" font-family="Gill Sans" font-size="15">odio</text>
</g>

<!-- Entity CONSEQUAT -->
<g class="page_0_W25ncFnk diagram_page" visibility="visible">
	<g>
		<rect x="18" y="128" width="132" height="30" fill="#FFF" stroke="#FFF" stroke-width="0" opacity="1"/>
		<rect x="18" y="158" width="132" height="46" fill="#FFF" stroke="#FFF" stroke-width="0" opacity="1"/>
		<rect x="18" y="128" width="132" height="76" fill="none" stroke="#000" stroke-width="1.5" opacity="1"/>
		<line x1="18" y1="158" x2="150" y2="158" stroke="#000" stroke-width="1.5"/>
	</g>
	<text x="26" y="149.3" fill="#000" font-family="Copperplate" font-size="18">CONSEQUAT</text>
	<text x="26" y="175.1" fill="#000" font-family="Gill Sans" font-size="15">fermentum</text>
	<line x1="26" y1="178" x2="95" y2="178" stroke="#000" stroke-width="1"/>
	<text x="26" y="192.1" fill="#000" font-family="Gill Sans" font-size="15">dederit</text>
</g>

<!-- Entity LACUS -->
<g class="page_0_W25ncFnk diagram_page" visibility="visible">
	<g>
		<rect x="310" y="128" width="78" height="30" fill="#FFF" stroke="#FFF" stroke-width="0" opacity="1"/>
		<rect x="310" y="158" width="78" height="46" fill="#FFF" stroke="#FFF" stroke-width="0" opacity="1"/>
		<rect x="310" y="128" width="78" height="76" fill="none" stroke="#000" stroke-width="1.5" opacity="1"/>
		<line x1="310" y1="158" x2="388" y2="158" stroke="#000" stroke-width="1.5"/>
	</g>
	<text x="318" y="149.3" fill="#000" font-family="Copperplate" font-size="18">LACUS</text>
	<text x="318" y="175.1" fill="#000" font-family="Gill Sans" font-size="15">blandit</text>
	<line x1="318" y1="178" x2="360" y2="178" stroke="#000" stroke-width="1"/>
	<text x="318" y="192.1" fill="#000" font-family="Gill Sans" font-size="15">elit</text>
</g>

<!-- Entity EROS -->
<g class="page_0_W25ncFnk diagram_page" visibility="visible">
	<g>
		<rect x="194" y="229" width="72" height="30" fill="#FFF" stroke="#FFF" stroke-width="0" opacity="1"/>
		<rect x="194" y="259" width="72" height="64" fill="#FFF" stroke="#FFF" stroke-width="0" opacity="1"/>
		<rect x="194" y="229" width="72" height="94" fill="none" stroke="#000" stroke-width="1.5" opacity="1"/>
		<line x1="194" y1="259" x2="266" y2="259" stroke="#000" stroke-width="1.5"/>
	</g>
	<text x="204" y="250.3" fill="#000" font-family="Copperplate" font-size="18">EROS</text>
	<text x="202" y="276.1" fill="#000" font-family="Gill Sans" font-size="15">congue</text>
	<line x1="202" y1="279" x2="247" y2="279" stroke="#000" stroke-width="1"/>
	<text x="202" y="293.1" fill="#000" font-family="Gill Sans" font-size="15">nibh</text>
	<text x="202" y="310" fill="#000" font-family="Gill Sans" font-size="15">tincidunt</text>
</g>
</svg>