<svg xmlns="http://www.w3.org/2000/svg" width="418" height="230" viewBox="0 0 418 230">
<rect id="frame" x="0" y="0" width="418" height="230" fill="none" stroke="none" stroke-width="0"/>

<!-- Association RHONCUS -->
<g class="page_0_OhbVrpoi diagram_page" visibility="visible">
	<line x1="66" y1="56" x2="206" y2="56" stroke="#000" stroke-width="1"/>
	<text x="128" y="48" fill="#000" font-family="Futura" font-size="11">1,N</text>
	<line x1="350" y1="56" x2="206" y2="56" stroke="#000" stroke-width="1"/>
	<text x="267" y="48" fill="#000" font-family="Futura" font-size="11">1,N</text>
	<line x1="206" y1="174" x2="206" y2="56" stroke="#000" stroke-width="1"/>
	<text x="211" y="119" fill="#000" font-family="Futura" font-size="11">1,N</text>
	<g>
		<path d="M246 27 a14 14 90 0 1 14 14 V55 h-108 V41 a14 14 90 0 1 14 -14" fill="#FFF" stroke="#FFF" stroke-width="0"/>
		<path d="M260 55 v16 a14 14 90 0 1 -14 14 H166 a14 14 90 0 1 -14 -14 V55 H108" fill="#FFF" stroke="#FFF" stroke-width="0"/>
		<rect x="152" y="27" width="108" height="58" fill="none" rx="14" stroke="#000" stroke-width="1.5"/>
		<line x1="152" y1="55" x2="260" y2="55" stroke="#000" stroke-width="1.5"/>
		<text x="159" y="48.3" fill="#000" font-family="Copperplate" font-size="18">RHONCUS</text>
	</g>
</g>

<!-- Association SODALES -->
<g class="page_0_OhbVrpoi diagram_page" visibility="visible">
	<line x1="66" y1="56" x2="66" y2="174" stroke="#000" stroke-width="1"/>
	<text x="42" y="119" fill="#000" font-family="Futura" font-size="11">1,N</text>
	<line x1="350" y1="56" x2="66" y2="174" stroke="#000" stroke-width="1"/>
	<text x="267" y="75.77" fill="#000" font-family="Futura" font-size="11">1,N</text>
	<line x1="206" y1="174" x2="66" y2="174" stroke="#000" stroke-width="1"/>
	<text x="123" y="190" fill="#000" font-family="Futura" font-size="11">1,N</text>
	<g>
		<path d="M103 145 a14 14 90 0 1 14 14 V173 h-102 V159 a14 14 90 0 1 14 -14" fill="#FFF" stroke="#FFF" stroke-width="0"/>
		<path d="M117 173 v16 a14 14 90 0 1 -14 14 H29 a14 14 90 0 1 -14 -14 V173 H102" fill="#FFF" stroke="#FFF" stroke-width="0"/>
		<rect x="15" y="145" width="102" height="58" fill="none" rx="14" stroke="#000" stroke-width="1.5"/>
		<line x1="15" y1="173" x2="117" y2="173" stroke="#000" stroke-width="1.5"/>
		<text x="23" y="166.3" fill="#000" font-family="Copperplate" font-size="18">SODALES</text>
	</g>
</g>

<!-- Association QUIS ENIM -->
<g class="page_0_OhbVrpoi diagram_page" visibility="visible">
	<line x1="66" y1="56" x2="350" y2="174" stroke="#000" stroke-width="1"/>
	<text x="128" y="74.94" fill="#000" font-family="Futura" font-size="11">1,N</text>
	<line x1="350" y1="56" x2="350" y2="174" stroke="#000" stroke-width="1"/>
	<text x="355" y="119" fill="#000" font-family="Futura" font-size="11">1,N</text>
	<line x1="206" y1="174" x2="350" y2="174" stroke="#000" stroke-width="1"/>
	<text x="270" y="190" fill="#000" font-family="Futura" font-size="11">1,N</text>
	<g>
		<path d="M392 145 a14 14 90 0 1 14 14 V173 h-112 V159 a14 14 90 0 1 14 -14" fill="#FFF" stroke="#FFF" stroke-width="0"/>
		<path d="M406 173 v16 a14 14 90 0 1 -14 14 H308 a14 14 90 0 1 -14 -14 V173 H112" fill="#FFF" stroke="#FFF" stroke-width="0"/>
		<rect x="294" y="145" width="112" height="58" fill="none" rx="14" stroke="#000" stroke-width="1.5"/>
		<line x1="294" y1="173" x2="406" y2="173" stroke="#000" stroke-width="1.5"/>
		<text x="301" y="166.3" fill="#000" font-family="Copperplate" font-size="18">QUIS ENIM</text>
	</g>
</g>

<!-- Entity DIGNISSIM -->
<g class="page_0_OhbVrpoi diagram_page" visibility="visible">
	<g>
		<rect x="9" y="9" width="114" height="30" fill="#FFF" stroke="#FFF" stroke-width="0" opacity="1"/>
		<rect x="9" y="39" width="114" height="64" fill="#FFF" stroke="#FFF" stroke-width="0" opacity="1"/>
		<rect x="9" y="9" width="114" height="94" fill="none" stroke="#000" stroke-width="1.5" opacity="1"/>
		<line x1="9" y1="39" x2="123" y2="39" stroke="#000" stroke-width="1.5"/>
	</g>
	<text x="17" y="30.3" fill="#000" font-family="Copperplate" font-size="18">DIGNISSIM</text>
	<text x="17" y="56.1" fill="#000" font-family="Gill Sans" font-size="15">nec sem</text>
	<line x1="17" y1="59" x2="69" y2="59" stroke="#000" stroke-width="1"/>
	<text x="17" y="73.1" fill="#000" font-family="Gill Sans" font-size="15">nunc</text>
	<text x="17" y="90" fill="#000" font-family="Gill Sans" font-size="15">vulputate</text>
</g>

<!-- Entity IMPERDIET -->
<g class="page_0_OhbVrpoi diagram_page" visibility="visible">
	<g>
		<rect x="291" y="9" width="118" height="30" fill="#FFF" stroke="#FFF" stroke-width="0" opacity="1"/>
		<rect x="291" y="39" width="118" height="64" fill="#FFF" stroke="#FFF" stroke-width="0" opacity="1"/>
		<rect x="291" y="9" width="118" height="94" fill="none" stroke="#000" stroke-width="1.5" opacity="1"/>
		<line x1="291" y1="39" x2="409" y2="39" stroke="#000" stroke-width="1.5"/>
	</g>
	<text x="300" y="30.3" fill="#000" font-family="Copperplate" font-size="18">IMPERDIET</text>
	<text x="299" y="56.1" fill="#000" font-family="Gill Sans" font-size="15">a praesent</text>
	<line x1="299" y1="59" x2="364" y2="59" stroke="#000" stroke-width="1"/>
	<text x="299" y="73.1" fill="#000" font-family="Gill Sans" font-size="15">nibh</text>
	<text x="299" y="90" fill="#000" font-family="Gill Sans" font-size="15">semper</text>
</g>

<!-- Entity TINCIDUNT -->
<g class="page_0_OhbVrpoi diagram_page" visibility="visible">
	<g>
		<rect x="147" y="127" width="118" height="30" fill="#FFF" stroke="#FFF" stroke-width="0" opacity="1"/>
		<rect x="147" y="157" width="118" height="64" fill="#FFF" stroke="#FFF" stroke-width="0" opacity="1"/>
		<rect x="147" y="127" width="118" height="94" fill="none" stroke="#000" stroke-width="1.5" opacity="1"/>
		<line x1="147" y1="157" x2="265" y2="157" stroke="#000" stroke-width="1.5"/>
	</g>
	<text x="155" y="148.3" fill="#000" font-family="Copperplate" font-size="18">TINCIDUNT</text>
	<text x="155" y="174.1" fill="#000" font-family="Gill Sans" font-size="15">faucibus</text>
	<line x1="155" y1="177" x2="205" y2="177" stroke="#000" stroke-width="1"/>
	<text x="155" y="191.1" fill="#000" font-family="Gill Sans" font-size="15">orci</text>
	<text x="155" y="208" fill="#000" font-family="Gill Sans" font-size="15">cursus</text>
</g>
</svg>