<svg xmlns="http://www.w3.org/2000/svg" width="586" height="128" viewBox="0 0 586 128">
<rect id="frame" x="0" y="0" width="586" height="128" fill="none" stroke="none" stroke-width="0"/>

<!-- Association QUIS -->
<g class="page_0_sfojfXUf diagram_page" visibility="visible">
	<line x1="52" y1="64" x2="154" y2="64" stroke="#000" stroke-width="1"/>
	<text x="100" y="80" fill="#000" font-family="Futura" font-size="11">0,N</text>
	<line x1="275" y1="64" x2="154" y2="64" stroke="#000" stroke-width="1"/>
	<text x="190" y="80" fill="#000" font-family="Futura" font-size="11">1,1</text>
	<g>
		<path d="M170 35 a14 14 90 0 1 14 14 V63 h-60 V49 a14 14 90 0 1 14 -14" fill="#FFF" stroke="#FFF" stroke-width="0"/>
		<path d="M184 63 v16 a14 14 90 0 1 -14 14 H138 a14 14 90 0 1 -14 -14 V63 H60" fill="#FFF" stroke="#FFF" stroke-width="0"/>
		<rect x="124" y="35" width="60" height="58" fill="none" rx="14" stroke="#000" stroke-width="1.5"/>
		<line x1="124" y1="63" x2="184" y2="63" stroke="#000" stroke-width="1.5"/>
		<text x="131" y="56.3" fill="#000" font-family="Copperplate" font-size="18">QUIS</text>
	</g>
</g>

<!-- Association FELIS -->
<g class="page_0_sfojfXUf diagram_page" visibility="visible">
	<line x1="275" y1="64" x2="400" y2="64" stroke="#000" stroke-width="1"/>
	<text x="342" y="80" fill="#000" font-family="Futura" font-size="11">1,N</text>
	<line x1="520" y1="64" x2="400" y2="64" stroke="#000" stroke-width="1"/>
	<text x="439" y="80" fill="#000" font-family="Futura" font-size="11">0,N</text>
	<g>
		<path d="M420 35 a14 14 90 0 1 14 14 V63 h-68 V49 a14 14 90 0 1 14 -14" fill="#FFF" stroke="#FFF" stroke-width="0"/>
		<path d="M434 63 v16 a14 14 90 0 1 -14 14 H380 a14 14 90 0 1 -14 -14 V63 H68" fill="#FFF" stroke="#FFF" stroke-width="0"/>
		<rect x="366" y="35" width="68" height="58" fill="none" rx="14" stroke="#000" stroke-width="1.5"/>
		<line x1="366" y1="63" x2="434" y2="63" stroke="#000" stroke-width="1.5"/>
		<text x="374" y="56.3" fill="#000" font-family="Copperplate" font-size="18">FELIS</text>
		<text x="373" y="81.1" fill="#000" font-family="Gill Sans" font-size="15">Faucibus</text>
	</g>
</g>

<!-- Entity VARIUS -->
<g class="page_0_sfojfXUf diagram_page" visibility="visible">
	<g>
		<rect x="9" y="9" width="86" height="30" fill="#FFF" stroke="#FFF" stroke-width="0" opacity="1"/>
		<rect x="9" y="39" width="86" height="80" fill="#FFF" stroke="#FFF" stroke-width="0" opacity="1"/>
		<rect x="9" y="9" width="86" height="110" fill="none" stroke="#000" stroke-width="1.5" opacity="1"/>
		<line x1="9" y1="39" x2="95" y2="39" stroke="#000" stroke-width="1.5"/>
	</g>
	<text x="18" y="30.3" fill="#000" font-family="Copperplate" font-size="18">VARIUS</text>
	<text x="17" y="56.1" fill="#000" font-family="Gill Sans" font-size="15">Sollicitudin</text>
	<line x1="17" y1="59" x2="85" y2="59" stroke="#000" stroke-width="1"/>
	<text x="17" y="73.1" fill="#000" font-family="Gill Sans" font-size="15">Odio</text>
	<text x="17" y="90.1" fill="#000" font-family="Gill Sans" font-size="15">Dolor</text>
	<text x="17" y="107" fill="#000" font-family="Gill Sans" font-size="15">Molestie</text>
</g>

<!-- Entity CURABITUR -->
<g class="page_0_sfojfXUf diagram_page" visibility="visible">
	<g>
		<rect x="213" y="17" width="124" height="30" fill="#FFF" stroke="#FFF" stroke-width="0" opacity="1"/>
		<rect x="213" y="47" width="124" height="64" fill="#FFF" stroke="#FFF" stroke-width="0" opacity="1"/>
		<rect x="213" y="17" width="124" height="94" fill="none" stroke="#000" stroke-width="1.5" opacity="1"/>
		<line x1="213" y1="47" x2="337" y2="47" stroke="#000" stroke-width="1.5"/>
	</g>
	<text x="221" y="38.3" fill="#000" font-family="Copperplate" font-size="18">CURABITUR</text>
	<text x="221" y="64.1" fill="#000" font-family="Gill Sans" font-size="15">Mauris</text>
	<line x1="221" y1="67" x2="263" y2="67" stroke="#000" stroke-width="1"/>
	<text x="221" y="81.1" fill="#000" font-family="Gill Sans" font-size="15">Cursus</text>
	<text x="221" y="98" fill="#000" font-family="Gill Sans" font-size="15">Semper</text>
</g>

<!-- Entity PLACERAT -->
<g class="page_0_sfojfXUf diagram_page" visibility="visible">
	<g>
		<rect x="463" y="17" width="114" height="30" fill="#FFF" stroke="#FFF" stroke-width="0" opacity="1"/>
		<rect x="463" y="47" width="114" height="64" fill="#FFF" stroke="#FFF" stroke-width="0" opacity="1"/>
		<rect x="463" y="17" width="114" height="94" fill="none" stroke="#000" stroke-width="1.5" opacity="1"/>
		<line x1="463" y1="47" x2="577" y2="47" stroke="#000" stroke-width="1.5"/>
	</g>
	<text x="472" y="38.3" fill="#000" font-family="Copperplate" font-size="18">PLACERAT</text>
	<text x="471" y="64.1" fill="#000" font-family="Gill Sans" font-size="15">Ullamcorper</text>
	<line x1="471" y1="67" x2="550" y2="67" stroke="#000" stroke-width="1"/>
	<text x="471" y="81.1" fill="#000" font-family="Gill Sans" font-size="15">Sed</text>
	<text x="471" y="98" fill="#000" font-family="Gill Sans" font-size="15">Turpis</text>
</g>
</svg>