<svg xmlns="http://www.w3.org/2000/svg" width="704" height="255" viewBox="0 0 704 255">
<rect id="frame" x="0" y="0" width="704" height="255" fill="none" stroke="none" stroke-width="0"/>

<!-- Entity Classe -->
<g class="page_0_RCKS3DJG diagram_page" visibility="visible">
	<g>
		<rect x="207" y="18" width="92" height="30" fill="#FAA945" stroke="#FAA945" stroke-width="0" opacity="1"/>
		<rect x="207" y="48" width="92" height="46" fill="#FFB94E" stroke="#FFB94E" stroke-width="0" opacity="1"/>
		<rect x="207" y="18" width="92" height="76" fill="none" stroke="#CB7E1F" stroke-width="1.5" opacity="1"/>
		<line x1="207" y1="48" x2="299" y2="48" stroke="#CB7E1F" stroke-width="1.5"/>
	</g>
	<text x="221" y="39.3" fill="#645530" font-family="Copperplate" font-size="18">Classe</text>
	<text x="215" y="65.1" fill="#645530" font-family="Gill Sans" font-size="15">Num. classe</text>
	<line x1="215" y1="68" x2="291" y2="68" stroke="#645530" stroke-width="1"/>
	<text x="215" y="82.1" fill="#645530" font-family="Gill Sans" font-size="15">Num. salle</text>
</g>

<!-- Entity Faire Cours -->
<g class="page_0_RCKS3DJG diagram_page" visibility="visible">
	<g>
		<rect x="366" y="9" width="128" height="30" fill="#FAA945" stroke="#FAA945" stroke-width="0" opacity="1"/>
		<rect x="366" y="39" width="128" height="64" fill="#FFB94E" stroke="#FFB94E" stroke-width="0" opacity="1"/>
		<rect x="366" y="9" width="128" height="94" fill="none" stroke="#CB7E1F" stroke-width="1.5" opacity="1"/>
		<line x1="366" y1="39" x2="494" y2="39" stroke="#CB7E1F" stroke-width="1.5"/>
	</g>
	<text x="375" y="30.3" fill="#645530" font-family="Copperplate" font-size="18">Faire Cours</text>
	<text x="374" y="56.1" fill="#645530" font-family="Gill Sans" font-size="15">#Num. classe</text>
	<line x1="374" y1="59" x2="459" y2="59" stroke="#645530" stroke-width="1"/>
	<text x="374" y="73.1" fill="#645530" font-family="Gill Sans" font-size="15">#Num. prof</text>
	<line x1="374" y1="76" x2="449" y2="76" stroke="#645530" stroke-width="1"/>
	<text x="374" y="90" fill="#645530" font-family="Gill Sans" font-size="15">Vol. horaire</text>
</g>

<!-- Entity Catégorie -->
<g class="page_0_RCKS3DJG diagram_page" visibility="visible">
	<g>
		<rect x="552" y="18" width="114" height="30" fill="#FAA945" stroke="#FAA945" stroke-width="0" opacity="1"/>
		<rect x="552" y="48" width="114" height="46" fill="#FFB94E" stroke="#FFB94E" stroke-width="0" opacity="1"/>
		<rect x="552" y="18" width="114" height="76" fill="none" stroke="#CB7E1F" stroke-width="1.5" opacity="1"/>
		<line x1="552" y1="48" x2="666" y2="48" stroke="#CB7E1F" stroke-width="1.5"/>
	</g>
	<text x="563" y="39.3" fill="#645530" font-family="Copperplate" font-size="18">Catégorie</text>
	<text x="560" y="65.1" fill="#645530" font-family="Gill Sans" font-size="15">Code catégorie</text>
	<line x1="560" y1="68" x2="657" y2="68" stroke="#645530" stroke-width="1"/>
	<text x="560" y="82.1" fill="#645530" font-family="Gill Sans" font-size="15">Nom catégorie</text>
</g>

<!-- Entity Élève -->
<g class="page_0_RCKS3DJG diagram_page" visibility="visible">
	<g>
		<rect x="38" y="135" width="102" height="30" fill="#FAA945" stroke="#FAA945" stroke-width="0" opacity="1"/>
		<rect x="38" y="165" width="102" height="64" fill="#FFB94E" stroke="#FFB94E" stroke-width="0" opacity="1"/>
		<rect x="38" y="135" width="102" height="94" fill="none" stroke="#CB7E1F" stroke-width="1.5" opacity="1"/>
		<line x1="38" y1="165" x2="140" y2="165" stroke="#CB7E1F" stroke-width="1.5"/>
	</g>
	<text x="63" y="156.3" fill="#645530" font-family="Copperplate" font-size="18">Élève</text>
	<text x="46" y="182.1" fill="#645530" font-family="Gill Sans" font-size="15">Num. élève</text>
	<line x1="46" y1="185" x2="118" y2="185" stroke="#645530" stroke-width="1"/>
	<text x="46" y="199.1" fill="#645530" font-family="Gill Sans" font-size="15">Nom élève</text>
	<text x="46" y="216" fill="#645530" font-family="Gill Sans" font-size="15">#Num. classe</text>
</g>

<!-- Entity Noter -->
<g class="page_0_RCKS3DJG diagram_page" visibility="visible">
	<g>
		<rect x="198" y="118" width="110" height="30" fill="#FAA945" stroke="#FAA945" stroke-width="0" opacity="1"/>
		<rect x="198" y="148" width="110" height="98" fill="#FFB94E" stroke="#FFB94E" stroke-width="0" opacity="1"/>
		<rect x="198" y="118" width="110" height="128" fill="none" stroke="#CB7E1F" stroke-width="1.5" opacity="1"/>
		<line x1="198" y1="148" x2="308" y2="148" stroke="#CB7E1F" stroke-width="1.5"/>
	</g>
	<text x="225" y="139.3" fill="#645530" font-family="Copperplate" font-size="18">Noter</text>
	<text x="206" y="165.1" fill="#645530" font-family="Gill Sans" font-size="15">#Num. élève</text>
	<line x1="206" y1="168" x2="287" y2="168" stroke="#645530" stroke-width="1"/>
	<text x="206" y="182.1" fill="#645530" font-family="Gill Sans" font-size="15">#Num. prof</text>
	<line x1="206" y1="185" x2="281" y2="185" stroke="#645530" stroke-width="1"/>
	<text x="206" y="199.1" fill="#645530" font-family="Gill Sans" font-size="15">Libellé matière</text>
	<line x1="206" y1="202" x2="299" y2="202" stroke="#645530" stroke-width="1"/>
	<text x="206" y="216" fill="#645530" font-family="Gill Sans" font-size="15">Date</text>
	<line x1="206" y1="219" x2="237" y2="219" stroke="#645530" stroke-width="1"/>
	<text x="206" y="233" fill="#645530" font-family="Gill Sans" font-size="15">Note</text>
</g>

<!-- Entity Prof -->
<g class="page_0_RCKS3DJG diagram_page" visibility="visible">
	<g>
		<rect x="369" y="127" width="122" height="30" fill="#FAA945" stroke="#FAA945" stroke-width="0" opacity="1"/>
		<rect x="369" y="157" width="122" height="80" fill="#FFB94E" stroke="#FFB94E" stroke-width="0" opacity="1"/>
		<rect x="369" y="127" width="122" height="110" fill="none" stroke="#CB7E1F" stroke-width="1.5" opacity="1"/>
		<line x1="369" y1="157" x2="491" y2="157" stroke="#CB7E1F" stroke-width="1.5"/>
	</g>
	<text x="408" y="148.3" fill="#645530" font-family="Copperplate" font-size="18">Prof</text>
	<text x="377" y="174.1" fill="#645530" font-family="Gill Sans" font-size="15">Num. prof</text>
	<line x1="377" y1="177" x2="443" y2="177" stroke="#645530" stroke-width="1"/>
	<text x="377" y="191.1" fill="#645530" font-family="Gill Sans" font-size="15">Nom prof</text>
	<text x="377" y="208.1" fill="#645530" font-family="Gill Sans" font-size="15">#Code catégorie</text>
	<text x="377" y="225" fill="#645530" font-family="Gill Sans" font-size="15">Libellé matière</text>
</g>

<!-- Link from &quot;Num. classe&quot; (Faire Cours) to &quot;Num. classe&quot; (Classe) -->
<path d="M366 53.5 C332.5 58 343.67 62.5 299 62.5" fill="none" stroke="#4C3D30" stroke-width="1"/>
<polygon points="299 62.5 311 56.5 307 62.5 311 68.5" fill="#4C3D30" stroke-width="0"/>
<circle cx="366" cy="53.5" r="1.5" stroke="#4C3D30" stroke-width="1.5" fill="#4C3D30"/>

<!-- Link from &quot;Num. prof&quot; (Faire Cours) to &quot;Num. prof&quot; (Prof) -->
<path d="M366 70.5 C318 121 321 171.5 369 171.5" fill="none" stroke="#4C3D30" stroke-width="1"/>
<polygon points="369 171.5 357 177.5 361 171.5 357 165.5" fill="#4C3D30" stroke-width="0"/>
<circle cx="366" cy="70.5" r="1.5" stroke="#4C3D30" stroke-width="1.5" fill="#4C3D30"/>

<!-- Link from &quot;Num. classe&quot; (Élève) to &quot;Num. classe&quot; (Classe) -->
<path d="M140 213.5 C173.5 138 162.33 62.5 207 62.5" fill="none" stroke="#4C3D30" stroke-width="1"/>
<polygon points="207 62.5 195 68.5 199 62.5 195 56.5" fill="#4C3D30" stroke-width="0"/>
<circle cx="140" cy="213.5" r="1.5" stroke="#4C3D30" stroke-width="1.5" fill="#4C3D30"/>

<!-- Link from &quot;Num. élève&quot; (Noter) to &quot;Num. élève&quot; (Élève) -->
<path d="M198 162.5 C169 171 178.67 179.5 140 179.5" fill="none" stroke="#4C3D30" stroke-width="1"/>
<polygon points="140 179.5 152 173.5 148 179.5 152 185.5" fill="#4C3D30" stroke-width="0"/>
<circle cx="198" cy="162.5" r="1.5" stroke="#4C3D30" stroke-width="1.5" fill="#4C3D30"/>

<!-- Link from &quot;Num. prof&quot; (Noter) to &quot;Num. prof&quot; (Prof) -->
<path d="M308 179.5 C338.5 175.5 328.33 171.5 369 171.5" fill="none" stroke="#4C3D30" stroke-width="1"/>
<polygon points="369 171.5 357 177.5 361 171.5 357 165.5" fill="#4C3D30" stroke-width="0"/>
<circle cx="308" cy="179.5" r="1.5" stroke="#4C3D30" stroke-width="1.5" fill="#4C3D30"/>

<!-- Link from &quot;Code catégorie&quot; (Prof) to &quot;Code catégorie&quot; (Catégorie) -->
<path d="M491 205.5 C521.5 134 511.33 62.5 552 62.5" fill="none" stroke="#4C3D30" stroke-width="1"/>
<polygon points="552 62.5 540 68.5 544 62.5 540 56.5" fill="#4C3D30" stroke-width="0"/>
<circle cx="491" cy="205.5" r="1.5" stroke="#4C3D30" stroke-width="1.5" fill="#4C3D30"/>
</svg>