<svg xmlns="http://www.w3.org/2000/svg" width="428" height="94" viewBox="0 0 428 94">
<rect id="frame" x="0" y="0" width="428" height="94" fill="none" stroke="none" stroke-width="0"/>

<!-- Association Into -->
<g class="page_0_xnW62DMN diagram_page" visibility="visible">
	<line x1="209" y1="47" x2="121" y2="47" stroke="#000" stroke-width="1"/>
	<text x="154" y="63" fill="#000" font-family="Futura" font-size="11">1,1</text>
	<line x1="37" y1="47" x2="121" y2="47" stroke="#000" stroke-width="1"/>
	<text x="70" y="63" fill="#000" font-family="Futura" font-size="11">1,N</text>
	<g>
		<path d="M134 18 a14 14 90 0 1 14 14 V46 h-54 V32 a14 14 90 0 1 14 -14" fill="#FFF" stroke="#FFF" stroke-width="0"/>
		<path d="M148 46 v16 a14 14 90 0 1 -14 14 H108 a14 14 90 0 1 -14 -14 V46 H54" fill="#FFF" stroke="#FFF" stroke-width="0"/>
		<rect x="94" y="18" width="54" height="58" fill="none" rx="14" stroke="#000" stroke-width="1.5"/>
		<line x1="94" y1="46" x2="148" y2="46" stroke="#000" stroke-width="1.5"/>
		<text x="102" y="39.3" fill="#000" font-family="Copperplate" font-size="18">Into</text>
		<text x="101" y="64.1" fill="#000" font-family="Gill Sans" font-size="15">goat</text>
	</g>
</g>

<!-- Association Tuck -->
<g class="page_0_xnW62DMN diagram_page" visibility="visible">
	<line x1="388" y1="47" x2="299" y2="47" stroke="#000" stroke-width="1"/>
	<text x="333" y="63" fill="#000" font-family="Futura" font-size="11">1,N</text>
	<line x1="209" y1="47" x2="299" y2="47" stroke="#000" stroke-width="1"/>
	<text x="246" y="63" fill="#000" font-family="Futura" font-size="11">1,N</text>
	<g>
		<path d="M314 18 a14 14 90 0 1 14 14 V46 h-58 V32 a14 14 90 0 1 14 -14" fill="#FFF" stroke="#FFF" stroke-width="0"/>
		<path d="M328 46 v16 a14 14 90 0 1 -14 14 H284 a14 14 90 0 1 -14 -14 V46 H58" fill="#FFF" stroke="#FFF" stroke-width="0"/>
		<rect x="270" y="18" width="58" height="58" fill="none" rx="14" stroke="#000" stroke-width="1.5"/>
		<line x1="270" y1="46" x2="328" y2="46" stroke="#000" stroke-width="1.5"/>
		<text x="277" y="39.3" fill="#000" font-family="Copperplate" font-size="18">Tuck</text>
		<text x="277" y="64.1" fill="#000" font-family="Gill Sans" font-size="15">thin</text>
	</g>
</g>

<!-- Entity Riot -->
<g class="page_0_xnW62DMN diagram_page" visibility="visible">
	<g>
		<rect x="9" y="17" width="56" height="30" fill="#FFF" stroke="#FFF" stroke-width="0" opacity="1"/>
		<rect x="9" y="47" width="56" height="30" fill="#FFF" stroke="#FFF" stroke-width="0" opacity="1"/>
		<rect x="9" y="17" width="56" height="60" fill="none" stroke="#000" stroke-width="1.5" opacity="1"/>
		<line x1="9" y1="47" x2="65" y2="47" stroke="#000" stroke-width="1.5"/>
	</g>
	<text x="17" y="38.3" fill="#000" font-family="Copperplate" font-size="18">Riot</text>
	<text x="17" y="64.1" fill="#000" font-family="Gill Sans" font-size="15">clue</text>
	<line x1="17" y1="67" x2="43" y2="67" stroke="#000" stroke-width="1"/>
</g>

<!-- Entity Form -->
<g class="page_0_xnW62DMN diagram_page" visibility="visible">
	<g>
		<rect x="177" y="9" width="64" height="30" fill="#FFF" stroke="#FFF" stroke-width="0" opacity="1"/>
		<rect x="177" y="39" width="64" height="46" fill="#FFF" stroke="#FFF" stroke-width="0" opacity="1"/>
		<rect x="177" y="9" width="64" height="76" fill="none" stroke="#000" stroke-width="1.5" opacity="1"/>
		<line x1="177" y1="39" x2="241" y2="39" stroke="#000" stroke-width="1.5"/>
	</g>
	<text x="186" y="30.3" fill="#000" font-family="Copperplate" font-size="18">Form</text>
	<text x="185" y="56.1" fill="#000" font-family="Gill Sans" font-size="15">land</text>
	<line x1="185" y1="59" x2="211" y2="59" stroke="#000" stroke-width="1"/>
	<text x="185" y="73.1" fill="#000" font-family="Gill Sans" font-size="15">hide</text>
</g>

<!-- Entity Read -->
<g class="page_0_xnW62DMN diagram_page" visibility="visible">
	<g>
		<rect x="357" y="17" width="62" height="30" fill="#FFF" stroke="#FFF" stroke-width="0" opacity="1"/>
		<rect x="357" y="47" width="62" height="30" fill="#FFF" stroke="#FFF" stroke-width="0" opacity="1"/>
		<rect x="357" y="17" width="62" height="60" fill="none" stroke="#000" stroke-width="1.5" opacity="1"/>
		<line x1="357" y1="47" x2="419" y2="47" stroke="#000" stroke-width="1.5"/>
	</g>
	<text x="366" y="38.3" fill="#000" font-family="Copperplate" font-size="18">Read</text>
	<text x="365" y="64.1" fill="#000" font-family="Gill Sans" font-size="15">wage</text>
	<line x1="365" y1="67" x2="397" y2="67" stroke="#000" stroke-width="1"/>
</g>
</svg>