<svg xmlns="http://www.w3.org/2000/svg" width="546" height="310" viewBox="0 0 546 310">
<rect id="frame" x="0" y="0" width="546" height="310" fill="none" stroke="none" stroke-width="0"/>

<!-- Association Bibendum -->
<g class="page_0_UWmWZIAL diagram_page" visibility="visible">
	<path d="M188 64 C153 96 110.67 96 61 64" fill="none" stroke="#000" stroke-width="1"/>
	<text x="121" y="79" fill="#000" font-family="Futura" font-size="11">0,1</text>
	<path d="M188 64 C152.33 32 110 32 61 64" fill="none" stroke="#000" stroke-width="1"/>
	<text x="120" y="57" fill="#000" font-family="Futura" font-size="11">0,N</text>
	<g>
		<path d="M99 35 a14 14 90 0 1 14 14 V63 h-104 V49 a14 14 90 0 1 14 -14" fill="#FFF" stroke="#FFF" stroke-width="0"/>
		<path d="M113 63 v16 a14 14 90 0 1 -14 14 H23 a14 14 90 0 1 -14 -14 V63 H104" fill="#FFF" stroke="#FFF" stroke-width="0"/>
		<rect x="9" y="35" width="104" height="58" fill="none" rx="14" stroke="#000" stroke-width="1.5"/>
		<line x1="9" y1="63" x2="113" y2="63" stroke="#000" stroke-width="1.5"/>
		<text x="17" y="56.3" fill="#000" font-family="Copperplate" font-size="18">Bibendum</text>
	</g>
</g>

<!-- Association Lacus -->
<g class="page_0_UWmWZIAL diagram_page" visibility="visible">
	<line x1="188" y1="64" x2="295" y2="64" stroke="#000" stroke-width="1"/>
	<text x="237" y="56" fill="#000" font-family="Futura" font-size="11">0,1</text>
	<line x1="393" y1="64" x2="295" y2="64" stroke="#000" stroke-width="1"/>
	<text x="342" y="80" fill="#000" font-family="Futura" font-size="11">1,N</text>
	<g>
		<path d="M315 35 a14 14 90 0 1 14 14 V63 h-68 V49 a14 14 90 0 1 14 -14" fill="#FFF" stroke="#FFF" stroke-width="0"/>
		<path d="M329 63 v16 a14 14 90 0 1 -14 14 H275 a14 14 90 0 1 -14 -14 V63 H68" fill="#FFF" stroke="#FFF" stroke-width="0"/>
		<rect x="261" y="35" width="68" height="58" fill="none" rx="14" stroke="#000" stroke-width="1.5"/>
		<line x1="261" y1="63" x2="329" y2="63" stroke="#000" stroke-width="1.5"/>
		<text x="268" y="56.3" fill="#000" font-family="Copperplate" font-size="18">Lacus</text>
	</g>
</g>

<!-- Association Vivamus -->
<g class="page_0_UWmWZIAL diagram_page" visibility="visible">
	<line x1="61" y1="263" x2="61" y2="172" stroke="#000" stroke-width="1"/>
	<text x="66" y="225" fill="#000" font-family="Futura" font-size="11">0,N</text>
	<line x1="188" y1="263" x2="61" y2="172" stroke="#000" stroke-width="1"/>
	<text x="113" y="237.01" fill="#000" font-family="Futura" font-size="11">0,N</text>
	<path d="M188 64 C176.35 122.57 134.01 158.57 61 172" fill="none" stroke="#000" stroke-width="1"/>
	<text x="120" y="136.27" fill="#000" font-family="Futura" font-size="11">0,N</text>
	<g>
		<path d="M91 135 a14 14 90 0 1 14 14 V163 h-88 V149 a14 14 90 0 1 14 -14" fill="#FFF" stroke="#FFF" stroke-width="0"/>
		<path d="M105 163 v32 a14 14 90 0 1 -14 14 H31 a14 14 90 0 1 -14 -14 V163 H88" fill="#FFF" stroke="#FFF" stroke-width="0"/>
		<rect x="17" y="135" width="88" height="74" fill="none" rx="14" stroke="#000" stroke-width="1.5"/>
		<line x1="17" y1="163" x2="105" y2="163" stroke="#000" stroke-width="1.5"/>
		<text x="24" y="156.3" fill="#000" font-family="Copperplate" font-size="18">Vivamus</text>
		<text x="24" y="181.1" fill="#000" font-family="Gill Sans" font-size="15">eleifend</text>
		<text x="24" y="198.1" fill="#000" font-family="Gill Sans" font-size="15">iaculis</text>
	</g>
</g>

<!-- Association Velit -->
<g class="page_0_UWmWZIAL diagram_page" visibility="visible">
	<line x1="188" y1="64" x2="188" y2="172" stroke="#000" stroke-width="1"/>
	<text x="193" y="135" fill="#000" font-family="Futura" font-size="11">0,N</text>
	<line x1="188" y1="263" x2="188" y2="172" stroke="#000" stroke-width="1"/>
	<text x="193" y="217" fill="#000" font-family="Futura" font-size="11">0,N</text>
	<g>
		<path d="M215 143 a14 14 90 0 1 14 14 V171 h-82 V157 a14 14 90 0 1 14 -14" fill="#FFF" stroke="#FFF" stroke-width="0"/>
		<path d="M229 171 v16 a14 14 90 0 1 -14 14 H161 a14 14 90 0 1 -14 -14 V171 H82" fill="#FFF" stroke="#FFF" stroke-width="0"/>
		<rect x="147" y="143" width="82" height="58" fill="none" rx="14" stroke="#000" stroke-width="1.5"/>
		<line x1="147" y1="171" x2="229" y2="171" stroke="#000" stroke-width="1.5"/>
		<text x="164" y="164.3" fill="#000" font-family="Copperplate" font-size="18">Velit</text>
		<text x="154" y="189.1" fill="#000" font-family="Gill Sans" font-size="15">sollicitudin</text>
	</g>
</g>

<!-- Association Ipsum -->
<g class="page_0_UWmWZIAL diagram_page" visibility="visible">
	<line x1="188" y1="64" x2="295" y2="172" stroke="#000" stroke-width="1"/>
	<text x="237" y="107.44" fill="#000" font-family="Futura" font-size="11">1,N</text>
	<line x1="393" y1="263" x2="295" y2="172" stroke="#000" stroke-width="1"/>
	<text x="350.38" y="217" fill="#000" font-family="Futura" font-size="11">0,N</text>
	<g>
		<path d="M314 143 a14 14 90 0 1 14 14 V171 h-66 V157 a14 14 90 0 1 14 -14" fill="#FFF" stroke="#FFF" stroke-width="0"/>
		<path d="M328 171 v16 a14 14 90 0 1 -14 14 H276 a14 14 90 0 1 -14 -14 V171 H66" fill="#FFF" stroke="#FFF" stroke-width="0"/>
		<rect x="262" y="143" width="66" height="58" fill="none" rx="14" stroke="#000" stroke-width="1.5"/>
		<line x1="262" y1="171" x2="328" y2="171" stroke="#000" stroke-width="1.5"/>
		<text x="269" y="164.3" fill="#000" font-family="Copperplate" font-size="18">Ipsum</text>
	</g>
</g>

<!-- Association Metus -->
<g class="page_0_UWmWZIAL diagram_page" visibility="visible">
	<line x1="393" y1="64" x2="393" y2="172" stroke="#000" stroke-width="1"/>
	<text x="398" y="118" fill="#000" font-family="Futura" font-size="11">1,N</text>
	<line x1="393" y1="263" x2="393" y2="172" stroke="#000" stroke-width="1"/>
	<text x="398" y="217" fill="#000" font-family="Futura" font-size="11">0,N</text>
	<g>
		<path d="M415 143 a14 14 90 0 1 14 14 V171 h-72 V157 a14 14 90 0 1 14 -14" fill="#FFF" stroke="#FFF" stroke-width="0"/>
		<path d="M429 171 v16 a14 14 90 0 1 -14 14 H371 a14 14 90 0 1 -14 -14 V171 H72" fill="#FFF" stroke="#FFF" stroke-width="0"/>
		<rect x="357" y="143" width="72" height="58" fill="none" rx="14" stroke="#000" stroke-width="1.5"/>
		<line x1="357" y1="171" x2="429" y2="171" stroke="#000" stroke-width="1.5"/>
		<text x="365" y="164.3" fill="#000" font-family="Copperplate" font-size="18">Metus</text>
		<text x="364" y="189.1" fill="#000" font-family="Gill Sans" font-size="15">nibh</text>
	</g>
</g>

<!-- Association DF -->
<g class="page_0_UWmWZIAL diagram_page" visibility="visible">
	<line x1="188" y1="263" x2="295" y2="263" stroke="#000" stroke-width="1"/>
	<text x="244" y="279" fill="#000" font-family="Futura" font-size="11">1,1</text>
	<line x1="393" y1="263" x2="295" y2="263" stroke="#000" stroke-width="1"/>
	<text x="326" y="279" fill="#000" font-family="Futura" font-size="11">0,N</text>
	<g>
		<circle cx="295" cy="263" r="20" stroke="#000" stroke-width="1.5" fill="#FFF"/>
		<text x="282" y="267.8" fill="#000" font-family="Copperplate" font-size="18">DF</text>
	</g>
</g>

<!-- Association Augue -->
<g class="page_0_UWmWZIAL diagram_page" visibility="visible">
	<path d="M393 263 C433.67 231 469.67 231 501 263" fill="none" stroke="#000" stroke-width="1"/>
	<text x="441" y="257" fill="#000" font-family="Futura" font-size="11">0,N</text>
	<path d="M393 263 C433.67 295 469.67 295 501 263" fill="none" stroke="#000" stroke-width="1"/>
	<text x="441" y="277" fill="#000" font-family="Futura" font-size="11">0,N</text>
	<g>
		<path d="M523 234 a14 14 90 0 1 14 14 V262 h-72 V248 a14 14 90 0 1 14 -14" fill="#FFF" stroke="#FFF" stroke-width="0"/>
		<path d="M537 262 v16 a14 14 90 0 1 -14 14 H479 a14 14 90 0 1 -14 -14 V262 H72" fill="#FFF" stroke="#FFF" stroke-width="0"/>
		<rect x="465" y="234" width="72" height="58" fill="none" rx="14" stroke="#000" stroke-width="1.5"/>
		<line x1="465" y1="262" x2="537" y2="262" stroke="#000" stroke-width="1.5"/>
		<text x="472" y="255.3" fill="#000" font-family="Copperplate" font-size="18">Augue</text>
	</g>
</g>

<!-- Entity Blandit -->
<g class="page_0_UWmWZIAL diagram_page" visibility="visible">
	<g>
		<rect x="144" y="9" width="88" height="30" fill="#FFF" stroke="#FFF" stroke-width="0" opacity="1"/>
		<rect x="144" y="39" width="88" height="80" fill="#FFF" stroke="#FFF" stroke-width="0" opacity="1"/>
		<rect x="144" y="9" width="88" height="110" fill="none" stroke="#000" stroke-width="1.5" opacity="1"/>
		<line x1="144" y1="39" x2="232" y2="39" stroke="#000" stroke-width="1.5"/>
	</g>
	<text x="152" y="30.3" fill="#000" font-family="Copperplate" font-size="18">Blandit</text>
	<text x="152" y="56.1" fill="#000" font-family="Gill Sans" font-size="15">consequat</text>
	<line x1="152" y1="59" x2="216" y2="59" stroke="#000" stroke-width="1"/>
	<text x="152" y="73.1" fill="#000" font-family="Gill Sans" font-size="15">ligula</text>
	<text x="152" y="90.1" fill="#000" font-family="Gill Sans" font-size="15">nibh</text>
	<text x="152" y="107" fill="#000" font-family="Gill Sans" font-size="15">consequat</text>
</g>

<!-- Entity Elit -->
<g class="page_0_UWmWZIAL diagram_page" visibility="visible">
	<g>
		<rect x="366" y="26" width="54" height="30" fill="#FFF" stroke="#FFF" stroke-width="0" opacity="1"/>
		<rect x="366" y="56" width="54" height="46" fill="#FFF" stroke="#FFF" stroke-width="0" opacity="1"/>
		<rect x="366" y="26" width="54" height="76" fill="none" stroke="#000" stroke-width="1.5" opacity="1"/>
		<line x1="366" y1="56" x2="420" y2="56" stroke="#000" stroke-width="1.5"/>
	</g>
	<text x="374" y="47.3" fill="#000" font-family="Copperplate" font-size="18">Elit</text>
	<text x="374" y="73.1" fill="#000" font-family="Gill Sans" font-size="15">ligula</text>
	<line x1="374" y1="76" x2="406" y2="76" stroke="#000" stroke-width="1"/>
	<text x="374" y="90.1" fill="#000" font-family="Gill Sans" font-size="15">tellus</text>
</g>

<!-- Entity Posuere -->
<g class="page_0_UWmWZIAL diagram_page" visibility="visible">
	<g>
		<rect x="14" y="233" width="94" height="30" fill="#FFF" stroke="#FFF" stroke-width="0" opacity="1"/>
		<rect x="14" y="263" width="94" height="30" fill="#FFF" stroke="#FFF" stroke-width="0" opacity="1"/>
		<rect x="14" y="233" width="94" height="60" fill="none" stroke="#000" stroke-width="1.5" opacity="1"/>
		<line x1="14" y1="263" x2="108" y2="263" stroke="#000" stroke-width="1.5"/>
	</g>
	<text x="23" y="254.3" fill="#000" font-family="Copperplate" font-size="18">Posuere</text>
	<text x="22" y="280.1" fill="#000" font-family="Gill Sans" font-size="15">pede</text>
	<line x1="22" y1="283" x2="53" y2="283" stroke="#000" stroke-width="1"/>
</g>

<!-- Entity Nonummy -->
<g class="page_0_UWmWZIAL diagram_page" visibility="visible">
	<g>
		<rect x="137" y="225" width="102" height="30" fill="#FFF" stroke="#FFF" stroke-width="0" opacity="1"/>
		<rect x="137" y="255" width="102" height="46" fill="#FFF" stroke="#FFF" stroke-width="0" opacity="1"/>
		<rect x="137" y="225" width="102" height="76" fill="none" stroke="#000" stroke-width="1.5" opacity="1"/>
		<line x1="137" y1="255" x2="239" y2="255" stroke="#000" stroke-width="1.5"/>
	</g>
	<text x="145" y="246.3" fill="#000" font-family="Copperplate" font-size="18">Nonummy</text>
	<text x="145" y="272.1" fill="#000" font-family="Gill Sans" font-size="15">consequat</text>
	<line x1="145" y1="275" x2="209" y2="275" stroke="#000" stroke-width="1"/>
	<text x="145" y="289.1" fill="#000" font-family="Gill Sans" font-size="15">ligula</text>
</g>

<!-- Entity Congue -->
<g class="page_0_UWmWZIAL diagram_page" visibility="visible">
	<g>
		<rect x="350" y="225" width="86" height="30" fill="#FFF" stroke="#FFF" stroke-width="0" opacity="1"/>
		<rect x="350" y="255" width="86" height="46" fill="#FFF" stroke="#FFF" stroke-width="0" opacity="1"/>
		<rect x="350" y="225" width="86" height="76" fill="none" stroke="#000" stroke-width="1.5" opacity="1"/>
		<line x1="350" y1="255" x2="436" y2="255" stroke="#000" stroke-width="1.5"/>
	</g>
	<text x="358" y="246.3" fill="#000" font-family="Copperplate" font-size="18">Congue</text>
	<text x="358" y="272.1" fill="#000" font-family="Gill Sans" font-size="15">ligula</text>
	<line x1="358" y1="275" x2="390" y2="275" stroke="#000" stroke-width="1"/>
	<text x="358" y="289.1" fill="#000" font-family="Gill Sans" font-size="15">tellus</text>
</g>
</svg>