<svg xmlns="http://www.w3.org/2000/svg" width="457" height="227" viewBox="0 0 457 227">
<rect id="frame" x="0" y="0" width="457" height="227" fill="none" stroke="none" stroke-width="0"/>

<!-- Association Assistas -->
<g class="page_0_W2jNAvPV diagram_page" visibility="visible">
	<path d="M181 64 C136.33 96 94.33 96 55 64" fill="none" stroke="#000" stroke-width="1"/>
	<text x="107" y="79" fill="#000" font-family="Futura" font-size="11">0,1</text>
	<path d="M181 64 C135.67 32 93.67 32 55 64" fill="none" stroke="#000" stroke-width="1"/>
	<text x="106" y="57" fill="#000" font-family="Futura" font-size="11">0,N</text>
	<g>
		<path d="M87 35 a14 14 90 0 1 14 14 V63 h-92 V49 a14 14 90 0 1 14 -14" fill="#FFF" stroke="#FFF" stroke-width="0"/>
		<path d="M101 63 v16 a14 14 90 0 1 -14 14 H23 a14 14 90 0 1 -14 -14 V63 H92" fill="#FFF" stroke="#FFF" stroke-width="0"/>
		<rect x="9" y="35" width="92" height="58" fill="none" rx="14" stroke="#000" stroke-width="1.5"/>
		<line x1="9" y1="63" x2="101" y2="63" stroke="#000" stroke-width="1.5"/>
		<text x="16" y="56.3" fill="#000" font-family="Copperplate" font-size="18">Assistas</text>
	</g>
</g>

<!-- Association Rayonnait -->
<g class="page_0_W2jNAvPV diagram_page" visibility="visible">
	<line x1="181" y1="64" x2="315" y2="64" stroke="#000" stroke-width="1"/>
	<text x="237" y="80" fill="#000" font-family="Futura" font-size="11">0,N</text>
	<line x1="315" y1="180" x2="315" y2="64" stroke="#000" stroke-width="1"/>
	<text x="320" y="134" fill="#000" font-family="Futura" font-size="11">0,N</text>
	<g>
		<path d="M355 35 a14 14 90 0 1 14 14 V63 h-108 V49 a14 14 90 0 1 14 -14" fill="#FFF" stroke="#FFF" stroke-width="0"/>
		<path d="M369 63 v16 a14 14 90 0 1 -14 14 H275 a14 14 90 0 1 -14 -14 V63 H108" fill="#FFF" stroke="#FFF" stroke-width="0"/>
		<rect x="261" y="35" width="108" height="58" fill="none" rx="14" stroke="#000" stroke-width="1.5"/>
		<line x1="261" y1="63" x2="369" y2="63" stroke="#000" stroke-width="1.5"/>
		<text x="268" y="56.3" fill="#000" font-family="Copperplate" font-size="18">Rayonnait</text>
		<text x="268" y="81.1" fill="#000" font-family="Gill Sans" font-size="15">monobloc</text>
	</g>
</g>

<!-- Association Pillards -->
<g class="page_0_W2jNAvPV diagram_page" visibility="visible">
	<line x1="55" y1="180" x2="181" y2="180" stroke="#000" stroke-width="1"/>
	<text x="94" y="196" fill="#000" font-family="Futura" font-size="11">0,N</text>
	<line x1="315" y1="180" x2="181" y2="180" stroke="#000" stroke-width="1"/>
	<text x="245" y="196" fill="#000" font-family="Futura" font-size="11">0,N</text>
	<line x1="181" y1="64" x2="181" y2="180" stroke="#000" stroke-width="1"/>
	<text x="186" y="135" fill="#000" font-family="Futura" font-size="11">0,N</text>
	<g>
		<path d="M215 143 a14 14 90 0 1 14 14 V171 h-96 V157 a14 14 90 0 1 14 -14" fill="#FFF" stroke="#FFF" stroke-width="0"/>
		<path d="M229 171 v32 a14 14 90 0 1 -14 14 H147 a14 14 90 0 1 -14 -14 V171 H96" fill="#FFF" stroke="#FFF" stroke-width="0"/>
		<rect x="133" y="143" width="96" height="74" fill="none" rx="14" stroke="#000" stroke-width="1.5"/>
		<line x1="133" y1="171" x2="229" y2="171" stroke="#000" stroke-width="1.5"/>
		<text x="141" y="164.3" fill="#000" font-family="Copperplate" font-size="18">Pillards</text>
		<text x="140" y="189.1" fill="#000" font-family="Gill Sans" font-size="15">disions</text>
		<text x="140" y="206.1" fill="#000" font-family="Gill Sans" font-size="15">lascar</text>
	</g>
</g>

<!-- Association Puni -->
<g class="page_0_W2jNAvPV diagram_page" visibility="visible">
	<path d="M315 180 C360.33 148 395 148 419 180" fill="none" stroke="#000" stroke-width="1"/>
	<text x="366" y="174" fill="#000" font-family="Futura" font-size="11">1,1</text>
	<path d="M315 180 C361 212 395.67 212 419 180" fill="none" stroke="#000" stroke-width="1"/>
	<text x="366" y="194" fill="#000" font-family="Futura" font-size="11">0,N</text>
	<g>
		<path d="M434 151 a14 14 90 0 1 14 14 V179 h-58 V165 a14 14 90 0 1 14 -14" fill="#FFF" stroke="#FFF" stroke-width="0"/>
		<path d="M448 179 v16 a14 14 90 0 1 -14 14 H404 a14 14 90 0 1 -14 -14 V179 H58" fill="#FFF" stroke="#FFF" stroke-width="0"/>
		<rect x="390" y="151" width="58" height="58" fill="none" rx="14" stroke="#000" stroke-width="1.5"/>
		<line x1="390" y1="179" x2="448" y2="179" stroke="#000" stroke-width="1.5"/>
		<text x="398" y="172.3" fill="#000" font-family="Copperplate" font-size="18">Puni</text>
	</g>
</g>

<!-- Entity Hci poilu -->
<g class="page_0_W2jNAvPV diagram_page" visibility="visible">
	<g>
		<rect x="130" y="9" width="102" height="30" fill="#FFF" stroke="#FFF" stroke-width="0" opacity="1"/>
		<rect x="130" y="39" width="102" height="80" fill="#FFF" stroke="#FFF" stroke-width="0" opacity="1"/>
		<rect x="130" y="9" width="102" height="110" fill="none" stroke="#000" stroke-width="1.5" opacity="1"/>
		<line x1="130" y1="39" x2="232" y2="39" stroke="#000" stroke-width="1.5"/>
	</g>
	<text x="139" y="30.3" fill="#000" font-family="Copperplate" font-size="18">Hci poilu</text>
	<text x="138" y="56.1" fill="#000" font-family="Gill Sans" font-size="15">graffiti</text>
	<line x1="138" y1="59" x2="177" y2="59" stroke="#000" stroke-width="1"/>
	<text x="138" y="73.1" fill="#000" font-family="Gill Sans" font-size="15">champignon</text>
	<text x="138" y="90.1" fill="#000" font-family="Gill Sans" font-size="15">troussa</text>
	<text x="138" y="107" fill="#000" font-family="Gill Sans" font-size="15">graffiti</text>
</g>

<!-- Entity Brisa -->
<g class="page_0_W2jNAvPV diagram_page" visibility="visible">
	<g>
		<rect x="21" y="150" width="68" height="30" fill="#FFF" stroke="#FFF" stroke-width="0" opacity="1"/>
		<rect x="21" y="180" width="68" height="30" fill="#FFF" stroke="#FFF" stroke-width="0" opacity="1"/>
		<rect x="21" y="150" width="68" height="60" fill="none" stroke="#000" stroke-width="1.5" opacity="1"/>
		<line x1="21" y1="180" x2="89" y2="180" stroke="#000" stroke-width="1.5"/>
	</g>
	<text x="30" y="171.3" fill="#000" font-family="Copperplate" font-size="18">Brisa</text>
	<text x="29" y="197.1" fill="#000" font-family="Gill Sans" font-size="15">souffrait</text>
	<line x1="29" y1="200" x2="81" y2="200" stroke="#000" stroke-width="1"/>
</g>

<!-- Entity Lappa -->
<g class="page_0_W2jNAvPV diagram_page" visibility="visible">
	<g>
		<rect x="269" y="142" width="92" height="30" fill="#FFF" stroke="#FFF" stroke-width="0" opacity="1"/>
		<rect x="269" y="172" width="92" height="46" fill="#FFF" stroke="#FFF" stroke-width="0" opacity="1"/>
		<rect x="269" y="142" width="92" height="76" fill="none" stroke="#000" stroke-width="1.5" opacity="1"/>
		<line x1="269" y1="172" x2="361" y2="172" stroke="#000" stroke-width="1.5"/>
	</g>
	<text x="289" y="163.3" fill="#000" font-family="Copperplate" font-size="18">Lappa</text>
	<text x="277" y="189.1" fill="#000" font-family="Gill Sans" font-size="15">graffiti</text>
	<line x1="277" y1="192" x2="316" y2="192" stroke="#000" stroke-width="1"/>
	<text x="277" y="206.1" fill="#000" font-family="Gill Sans" font-size="15">champignon</text>
</g>
</svg>