<svg xmlns="http://www.w3.org/2000/svg" width="267" height="112" viewBox="0 0 267 112">
<rect id="frame" x="0" y="0" width="267" height="112" fill="none" stroke="none" stroke-width="0"/>

<!-- Association ENGENDRER -->
<g class="page_0_kF2HwyRu diagram_page" visibility="visible">
	<path d="M53 56 C84.67 24 131 24 192 56" fill="none" stroke="#000" stroke-width="1"/>
	<text x="102" y="49" fill="#000" font-family="Futura" font-size="11">0,N</text>
	<path d="M53 56 C84 88 130.33 88 192 56" fill="none" stroke="#000" stroke-width="1"/>
	<text x="102" y="71" fill="#000" font-family="Futura" font-size="11">1,1</text>
	<g>
		<path d="M244 27 a14 14 90 0 1 14 14 V55 h-132 V41 a14 14 90 0 1 14 -14" fill="#FFF" stroke="#FFF" stroke-width="0"/>
		<path d="M258 55 v16 a14 14 90 0 1 -14 14 H140 a14 14 90 0 1 -14 -14 V55 H132" fill="#FFF" stroke="#FFF" stroke-width="0"/>
		<rect x="126" y="27" width="132" height="58" fill="none" rx="14" stroke="#000" stroke-width="1.5"/>
		<line x1="126" y1="55" x2="258" y2="55" stroke="#000" stroke-width="1.5"/>
		<text x="134" y="48.3" fill="#000" font-family="Copperplate" font-size="18">ENGENDRER</text>
	</g>
</g>

<!-- Entity HOMME -->
<g class="page_0_kF2HwyRu diagram_page" visibility="visible">
	<g>
		<rect x="9" y="9" width="88" height="30" fill="#FFF" stroke="#FFF" stroke-width="0" opacity="1"/>
		<rect x="9" y="39" width="88" height="64" fill="#FFF" stroke="#FFF" stroke-width="0" opacity="1"/>
		<rect x="9" y="9" width="88" height="94" fill="none" stroke="#000" stroke-width="1.5" opacity="1"/>
		<line x1="9" y1="39" x2="97" y2="39" stroke="#000" stroke-width="1.5"/>
	</g>
	<text x="18" y="30.3" fill="#000" font-family="Copperplate" font-size="18">HOMME</text>
	<text x="17" y="56.1" fill="#000" font-family="Gill Sans" font-size="15">Num. SS</text>
	<line x1="17" y1="59" x2="71" y2="59" stroke="#000" stroke-width="1"/>
	<text x="17" y="73.1" fill="#000" font-family="Gill Sans" font-size="15">Nom</text>
	<text x="17" y="90" fill="#000" font-family="Gill Sans" font-size="15">Prénom</text>
</g>
</svg>