<svg xmlns="http://www.w3.org/2000/svg" width="686" height="144" viewBox="0 0 686 144">
<rect id="frame" x="0" y="0" width="686" height="144" fill="none" stroke="none" stroke-width="0"/>

<!-- Association PASSER -->
<g class="page_0_DNdKdNEh diagram_page" visibility="visible">
	<line x1="51" y1="72" x2="166" y2="72" stroke="#000" stroke-width="1"/>
	<text x="98" y="88" fill="#000" font-family="Futura" font-size="11">     </text>
	<line x1="302" y1="72" x2="166" y2="72" stroke="#000" stroke-width="1"/>
	<text x="216" y="88" fill="#000" font-family="Futura" font-size="11">     </text>
	<g>
		<path d="M196 43 a14 14 90 0 1 14 14 V71 h-88 V57 a14 14 90 0 1 14 -14" fill="#FFF" stroke="#FFF" stroke-width="0"/>
		<path d="M210 71 v16 a14 14 90 0 1 -14 14 H136 a14 14 90 0 1 -14 -14 V71 H88" fill="#FFF" stroke="#FFF" stroke-width="0"/>
		<rect x="122" y="43" width="88" height="58" fill="none" rx="14" stroke="#000" stroke-width="1.5"/>
		<line x1="122" y1="71" x2="210" y2="71" stroke="#000" stroke-width="1.5"/>
		<text x="129" y="64.3" fill="#000" font-family="Copperplate" font-size="18">PASSER</text>
	</g>
</g>

<!-- Association INCLURE -->
<g class="page_0_DNdKdNEh diagram_page" visibility="visible">
	<line x1="302" y1="72" x2="471" y2="72" stroke="#000" stroke-width="1"/>
	<text x="370" y="88" fill="#000" font-family="Futura" font-size="11">1,N</text>
	<line x1="627" y1="72" x2="471" y2="72" stroke="#000" stroke-width="1"/>
	<text x="553" y="88" fill="#000" font-family="Futura" font-size="11">0,N</text>
	<g>
		<path d="M534 9 a14 14 90 0 1 14 14 V37 h-154 V23 a14 14 90 0 1 14 -14" fill="#FFF" stroke="#FFF" stroke-width="0"/>
		<path d="M548 37 v84 a14 14 90 0 1 -14 14 H408 a14 14 90 0 1 -14 -14 V37 H154" fill="#FFF" stroke="#FFF" stroke-width="0"/>
		<rect x="394" y="9" width="154" height="126" fill="none" rx="14" stroke="#000" stroke-width="1.5"/>
		<line x1="394" y1="37" x2="548" y2="37" stroke="#000" stroke-width="1.5"/>
		<text x="430" y="30.3" fill="#000" font-family="Copperplate" font-size="18">INCLURE</text>
		<text x="401" y="55.1" fill="#000" font-family="Gill Sans" font-size="15">Quantité</text>
		<text x="401" y="72.1" fill="#000" font-family="Gill Sans" font-size="15">                  </text>
		<text x="401" y="89.1" fill="#000" font-family="Gill Sans" font-size="15"/>
		<text x="401" y="106" fill="#000" font-family="Gill Sans" font-size="15"/>
		<text x="401" y="123" fill="#000" font-family="Gill Sans" font-size="15"/>
	</g>
</g>

<!-- Entity CLIENT -->
<g class="page_0_DNdKdNEh diagram_page" visibility="visible">
	<g>
		<rect x="9" y="17" width="84" height="30" fill="#FFF" stroke="#FFF" stroke-width="0" opacity="1"/>
		<rect x="9" y="47" width="84" height="80" fill="#FFF" stroke="#FFF" stroke-width="0" opacity="1"/>
		<rect x="9" y="17" width="84" height="110" fill="none" stroke="#000" stroke-width="1.5" opacity="1"/>
		<line x1="9" y1="47" x2="93" y2="47" stroke="#000" stroke-width="1.5"/>
	</g>
	<text x="17" y="38.3" fill="#000" font-family="Copperplate" font-size="18">CLIENT</text>
	<text x="17" y="64.1" fill="#000" font-family="Gill Sans" font-size="15">Réf. client</text>
	<line x1="17" y1="67" x2="79" y2="67" stroke="#000" stroke-width="1"/>
</g>

<!-- Entity COMMANDE -->
<g class="page_0_DNdKdNEh diagram_page" visibility="visible">
	<g>
		<rect x="239" y="25" width="126" height="30" fill="#FFF" stroke="#FFF" stroke-width="0" opacity="1"/>
		<rect x="239" y="55" width="126" height="64" fill="#FFF" stroke="#FFF" stroke-width="0" opacity="1"/>
		<rect x="239" y="25" width="126" height="94" fill="none" stroke="#000" stroke-width="1.5" opacity="1"/>
		<line x1="239" y1="55" x2="365" y2="55" stroke="#000" stroke-width="1.5"/>
	</g>
	<text x="248" y="46.3" fill="#000" font-family="Copperplate" font-size="18">COMMANDE</text>
	<text x="247" y="89.1" fill="#000" font-family="Gill Sans" font-size="15">Date</text>
	<text x="247" y="106" fill="#000" font-family="Gill Sans" font-size="15">Montant</text>
</g>

<!-- Entity PRODUIT -->
<g class="page_0_DNdKdNEh diagram_page" visibility="visible">
	<g>
		<rect x="577" y="25" width="100" height="30" fill="#FFF" stroke="#FFF" stroke-width="0" opacity="1"/>
		<rect x="577" y="55" width="100" height="64" fill="#FFF" stroke="#FFF" stroke-width="0" opacity="1"/>
		<rect x="577" y="25" width="100" height="94" fill="none" stroke="#000" stroke-width="1.5" opacity="1"/>
		<line x1="577" y1="55" x2="677" y2="55" stroke="#000" stroke-width="1.5"/>
	</g>
	<text x="586" y="46.3" fill="#000" font-family="Copperplate" font-size="18">PRODUIT</text>
	<text x="585" y="72.1" fill="#000" font-family="Gill Sans" font-size="15">Réf. produit</text>
	<line x1="585" y1="75" x2="660" y2="75" stroke="#000" stroke-width="1"/>
	<text x="585" y="89.1" fill="#000" font-family="Gill Sans" font-size="15">Libellé</text>
	<text x="585" y="106" fill="#000" font-family="Gill Sans" font-size="15">Prix unitaire</text>
</g>
</svg>