<svg xmlns="http://www.w3.org/2000/svg" width="551" height="295" viewBox="0 0 551 295">
<rect id="frame" x="0" y="0" width="551" height="295" fill="none" stroke="none" stroke-width="0"/>

<!-- Association AMET -->
<g class="page_0_iLB648XO diagram_page" visibility="visible">
	<line x1="50" y1="156" x2="50" y2="47" stroke="#000" stroke-width="1"/>
	<text x="55" y="101" fill="#000" font-family="Futura" font-size="11">1,1</text>
	<polygon points="50 109 44 97 50 101 56 97" fill="#000" stroke-width="0"/>
	<line x1="200" y1="47" x2="50" y2="47" stroke="#000" stroke-width="1"/>
	<text x="93" y="63" fill="#000" font-family="Futura" font-size="11">0,1</text>
	<g>
		<path d="M73 18 a14 14 90 0 1 14 14 V46 h-74 V32 a14 14 90 0 1 14 -14" fill="#FFF" stroke="#FFF" stroke-width="0"/>
		<path d="M87 46 v16 a14 14 90 0 1 -14 14 H27 a14 14 90 0 1 -14 -14 V46 H74" fill="#FFF" stroke="#FFF" stroke-width="0"/>
		<rect x="13" y="18" width="74" height="58" fill="none" rx="14" stroke="#000" stroke-width="1.5"/>
		<line x1="13" y1="46" x2="87" y2="46" stroke="#000" stroke-width="1.5"/>
		<text x="25" y="39.3" fill="#000" font-family="Copperplate" font-size="18">AMET</text>
		<text x="20" y="64.1" fill="#000" font-family="Gill Sans" font-size="15">adipiscing</text>
	</g>
</g>

<!-- Association TORTOR -->
<g class="page_0_iLB648XO diagram_page" visibility="visible">
	<line x1="496" y1="156" x2="362" y2="47" stroke="#000" stroke-width="1"/>
	<text x="429" y="130.97" fill="#000" font-family="Futura" font-size="11">0,N</text>
	<line x1="362" y1="156" x2="362" y2="47" stroke="#000" stroke-width="1"/>
	<text x="367" y="101" fill="#000" font-family="Futura" font-size="11">1,1</text>
	<line x1="200" y1="47" x2="362" y2="47" stroke="#000" stroke-width="1"/>
	<text x="289" y="63" fill="#000" font-family="Futura" font-size="11">1,N</text>
	<g>
		<path d="M394 18 a14 14 90 0 1 14 14 V46 h-92 V32 a14 14 90 0 1 14 -14" fill="#FFF" stroke="#FFF" stroke-width="0"/>
		<path d="M408 46 v16 a14 14 90 0 1 -14 14 H330 a14 14 90 0 1 -14 -14 V46 H92" fill="#FFF" stroke="#FFF" stroke-width="0"/>
		<rect x="316" y="18" width="92" height="58" fill="none" rx="14" stroke="#000" stroke-width="1.5"/>
		<line x1="316" y1="46" x2="408" y2="46" stroke="#000" stroke-width="1.5"/>
		<text x="324" y="39.3" fill="#000" font-family="Copperplate" font-size="18">TORTOR</text>
		<text x="323" y="64.1" fill="#000" font-family="Gill Sans" font-size="15">nec</text>
	</g>
</g>

<!-- Association DF -->
<g class="page_0_iLB648XO diagram_page" visibility="visible">
	<path d="M496 156 C458.67 113.67 458.67 77.33 496 47" fill="none" stroke="#000" stroke-width="1"/>
	<text x="474" y="101" fill="#000" font-family="Futura" font-size="11">1,1</text>
	<path d="M496 156 C534.67 113.67 534.67 77.33 496 47" fill="none" stroke="#000" stroke-width="1"/>
	<text x="500" y="101" fill="#000" font-family="Futura" font-size="11">0,N</text>
	<g>
		<circle cx="496" cy="47" r="20" stroke="#000" stroke-width="1.5" fill="#FFF"/>
		<text x="483" y="51.8" fill="#000" font-family="Copperplate" font-size="18">DF</text>
	</g>
</g>

<!-- Association SOLLICITUDIN -->
<g class="page_0_iLB648XO diagram_page" visibility="visible">
	<line x1="200" y1="256" x2="200" y2="156" stroke="#000" stroke-width="1"/>
	<text x="205" y="218" fill="#000" font-family="Futura" font-size="11">0,N</text>
	<line x1="200" y1="47" x2="200" y2="156" stroke="#000" stroke-width="1"/>
	<text x="205" y="101" fill="#000" font-family="Futura" font-size="11">0,N</text>
	<line x1="50" y1="156" x2="200" y2="156" stroke="#000" stroke-width="1"/>
	<text x="96" y="172" fill="#000" font-family="Futura" font-size="11">0,N</text>
	<g>
		<path d="M259 127 a14 14 90 0 1 14 14 V155 h-146 V141 a14 14 90 0 1 14 -14" fill="#FFF" stroke="#FFF" stroke-width="0"/>
		<path d="M273 155 v16 a14 14 90 0 1 -14 14 H141 a14 14 90 0 1 -14 -14 V155 H146" fill="#FFF" stroke="#FFF" stroke-width="0"/>
		<rect x="127" y="127" width="146" height="58" fill="none" rx="14" stroke="#000" stroke-width="1.5"/>
		<line x1="127" y1="155" x2="273" y2="155" stroke="#000" stroke-width="1.5"/>
		<text x="135" y="148.3" fill="#000" font-family="Copperplate" font-size="18">SOLLICITUDIN</text>
		<text x="134" y="173.1" fill="#000" font-family="Gill Sans" font-size="15">lectus</text>
	</g>
</g>

<!-- Association DF1 -->
<g class="page_0_iLB648XO diagram_page" visibility="visible">
	<line x1="50" y1="156" x2="50" y2="256" stroke="#000" stroke-width="1"/>
	<text x="55" y="219" fill="#000" font-family="Futura" font-size="11">1,1</text>
	<line x1="200" y1="256" x2="50" y2="256" stroke="#000" stroke-width="1"/>
	<text x="102" y="272" fill="#000" font-family="Futura" font-size="11">1,N</text>
	<g>
		<circle cx="50" cy="256" r="20" stroke="#000" stroke-width="1.5" fill="#FFF"/>
		<text x="37" y="260.8" fill="#000" font-family="Copperplate" font-size="18">DF</text>
	</g>
</g>

<!-- Association MAECENAS -->
<g class="page_0_iLB648XO diagram_page" visibility="visible">
	<path d="M362 156 C400.67 201.33 400.67 234.67 362 256" fill="none" stroke="#000" stroke-width="1"/>
	<text x="365" y="219" fill="#000" font-family="Futura" font-size="11">1,N</text>
	<path d="M362 156 C323.33 201.33 323.33 234.67 362 256" fill="none" stroke="#000" stroke-width="1"/>
	<text x="340" y="219" fill="#000" font-family="Futura" font-size="11">1,N</text>
	<g>
		<path d="M407 227 a14 14 90 0 1 14 14 V255 h-118 V241 a14 14 90 0 1 14 -14" fill="#FFF" stroke="#FFF" stroke-width="0"/>
		<path d="M421 255 v16 a14 14 90 0 1 -14 14 H317 a14 14 90 0 1 -14 -14 V255 H118" fill="#FFF" stroke="#FFF" stroke-width="0"/>
		<rect x="303" y="227" width="118" height="58" fill="none" rx="14" stroke="#000" stroke-width="1.5"/>
		<line x1="303" y1="255" x2="421" y2="255" stroke="#000" stroke-width="1.5"/>
		<text x="311" y="248.3" fill="#000" font-family="Copperplate" font-size="18">MAECENAS</text>
	</g>
</g>

<!-- Association SEMPER -->
<g class="page_0_iLB648XO diagram_page" visibility="visible">
	<line x1="496" y1="156" x2="496" y2="256" stroke="#000" stroke-width="1"/>
	<text x="501" y="219" fill="#000" font-family="Futura" font-size="11">0,N</text>
	<line x1="362" y1="156" x2="496" y2="256" stroke="#000" stroke-width="1"/>
	<text x="424" y="196.17" fill="#000" font-family="Futura" font-size="11">1,N</text>
	<g>
		<path d="M528 227 a14 14 90 0 1 14 14 V255 h-92 V241 a14 14 90 0 1 14 -14" fill="#FFF" stroke="#FFF" stroke-width="0"/>
		<path d="M542 255 v16 a14 14 90 0 1 -14 14 H464 a14 14 90 0 1 -14 -14 V255 H92" fill="#FFF" stroke="#FFF" stroke-width="0"/>
		<rect x="450" y="227" width="92" height="58" fill="none" rx="14" stroke="#000" stroke-width="1.5"/>
		<line x1="450" y1="255" x2="542" y2="255" stroke="#000" stroke-width="1.5"/>
		<text x="458" y="248.3" fill="#000" font-family="Copperplate" font-size="18">SEMPER</text>
	</g>
</g>

<!-- Entity CONSECTETUER -->
<g class="page_0_iLB648XO diagram_page" visibility="visible">
	<g>
		<rect x="116" y="9" width="168" height="30" fill="#FFF" stroke="#FFF" stroke-width="0" opacity="1"/>
		<rect x="116" y="39" width="168" height="46" fill="#FFF" stroke="#FFF" stroke-width="0" opacity="1"/>
		<rect x="116" y="9" width="168" height="76" fill="none" stroke="#000" stroke-width="1.5" opacity="1"/>
		<line x1="116" y1="39" x2="284" y2="39" stroke="#000" stroke-width="1.5"/>
	</g>
	<text x="125" y="30.3" fill="#000" font-family="Copperplate" font-size="18">CONSECTETUER</text>
	<text x="124" y="56.1" fill="#000" font-family="Gill Sans" font-size="15">elit</text>
	<line x1="124" y1="59" x2="144" y2="59" stroke="#000" stroke-width="1"/>
	<text x="124" y="73.1" fill="#000" font-family="Gill Sans" font-size="15">sed</text>
</g>

<!-- Entity LOREM -->
<g class="page_0_iLB648XO diagram_page" visibility="visible">
	<g>
		<rect x="9" y="109" width="82" height="30" fill="#FFF" stroke="#FFF" stroke-width="0" opacity="1"/>
		<rect x="9" y="139" width="82" height="64" fill="#FFF" stroke="#FFF" stroke-width="0" opacity="1"/>
		<rect x="9" y="109" width="82" height="94" fill="none" stroke="#000" stroke-width="1.5" opacity="1"/>
		<line x1="9" y1="139" x2="91" y2="139" stroke="#000" stroke-width="1.5"/>
	</g>
	<text x="17" y="130.3" fill="#000" font-family="Copperplate" font-size="18">LOREM</text>
	<text x="17" y="156.1" fill="#000" font-family="Gill Sans" font-size="15">ipsum</text>
	<line x1="17" y1="159" x2="54" y2="159" stroke="#000" stroke-width="1"/>
	<text x="17" y="173.1" fill="#000" font-family="Gill Sans" font-size="15">dolor</text>
	<text x="17" y="190" fill="#000" font-family="Gill Sans" font-size="15">sit</text>
</g>

<!-- Entity DIGNISSIM -->
<g class="page_0_iLB648XO diagram_page" visibility="visible">
	<g>
		<rect x="305" y="109" width="114" height="30" fill="#FFF" stroke="#FFF" stroke-width="0" opacity="1"/>
		<rect x="305" y="139" width="114" height="64" fill="#FFF" stroke="#FFF" stroke-width="0" opacity="1"/>
		<rect x="305" y="109" width="114" height="94" fill="none" stroke="#000" stroke-width="1.5" opacity="1"/>
		<line x1="305" y1="139" x2="419" y2="139" stroke="#000" stroke-width="1.5"/>
	</g>
	<text x="313" y="130.3" fill="#000" font-family="Copperplate" font-size="18">DIGNISSIM</text>
	<text x="313" y="156.1" fill="#000" font-family="Gill Sans" font-size="15">ligula</text>
	<line x1="313" y1="159" x2="345" y2="159" stroke="#000" stroke-width="1"/>
	<text x="313" y="173.1" fill="#000" font-family="Gill Sans" font-size="15">massa</text>
	<text x="313" y="190" fill="#000" font-family="Gill Sans" font-size="15">varius</text>
</g>

<!-- Entity RISUS -->
<g class="page_0_iLB648XO diagram_page" visibility="visible">
	<g>
		<rect x="453" y="109" width="86" height="30" fill="#FFF" stroke="#FFF" stroke-width="0" opacity="1"/>
		<rect x="453" y="139" width="86" height="64" fill="#FFF" stroke="#FFF" stroke-width="0" opacity="1"/>
		<rect x="453" y="109" width="86" height="94" fill="none" stroke="#000" stroke-width="1.5" opacity="1"/>
		<line x1="453" y1="139" x2="539" y2="139" stroke="#000" stroke-width="1.5"/>
	</g>
	<text x="468" y="130.3" fill="#000" font-family="Copperplate" font-size="18">RISUS</text>
	<text x="461" y="156.1" fill="#000" font-family="Gill Sans" font-size="15">ultricies</text>
	<line x1="461" y1="159" x2="511" y2="159" stroke="#000" stroke-width="1"/>
	<text x="461" y="173.1" fill="#000" font-family="Gill Sans" font-size="15">cras</text>
	<line x1="461" y1="176" x2="487" y2="176" stroke="#000" stroke-width="1"/>
	<text x="461" y="190" fill="#000" font-family="Gill Sans" font-size="15">elementum</text>
</g>

<!-- Entity SUSPENDISSE -->
<g class="page_0_iLB648XO diagram_page" visibility="visible">
	<g>
		<rect x="126" y="226" width="148" height="30" fill="#FFF" stroke="#FFF" stroke-width="0" opacity="1"/>
		<rect x="126" y="256" width="148" height="30" fill="#FFF" stroke="#FFF" stroke-width="0" opacity="1"/>
		<rect x="126" y="226" width="148" height="60" fill="none" stroke="#000" stroke-width="1.5" opacity="1"/>
		<line x1="126" y1="256" x2="274" y2="256" stroke="#000" stroke-width="1.5"/>
	</g>
	<text x="135" y="247.3" fill="#000" font-family="Copperplate" font-size="18">SUSPENDISSE</text>
	<text x="134" y="273.1" fill="#000" font-family="Gill Sans" font-size="15">diam</text>
	<line x1="134" y1="276" x2="164" y2="276" stroke="#000" stroke-width="1"/>
</g>
</svg>