<svg xmlns="http://www.w3.org/2000/svg" width="346" height="130" viewBox="0 0 346 130">
<rect id="frame" x="0" y="0" width="346" height="130" fill="none" stroke="none" stroke-width="0"/>

<!-- Association LIGULA -->
<g class="page_0_ufjNljeY diagram_page" visibility="visible">
	<line x1="57" y1="65" x2="176" y2="65" stroke="#000" stroke-width="1"/>
	<text x="106" y="86" fill="#000" font-family="Futura" font-size="11">0,N</text>
	<line x1="292" y1="65" x2="176" y2="65" stroke="#000" stroke-width="1" stroke-dasharray="4"/>
	<text x="227" y="86" fill="#000" font-family="Futura" font-size="11">1,N</text>
	<g>
		<polygon points="13,22,222,22,222,108,13,108" fill="#FFF" stroke="none" stroke-width="0" opacity="0.2"/>
		<polygon points="13,22,222,22,222,108,13,108" fill="none" stroke="#000" stroke-width="1.5" stroke-dasharray="0,4" stroke-linecap="round"/>
		<path d="M203 36 a14 14 90 0 1 14 14 V64 h-82 V50 a14 14 90 0 1 14 -14" fill="#FFF" stroke="#FFF" stroke-width="0"/>
		<path d="M217 64 v16 a14 14 90 0 1 -14 14 H149 a14 14 90 0 1 -14 -14 V64 H82" fill="#FFF" stroke="#FFF" stroke-width="0"/>
		<rect x="135" y="36" width="82" height="58" fill="none" rx="14" stroke="#000" stroke-width="1.5"/>
		<line x1="135" y1="64" x2="217" y2="64" stroke="#000" stroke-width="1.5"/>
		<text x="143" y="57.3" fill="#000" font-family="Copperplate" font-size="18">LIGULA</text>
		<text x="142" y="82.1" fill="#000" font-family="Gill Sans" font-size="15">metus</text>
	</g>
</g>

<!-- Entity LACUS -->
<g class="page_0_ufjNljeY diagram_page" visibility="visible">
	<g>
		<rect x="18" y="27" width="78" height="30" fill="#FFF" stroke="#FFF" stroke-width="0" opacity="1"/>
		<rect x="18" y="57" width="78" height="46" fill="#FFF" stroke="#FFF" stroke-width="0" opacity="1"/>
		<rect x="18" y="27" width="78" height="76" fill="none" stroke="#000" stroke-width="1.5" opacity="1"/>
		<line x1="18" y1="57" x2="96" y2="57" stroke="#000" stroke-width="1.5"/>
	</g>
	<text x="26" y="48.3" fill="#000" font-family="Copperplate" font-size="18">LACUS</text>
	<text x="26" y="74.1" fill="#000" font-family="Gill Sans" font-size="15">blandit</text>
	<line x1="26" y1="77" x2="68" y2="77" stroke="#000" stroke-width="1"/>
	<text x="26" y="91.1" fill="#000" font-family="Gill Sans" font-size="15">elit</text>
</g>

<!-- Entity EROS -->
<g class="page_0_ufjNljeY diagram_page" visibility="visible">
	<g>
		<rect x="256" y="18" width="72" height="30" fill="#FFF" stroke="#FFF" stroke-width="0" opacity="1"/>
		<rect x="256" y="48" width="72" height="64" fill="#FFF" stroke="#FFF" stroke-width="0" opacity="1"/>
		<rect x="256" y="18" width="72" height="94" fill="none" stroke="#000" stroke-width="1.5" opacity="1"/>
		<line x1="256" y1="48" x2="328" y2="48" stroke="#000" stroke-width="1.5"/>
	</g>
	<text x="266" y="39.3" fill="#000" font-family="Copperplate" font-size="18">EROS</text>
	<text x="264" y="65.1" fill="#000" font-family="Gill Sans" font-size="15">congue</text>
	<line x1="264" y1="68" x2="309" y2="68" stroke="#000" stroke-width="1"/>
	<text x="264" y="82.1" fill="#000" font-family="Gill Sans" font-size="15">nibh</text>
	<text x="264" y="99" fill="#000" font-family="Gill Sans" font-size="15">tincidunt</text>
</g>
</svg>