<svg xmlns="http://www.w3.org/2000/svg" width="524" height="400" viewBox="0 0 524 400">
<rect id="frame" x="0" y="0" width="524" height="400" fill="none" stroke="none" stroke-width="0"/>

<!-- Association Quis -->
<g class="page_0_fhy9NDgf diagram_page" visibility="visible">
	<line x1="114" y1="155" x2="114" y2="47" stroke="#000" stroke-width="1"/>
	<text x="119" y="92" fill="#000" font-family="Futura" font-size="11">0,1</text>
	<line x1="228" y1="47" x2="114" y2="47" stroke="#000" stroke-width="1"/>
	<text x="162" y="63" fill="#000" font-family="Futura" font-size="11">1,N</text>
	<g>
		<path d="M129 18 a14 14 90 0 1 14 14 V46 h-58 V32 a14 14 90 0 1 14 -14" fill="#FFF" stroke="#FFF" stroke-width="0"/>
		<path d="M143 46 v16 a14 14 90 0 1 -14 14 H99 a14 14 90 0 1 -14 -14 V46 H58" fill="#FFF" stroke="#FFF" stroke-width="0"/>
		<rect x="85" y="18" width="58" height="58" fill="none" rx="14" stroke="#000" stroke-width="1.5"/>
		<line x1="85" y1="46" x2="143" y2="46" stroke="#000" stroke-width="1.5"/>
		<text x="93" y="39.3" fill="#000" font-family="Copperplate" font-size="18">Quis</text>
	</g>
</g>

<!-- Association Odio -->
<g class="page_0_fhy9NDgf diagram_page" visibility="visible">
	<line x1="228" y1="47" x2="351" y2="47" stroke="#000" stroke-width="1"/>
	<text x="275" y="63" fill="#000" font-family="Futura" font-size="11">1,N</text>
	<line x1="351" y1="155" x2="351" y2="47" stroke="#000" stroke-width="1"/>
	<text x="356" y="109" fill="#000" font-family="Futura" font-size="11">0,N</text>
	<g>
		<path d="M368 18 a14 14 90 0 1 14 14 V46 h-62 V32 a14 14 90 0 1 14 -14" fill="#FFF" stroke="#FFF" stroke-width="0"/>
		<path d="M382 46 v16 a14 14 90 0 1 -14 14 H334 a14 14 90 0 1 -14 -14 V46 H62" fill="#FFF" stroke="#FFF" stroke-width="0"/>
		<rect x="320" y="18" width="62" height="58" fill="none" rx="14" stroke="#000" stroke-width="1.5"/>
		<line x1="320" y1="46" x2="382" y2="46" stroke="#000" stroke-width="1.5"/>
		<text x="330" y="39.3" fill="#000" font-family="Copperplate" font-size="18">Odio</text>
		<text x="327" y="64.1" fill="#000" font-family="Gill Sans" font-size="15">suscipit</text>
	</g>
</g>

<!-- Association Ac -->
<g class="page_0_fhy9NDgf diagram_page" visibility="visible">
	<path d="M114 155 C73.33 187 44.67 187 28 155" fill="none" stroke="#000" stroke-width="1"/>
	<text x="53" y="168" fill="#000" font-family="Futura" font-size="11">0,1</text>
	<path d="M114 155 C72.67 123 44 123 28 155" fill="none" stroke="#000" stroke-width="1"/>
	<text x="52" y="150" fill="#000" font-family="Futura" font-size="11">0,N</text>
	<g>
		<path d="M33 126 a14 14 90 0 1 14 14 V154 h-38 V140 a14 14 90 0 1 14 -14" fill="#FFF" stroke="#FFF" stroke-width="0"/>
		<path d="M47 154 v16 a14 14 90 0 1 -14 14 H23 a14 14 90 0 1 -14 -14 V154 H38" fill="#FFF" stroke="#FFF" stroke-width="0"/>
		<rect x="9" y="126" width="38" height="58" fill="none" rx="14" stroke="#000" stroke-width="1.5"/>
		<line x1="9" y1="154" x2="47" y2="154" stroke="#000" stroke-width="1.5"/>
		<text x="17" y="147.3" fill="#000" font-family="Copperplate" font-size="18">Ac</text>
	</g>
</g>

<!-- Association Diam leo -->
<g class="page_0_fhy9NDgf diagram_page" visibility="visible">
	<line x1="114" y1="155" x2="228" y2="155" stroke="#000" stroke-width="1"/>
	<text x="157" y="147" fill="#000" font-family="Futura" font-size="11">1,N</text>
	<line x1="351" y1="155" x2="228" y2="155" stroke="#000" stroke-width="1"/>
	<text x="280" y="147" fill="#000" font-family="Futura" font-size="11">0,N</text>
	<g>
		<path d="M261 126 a14 14 90 0 1 14 14 V154 h-94 V140 a14 14 90 0 1 14 -14" fill="#FFF" stroke="#FFF" stroke-width="0"/>
		<path d="M275 154 v16 a14 14 90 0 1 -14 14 H195 a14 14 90 0 1 -14 -14 V154 H94" fill="#FFF" stroke="#FFF" stroke-width="0"/>
		<rect x="181" y="126" width="94" height="58" fill="none" rx="14" stroke="#000" stroke-width="1.5"/>
		<line x1="181" y1="154" x2="275" y2="154" stroke="#000" stroke-width="1.5"/>
		<text x="189" y="147.3" fill="#000" font-family="Copperplate" font-size="18">Diam leo</text>
	</g>
</g>

<!-- Association Pretium -->
<g class="page_0_fhy9NDgf diagram_page" visibility="visible">
	<path d="M351 155 C393 123 433 123 471 155" fill="none" stroke="#000" stroke-width="1"/>
	<text x="403" y="148" fill="#000" font-family="Futura" font-size="11">0,N</text>
	<path d="M351 155 C393 187 433 187 471 155" fill="none" stroke="#000" stroke-width="1"/>
	<text x="403" y="170" fill="#000" font-family="Futura" font-size="11">0,N</text>
	<g>
		<path d="M501 126 a14 14 90 0 1 14 14 V154 h-88 V140 a14 14 90 0 1 14 -14" fill="#FFF" stroke="#FFF" stroke-width="0"/>
		<path d="M515 154 v16 a14 14 90 0 1 -14 14 H441 a14 14 90 0 1 -14 -14 V154 H88" fill="#FFF" stroke="#FFF" stroke-width="0"/>
		<rect x="427" y="126" width="88" height="58" fill="none" rx="14" stroke="#000" stroke-width="1.5"/>
		<line x1="427" y1="154" x2="515" y2="154" stroke="#000" stroke-width="1.5"/>
		<text x="434" y="147.3" fill="#000" font-family="Copperplate" font-size="18">Pretium</text>
	</g>
</g>

<!-- Association Curae -->
<g class="page_0_fhy9NDgf diagram_page" visibility="visible">
	<line x1="114" y1="155" x2="114" y2="263" stroke="#000" stroke-width="1"/>
	<text x="90" y="226" fill="#000" font-family="Futura" font-size="11">0,N</text>
	<line x1="351" y1="353" x2="114" y2="263" stroke="#000" stroke-width="1"/>
	<text x="287" y="350.84" fill="#000" font-family="Futura" font-size="11">0,N</text>
	<g>
		<path d="M136 234 a14 14 90 0 1 14 14 V262 h-72 V248 a14 14 90 0 1 14 -14" fill="#FFF" stroke="#FFF" stroke-width="0"/>
		<path d="M150 262 v16 a14 14 90 0 1 -14 14 H92 a14 14 90 0 1 -14 -14 V262 H72" fill="#FFF" stroke="#FFF" stroke-width="0"/>
		<rect x="78" y="234" width="72" height="58" fill="none" rx="14" stroke="#000" stroke-width="1.5"/>
		<line x1="78" y1="262" x2="150" y2="262" stroke="#000" stroke-width="1.5"/>
		<text x="86" y="255.3" fill="#000" font-family="Copperplate" font-size="18">Curae</text>
		<text x="85" y="280.1" fill="#000" font-family="Gill Sans" font-size="15">pede</text>
	</g>
</g>

<!-- Association METUS -->
<g class="page_0_fhy9NDgf diagram_page" visibility="visible">
	<line x1="351" y1="353" x2="228" y2="263" stroke="#000" stroke-width="1"/>
	<text x="288" y="334.19" fill="#000" font-family="Futura" font-size="11">1,1</text>
	<line x1="351" y1="155" x2="228" y2="263" stroke="#000" stroke-width="1"/>
	<text x="306.3" y="209" fill="#000" font-family="Futura" font-size="11">0,N</text>
	<g>
		<path d="M253 234 a14 14 90 0 1 14 14 V262 h-78 V248 a14 14 90 0 1 14 -14" fill="#FFF" stroke="#FFF" stroke-width="0"/>
		<path d="M267 262 v16 a14 14 90 0 1 -14 14 H203 a14 14 90 0 1 -14 -14 V262 H78" fill="#FFF" stroke="#FFF" stroke-width="0"/>
		<rect x="189" y="234" width="78" height="58" fill="none" rx="14" stroke="#000" stroke-width="1.5"/>
		<line x1="189" y1="262" x2="267" y2="262" stroke="#000" stroke-width="1.5"/>
		<text x="196" y="255.3" fill="#000" font-family="Copperplate" font-size="18">METUS</text>
	</g>
</g>

<!-- Association Lorem -->
<g class="page_0_fhy9NDgf diagram_page" visibility="visible">
	<line x1="114" y1="353" x2="228" y2="353" stroke="#000" stroke-width="1"/>
	<text x="167" y="369" fill="#000" font-family="Futura" font-size="11">0,N</text>
	<line x1="351" y1="353" x2="228" y2="353" stroke="#000" stroke-width="1"/>
	<text x="287" y="369" fill="#000" font-family="Futura" font-size="11">0,N</text>
	<line x1="114" y1="155" x2="228" y2="353" stroke="#000" stroke-width="1"/>
	<text x="126.14" y="226" fill="#000" font-family="Futura" font-size="11">0,N</text>
	<g>
		<path d="M250 316 a14 14 90 0 1 14 14 V344 h-72 V330 a14 14 90 0 1 14 -14" fill="#FFF" stroke="#FFF" stroke-width="0"/>
		<path d="M264 344 v32 a14 14 90 0 1 -14 14 H206 a14 14 90 0 1 -14 -14 V344 H72" fill="#FFF" stroke="#FFF" stroke-width="0"/>
		<rect x="192" y="316" width="72" height="74" fill="none" rx="14" stroke="#000" stroke-width="1.5"/>
		<line x1="192" y1="344" x2="264" y2="344" stroke="#000" stroke-width="1.5"/>
		<text x="200" y="337.3" fill="#000" font-family="Copperplate" font-size="18">Lorem</text>
		<text x="199" y="362.1" fill="#000" font-family="Gill Sans" font-size="15">lacus</text>
		<text x="199" y="379.1" fill="#000" font-family="Gill Sans" font-size="15">feugiat</text>
	</g>
</g>

<!-- Entity Ipsum a -->
<g class="page_0_fhy9NDgf diagram_page" visibility="visible">
	<g>
		<rect x="186" y="9" width="84" height="30" fill="#FFF" stroke="#FFF" stroke-width="0" opacity="1"/>
		<rect x="186" y="39" width="84" height="46" fill="#FFF" stroke="#FFF" stroke-width="0" opacity="1"/>
		<rect x="186" y="9" width="84" height="76" fill="none" stroke="#000" stroke-width="1.5" opacity="1"/>
		<line x1="186" y1="39" x2="270" y2="39" stroke="#000" stroke-width="1.5"/>
	</g>
	<text x="195" y="30.3" fill="#000" font-family="Copperplate" font-size="18">Ipsum a</text>
	<text x="194" y="56.1" fill="#000" font-family="Gill Sans" font-size="15">semper</text>
	<line x1="194" y1="59" x2="241" y2="59" stroke="#000" stroke-width="1"/>
	<text x="194" y="73.1" fill="#000" font-family="Gill Sans" font-size="15">massa</text>
</g>

<!-- Entity Risus -->
<g class="page_0_fhy9NDgf diagram_page" visibility="visible">
	<g>
		<rect x="76" y="100" width="76" height="30" fill="#FFF" stroke="#FFF" stroke-width="0" opacity="1"/>
		<rect x="76" y="130" width="76" height="80" fill="#FFF" stroke="#FFF" stroke-width="0" opacity="1"/>
		<rect x="76" y="100" width="76" height="110" fill="none" stroke="#000" stroke-width="1.5" opacity="1"/>
		<line x1="76" y1="130" x2="152" y2="130" stroke="#000" stroke-width="1.5"/>
	</g>
	<text x="88" y="121.3" fill="#000" font-family="Copperplate" font-size="18">Risus</text>
	<text x="84" y="147.1" fill="#000" font-family="Gill Sans" font-size="15">euismod</text>
	<line x1="84" y1="150" x2="137" y2="150" stroke="#000" stroke-width="1"/>
	<text x="84" y="164.1" fill="#000" font-family="Gill Sans" font-size="15">semper</text>
	<text x="84" y="181.1" fill="#000" font-family="Gill Sans" font-size="15">dederit</text>
	<text x="84" y="198" fill="#000" font-family="Gill Sans" font-size="15">ribandum</text>
</g>

<!-- Entity Posuere -->
<g class="page_0_fhy9NDgf diagram_page" visibility="visible">
	<g>
		<rect x="304" y="117" width="94" height="30" fill="#FFF" stroke="#FFF" stroke-width="0" opacity="1"/>
		<rect x="304" y="147" width="94" height="46" fill="#FFF" stroke="#FFF" stroke-width="0" opacity="1"/>
		<rect x="304" y="117" width="94" height="76" fill="none" stroke="#000" stroke-width="1.5" opacity="1"/>
		<line x1="304" y1="147" x2="398" y2="147" stroke="#000" stroke-width="1.5"/>
	</g>
	<text x="313" y="138.3" fill="#000" font-family="Copperplate" font-size="18">Posuere</text>
	<text x="312" y="164.1" fill="#000" font-family="Gill Sans" font-size="15">semper</text>
	<line x1="312" y1="167" x2="359" y2="167" stroke="#000" stroke-width="1"/>
	<text x="312" y="181.1" fill="#000" font-family="Gill Sans" font-size="15">massa</text>
</g>

<!-- Entity Ultrices -->
<g class="page_0_fhy9NDgf diagram_page" visibility="visible">
	<g>
		<rect x="66" y="323" width="96" height="30" fill="#FFF" stroke="#FFF" stroke-width="0" opacity="1"/>
		<rect x="66" y="353" width="96" height="30" fill="#FFF" stroke="#FFF" stroke-width="0" opacity="1"/>
		<rect x="66" y="323" width="96" height="60" fill="none" stroke="#000" stroke-width="1.5" opacity="1"/>
		<line x1="66" y1="353" x2="162" y2="353" stroke="#000" stroke-width="1.5"/>
	</g>
	<text x="74" y="344.3" fill="#000" font-family="Copperplate" font-size="18">Ultrices</text>
	<text x="74" y="370.1" fill="#000" font-family="Gill Sans" font-size="15">libero</text>
	<line x1="74" y1="373" x2="111" y2="373" stroke="#000" stroke-width="1"/>
</g>

<!-- Entity Tellus -->
<g class="page_0_fhy9NDgf diagram_page" visibility="visible">
	<g>
		<rect x="311" y="315" width="80" height="30" fill="#FFF" stroke="#FFF" stroke-width="0" opacity="1"/>
		<rect x="311" y="345" width="80" height="46" fill="#FFF" stroke="#FFF" stroke-width="0" opacity="1"/>
		<rect x="311" y="315" width="80" height="76" fill="none" stroke="#000" stroke-width="1.5" opacity="1"/>
		<line x1="311" y1="345" x2="391" y2="345" stroke="#000" stroke-width="1.5"/>
	</g>
	<text x="319" y="336.3" fill="#000" font-family="Copperplate" font-size="18">Tellus</text>
	<text x="319" y="362.1" fill="#000" font-family="Gill Sans" font-size="15">domus</text>
	<line x1="319" y1="365" x2="362" y2="365" stroke="#000" stroke-width="1"/>
	<text x="319" y="379.1" fill="#000" font-family="Gill Sans" font-size="15">tempero</text>
</g>
</svg>