<svg xmlns="http://www.w3.org/2000/svg" width="588" height="128" viewBox="0 0 588 128">
<rect id="frame" x="0" y="0" width="588" height="128" fill="none" stroke="none" stroke-width="0"/>

<!-- Association CIF -->
<g class="page_0_vFTOXWoD diagram_page" visibility="visible">
	<line x1="51" y1="64" x2="145" y2="64" stroke="#000" stroke-width="1"/>
	<text x="98" y="80" fill="#000" font-family="Futura" font-size="11">0,N</text>
	<line x1="260" y1="64" x2="145" y2="64" stroke="#000" stroke-width="1"/>
	<text x="174" y="80" fill="#000" font-family="Futura" font-size="11">1,1</text>
	<g>
		<circle cx="145" cy="64" r="23" stroke="#000" stroke-width="1.5" fill="#FFF"/>
		<text x="129" y="65.8" fill="#000" font-family="Copperplate" font-size="18">CIF</text>
	</g>
</g>

<!-- Association INCLURE -->
<g class="page_0_vFTOXWoD diagram_page" visibility="visible">
	<line x1="260" y1="64" x2="401" y2="64" stroke="#000" stroke-width="1"/>
	<text x="328" y="80" fill="#000" font-family="Futura" font-size="11">1,N</text>
	<line x1="529" y1="64" x2="401" y2="64" stroke="#000" stroke-width="1"/>
	<text x="455" y="80" fill="#000" font-family="Futura" font-size="11">0,N</text>
	<g>
		<path d="M436 35 a14 14 90 0 1 14 14 V63 h-98 V49 a14 14 90 0 1 14 -14" fill="#FFF" stroke="#FFF" stroke-width="0"/>
		<path d="M450 63 v16 a14 14 90 0 1 -14 14 H366 a14 14 90 0 1 -14 -14 V63 H98" fill="#FFF" stroke="#FFF" stroke-width="0"/>
		<rect x="352" y="35" width="98" height="58" fill="none" rx="14" stroke="#000" stroke-width="1.5"/>
		<line x1="352" y1="63" x2="450" y2="63" stroke="#000" stroke-width="1.5"/>
		<text x="360" y="56.3" fill="#000" font-family="Copperplate" font-size="18">INCLURE</text>
		<text x="359" y="81.1" fill="#000" font-family="Gill Sans" font-size="15">Quantité</text>
	</g>
</g>

<!-- Entity CLIENT -->
<g class="page_0_vFTOXWoD diagram_page" visibility="visible">
	<g>
		<rect x="9" y="9" width="84" height="30" fill="#FFF" stroke="#FFF" stroke-width="0" opacity="1"/>
		<rect x="9" y="39" width="84" height="80" fill="#FFF" stroke="#FFF" stroke-width="0" opacity="1"/>
		<rect x="9" y="9" width="84" height="110" fill="none" stroke="#000" stroke-width="1.5" opacity="1"/>
		<line x1="9" y1="39" x2="93" y2="39" stroke="#000" stroke-width="1.5"/>
	</g>
	<text x="17" y="30.3" fill="#000" font-family="Copperplate" font-size="18">CLIENT</text>
	<text x="17" y="56.1" fill="#000" font-family="Gill Sans" font-size="15">Réf. client</text>
	<line x1="17" y1="59" x2="79" y2="59" stroke="#000" stroke-width="1"/>
	<text x="17" y="73.1" fill="#000" font-family="Gill Sans" font-size="15">Nom</text>
	<text x="17" y="90.1" fill="#000" font-family="Gill Sans" font-size="15">Prénom</text>
	<text x="17" y="107" fill="#000" font-family="Gill Sans" font-size="15">Adresse</text>
</g>

<!-- Entity COMMANDE -->
<g class="page_0_vFTOXWoD diagram_page" visibility="visible">
	<g>
		<rect x="197" y="17" width="126" height="30" fill="#FFF" stroke="#FFF" stroke-width="0" opacity="1"/>
		<rect x="197" y="47" width="126" height="64" fill="#FFF" stroke="#FFF" stroke-width="0" opacity="1"/>
		<rect x="197" y="17" width="126" height="94" fill="none" stroke="#000" stroke-width="1.5" opacity="1"/>
		<line x1="197" y1="47" x2="323" y2="47" stroke="#000" stroke-width="1.5"/>
	</g>
	<text x="206" y="38.3" fill="#000" font-family="Copperplate" font-size="18">COMMANDE</text>
	<text x="205" y="64.1" fill="#000" font-family="Gill Sans" font-size="15">Num commande</text>
	<line x1="205" y1="67" x2="310" y2="67" stroke="#000" stroke-width="1"/>
	<text x="205" y="81.1" fill="#000" font-family="Gill Sans" font-size="15">Date</text>
	<text x="205" y="98" fill="#000" font-family="Gill Sans" font-size="15">Montant</text>
</g>

<!-- Entity PRODUIT -->
<g class="page_0_vFTOXWoD diagram_page" visibility="visible">
	<g>
		<rect x="479" y="17" width="100" height="30" fill="#FFF" stroke="#FFF" stroke-width="0" opacity="1"/>
		<rect x="479" y="47" width="100" height="64" fill="#FFF" stroke="#FFF" stroke-width="0" opacity="1"/>
		<rect x="479" y="17" width="100" height="94" fill="none" stroke="#000" stroke-width="1.5" opacity="1"/>
		<line x1="479" y1="47" x2="579" y2="47" stroke="#000" stroke-width="1.5"/>
	</g>
	<text x="488" y="38.3" fill="#000" font-family="Copperplate" font-size="18">PRODUIT</text>
	<text x="487" y="64.1" fill="#000" font-family="Gill Sans" font-size="15">Réf. produit</text>
	<line x1="487" y1="67" x2="562" y2="67" stroke="#000" stroke-width="1"/>
	<text x="487" y="81.1" fill="#000" font-family="Gill Sans" font-size="15">Libellé</text>
	<text x="487" y="98" fill="#000" font-family="Gill Sans" font-size="15">Prix unitaire</text>
</g>
</svg>