<svg xmlns="http://www.w3.org/2000/svg" width="356" height="222" viewBox="0 0 356 222">
<rect id="frame" x="0" y="0" width="356" height="222" fill="none" stroke="none" stroke-width="0"/>

<!-- Association LIGULA -->
<g class="page_0_Cf7ULa4A diagram_page" visibility="visible">
	<line x1="170" y1="166" x2="170" y2="65" stroke="#000" stroke-width="1"/>
	<text x="180" y="115" fill="#000" font-family="Futura" font-size="11">0,N</text>
	<line x1="54" y1="65" x2="170" y2="65" stroke="#000" stroke-width="1" stroke-dasharray="4"/>
	<text x="100" y="86" fill="#000" font-family="Futura" font-size="11">1,N</text>
	<line x1="294" y1="65" x2="170" y2="65" stroke="#000" stroke-width="1"/>
	<text x="221" y="86" fill="#000" font-family="Futura" font-size="11">0,N</text>
	<g>
		<polygon points="124,22,343,22,343,108,216,108,216,209,124,209" fill="#FFF" stroke="none" stroke-width="0" opacity="0.2"/>
		<polygon points="124,22,343,22,343,108,216,108,216,209,124,209" fill="none" stroke="#000" stroke-width="1.5" stroke-dasharray="0,4" stroke-linecap="round"/>
		<path d="M197 36 a14 14 90 0 1 14 14 V64 h-82 V50 a14 14 90 0 1 14 -14" fill="#FFF" stroke="#FFF" stroke-width="0"/>
		<path d="M211 64 v16 a14 14 90 0 1 -14 14 H143 a14 14 90 0 1 -14 -14 V64 H82" fill="#FFF" stroke="#FFF" stroke-width="0"/>
		<rect x="129" y="36" width="82" height="58" fill="none" rx="14" stroke="#000" stroke-width="1.5"/>
		<line x1="129" y1="64" x2="211" y2="64" stroke="#000" stroke-width="1.5"/>
		<text x="137" y="57.3" fill="#000" font-family="Copperplate" font-size="18">LIGULA</text>
		<text x="136" y="82.1" fill="#000" font-family="Gill Sans" font-size="15">metus</text>
	</g>
</g>

<!-- Entity EROS -->
<g class="page_0_Cf7ULa4A diagram_page" visibility="visible">
	<g>
		<rect x="18" y="18" width="72" height="30" fill="#FFF" stroke="#FFF" stroke-width="0" opacity="1"/>
		<rect x="18" y="48" width="72" height="64" fill="#FFF" stroke="#FFF" stroke-width="0" opacity="1"/>
		<rect x="18" y="18" width="72" height="94" fill="none" stroke="#000" stroke-width="1.5" opacity="1"/>
		<line x1="18" y1="48" x2="90" y2="48" stroke="#000" stroke-width="1.5"/>
	</g>
	<text x="28" y="39.3" fill="#000" font-family="Copperplate" font-size="18">EROS</text>
	<text x="26" y="65.1" fill="#000" font-family="Gill Sans" font-size="15">congue</text>
	<line x1="26" y1="68" x2="71" y2="68" stroke="#000" stroke-width="1"/>
	<text x="26" y="82.1" fill="#000" font-family="Gill Sans" font-size="15">nibh</text>
	<text x="26" y="99" fill="#000" font-family="Gill Sans" font-size="15">tincidunt</text>
</g>

<!-- Entity TELLUS -->
<g class="page_0_Cf7ULa4A diagram_page" visibility="visible">
	<g>
		<rect x="250" y="27" width="88" height="30" fill="#FFF" stroke="#FFF" stroke-width="0" opacity="1"/>
		<rect x="250" y="57" width="88" height="46" fill="#FFF" stroke="#FFF" stroke-width="0" opacity="1"/>
		<rect x="250" y="27" width="88" height="76" fill="none" stroke="#000" stroke-width="1.5" opacity="1"/>
		<line x1="250" y1="57" x2="338" y2="57" stroke="#000" stroke-width="1.5"/>
	</g>
	<text x="259" y="48.3" fill="#000" font-family="Copperplate" font-size="18">TELLUS</text>
	<text x="258" y="74.1" fill="#000" font-family="Gill Sans" font-size="15">integer</text>
	<line x1="258" y1="77" x2="302" y2="77" stroke="#000" stroke-width="1"/>
	<text x="258" y="91.1" fill="#000" font-family="Gill Sans" font-size="15">odio</text>
</g>

<!-- Entity LACUS -->
<g class="page_0_Cf7ULa4A diagram_page" visibility="visible">
	<g>
		<rect x="131" y="128" width="78" height="30" fill="#FFF" stroke="#FFF" stroke-width="0" opacity="1"/>
		<rect x="131" y="158" width="78" height="46" fill="#FFF" stroke="#FFF" stroke-width="0" opacity="1"/>
		<rect x="131" y="128" width="78" height="76" fill="none" stroke="#000" stroke-width="1.5" opacity="1"/>
		<line x1="131" y1="158" x2="209" y2="158" stroke="#000" stroke-width="1.5"/>
	</g>
	<text x="139" y="149.3" fill="#000" font-family="Copperplate" font-size="18">LACUS</text>
	<text x="139" y="175.1" fill="#000" font-family="Gill Sans" font-size="15">blandit</text>
	<line x1="139" y1="178" x2="181" y2="178" stroke="#000" stroke-width="1"/>
	<text x="139" y="192.1" fill="#000" font-family="Gill Sans" font-size="15">elit</text>
</g>
</svg>