<svg xmlns="http://www.w3.org/2000/svg" width="550" height="128" viewBox="0 0 550 128">
<rect id="frame" x="0" y="0" width="550" height="128" fill="none" stroke="none" stroke-width="0"/>

<!-- Association GRAVIDA -->
<g class="page_0_xC8OS47x diagram_page" visibility="visible">
	<line x1="44" y1="64" x2="156" y2="64" stroke="#000" stroke-width="1"/>
	<text x="84" y="80" fill="#000" font-family="Futura" font-size="11">0,N</text>
	<line x1="280" y1="64" x2="156" y2="64" stroke="#000" stroke-width="1"/>
	<text x="210" y="80" fill="#000" font-family="Futura" font-size="11">1,1</text>
	<g>
		<path d="M190 35 a14 14 90 0 1 14 14 V63 h-96 V49 a14 14 90 0 1 14 -14" fill="#FFF" stroke="#FFF" stroke-width="0"/>
		<path d="M204 63 v16 a14 14 90 0 1 -14 14 H122 a14 14 90 0 1 -14 -14 V63 H96" fill="#FFF" stroke="#FFF" stroke-width="0"/>
		<rect x="108" y="35" width="96" height="58" fill="none" rx="14" stroke="#000" stroke-width="1.5"/>
		<line x1="108" y1="63" x2="204" y2="63" stroke="#000" stroke-width="1.5"/>
		<text x="115" y="56.3" fill="#000" font-family="Copperplate" font-size="18">GRAVIDA</text>
	</g>
</g>

<!-- Association NON -->
<g class="page_0_xC8OS47x diagram_page" visibility="visible">
	<line x1="280" y1="64" x2="385" y2="64" stroke="#000" stroke-width="1"/>
	<text x="332" y="80" fill="#000" font-family="Futura" font-size="11">1,N</text>
	<line x1="492" y1="64" x2="385" y2="64" stroke="#000" stroke-width="1"/>
	<text x="419" y="80" fill="#000" font-family="Futura" font-size="11">0,N</text>
	<g>
		<path d="M400 35 a14 14 90 0 1 14 14 V63 h-58 V49 a14 14 90 0 1 14 -14" fill="#FFF" stroke="#FFF" stroke-width="0"/>
		<path d="M414 63 v16 a14 14 90 0 1 -14 14 H370 a14 14 90 0 1 -14 -14 V63 H58" fill="#FFF" stroke="#FFF" stroke-width="0"/>
		<rect x="356" y="35" width="58" height="58" fill="none" rx="14" stroke="#000" stroke-width="1.5"/>
		<line x1="356" y1="63" x2="414" y2="63" stroke="#000" stroke-width="1.5"/>
		<text x="364" y="56.3" fill="#000" font-family="Copperplate" font-size="18">NON</text>
		<text x="363" y="81.1" fill="#000" font-family="Gill Sans" font-size="15">Est</text>
	</g>
</g>

<!-- Entity VELIT -->
<g class="page_0_xC8OS47x diagram_page" visibility="visible">
	<g>
		<rect x="9" y="9" width="70" height="30" fill="#FFF" stroke="#FFF" stroke-width="0" opacity="1"/>
		<rect x="9" y="39" width="70" height="80" fill="#FFF" stroke="#FFF" stroke-width="0" opacity="1"/>
		<rect x="9" y="9" width="70" height="110" fill="none" stroke="#000" stroke-width="1.5" opacity="1"/>
		<line x1="9" y1="39" x2="79" y2="39" stroke="#000" stroke-width="1.5"/>
	</g>
	<text x="18" y="30.3" fill="#000" font-family="Copperplate" font-size="18">VELIT</text>
	<text x="17" y="56.1" fill="#000" font-family="Gill Sans" font-size="15">Metus</text>
	<line x1="17" y1="59" x2="56" y2="59" stroke="#000" stroke-width="1"/>
	<text x="17" y="73.1" fill="#000" font-family="Gill Sans" font-size="15">Pharetra</text>
	<text x="17" y="90.1" fill="#000" font-family="Gill Sans" font-size="15">Mollis</text>
	<text x="17" y="107" fill="#000" font-family="Gill Sans" font-size="15">Euismod</text>
</g>

<!-- Entity TEMPOR -->
<g class="page_0_xC8OS47x diagram_page" visibility="visible">
	<g>
		<rect x="233" y="17" width="94" height="30" fill="#FFF" stroke="#FFF" stroke-width="0" opacity="1"/>
		<rect x="233" y="47" width="94" height="64" fill="#FFF" stroke="#FFF" stroke-width="0" opacity="1"/>
		<rect x="233" y="17" width="94" height="94" fill="none" stroke="#000" stroke-width="1.5" opacity="1"/>
		<line x1="233" y1="47" x2="327" y2="47" stroke="#000" stroke-width="1.5"/>
	</g>
	<text x="241" y="38.3" fill="#000" font-family="Copperplate" font-size="18">TEMPOR</text>
	<text x="241" y="64.1" fill="#000" font-family="Gill Sans" font-size="15">Ante</text>
	<line x1="241" y1="67" x2="272" y2="67" stroke="#000" stroke-width="1"/>
	<text x="241" y="81.1" fill="#000" font-family="Gill Sans" font-size="15">Risus</text>
	<text x="241" y="98" fill="#000" font-family="Gill Sans" font-size="15">Diam</text>
</g>

<!-- Entity BLANDIT -->
<g class="page_0_xC8OS47x diagram_page" visibility="visible">
	<g>
		<rect x="443" y="17" width="98" height="30" fill="#FFF" stroke="#FFF" stroke-width="0" opacity="1"/>
		<rect x="443" y="47" width="98" height="64" fill="#FFF" stroke="#FFF" stroke-width="0" opacity="1"/>
		<rect x="443" y="17" width="98" height="94" fill="none" stroke="#000" stroke-width="1.5" opacity="1"/>
		<line x1="443" y1="47" x2="541" y2="47" stroke="#000" stroke-width="1.5"/>
	</g>
	<text x="452" y="38.3" fill="#000" font-family="Copperplate" font-size="18">BLANDIT</text>
	<text x="451" y="64.1" fill="#000" font-family="Gill Sans" font-size="15">Rhoncus</text>
	<line x1="451" y1="67" x2="505" y2="67" stroke="#000" stroke-width="1"/>
	<text x="451" y="81.1" fill="#000" font-family="Gill Sans" font-size="15">Convallis</text>
	<text x="451" y="98" fill="#000" font-family="Gill Sans" font-size="15">Magna</text>
</g>
</svg>