<svg xmlns="http://www.w3.org/2000/svg" width="372" height="112" viewBox="0 0 372 112">
<rect id="frame" x="0" y="0" width="372" height="112" fill="none" stroke="none" stroke-width="0"/>

<!-- Association DF -->
<g class="page_0_DKxifc02 diagram_page" visibility="visible">
	<line x1="61" y1="56" x2="171" y2="56" stroke="#000" stroke-width="1"/>
	<text x="118" y="72" fill="#000" font-family="Futura" font-size="11">1,N</text>
	<line x1="296" y1="56" x2="171" y2="56" stroke="#000" stroke-width="1"/>
	<text x="196" y="72" fill="#000" font-family="Futura" font-size="11">(1,1)</text>
	<g>
		<circle cx="171" cy="56" r="20" stroke="#000" stroke-width="1.5" fill="#FFF"/>
		<text x="158" y="60.8" fill="#000" font-family="Copperplate" font-size="18">DF</text>
	</g>
</g>

<!-- Entity ŒUVRE -->
<g class="page_0_DKxifc02 diagram_page" visibility="visible">
	<g>
		<rect x="9" y="9" width="104" height="30" fill="#FFF" stroke="#FFF" stroke-width="0" opacity="1"/>
		<rect x="9" y="39" width="104" height="64" fill="#FFF" stroke="#FFF" stroke-width="0" opacity="1"/>
		<rect x="9" y="9" width="104" height="94" fill="none" stroke="#000" stroke-width="1.5" opacity="1"/>
		<line x1="9" y1="39" x2="113" y2="39" stroke="#000" stroke-width="1.5"/>
	</g>
	<text x="27" y="30.3" fill="#000" font-family="Copperplate" font-size="18">ŒUVRE</text>
	<text x="17" y="56.1" fill="#000" font-family="Gill Sans" font-size="15">Cote œuvre</text>
	<line x1="17" y1="59" x2="94" y2="59" stroke="#000" stroke-width="1"/>
	<text x="17" y="73.1" fill="#000" font-family="Gill Sans" font-size="15">Titre</text>
	<text x="17" y="90" fill="#000" font-family="Gill Sans" font-size="15">Date parution</text>
</g>

<!-- Entity EXEMPLAIRE -->
<g class="page_0_DKxifc02 diagram_page" visibility="visible">
	<g>
		<rect x="229" y="9" width="134" height="30" fill="#FFF" stroke="#FFF" stroke-width="0" opacity="1"/>
		<rect x="229" y="39" width="134" height="64" fill="#FFF" stroke="#FFF" stroke-width="0" opacity="1"/>
		<rect x="229" y="9" width="134" height="94" fill="none" stroke="#000" stroke-width="1.5" opacity="1"/>
		<line x1="229" y1="39" x2="363" y2="39" stroke="#000" stroke-width="1.5"/>
	</g>
	<text x="237" y="30.3" fill="#000" font-family="Copperplate" font-size="18">EXEMPLAIRE</text>
	<text x="237" y="56.1" fill="#000" font-family="Gill Sans" font-size="15">Num. exemplaire</text>
	<line x1="237" y1="59" x2="345" y2="59" stroke="#000" stroke-width="1" stroke-dasharray="4"/>
	<text x="237" y="73.1" fill="#000" font-family="Gill Sans" font-size="15">État du livre</text>
	<text x="237" y="90" fill="#000" font-family="Gill Sans" font-size="15">Date d’achat</text>
</g>
</svg>