<svg xmlns="http://www.w3.org/2000/svg" width="474" height="234" viewBox="0 0 474 234">
<rect id="frame" x="0" y="0" width="474" height="234" fill="none" stroke="none" stroke-width="0"/>

<!-- Association DF1 -->
<g class="page_0_j3SLaQrr diagram_page" visibility="visible">
	<line x1="39" y1="47" x2="118" y2="47" stroke="#000" stroke-width="1"/>
	<text x="74" y="63" fill="#000" font-family="Futura" font-size="11">0,N</text>
	<line x1="218" y1="47" x2="118" y2="47" stroke="#000" stroke-width="1"/>
	<text x="144" y="63" fill="#000" font-family="Futura" font-size="11">1,1</text>
	<line x1="144" y1="65" x2="162" y2="65" stroke="#000" stroke-width="1"/>
	<g>
		<circle cx="118" cy="47" r="20" stroke="#000" stroke-width="1.5" fill="#FFF"/>
		<text x="105" y="51.8" fill="#000" font-family="Copperplate" font-size="18">DF</text>
	</g>
</g>

<!-- Association DF2 -->
<g class="page_0_j3SLaQrr diagram_page" visibility="visible">
	<line x1="416" y1="47" x2="318" y2="47" stroke="#000" stroke-width="1"/>
	<text x="343" y="63" fill="#000" font-family="Futura" font-size="11">0,N</text>
	<line x1="218" y1="47" x2="318" y2="47" stroke="#000" stroke-width="1"/>
	<text x="274" y="63" fill="#000" font-family="Futura" font-size="11">1,1</text>
	<line x1="274" y1="65" x2="292" y2="65" stroke="#000" stroke-width="1"/>
	<g>
		<circle cx="318" cy="47" r="20" stroke="#000" stroke-width="1.5" fill="#FFF"/>
		<text x="305" y="51.8" fill="#000" font-family="Copperplate" font-size="18">DF</text>
	</g>
</g>

<!-- Association DF3 -->
<g class="page_0_j3SLaQrr diagram_page" visibility="visible">
	<line x1="218" y1="47" x2="218" y2="121" stroke="#000" stroke-width="1"/>
	<text x="223" y="93" fill="#000" font-family="Futura" font-size="11">1,1</text>
	<line x1="218" y1="195" x2="218" y2="121" stroke="#000" stroke-width="1"/>
	<text x="223" y="157" fill="#000" font-family="Futura" font-size="11">1,N</text>
	<g>
		<circle cx="218" cy="121" r="20" stroke="#000" stroke-width="1.5" fill="#FFF"/>
		<text x="205" y="125.8" fill="#000" font-family="Copperplate" font-size="18">DF</text>
	</g>
</g>

<!-- Entity Date -->
<g class="page_0_j3SLaQrr diagram_page" visibility="visible">
	<g>
		<rect x="9" y="17" width="60" height="30" fill="#FFF" stroke="#FFF" stroke-width="0" opacity="1"/>
		<rect x="9" y="47" width="60" height="30" fill="#FFF" stroke="#FFF" stroke-width="0" opacity="1"/>
		<rect x="9" y="17" width="60" height="60" fill="none" stroke="#000" stroke-width="1.5" opacity="1"/>
		<line x1="9" y1="47" x2="69" y2="47" stroke="#000" stroke-width="1.5"/>
	</g>
	<text x="18" y="38.3" fill="#000" font-family="Copperplate" font-size="18">Date</text>
	<text x="17" y="64.1" fill="#000" font-family="Gill Sans" font-size="15">Date</text>
	<line x1="17" y1="67" x2="48" y2="67" stroke="#000" stroke-width="1"/>
</g>

<!-- Entity Réserver -->
<g class="page_0_j3SLaQrr diagram_page" visibility="visible">
	<g>
		<rect x="167" y="17" width="102" height="30" fill="#FFF" stroke="#FFF" stroke-width="0" opacity="1"/>
		<rect x="167" y="47" width="102" height="30" fill="#FFF" stroke="#FFF" stroke-width="0" opacity="1"/>
		<rect x="167" y="17" width="102" height="60" fill="none" stroke="#000" stroke-width="1.5" opacity="1"/>
		<line x1="167" y1="47" x2="269" y2="47" stroke="#000" stroke-width="1.5"/>
	</g>
	<text x="175" y="38.3" fill="#000" font-family="Copperplate" font-size="18">Réserver</text>
	<text x="175" y="64.1" fill="#000" font-family="Gill Sans" font-size="15">Durée</text>
</g>

<!-- Entity Chambre -->
<g class="page_0_j3SLaQrr diagram_page" visibility="visible">
	<g>
		<rect x="367" y="9" width="98" height="30" fill="#FFF" stroke="#FFF" stroke-width="0" opacity="1"/>
		<rect x="367" y="39" width="98" height="46" fill="#FFF" stroke="#FFF" stroke-width="0" opacity="1"/>
		<rect x="367" y="9" width="98" height="76" fill="none" stroke="#000" stroke-width="1.5" opacity="1"/>
		<line x1="367" y1="39" x2="465" y2="39" stroke="#000" stroke-width="1.5"/>
	</g>
	<text x="376" y="30.3" fill="#000" font-family="Copperplate" font-size="18">Chambre</text>
	<text x="375" y="56.1" fill="#000" font-family="Gill Sans" font-size="15">Numéro</text>
	<line x1="375" y1="59" x2="429" y2="59" stroke="#000" stroke-width="1"/>
	<text x="375" y="73.1" fill="#000" font-family="Gill Sans" font-size="15">Prix</text>
</g>

<!-- Entity Client -->
<g class="page_0_j3SLaQrr diagram_page" visibility="visible">
	<g>
		<rect x="179" y="165" width="78" height="30" fill="#FFF" stroke="#FFF" stroke-width="0" opacity="1"/>
		<rect x="179" y="195" width="78" height="30" fill="#FFF" stroke="#FFF" stroke-width="0" opacity="1"/>
		<rect x="179" y="165" width="78" height="60" fill="none" stroke="#000" stroke-width="1.5" opacity="1"/>
		<line x1="179" y1="195" x2="257" y2="195" stroke="#000" stroke-width="1.5"/>
	</g>
	<text x="188" y="186.3" fill="#000" font-family="Copperplate" font-size="18">Client</text>
	<text x="187" y="212.1" fill="#000" font-family="Gill Sans" font-size="15">Nom</text>
	<line x1="187" y1="215" x2="220" y2="215" stroke="#000" stroke-width="1"/>
</g>
</svg>