<svg xmlns="http://www.w3.org/2000/svg" width="521" height="278" viewBox="0 0 521 278">
<rect id="frame" x="0" y="0" width="521" height="278" fill="none" stroke="none" stroke-width="0"/>

<!-- Association DF -->
<g class="page_0_VV6IWAPw diagram_page" visibility="visible">
	<line x1="53" y1="147" x2="53" y2="47" stroke="#726f83" stroke-width="1"/>
	<text x="58" y="101" fill="#726f83" font-family="Futura" font-size="11">1,1</text>
	<line x1="167" y1="47" x2="53" y2="47" stroke="#726f83" stroke-width="1"/>
	<text x="97" y="63" fill="#726f83" font-family="Futura" font-size="11">1,N</text>
	<g>
		<circle cx="53" cy="47" r="20" stroke="#85956b" stroke-width="1.5" fill="#b2bba4"/>
		<text x="40" y="51.8" fill="#27360c" font-family="Copperplate" font-size="18">DF</text>
	</g>
</g>

<!-- Association Faire Cours -->
<g class="page_0_VV6IWAPw diagram_page" visibility="visible">
	<line x1="167" y1="47" x2="306" y2="47" stroke="#726f83" stroke-width="1"/>
	<text x="218" y="63" fill="#726f83" font-family="Futura" font-size="11">1,N</text>
	<line x1="306" y1="147" x2="306" y2="47" stroke="#726f83" stroke-width="1"/>
	<text x="311" y="101" fill="#726f83" font-family="Futura" font-size="11">1,N</text>
	<g>
		<path d="M355 18 a14 14 90 0 1 14 14 V46 h-126 V32 a14 14 90 0 1 14 -14" fill="#b2bba4" stroke="#b2bba4" stroke-width="0"/>
		<path d="M369 46 v16 a14 14 90 0 1 -14 14 H257 a14 14 90 0 1 -14 -14 V46 H126" fill="#ccd6ba" stroke="#ccd6ba" stroke-width="0"/>
		<rect x="243" y="18" width="126" height="58" fill="none" rx="14" stroke="#85956b" stroke-width="1.5"/>
		<line x1="243" y1="46" x2="369" y2="46" stroke="#85956b" stroke-width="1.5"/>
		<text x="251" y="39.3" fill="#27360c" font-family="Copperplate" font-size="18">Faire Cours</text>
		<text x="250" y="64.1" fill="#607734" font-family="Gill Sans" font-size="15">Vol. horaire</text>
	</g>
</g>

<!-- Association Noter -->
<g class="page_0_VV6IWAPw diagram_page" visibility="visible">
	<line x1="53" y1="147" x2="167" y2="147" stroke="#726f83" stroke-width="1"/>
	<text x="102" y="163" fill="#726f83" font-family="Futura" font-size="11">1,N</text>
	<line x1="306" y1="147" x2="167" y2="147" stroke="#726f83" stroke-width="1"/>
	<text x="241" y="163" fill="#726f83" font-family="Futura" font-size="11">0,N</text>
	<line x1="167" y1="239" x2="167" y2="147" stroke="#726f83" stroke-width="1"/>
	<text x="172" y="201" fill="#726f83" font-family="Futura" font-size="11">0,N</text>
	<line x1="53" y1="239" x2="167" y2="147" stroke="#726f83" stroke-width="1"/>
	<text x="88" y="224.78" fill="#726f83" font-family="Futura" font-size="11">1,N</text>
	<g>
		<path d="M188 118 a14 14 90 0 1 14 14 V146 h-70 V132 a14 14 90 0 1 14 -14" fill="#b2bba4" stroke="#b2bba4" stroke-width="0"/>
		<path d="M202 146 v16 a14 14 90 0 1 -14 14 H146 a14 14 90 0 1 -14 -14 V146 H70" fill="#ccd6ba" stroke="#ccd6ba" stroke-width="0"/>
		<rect x="132" y="118" width="70" height="58" fill="none" rx="14" stroke="#85956b" stroke-width="1.5"/>
		<line x1="132" y1="146" x2="202" y2="146" stroke="#85956b" stroke-width="1.5"/>
		<text x="139" y="139.3" fill="#27360c" font-family="Copperplate" font-size="18">Noter</text>
		<text x="139" y="164.1" fill="#607734" font-family="Gill Sans" font-size="15">Note</text>
	</g>
</g>

<!-- Association Relever -->
<g class="page_0_VV6IWAPw diagram_page" visibility="visible">
	<line x1="455" y1="47" x2="455" y2="147" stroke="#726f83" stroke-width="1"/>
	<text x="460" y="101" fill="#726f83" font-family="Futura" font-size="11">0,N</text>
	<line x1="306" y1="147" x2="455" y2="147" stroke="#726f83" stroke-width="1"/>
	<text x="352" y="163" fill="#726f83" font-family="Futura" font-size="11">1,1</text>
	<g>
		<path d="M486 118 a14 14 90 0 1 14 14 V146 h-90 V132 a14 14 90 0 1 14 -14" fill="#b2bba4" stroke="#b2bba4" stroke-width="0"/>
		<path d="M500 146 v16 a14 14 90 0 1 -14 14 H424 a14 14 90 0 1 -14 -14 V146 H90" fill="#ccd6ba" stroke="#ccd6ba" stroke-width="0"/>
		<rect x="410" y="118" width="90" height="58" fill="none" rx="14" stroke="#85956b" stroke-width="1.5"/>
		<line x1="410" y1="146" x2="500" y2="146" stroke="#85956b" stroke-width="1.5"/>
		<text x="418" y="139.3" fill="#27360c" font-family="Copperplate" font-size="18">Relever</text>
	</g>
</g>

<!-- Association Enseigner -->
<g class="page_0_VV6IWAPw diagram_page" visibility="visible">
	<line x1="306" y1="147" x2="306" y2="239" stroke="#726f83" stroke-width="1"/>
	<text x="311" y="201" fill="#726f83" font-family="Futura" font-size="11">1,1</text>
	<line x1="167" y1="239" x2="306" y2="239" stroke="#726f83" stroke-width="1"/>
	<text x="227" y="255" fill="#726f83" font-family="Futura" font-size="11">1,N</text>
	<g>
		<path d="M347 210 a14 14 90 0 1 14 14 V238 h-110 V224 a14 14 90 0 1 14 -14" fill="#b2bba4" stroke="#b2bba4" stroke-width="0"/>
		<path d="M361 238 v16 a14 14 90 0 1 -14 14 H265 a14 14 90 0 1 -14 -14 V238 H110" fill="#ccd6ba" stroke="#ccd6ba" stroke-width="0"/>
		<rect x="251" y="210" width="110" height="58" fill="none" rx="14" stroke="#85956b" stroke-width="1.5"/>
		<line x1="251" y1="238" x2="361" y2="238" stroke="#85956b" stroke-width="1.5"/>
		<text x="259" y="231.3" fill="#27360c" font-family="Copperplate" font-size="18">Enseigner</text>
	</g>
</g>

<!-- Entity Classe -->
<g class="page_0_VV6IWAPw diagram_page" visibility="visible">
	<g>
		<rect x="121" y="9" width="92" height="30" fill="#97b8ff" stroke="#97b8ff" stroke-width="0" opacity="1"/>
		<rect x="121" y="39" width="92" height="46" fill="#c0d4ff" stroke="#c0d4ff" stroke-width="0" opacity="1"/>
		<rect x="121" y="9" width="92" height="76" fill="none" stroke="#578dff" stroke-width="1.5" opacity="1"/>
		<line x1="121" y1="39" x2="213" y2="39" stroke="#578dff" stroke-width="1.5"/>
	</g>
	<text x="135" y="30.3" fill="#131114" font-family="Copperplate" font-size="18">Classe</text>
	<text x="129" y="56.1" fill="#3e3c42" font-family="Gill Sans" font-size="15">Num. classe</text>
	<line x1="129" y1="59" x2="205" y2="59" stroke="#3e3c42" stroke-width="1"/>
	<text x="129" y="73.1" fill="#3e3c42" font-family="Gill Sans" font-size="15">Num. salle</text>
</g>

<!-- Entity Catégorie -->
<g class="page_0_VV6IWAPw diagram_page" visibility="visible">
	<g>
		<rect x="398" y="9" width="114" height="30" fill="#97b8ff" stroke="#97b8ff" stroke-width="0" opacity="1"/>
		<rect x="398" y="39" width="114" height="46" fill="#c0d4ff" stroke="#c0d4ff" stroke-width="0" opacity="1"/>
		<rect x="398" y="9" width="114" height="76" fill="none" stroke="#578dff" stroke-width="1.5" opacity="1"/>
		<line x1="398" y1="39" x2="512" y2="39" stroke="#578dff" stroke-width="1.5"/>
	</g>
	<text x="409" y="30.3" fill="#131114" font-family="Copperplate" font-size="18">Catégorie</text>
	<text x="406" y="56.1" fill="#3e3c42" font-family="Gill Sans" font-size="15">Code catégorie</text>
	<line x1="406" y1="59" x2="503" y2="59" stroke="#3e3c42" stroke-width="1"/>
	<text x="406" y="73.1" fill="#3e3c42" font-family="Gill Sans" font-size="15">Nom catégorie</text>
</g>

<!-- Entity Élève -->
<g class="page_0_VV6IWAPw diagram_page" visibility="visible">
	<g>
		<rect x="9" y="109" width="88" height="30" fill="#97b8ff" stroke="#97b8ff" stroke-width="0" opacity="1"/>
		<rect x="9" y="139" width="88" height="46" fill="#c0d4ff" stroke="#c0d4ff" stroke-width="0" opacity="1"/>
		<rect x="9" y="109" width="88" height="76" fill="none" stroke="#578dff" stroke-width="1.5" opacity="1"/>
		<line x1="9" y1="139" x2="97" y2="139" stroke="#578dff" stroke-width="1.5"/>
	</g>
	<text x="27" y="130.3" fill="#131114" font-family="Copperplate" font-size="18">Élève</text>
	<text x="17" y="156.1" fill="#3e3c42" font-family="Gill Sans" font-size="15">Num. élève</text>
	<line x1="17" y1="159" x2="89" y2="159" stroke="#3e3c42" stroke-width="1"/>
	<text x="17" y="173.1" fill="#3e3c42" font-family="Gill Sans" font-size="15">Nom élève</text>
</g>

<!-- Entity Prof -->
<g class="page_0_VV6IWAPw diagram_page" visibility="visible">
	<g>
		<rect x="265" y="109" width="82" height="30" fill="#97b8ff" stroke="#97b8ff" stroke-width="0" opacity="1"/>
		<rect x="265" y="139" width="82" height="46" fill="#c0d4ff" stroke="#c0d4ff" stroke-width="0" opacity="1"/>
		<rect x="265" y="109" width="82" height="76" fill="none" stroke="#578dff" stroke-width="1.5" opacity="1"/>
		<line x1="265" y1="139" x2="347" y2="139" stroke="#578dff" stroke-width="1.5"/>
	</g>
	<text x="284" y="130.3" fill="#131114" font-family="Copperplate" font-size="18">Prof</text>
	<text x="273" y="156.1" fill="#3e3c42" font-family="Gill Sans" font-size="15">Num. prof</text>
	<line x1="273" y1="159" x2="339" y2="159" stroke="#3e3c42" stroke-width="1"/>
	<text x="273" y="173.1" fill="#3e3c42" font-family="Gill Sans" font-size="15">Nom prof</text>
</g>

<!-- Entity Date -->
<g class="page_0_VV6IWAPw diagram_page" visibility="visible">
	<g>
		<rect x="23" y="209" width="60" height="30" fill="#97b8ff" stroke="#97b8ff" stroke-width="0" opacity="1"/>
		<rect x="23" y="239" width="60" height="30" fill="#c0d4ff" stroke="#c0d4ff" stroke-width="0" opacity="1"/>
		<rect x="23" y="209" width="60" height="60" fill="none" stroke="#578dff" stroke-width="1.5" opacity="1"/>
		<line x1="23" y1="239" x2="83" y2="239" stroke="#578dff" stroke-width="1.5"/>
	</g>
	<text x="32" y="230.3" fill="#131114" font-family="Copperplate" font-size="18">Date</text>
	<text x="31" y="256.1" fill="#3e3c42" font-family="Gill Sans" font-size="15">Date</text>
	<line x1="31" y1="259" x2="62" y2="259" stroke="#3e3c42" stroke-width="1"/>
</g>

<!-- Entity Matière -->
<g class="page_0_VV6IWAPw diagram_page" visibility="visible">
	<g>
		<rect x="112" y="209" width="110" height="30" fill="#97b8ff" stroke="#97b8ff" stroke-width="0" opacity="1"/>
		<rect x="112" y="239" width="110" height="30" fill="#c0d4ff" stroke="#c0d4ff" stroke-width="0" opacity="1"/>
		<rect x="112" y="209" width="110" height="60" fill="none" stroke="#578dff" stroke-width="1.5" opacity="1"/>
		<line x1="112" y1="239" x2="222" y2="239" stroke="#578dff" stroke-width="1.5"/>
	</g>
	<text x="131" y="230.3" fill="#131114" font-family="Copperplate" font-size="18">Matière</text>
	<text x="120" y="256.1" fill="#3e3c42" font-family="Gill Sans" font-size="15">Libellé matière</text>
	<line x1="120" y1="259" x2="213" y2="259" stroke="#3e3c42" stroke-width="1"/>
</g>
</svg>