<svg xmlns="http://www.w3.org/2000/svg" width="646" height="128" viewBox="0 0 646 128">
<rect id="frame" x="0" y="0" width="646" height="128" fill="none" stroke="none" stroke-width="0"/>

<!-- Association PASSER -->
<g class="page_0_ljERzW5A diagram_page" visibility="visible">
	<line x1="51" y1="64" x2="170" y2="64" stroke="#000" stroke-width="1"/>
	<text x="98" y="80" fill="#000" font-family="Futura" font-size="11">0/N</text>
	<line x1="310" y1="64" x2="170" y2="64" stroke="#000" stroke-width="1"/>
	<text x="220" y="80" fill="#000" font-family="Futura" font-size="11">1/1</text>
	<g>
		<path d="M200 35 a14 14 90 0 1 14 14 V63 h-88 V49 a14 14 90 0 1 14 -14" fill="#FFF" stroke="#FFF" stroke-width="0"/>
		<path d="M214 63 v16 a14 14 90 0 1 -14 14 H140 a14 14 90 0 1 -14 -14 V63 H88" fill="#FFF" stroke="#FFF" stroke-width="0"/>
		<rect x="126" y="35" width="88" height="58" fill="none" rx="14" stroke="#000" stroke-width="1.5"/>
		<line x1="126" y1="63" x2="214" y2="63" stroke="#000" stroke-width="1.5"/>
		<text x="133" y="56.3" fill="#000" font-family="Copperplate" font-size="18">PASSER</text>
	</g>
</g>

<!-- Association INCLURE -->
<g class="page_0_ljERzW5A diagram_page" visibility="visible">
	<line x1="310" y1="64" x2="455" y2="64" stroke="#000" stroke-width="1"/>
	<text x="378" y="80" fill="#000" font-family="Futura" font-size="11">1/N</text>
	<line x1="587" y1="64" x2="455" y2="64" stroke="#000" stroke-width="1"/>
	<text x="509" y="80" fill="#000" font-family="Futura" font-size="11">0/N</text>
	<g>
		<path d="M490 35 a14 14 90 0 1 14 14 V63 h-98 V49 a14 14 90 0 1 14 -14" fill="#FFF" stroke="#FFF" stroke-width="0"/>
		<path d="M504 63 v16 a14 14 90 0 1 -14 14 H420 a14 14 90 0 1 -14 -14 V63 H98" fill="#FFF" stroke="#FFF" stroke-width="0"/>
		<rect x="406" y="35" width="98" height="58" fill="none" rx="14" stroke="#000" stroke-width="1.5"/>
		<line x1="406" y1="63" x2="504" y2="63" stroke="#000" stroke-width="1.5"/>
		<text x="414" y="56.3" fill="#000" font-family="Copperplate" font-size="18">INCLURE</text>
		<text x="413" y="81.1" fill="#000" font-family="Gill Sans" font-size="15">Quantité</text>
	</g>
</g>

<!-- Entity CLIENT -->
<g class="page_0_ljERzW5A diagram_page" visibility="visible">
	<g>
		<rect x="9" y="9" width="84" height="30" fill="#FFF" stroke="#FFF" stroke-width="0" opacity="1"/>
		<rect x="9" y="39" width="84" height="80" fill="#FFF" stroke="#FFF" stroke-width="0" opacity="1"/>
		<rect x="9" y="9" width="84" height="110" fill="none" stroke="#000" stroke-width="1.5" opacity="1"/>
		<line x1="9" y1="39" x2="93" y2="39" stroke="#000" stroke-width="1.5"/>
	</g>
	<text x="17" y="30.3" fill="#000" font-family="Copperplate" font-size="18">CLIENT</text>
	<text x="17" y="56.1" fill="#000" font-family="Gill Sans" font-size="15">Réf. client</text>
	<line x1="17" y1="59" x2="79" y2="59" stroke="#000" stroke-width="1"/>
	<text x="17" y="73.1" fill="#000" font-family="Gill Sans" font-size="15">Nom</text>
	<text x="17" y="90.1" fill="#000" font-family="Gill Sans" font-size="15">Prénom</text>
	<text x="17" y="107" fill="#000" font-family="Gill Sans" font-size="15">Adresse</text>
</g>

<!-- Entity COMMANDE -->
<g class="page_0_ljERzW5A diagram_page" visibility="visible">
	<g>
		<rect x="247" y="17" width="126" height="30" fill="#FFF" stroke="#FFF" stroke-width="0" opacity="1"/>
		<rect x="247" y="47" width="126" height="64" fill="#FFF" stroke="#FFF" stroke-width="0" opacity="1"/>
		<rect x="247" y="17" width="126" height="94" fill="none" stroke="#000" stroke-width="1.5" opacity="1"/>
		<line x1="247" y1="47" x2="373" y2="47" stroke="#000" stroke-width="1.5"/>
	</g>
	<text x="256" y="38.3" fill="#000" font-family="Copperplate" font-size="18">COMMANDE</text>
	<text x="255" y="64.1" fill="#000" font-family="Gill Sans" font-size="15">Num commande</text>
	<line x1="255" y1="67" x2="360" y2="67" stroke="#000" stroke-width="1"/>
	<text x="255" y="81.1" fill="#000" font-family="Gill Sans" font-size="15">Date</text>
	<text x="255" y="98" fill="#000" font-family="Gill Sans" font-size="15">Montant</text>
</g>

<!-- Entity PRODUIT -->
<g class="page_0_ljERzW5A diagram_page" visibility="visible">
	<g>
		<rect x="537" y="17" width="100" height="30" fill="#FFF" stroke="#FFF" stroke-width="0" opacity="1"/>
		<rect x="537" y="47" width="100" height="64" fill="#FFF" stroke="#FFF" stroke-width="0" opacity="1"/>
		<rect x="537" y="17" width="100" height="94" fill="none" stroke="#000" stroke-width="1.5" opacity="1"/>
		<line x1="537" y1="47" x2="637" y2="47" stroke="#000" stroke-width="1.5"/>
	</g>
	<text x="546" y="38.3" fill="#000" font-family="Copperplate" font-size="18">PRODUIT</text>
	<text x="545" y="64.1" fill="#000" font-family="Gill Sans" font-size="15">Réf. produit</text>
	<line x1="545" y1="67" x2="620" y2="67" stroke="#000" stroke-width="1"/>
	<text x="545" y="81.1" fill="#000" font-family="Gill Sans" font-size="15">Libellé</text>
	<text x="545" y="98" fill="#000" font-family="Gill Sans" font-size="15">Prix unitaire</text>
</g>
</svg>