<svg xmlns="http://www.w3.org/2000/svg" width="308" height="112" viewBox="0 0 308 112">
<rect id="frame" x="0" y="0" width="308" height="112" fill="none" stroke="none" stroke-width="0"/>

<!-- Association LIGULA -->
<g class="page_0_PmqtH4AF diagram_page" visibility="visible">
	<line x1="48" y1="56" x2="157" y2="56" stroke="#000" stroke-width="1"/>
	<text x="92" y="72" fill="#000" font-family="Futura" font-size="11">0,1</text>
	<line x1="263" y1="56" x2="157" y2="56" stroke="#000" stroke-width="1"/>
	<text x="203" y="72" fill="#000" font-family="Futura" font-size="11">1,N</text>
	<g>
		<path d="M184 27 a14 14 90 0 1 14 14 V55 h-82 V41 a14 14 90 0 1 14 -14" fill="#FFF" stroke="#FFF" stroke-width="0"/>
		<path d="M198 55 v16 a14 14 90 0 1 -14 14 H130 a14 14 90 0 1 -14 -14 V55 H82" fill="#FFF" stroke="#FFF" stroke-width="0"/>
		<rect x="116" y="27" width="82" height="58" fill="none" rx="14" stroke="#000" stroke-width="1.5"/>
		<rect x="113" y="24" width="88" height="64" fill="none" stroke="#000" stroke-width="1.5" stroke-dasharray="4"/>
		<line x1="116" y1="55" x2="198" y2="55" stroke="#000" stroke-width="1.5"/>
		<text x="124" y="48.3" fill="#000" font-family="Copperplate" font-size="18">LIGULA</text>
		<text x="123" y="73.1" fill="#000" font-family="Gill Sans" font-size="15">metus</text>
	</g>
</g>

<!-- Entity LACUS -->
<g class="page_0_PmqtH4AF diagram_page" visibility="visible">
	<g>
		<rect x="9" y="18" width="78" height="30" fill="#FFF" stroke="#FFF" stroke-width="0" opacity="1"/>
		<rect x="9" y="48" width="78" height="46" fill="#FFF" stroke="#FFF" stroke-width="0" opacity="1"/>
		<rect x="9" y="18" width="78" height="76" fill="none" stroke="#000" stroke-width="1.5" opacity="1"/>
		<line x1="9" y1="48" x2="87" y2="48" stroke="#000" stroke-width="1.5"/>
	</g>
	<text x="17" y="39.3" fill="#000" font-family="Copperplate" font-size="18">LACUS</text>
	<text x="17" y="65.1" fill="#000" font-family="Gill Sans" font-size="15">blandit</text>
	<line x1="17" y1="68" x2="59" y2="68" stroke="#000" stroke-width="1"/>
	<text x="17" y="82.1" fill="#000" font-family="Gill Sans" font-size="15">elit</text>
</g>

<!-- Entity EROS -->
<g class="page_0_PmqtH4AF diagram_page" visibility="visible">
	<g>
		<rect x="227" y="9" width="72" height="30" fill="#FFF" stroke="#FFF" stroke-width="0" opacity="1"/>
		<rect x="227" y="39" width="72" height="64" fill="#FFF" stroke="#FFF" stroke-width="0" opacity="1"/>
		<rect x="227" y="9" width="72" height="94" fill="none" stroke="#000" stroke-width="1.5" opacity="1"/>
		<line x1="227" y1="39" x2="299" y2="39" stroke="#000" stroke-width="1.5"/>
	</g>
	<text x="237" y="30.3" fill="#000" font-family="Copperplate" font-size="18">EROS</text>
	<text x="235" y="56.1" fill="#000" font-family="Gill Sans" font-size="15">congue</text>
	<line x1="235" y1="59" x2="280" y2="59" stroke="#000" stroke-width="1"/>
	<text x="235" y="73.1" fill="#000" font-family="Gill Sans" font-size="15">nibh</text>
	<text x="235" y="90" fill="#000" font-family="Gill Sans" font-size="15">tincidunt</text>
</g>
</svg>