<svg xmlns="http://www.w3.org/2000/svg" width="636" height="128" viewBox="0 0 636 128">
<rect id="frame" x="0" y="0" width="636" height="128" fill="none" stroke="none" stroke-width="0"/>

<!-- Association PASSER -->
<g class="page_0_o1kBKjqM diagram_page" visibility="visible">
	<line x1="53" y1="64" x2="170" y2="64" stroke="#000" stroke-width="1"/>
	<text x="102" y="80" fill="#000" font-family="Futura" font-size="11">     </text>
	<line x1="306" y1="64" x2="170" y2="64" stroke="#000" stroke-width="1"/>
	<text x="220" y="80" fill="#000" font-family="Futura" font-size="11">     </text>
	<g>
		<path d="M200 35 a14 14 90 0 1 14 14 V63 h-88 V49 a14 14 90 0 1 14 -14" fill="#FFF" stroke="#FFF" stroke-width="0"/>
		<path d="M214 63 v16 a14 14 90 0 1 -14 14 H140 a14 14 90 0 1 -14 -14 V63 H88" fill="#FFF" stroke="#FFF" stroke-width="0"/>
		<rect x="126" y="35" width="88" height="58" fill="none" rx="14" stroke="#000" stroke-width="1.5"/>
		<line x1="126" y1="63" x2="214" y2="63" stroke="#000" stroke-width="1.5"/>
		<text x="133" y="56.3" fill="#000" font-family="Copperplate" font-size="18">PASSER</text>
	</g>
</g>

<!-- Association INCLURE -->
<g class="page_0_o1kBKjqM diagram_page" visibility="visible">
	<line x1="306" y1="64" x2="447" y2="64" stroke="#000" stroke-width="1"/>
	<text x="374" y="80" fill="#000" font-family="Futura" font-size="11">     </text>
	<line x1="576" y1="64" x2="447" y2="64" stroke="#000" stroke-width="1"/>
	<text x="502" y="80" fill="#000" font-family="Futura" font-size="11">     </text>
	<g>
		<path d="M482 35 a14 14 90 0 1 14 14 V63 h-98 V49 a14 14 90 0 1 14 -14" fill="#FFF" stroke="#FFF" stroke-width="0"/>
		<path d="M496 63 v16 a14 14 90 0 1 -14 14 H412 a14 14 90 0 1 -14 -14 V63 H98" fill="#FFF" stroke="#FFF" stroke-width="0"/>
		<rect x="398" y="35" width="98" height="58" fill="none" rx="14" stroke="#000" stroke-width="1.5"/>
		<line x1="398" y1="63" x2="496" y2="63" stroke="#000" stroke-width="1.5"/>
		<text x="406" y="56.3" fill="#000" font-family="Copperplate" font-size="18">INCLURE</text>
	</g>
</g>

<!-- Entity CLIENT -->
<g class="page_0_o1kBKjqM diagram_page" visibility="visible">
	<g>
		<rect x="9" y="9" width="88" height="30" fill="#FFF" stroke="#FFF" stroke-width="0" opacity="1"/>
		<rect x="9" y="39" width="88" height="80" fill="#FFF" stroke="#FFF" stroke-width="0" opacity="1"/>
		<rect x="9" y="9" width="88" height="110" fill="none" stroke="#000" stroke-width="1.5" opacity="1"/>
		<line x1="9" y1="39" x2="97" y2="39" stroke="#000" stroke-width="1.5"/>
	</g>
	<text x="19" y="30.3" fill="#000" font-family="Copperplate" font-size="18">CLIENT</text>
	<text x="17" y="73.1" fill="#000" font-family="Gill Sans" font-size="15">          </text>
</g>

<!-- Entity COMMANDE -->
<g class="page_0_o1kBKjqM diagram_page" visibility="visible">
	<g>
		<rect x="243" y="17" width="126" height="30" fill="#FFF" stroke="#FFF" stroke-width="0" opacity="1"/>
		<rect x="243" y="47" width="126" height="64" fill="#FFF" stroke="#FFF" stroke-width="0" opacity="1"/>
		<rect x="243" y="17" width="126" height="94" fill="none" stroke="#000" stroke-width="1.5" opacity="1"/>
		<line x1="243" y1="47" x2="369" y2="47" stroke="#000" stroke-width="1.5"/>
	</g>
	<text x="252" y="38.3" fill="#000" font-family="Copperplate" font-size="18">COMMANDE</text>
	<text x="251" y="81.1" fill="#000" font-family="Gill Sans" font-size="15">               </text>
</g>

<!-- Entity PRODUIT -->
<g class="page_0_o1kBKjqM diagram_page" visibility="visible">
	<g>
		<rect x="525" y="17" width="102" height="30" fill="#FFF" stroke="#FFF" stroke-width="0" opacity="1"/>
		<rect x="525" y="47" width="102" height="64" fill="#FFF" stroke="#FFF" stroke-width="0" opacity="1"/>
		<rect x="525" y="17" width="102" height="94" fill="none" stroke="#000" stroke-width="1.5" opacity="1"/>
		<line x1="525" y1="47" x2="627" y2="47" stroke="#000" stroke-width="1.5"/>
	</g>
	<text x="535" y="38.3" fill="#000" font-family="Copperplate" font-size="18">PRODUIT</text>
	<text x="533" y="81.1" fill="#000" font-family="Gill Sans" font-size="15">            </text>
</g>
</svg>