<svg xmlns="http://www.w3.org/2000/svg" width="762" height="128" viewBox="0 0 762 128">
<rect id="frame" x="0" y="0" width="762" height="128" fill="none" stroke="none" stroke-width="0"/>

<!-- Association Peut recevoir -->
<g class="page_0_Sq9UkoqS diagram_page" visibility="visible">
	<path d="M261 64 C194 96 133.67 96 80 64" fill="none" stroke="#000" stroke-width="1"/>
	<text x="156" y="79" fill="#000" font-family="Futura" font-size="11">1,N</text>
	<polygon points="180.0 87.39 168.53 94.36 172.03 88.05 167.54 82.41" fill="#000" stroke-width="0"/>
	<path d="M261 64 C194 32 133.67 32 80 64" fill="none" stroke="#000" stroke-width="1"/>
	<text x="156" y="57" fill="#000" font-family="Futura" font-size="11">1,N</text>
	<polygon points="150.99 40.63 162.43 33.61 158.96 39.93 163.47 45.56" fill="#000" stroke-width="0"/>
	<g>
		<path d="M137 35 a14 14 90 0 1 14 14 V63 h-142 V49 a14 14 90 0 1 14 -14" fill="#FFF" stroke="#FFF" stroke-width="0"/>
		<path d="M151 63 v16 a14 14 90 0 1 -14 14 H23 a14 14 90 0 1 -14 -14 V63 H142" fill="#FFF" stroke="#FFF" stroke-width="0"/>
		<rect x="9" y="35" width="142" height="58" fill="none" rx="14" stroke="#000" stroke-width="1.5"/>
		<line x1="9" y1="63" x2="151" y2="63" stroke="#000" stroke-width="1.5"/>
		<text x="16" y="56.3" fill="#000" font-family="Copperplate" font-size="18">Peut recevoir</text>
	</g>
</g>

<!-- Association Appartient -->
<g class="page_0_Sq9UkoqS diagram_page" visibility="visible">
	<line x1="567" y1="64" x2="428" y2="64" stroke="#000" stroke-width="1"/>
	<text x="491" y="80" fill="#000" font-family="Futura" font-size="11">1,1</text>
	<polygon points="514 64 502 70 506 64 502 58" fill="#000" stroke-width="0"/>
	<line x1="261" y1="64" x2="428" y2="64" stroke="#000" stroke-width="1"/>
	<text x="347" y="80" fill="#000" font-family="Futura" font-size="11">0,N</text>
	<g>
		<path d="M471 35 a14 14 90 0 1 14 14 V63 h-114 V49 a14 14 90 0 1 14 -14" fill="#FFF" stroke="#FFF" stroke-width="0"/>
		<path d="M485 63 v16 a14 14 90 0 1 -14 14 H385 a14 14 90 0 1 -14 -14 V63 H114" fill="#FFF" stroke="#FFF" stroke-width="0"/>
		<rect x="371" y="35" width="114" height="58" fill="none" rx="14" stroke="#000" stroke-width="1.5"/>
		<line x1="371" y1="63" x2="485" y2="63" stroke="#000" stroke-width="1.5"/>
		<text x="378" y="56.3" fill="#000" font-family="Copperplate" font-size="18">Appartient</text>
	</g>
</g>

<!-- Association Engendre -->
<g class="page_0_Sq9UkoqS diagram_page" visibility="visible">
	<path d="M567 64 C612.33 32 657 32 701 64" fill="none" stroke="#000" stroke-width="1"/>
	<text x="625" y="57" fill="#000" font-family="Futura" font-size="11">0,N</text>
	<polygon points="648.99 41.13 636.21 45.21 641.09 39.9 638.06 33.35" fill="#000" stroke-width="0"/>
	<path d="M567 64 C611.67 96 656.33 96 701 64" fill="none" stroke="#000" stroke-width="1"/>
	<text x="625" y="79" fill="#000" font-family="Futura" font-size="11">2,2</text>
	<polygon points="620.01 86.95 632.76 82.79 627.92 88.14 630.99 94.66" fill="#000" stroke-width="0"/>
	<g>
		<path d="M739 35 a14 14 90 0 1 14 14 V63 h-104 V49 a14 14 90 0 1 14 -14" fill="#FFF" stroke="#FFF" stroke-width="0"/>
		<path d="M753 63 v16 a14 14 90 0 1 -14 14 H663 a14 14 90 0 1 -14 -14 V63 H104" fill="#FFF" stroke="#FFF" stroke-width="0"/>
		<rect x="649" y="35" width="104" height="58" fill="none" rx="14" stroke="#000" stroke-width="1.5"/>
		<line x1="649" y1="63" x2="753" y2="63" stroke="#000" stroke-width="1.5"/>
		<text x="656" y="56.3" fill="#000" font-family="Copperplate" font-size="18">Engendre</text>
	</g>
</g>

<!-- Entity Groupe sanguin -->
<g class="page_0_Sq9UkoqS diagram_page" visibility="visible">
	<g>
		<rect x="180" y="34" width="162" height="30" fill="#FFF" stroke="#FFF" stroke-width="0" opacity="1"/>
		<rect x="180" y="64" width="162" height="30" fill="#FFF" stroke="#FFF" stroke-width="0" opacity="1"/>
		<rect x="180" y="34" width="162" height="60" fill="none" stroke="#000" stroke-width="1.5" opacity="1"/>
		<line x1="180" y1="64" x2="342" y2="64" stroke="#000" stroke-width="1.5"/>
	</g>
	<text x="188" y="55.3" fill="#000" font-family="Copperplate" font-size="18">Groupe sanguin</text>
	<text x="188" y="81.1" fill="#000" font-family="Gill Sans" font-size="15">type de sang</text>
	<line x1="188" y1="84" x2="266" y2="84" stroke="#000" stroke-width="1"/>
</g>

<!-- Entity Personne -->
<g class="page_0_Sq9UkoqS diagram_page" visibility="visible">
	<g>
		<rect x="514" y="9" width="106" height="30" fill="#FFF" stroke="#FFF" stroke-width="0" opacity="1"/>
		<rect x="514" y="39" width="106" height="80" fill="#FFF" stroke="#FFF" stroke-width="0" opacity="1"/>
		<rect x="514" y="9" width="106" height="110" fill="none" stroke="#000" stroke-width="1.5" opacity="1"/>
		<line x1="514" y1="39" x2="620" y2="39" stroke="#000" stroke-width="1.5"/>
	</g>
	<text x="523" y="30.3" fill="#000" font-family="Copperplate" font-size="18">Personne</text>
	<text x="522" y="56.1" fill="#000" font-family="Gill Sans" font-size="15">Num. SS</text>
	<line x1="522" y1="59" x2="576" y2="59" stroke="#000" stroke-width="1"/>
	<text x="522" y="73.1" fill="#000" font-family="Gill Sans" font-size="15">Nom</text>
	<text x="522" y="90.1" fill="#000" font-family="Gill Sans" font-size="15">Prénom</text>
	<text x="522" y="107" fill="#000" font-family="Gill Sans" font-size="15">Sexe</text>
</g>
</svg>