<svg xmlns="http://www.w3.org/2000/svg" width="334" height="169" viewBox="0 0 334 169">
<rect id="frame" x="0" y="0" width="334" height="169" fill="none" stroke="none" stroke-width="0"/>

<!-- Association Réserver -->
<g class="page_0_Ejnwi7wa diagram_page" visibility="visible">
	<line x1="148" y1="130" x2="148" y2="47" stroke="#000" stroke-width="1"/>
	<text x="153" y="92" fill="#000" font-family="Futura" font-size="11">1,N</text>
	<line x1="276" y1="47" x2="148" y2="47" stroke="#000" stroke-width="1"/>
	<text x="203" y="63" fill="#000" font-family="Futura" font-size="11">1,N</text>
	<line x1="39" y1="47" x2="148" y2="47" stroke="#000" stroke-width="1"/>
	<text x="74" y="63" fill="#000" font-family="Futura" font-size="11">0,N</text>
	<g>
		<path d="M184 18 a14 14 90 0 1 14 14 V46 h-100 V32 a14 14 90 0 1 14 -14" fill="#FFF" stroke="#FFF" stroke-width="0"/>
		<path d="M198 46 v16 a14 14 90 0 1 -14 14 H112 a14 14 90 0 1 -14 -14 V46 H100" fill="#FFF" stroke="#FFF" stroke-width="0"/>
		<rect x="98" y="18" width="100" height="58" fill="none" rx="14" stroke="#000" stroke-width="1.5"/>
		<line x1="98" y1="46" x2="198" y2="46" stroke="#000" stroke-width="1.5"/>
		<text x="105" y="39.3" fill="#000" font-family="Copperplate" font-size="18">Réserver</text>
		<text x="105" y="64.1" fill="#000" font-family="Gill Sans" font-size="15">Durée</text>
	</g>
</g>

<!-- Entity Date -->
<g class="page_0_Ejnwi7wa diagram_page" visibility="visible">
	<g>
		<rect x="9" y="17" width="60" height="30" fill="#FFF" stroke="#FFF" stroke-width="0" opacity="1"/>
		<rect x="9" y="47" width="60" height="30" fill="#FFF" stroke="#FFF" stroke-width="0" opacity="1"/>
		<rect x="9" y="17" width="60" height="60" fill="none" stroke="#000" stroke-width="1.5" opacity="1"/>
		<line x1="9" y1="47" x2="69" y2="47" stroke="#000" stroke-width="1.5"/>
	</g>
	<text x="18" y="38.3" fill="#000" font-family="Copperplate" font-size="18">Date</text>
	<text x="17" y="64.1" fill="#000" font-family="Gill Sans" font-size="15">Date</text>
	<line x1="17" y1="67" x2="48" y2="67" stroke="#000" stroke-width="1"/>
</g>

<!-- Entity Chambre -->
<g class="page_0_Ejnwi7wa diagram_page" visibility="visible">
	<g>
		<rect x="227" y="9" width="98" height="30" fill="#FFF" stroke="#FFF" stroke-width="0" opacity="1"/>
		<rect x="227" y="39" width="98" height="46" fill="#FFF" stroke="#FFF" stroke-width="0" opacity="1"/>
		<rect x="227" y="9" width="98" height="76" fill="none" stroke="#000" stroke-width="1.5" opacity="1"/>
		<line x1="227" y1="39" x2="325" y2="39" stroke="#000" stroke-width="1.5"/>
	</g>
	<text x="236" y="30.3" fill="#000" font-family="Copperplate" font-size="18">Chambre</text>
	<text x="235" y="56.1" fill="#000" font-family="Gill Sans" font-size="15">Numéro</text>
	<line x1="235" y1="59" x2="289" y2="59" stroke="#000" stroke-width="1"/>
	<text x="235" y="73.1" fill="#000" font-family="Gill Sans" font-size="15">Prix</text>
</g>

<!-- Entity Client -->
<g class="page_0_Ejnwi7wa diagram_page" visibility="visible">
	<g>
		<rect x="109" y="100" width="78" height="30" fill="#FFF" stroke="#FFF" stroke-width="0" opacity="1"/>
		<rect x="109" y="130" width="78" height="30" fill="#FFF" stroke="#FFF" stroke-width="0" opacity="1"/>
		<rect x="109" y="100" width="78" height="60" fill="none" stroke="#000" stroke-width="1.5" opacity="1"/>
		<line x1="109" y1="130" x2="187" y2="130" stroke="#000" stroke-width="1.5"/>
	</g>
	<text x="118" y="121.3" fill="#000" font-family="Copperplate" font-size="18">Client</text>
	<text x="117" y="147.1" fill="#000" font-family="Gill Sans" font-size="15">Nom</text>
	<line x1="117" y1="150" x2="150" y2="150" stroke="#000" stroke-width="1"/>
</g>
</svg>