<svg xmlns="http://www.w3.org/2000/svg" width="457" height="227" viewBox="0 0 457 227">
<rect id="frame" x="0" y="0" width="457" height="227" fill="none" stroke="none" stroke-width="0"/>

<!-- Association Pillards -->
<g class="page_0_PyHATzep diagram_page" visibility="visible">
	<line x1="55" y1="47" x2="181" y2="47" stroke="#000" stroke-width="1"/>
	<text x="94" y="63" fill="#000" font-family="Futura" font-size="11">0,N</text>
	<line x1="315" y1="47" x2="181" y2="47" stroke="#000" stroke-width="1"/>
	<text x="245" y="63" fill="#000" font-family="Futura" font-size="11">0,N</text>
	<line x1="181" y1="163" x2="181" y2="47" stroke="#000" stroke-width="1"/>
	<text x="186" y="100" fill="#000" font-family="Futura" font-size="11">0,N</text>
	<g>
		<path d="M215 10 a14 14 90 0 1 14 14 V38 h-96 V24 a14 14 90 0 1 14 -14" fill="#FFF" stroke="#FFF" stroke-width="0"/>
		<path d="M229 38 v32 a14 14 90 0 1 -14 14 H147 a14 14 90 0 1 -14 -14 V38 H96" fill="#FFF" stroke="#FFF" stroke-width="0"/>
		<rect x="133" y="10" width="96" height="74" fill="none" rx="14" stroke="#000" stroke-width="1.5"/>
		<line x1="133" y1="38" x2="229" y2="38" stroke="#000" stroke-width="1.5"/>
		<text x="141" y="31.3" fill="#000" font-family="Copperplate" font-size="18">Pillards</text>
		<text x="140" y="56.1" fill="#000" font-family="Gill Sans" font-size="15">disions</text>
		<text x="140" y="73.1" fill="#000" font-family="Gill Sans" font-size="15">lascar</text>
	</g>
</g>

<!-- Association Puni -->
<g class="page_0_PyHATzep diagram_page" visibility="visible">
	<path d="M315 47 C360.33 15 395 15 419 47" fill="none" stroke="#000" stroke-width="1"/>
	<text x="366" y="41" fill="#000" font-family="Futura" font-size="11">1,1</text>
	<path d="M315 47 C361 79 395.67 79 419 47" fill="none" stroke="#000" stroke-width="1"/>
	<text x="366" y="61" fill="#000" font-family="Futura" font-size="11">0,N</text>
	<g>
		<path d="M434 18 a14 14 90 0 1 14 14 V46 h-58 V32 a14 14 90 0 1 14 -14" fill="#FFF" stroke="#FFF" stroke-width="0"/>
		<path d="M448 46 v16 a14 14 90 0 1 -14 14 H404 a14 14 90 0 1 -14 -14 V46 H58" fill="#FFF" stroke="#FFF" stroke-width="0"/>
		<rect x="390" y="18" width="58" height="58" fill="none" rx="14" stroke="#000" stroke-width="1.5"/>
		<line x1="390" y1="46" x2="448" y2="46" stroke="#000" stroke-width="1.5"/>
		<text x="398" y="39.3" fill="#000" font-family="Copperplate" font-size="18">Puni</text>
	</g>
</g>

<!-- Association Assistas -->
<g class="page_0_PyHATzep diagram_page" visibility="visible">
	<path d="M181 163 C136.33 195 94.33 195 55 163" fill="none" stroke="#000" stroke-width="1"/>
	<text x="107" y="178" fill="#000" font-family="Futura" font-size="11">0,1</text>
	<path d="M181 163 C135.67 131 93.67 131 55 163" fill="none" stroke="#000" stroke-width="1"/>
	<text x="106" y="156" fill="#000" font-family="Futura" font-size="11">0,N</text>
	<g>
		<path d="M87 134 a14 14 90 0 1 14 14 V162 h-92 V148 a14 14 90 0 1 14 -14" fill="#FFF" stroke="#FFF" stroke-width="0"/>
		<path d="M101 162 v16 a14 14 90 0 1 -14 14 H23 a14 14 90 0 1 -14 -14 V162 H92" fill="#FFF" stroke="#FFF" stroke-width="0"/>
		<rect x="9" y="134" width="92" height="58" fill="none" rx="14" stroke="#000" stroke-width="1.5"/>
		<line x1="9" y1="162" x2="101" y2="162" stroke="#000" stroke-width="1.5"/>
		<text x="16" y="155.3" fill="#000" font-family="Copperplate" font-size="18">Assistas</text>
	</g>
</g>

<!-- Association Rayonnait -->
<g class="page_0_PyHATzep diagram_page" visibility="visible">
	<line x1="181" y1="163" x2="315" y2="163" stroke="#000" stroke-width="1"/>
	<text x="237" y="179" fill="#000" font-family="Futura" font-size="11">0,N</text>
	<line x1="315" y1="47" x2="315" y2="163" stroke="#000" stroke-width="1"/>
	<text x="320" y="101" fill="#000" font-family="Futura" font-size="11">0,N</text>
	<g>
		<path d="M355 134 a14 14 90 0 1 14 14 V162 h-108 V148 a14 14 90 0 1 14 -14" fill="#FFF" stroke="#FFF" stroke-width="0"/>
		<path d="M369 162 v16 a14 14 90 0 1 -14 14 H275 a14 14 90 0 1 -14 -14 V162 H108" fill="#FFF" stroke="#FFF" stroke-width="0"/>
		<rect x="261" y="134" width="108" height="58" fill="none" rx="14" stroke="#000" stroke-width="1.5"/>
		<line x1="261" y1="162" x2="369" y2="162" stroke="#000" stroke-width="1.5"/>
		<text x="268" y="155.3" fill="#000" font-family="Copperplate" font-size="18">Rayonnait</text>
		<text x="268" y="180.1" fill="#000" font-family="Gill Sans" font-size="15">monobloc</text>
	</g>
</g>

<!-- Entity Brisa -->
<g class="page_0_PyHATzep diagram_page" visibility="visible">
	<g>
		<rect x="21" y="17" width="68" height="30" fill="#FFF" stroke="#FFF" stroke-width="0" opacity="1"/>
		<rect x="21" y="47" width="68" height="30" fill="#FFF" stroke="#FFF" stroke-width="0" opacity="1"/>
		<rect x="21" y="17" width="68" height="60" fill="none" stroke="#000" stroke-width="1.5" opacity="1"/>
		<line x1="21" y1="47" x2="89" y2="47" stroke="#000" stroke-width="1.5"/>
	</g>
	<text x="30" y="38.3" fill="#000" font-family="Copperplate" font-size="18">Brisa</text>
	<text x="29" y="64.1" fill="#000" font-family="Gill Sans" font-size="15">souffrait</text>
	<line x1="29" y1="67" x2="81" y2="67" stroke="#000" stroke-width="1"/>
</g>

<!-- Entity Lappa -->
<g class="page_0_PyHATzep diagram_page" visibility="visible">
	<g>
		<rect x="269" y="9" width="92" height="30" fill="#FFF" stroke="#FFF" stroke-width="0" opacity="1"/>
		<rect x="269" y="39" width="92" height="46" fill="#FFF" stroke="#FFF" stroke-width="0" opacity="1"/>
		<rect x="269" y="9" width="92" height="76" fill="none" stroke="#000" stroke-width="1.5" opacity="1"/>
		<line x1="269" y1="39" x2="361" y2="39" stroke="#000" stroke-width="1.5"/>
	</g>
	<text x="289" y="30.3" fill="#000" font-family="Copperplate" font-size="18">Lappa</text>
	<text x="277" y="56.1" fill="#000" font-family="Gill Sans" font-size="15">graffiti</text>
	<line x1="277" y1="59" x2="316" y2="59" stroke="#000" stroke-width="1"/>
	<text x="277" y="73.1" fill="#000" font-family="Gill Sans" font-size="15">champignon</text>
</g>

<!-- Entity Hci poilu -->
<g class="page_0_PyHATzep diagram_page" visibility="visible">
	<g>
		<rect x="130" y="108" width="102" height="30" fill="#FFF" stroke="#FFF" stroke-width="0" opacity="1"/>
		<rect x="130" y="138" width="102" height="80" fill="#FFF" stroke="#FFF" stroke-width="0" opacity="1"/>
		<rect x="130" y="108" width="102" height="110" fill="none" stroke="#000" stroke-width="1.5" opacity="1"/>
		<line x1="130" y1="138" x2="232" y2="138" stroke="#000" stroke-width="1.5"/>
	</g>
	<text x="139" y="129.3" fill="#000" font-family="Copperplate" font-size="18">Hci poilu</text>
	<text x="138" y="155.1" fill="#000" font-family="Gill Sans" font-size="15">graffiti</text>
	<line x1="138" y1="158" x2="177" y2="158" stroke="#000" stroke-width="1"/>
	<text x="138" y="172.1" fill="#000" font-family="Gill Sans" font-size="15">champignon</text>
	<text x="138" y="189.1" fill="#000" font-family="Gill Sans" font-size="15">troussa</text>
	<text x="138" y="206" fill="#000" font-family="Gill Sans" font-size="15">graffiti</text>
</g>
</svg>