<svg xmlns="http://www.w3.org/2000/svg" width="582" height="112" viewBox="0 0 582 112">
<rect id="frame" x="0" y="0" width="582" height="112" fill="none" stroke="none" stroke-width="0"/>

<!-- Association DF -->
<g class="page_0_yIjp0X9n diagram_page" visibility="visible">
	<line x1="51" y1="56" x2="142" y2="56" stroke="#000" stroke-width="1"/>
	<text x="98" y="72" fill="#000" font-family="Futura" font-size="11">0,N</text>
	<line x1="254" y1="56" x2="142" y2="56" stroke="#000" stroke-width="1"/>
	<text x="168" y="72" fill="#000" font-family="Futura" font-size="11">1,1</text>
	<g>
		<circle cx="142" cy="56" r="20" stroke="#000" stroke-width="1.5" fill="#FFF"/>
		<text x="129" y="60.8" fill="#000" font-family="Copperplate" font-size="18">DF</text>
	</g>
</g>

<!-- Association INCLURE -->
<g class="page_0_yIjp0X9n diagram_page" visibility="visible">
	<line x1="254" y1="56" x2="395" y2="56" stroke="#000" stroke-width="1"/>
	<text x="322" y="72" fill="#000" font-family="Futura" font-size="11">1,N</text>
	<line x1="523" y1="56" x2="395" y2="56" stroke="#000" stroke-width="1"/>
	<text x="449" y="72" fill="#000" font-family="Futura" font-size="11">0,N</text>
	<g>
		<path d="M430 27 a14 14 90 0 1 14 14 V55 h-98 V41 a14 14 90 0 1 14 -14" fill="#FFF" stroke="#FFF" stroke-width="0"/>
		<path d="M444 55 v16 a14 14 90 0 1 -14 14 H360 a14 14 90 0 1 -14 -14 V55 H98" fill="#FFF" stroke="#FFF" stroke-width="0"/>
		<rect x="346" y="27" width="98" height="58" fill="none" rx="14" stroke="#000" stroke-width="1.5"/>
		<line x1="346" y1="55" x2="444" y2="55" stroke="#000" stroke-width="1.5"/>
		<text x="354" y="48.3" fill="#000" font-family="Copperplate" font-size="18">INCLURE</text>
		<text x="353" y="73.1" fill="#000" font-family="Gill Sans" font-size="15">Quantité</text>
	</g>
</g>

<!-- Entity CLIENT -->
<g class="page_0_yIjp0X9n diagram_page" visibility="visible">
	<g>
		<rect x="9" y="9" width="84" height="30" fill="#FFF" stroke="#FFF" stroke-width="0" opacity="1"/>
		<rect x="9" y="39" width="84" height="64" fill="#FFF" stroke="#FFF" stroke-width="0" opacity="1"/>
		<rect x="9" y="9" width="84" height="94" fill="none" stroke="#000" stroke-width="1.5" opacity="1"/>
		<line x1="9" y1="39" x2="93" y2="39" stroke="#000" stroke-width="1.5"/>
	</g>
	<text x="17" y="30.3" fill="#000" font-family="Copperplate" font-size="18">CLIENT</text>
	<text x="17" y="56.1" fill="#000" font-family="Gill Sans" font-size="15">Réf. client</text>
	<line x1="17" y1="59" x2="79" y2="59" stroke="#000" stroke-width="1"/>
	<text x="17" y="73.1" fill="#000" font-family="Gill Sans" font-size="15">Nom</text>
	<text x="17" y="90" fill="#000" font-family="Gill Sans" font-size="15">Adresse</text>
</g>

<!-- Entity COMMANDE -->
<g class="page_0_yIjp0X9n diagram_page" visibility="visible">
	<g>
		<rect x="191" y="9" width="126" height="30" fill="#FFF" stroke="#FFF" stroke-width="0" opacity="1"/>
		<rect x="191" y="39" width="126" height="64" fill="#FFF" stroke="#FFF" stroke-width="0" opacity="1"/>
		<rect x="191" y="9" width="126" height="94" fill="none" stroke="#000" stroke-width="1.5" opacity="1"/>
		<line x1="191" y1="39" x2="317" y2="39" stroke="#000" stroke-width="1.5"/>
	</g>
	<text x="200" y="30.3" fill="#000" font-family="Copperplate" font-size="18">COMMANDE</text>
	<text x="199" y="56.1" fill="#000" font-family="Gill Sans" font-size="15">Num commande</text>
	<line x1="199" y1="59" x2="304" y2="59" stroke="#000" stroke-width="1"/>
	<text x="199" y="73.1" fill="#000" font-family="Gill Sans" font-size="15">Date</text>
	<text x="199" y="90" fill="#000" font-family="Gill Sans" font-size="15">Montant</text>
</g>

<!-- Entity PRODUIT -->
<g class="page_0_yIjp0X9n diagram_page" visibility="visible">
	<g>
		<rect x="473" y="9" width="100" height="30" fill="#FFF" stroke="#FFF" stroke-width="0" opacity="1"/>
		<rect x="473" y="39" width="100" height="64" fill="#FFF" stroke="#FFF" stroke-width="0" opacity="1"/>
		<rect x="473" y="9" width="100" height="94" fill="none" stroke="#000" stroke-width="1.5" opacity="1"/>
		<line x1="473" y1="39" x2="573" y2="39" stroke="#000" stroke-width="1.5"/>
	</g>
	<text x="482" y="30.3" fill="#000" font-family="Copperplate" font-size="18">PRODUIT</text>
	<text x="481" y="56.1" fill="#000" font-family="Gill Sans" font-size="15">Réf. produit</text>
	<line x1="481" y1="59" x2="556" y2="59" stroke="#000" stroke-width="1"/>
	<text x="481" y="73.1" fill="#000" font-family="Gill Sans" font-size="15">Libellé</text>
	<text x="481" y="90" fill="#000" font-family="Gill Sans" font-size="15">Prix unitaire</text>
</g>
</svg>