<svg xmlns="http://www.w3.org/2000/svg" width="367" height="230" viewBox="0 0 367 230">
<rect id="frame" x="0" y="0" width="367" height="230" fill="none" stroke="none" stroke-width="0"/>

<!-- Association FAUCIBUS -->
<g class="page_0_xL17JWy6 diagram_page" visibility="visible">
	<line x1="54" y1="56" x2="181" y2="56" stroke="#000" stroke-width="1"/>
	<text x="103" y="72" fill="#000" font-family="Futura" font-size="11">1,1</text>
	<line x1="305" y1="56" x2="181" y2="56" stroke="#000" stroke-width="1"/>
	<text x="246" y="72" fill="#000" font-family="Futura" font-size="11">1,1</text>
	<g>
		<path d="M221 27 a14 14 90 0 1 14 14 V55 h-108 V41 a14 14 90 0 1 14 -14" fill="#FFF" stroke="#FFF" stroke-width="0"/>
		<path d="M235 55 v16 a14 14 90 0 1 -14 14 H141 a14 14 90 0 1 -14 -14 V55 H108" fill="#FFF" stroke="#FFF" stroke-width="0"/>
		<rect x="127" y="27" width="108" height="58" fill="none" rx="14" stroke="#000" stroke-width="1.5"/>
		<line x1="127" y1="55" x2="235" y2="55" stroke="#000" stroke-width="1.5"/>
		<text x="134" y="48.3" fill="#000" font-family="Copperplate" font-size="18">FAUCIBUS</text>
		<text x="134" y="73.1" fill="#000" font-family="Gill Sans" font-size="15">ipsum</text>
	</g>
</g>

<!-- Association MOLLIS -->
<g class="page_0_xL17JWy6 diagram_page" visibility="visible">
	<line x1="305" y1="174" x2="181" y2="174" stroke="#000" stroke-width="1"/>
	<text x="229" y="190" fill="#000" font-family="Futura" font-size="11">1,1</text>
	<line x1="54" y1="174" x2="181" y2="174" stroke="#000" stroke-width="1"/>
	<text x="104" y="190" fill="#000" font-family="Futura" font-size="11">1,1</text>
	<g>
		<path d="M209 145 a14 14 90 0 1 14 14 V173 h-84 V159 a14 14 90 0 1 14 -14" fill="#FFF" stroke="#FFF" stroke-width="0"/>
		<path d="M223 173 v16 a14 14 90 0 1 -14 14 H153 a14 14 90 0 1 -14 -14 V173 H84" fill="#FFF" stroke="#FFF" stroke-width="0"/>
		<rect x="139" y="145" width="84" height="58" fill="none" rx="14" stroke="#000" stroke-width="1.5"/>
		<line x1="139" y1="173" x2="223" y2="173" stroke="#000" stroke-width="1.5"/>
		<text x="146" y="166.3" fill="#000" font-family="Copperplate" font-size="18">MOLLIS</text>
		<text x="146" y="191.1" fill="#000" font-family="Gill Sans" font-size="15">lacus</text>
	</g>
</g>

<!-- Entity TELLUS -->
<g class="page_0_xL17JWy6 diagram_page" visibility="visible">
	<g>
		<rect x="10" y="18" width="88" height="30" fill="#FFF" stroke="#FFF" stroke-width="0" opacity="1"/>
		<rect x="10" y="48" width="88" height="46" fill="#FFF" stroke="#FFF" stroke-width="0" opacity="1"/>
		<rect x="10" y="18" width="88" height="76" fill="none" stroke="#000" stroke-width="1.5" opacity="1"/>
		<line x1="10" y1="48" x2="98" y2="48" stroke="#000" stroke-width="1.5"/>
	</g>
	<text x="19" y="39.3" fill="#000" font-family="Copperplate" font-size="18">TELLUS</text>
	<text x="18" y="65.1" fill="#000" font-family="Gill Sans" font-size="15">integer</text>
	<line x1="18" y1="68" x2="62" y2="68" stroke="#000" stroke-width="1"/>
	<text x="18" y="82.1" fill="#000" font-family="Gill Sans" font-size="15">odio</text>
</g>

<!-- Entity EROS -->
<g class="page_0_xL17JWy6 diagram_page" visibility="visible">
	<g>
		<rect x="269" y="9" width="72" height="30" fill="#FFF" stroke="#FFF" stroke-width="0" opacity="1"/>
		<rect x="269" y="39" width="72" height="64" fill="#FFF" stroke="#FFF" stroke-width="0" opacity="1"/>
		<rect x="269" y="9" width="72" height="94" fill="none" stroke="#000" stroke-width="1.5" opacity="1"/>
		<line x1="269" y1="39" x2="341" y2="39" stroke="#000" stroke-width="1.5"/>
	</g>
	<text x="279" y="30.3" fill="#000" font-family="Copperplate" font-size="18">EROS</text>
	<text x="277" y="56.1" fill="#000" font-family="Gill Sans" font-size="15">congue</text>
	<line x1="277" y1="59" x2="322" y2="59" stroke="#000" stroke-width="1"/>
	<text x="277" y="73.1" fill="#000" font-family="Gill Sans" font-size="15">nibh</text>
	<text x="277" y="90" fill="#000" font-family="Gill Sans" font-size="15">tincidunt</text>
</g>

<!-- Entity ORCI -->
<g class="page_0_xL17JWy6 diagram_page" visibility="visible">
	<g>
		<rect x="9" y="136" width="90" height="30" fill="#FFF" stroke="#FFF" stroke-width="0" opacity="1"/>
		<rect x="9" y="166" width="90" height="46" fill="#FFF" stroke="#FFF" stroke-width="0" opacity="1"/>
		<rect x="9" y="136" width="90" height="76" fill="none" stroke="#000" stroke-width="1.5" opacity="1"/>
		<line x1="9" y1="166" x2="99" y2="166" stroke="#000" stroke-width="1.5"/>
	</g>
	<text x="31" y="157.3" fill="#000" font-family="Copperplate" font-size="18">ORCI</text>
	<text x="17" y="183.1" fill="#000" font-family="Gill Sans" font-size="15">suspendisse</text>
	<line x1="17" y1="186" x2="90" y2="186" stroke="#000" stroke-width="1"/>
	<text x="17" y="200.1" fill="#000" font-family="Gill Sans" font-size="15">iaculis</text>
</g>

<!-- Entity POSUERE -->
<g class="page_0_xL17JWy6 diagram_page" visibility="visible">
	<g>
		<rect x="252" y="127" width="106" height="30" fill="#FFF" stroke="#FFF" stroke-width="0" opacity="1"/>
		<rect x="252" y="157" width="106" height="64" fill="#FFF" stroke="#FFF" stroke-width="0" opacity="1"/>
		<rect x="252" y="127" width="106" height="94" fill="none" stroke="#000" stroke-width="1.5" opacity="1"/>
		<line x1="252" y1="157" x2="358" y2="157" stroke="#000" stroke-width="1.5"/>
	</g>
	<text x="261" y="148.3" fill="#000" font-family="Copperplate" font-size="18">POSUERE</text>
	<text x="260" y="174.1" fill="#000" font-family="Gill Sans" font-size="15">pretium</text>
	<line x1="260" y1="177" x2="310" y2="177" stroke="#000" stroke-width="1"/>
	<text x="260" y="191.1" fill="#000" font-family="Gill Sans" font-size="15">euismod</text>
	<text x="260" y="208" fill="#000" font-family="Gill Sans" font-size="15">porttitor</text>
</g>
</svg>