<svg xmlns="http://www.w3.org/2000/svg" width="976" height="94" viewBox="0 0 976 94">
<rect id="frame" x="0" y="0" width="976" height="94" fill="none" stroke="none" stroke-width="0"/>

<!-- Association Composer -->
<g class="page_0_8pd4qgp6 diagram_page" visibility="visible">
	<line x1="363" y1="47" x2="224" y2="47" stroke="#000" stroke-width="1"/>
	<text x="281" y="63" fill="#000" font-family="Futura" font-size="11">0,N</text>
	<line x1="76" y1="47" x2="224" y2="47" stroke="#000" stroke-width="1"/>
	<text x="148" y="63" fill="#000" font-family="Futura" font-size="11">1,1</text>
	<line x1="148" y1="65" x2="166" y2="65" stroke="#000" stroke-width="1"/>
	<g>
		<path d="M262 18 a14 14 90 0 1 14 14 V46 h-104 V32 a14 14 90 0 1 14 -14" fill="#FFF" stroke="#FFF" stroke-width="0"/>
		<path d="M276 46 v16 a14 14 90 0 1 -14 14 H186 a14 14 90 0 1 -14 -14 V46 H104" fill="#FFF" stroke="#FFF" stroke-width="0"/>
		<rect x="172" y="18" width="104" height="58" fill="none" rx="14" stroke="#000" stroke-width="1.5"/>
		<line x1="172" y1="46" x2="276" y2="46" stroke="#000" stroke-width="1.5"/>
		<text x="179" y="39.3" fill="#000" font-family="Copperplate" font-size="18">Composer</text>
	</g>
</g>

<!-- Association Appartenir -->
<g class="page_0_8pd4qgp6 diagram_page" visibility="visible">
	<line x1="665" y1="47" x2="508" y2="47" stroke="#000" stroke-width="1"/>
	<text x="571" y="63" fill="#000" font-family="Futura" font-size="11">1,N</text>
	<line x1="363" y1="47" x2="508" y2="47" stroke="#000" stroke-width="1"/>
	<text x="426" y="63" fill="#000" font-family="Futura" font-size="11">1,1</text>
	<line x1="426" y1="65" x2="444" y2="65" stroke="#000" stroke-width="1"/>
	<g>
		<path d="M552 18 a14 14 90 0 1 14 14 V46 h-116 V32 a14 14 90 0 1 14 -14" fill="#FFF" stroke="#FFF" stroke-width="0"/>
		<path d="M566 46 v16 a14 14 90 0 1 -14 14 H464 a14 14 90 0 1 -14 -14 V46 H116" fill="#FFF" stroke="#FFF" stroke-width="0"/>
		<rect x="450" y="18" width="116" height="58" fill="none" rx="14" stroke="#000" stroke-width="1.5"/>
		<line x1="450" y1="46" x2="566" y2="46" stroke="#000" stroke-width="1.5"/>
		<text x="457" y="39.3" fill="#000" font-family="Copperplate" font-size="18">Appartenir</text>
	</g>
</g>

<!-- Association Se situer -->
<g class="page_0_8pd4qgp6 diagram_page" visibility="visible">
	<line x1="930" y1="47" x2="814" y2="47" stroke="#000" stroke-width="1"/>
	<text x="869" y="63" fill="#000" font-family="Futura" font-size="11">0,N</text>
	<line x1="665" y1="47" x2="814" y2="47" stroke="#000" stroke-width="1"/>
	<text x="740" y="63" fill="#000" font-family="Futura" font-size="11">1,1</text>
	<line x1="740" y1="65" x2="758" y2="65" stroke="#000" stroke-width="1"/>
	<g>
		<path d="M850 18 a14 14 90 0 1 14 14 V46 h-100 V32 a14 14 90 0 1 14 -14" fill="#FFF" stroke="#FFF" stroke-width="0"/>
		<path d="M864 46 v16 a14 14 90 0 1 -14 14 H778 a14 14 90 0 1 -14 -14 V46 H100" fill="#FFF" stroke="#FFF" stroke-width="0"/>
		<rect x="764" y="18" width="100" height="58" fill="none" rx="14" stroke="#000" stroke-width="1.5"/>
		<line x1="764" y1="46" x2="864" y2="46" stroke="#000" stroke-width="1.5"/>
		<text x="771" y="39.3" fill="#000" font-family="Copperplate" font-size="18">Se situer</text>
	</g>
</g>

<!-- Entity Appartement -->
<g class="page_0_8pd4qgp6 diagram_page" visibility="visible">
	<g>
		<rect x="9" y="9" width="134" height="30" fill="#FFF" stroke="#FFF" stroke-width="0" opacity="1"/>
		<rect x="9" y="39" width="134" height="46" fill="#FFF" stroke="#FFF" stroke-width="0" opacity="1"/>
		<rect x="9" y="9" width="134" height="76" fill="none" stroke="#000" stroke-width="1.5" opacity="1"/>
		<line x1="9" y1="39" x2="143" y2="39" stroke="#000" stroke-width="1.5"/>
	</g>
	<text x="18" y="30.3" fill="#000" font-family="Copperplate" font-size="18">Appartement</text>
	<text x="17" y="56.1" fill="#000" font-family="Gill Sans" font-size="15">num appart.</text>
	<line x1="17" y1="59" x2="92" y2="59" stroke="#000" stroke-width="1" stroke-dasharray="4"/>
	<text x="17" y="73.1" fill="#000" font-family="Gill Sans" font-size="15">nb pièces appart.</text>
</g>

<!-- Entity Étage -->
<g class="page_0_8pd4qgp6 diagram_page" visibility="visible">
	<g>
		<rect x="305" y="9" width="116" height="30" fill="#FFF" stroke="#FFF" stroke-width="0" opacity="1"/>
		<rect x="305" y="39" width="116" height="46" fill="#FFF" stroke="#FFF" stroke-width="0" opacity="1"/>
		<rect x="305" y="9" width="116" height="76" fill="none" stroke="#000" stroke-width="1.5" opacity="1"/>
		<line x1="305" y1="39" x2="421" y2="39" stroke="#000" stroke-width="1.5"/>
	</g>
	<text x="337" y="30.3" fill="#000" font-family="Copperplate" font-size="18">Étage</text>
	<text x="313" y="56.1" fill="#000" font-family="Gill Sans" font-size="15">num étage</text>
	<line x1="313" y1="59" x2="378" y2="59" stroke="#000" stroke-width="1" stroke-dasharray="4"/>
	<text x="313" y="73.1" fill="#000" font-family="Gill Sans" font-size="15">nb appart. étage</text>
</g>

<!-- Entity Immeuble -->
<g class="page_0_8pd4qgp6 diagram_page" visibility="visible">
	<g>
		<rect x="595" y="9" width="140" height="30" fill="#FFF" stroke="#FFF" stroke-width="0" opacity="1"/>
		<rect x="595" y="39" width="140" height="46" fill="#FFF" stroke="#FFF" stroke-width="0" opacity="1"/>
		<rect x="595" y="9" width="140" height="76" fill="none" stroke="#000" stroke-width="1.5" opacity="1"/>
		<line x1="595" y1="39" x2="735" y2="39" stroke="#000" stroke-width="1.5"/>
	</g>
	<text x="622" y="30.3" fill="#000" font-family="Copperplate" font-size="18">Immeuble</text>
	<text x="603" y="56.1" fill="#000" font-family="Gill Sans" font-size="15">num immeuble</text>
	<line x1="603" y1="59" x2="696" y2="59" stroke="#000" stroke-width="1" stroke-dasharray="4"/>
	<text x="603" y="73.1" fill="#000" font-family="Gill Sans" font-size="15">nb étages immeuble</text>
</g>

<!-- Entity Rue -->
<g class="page_0_8pd4qgp6 diagram_page" visibility="visible">
	<g>
		<rect x="893" y="9" width="74" height="30" fill="#FFF" stroke="#FFF" stroke-width="0" opacity="1"/>
		<rect x="893" y="39" width="74" height="46" fill="#FFF" stroke="#FFF" stroke-width="0" opacity="1"/>
		<rect x="893" y="9" width="74" height="76" fill="none" stroke="#000" stroke-width="1.5" opacity="1"/>
		<line x1="893" y1="39" x2="967" y2="39" stroke="#000" stroke-width="1.5"/>
	</g>
	<text x="912" y="30.3" fill="#000" font-family="Copperplate" font-size="18">Rue</text>
	<text x="901" y="56.1" fill="#000" font-family="Gill Sans" font-size="15">code rue</text>
	<line x1="901" y1="59" x2="958" y2="59" stroke="#000" stroke-width="1"/>
	<text x="901" y="73.1" fill="#000" font-family="Gill Sans" font-size="15">nom rue</text>
</g>
</svg>