<svg xmlns="http://www.w3.org/2000/svg" width="484" height="336" viewBox="0 0 484 336">
<rect id="frame" x="0" y="0" width="484" height="336" fill="none" stroke="none" stroke-width="0"/>

<!-- Association RHONCUS -->
<g class="page_0_GiWOSoa3 diagram_page" visibility="visible">
	<line x1="66" y1="109" x2="240" y2="38" stroke="#000" stroke-width="1"/>
	<text x="128" y="98.55" fill="#000" font-family="Futura" font-size="11">1,N</text>
	<line x1="416" y1="109" x2="240" y2="38" stroke="#000" stroke-width="1"/>
	<text x="333" y="98.04" fill="#000" font-family="Futura" font-size="11">1,N</text>
	<line x1="240" y1="280" x2="240" y2="38" stroke="#000" stroke-width="1"/>
	<text x="245" y="225" fill="#000" font-family="Futura" font-size="11">1,N</text>
	<g>
		<path d="M280 9 a14 14 90 0 1 14 14 V37 h-108 V23 a14 14 90 0 1 14 -14" fill="#FFF" stroke="#FFF" stroke-width="0"/>
		<path d="M294 37 v16 a14 14 90 0 1 -14 14 H200 a14 14 90 0 1 -14 -14 V37 H108" fill="#FFF" stroke="#FFF" stroke-width="0"/>
		<rect x="186" y="9" width="108" height="58" fill="none" rx="14" stroke="#000" stroke-width="1.5"/>
		<line x1="186" y1="37" x2="294" y2="37" stroke="#000" stroke-width="1.5"/>
		<text x="193" y="30.3" fill="#000" font-family="Copperplate" font-size="18">RHONCUS</text>
	</g>
</g>

<!-- Association SODALES -->
<g class="page_0_GiWOSoa3 diagram_page" visibility="visible">
	<line x1="66" y1="109" x2="66" y2="209" stroke="#000" stroke-width="1"/>
	<text x="42" y="172" fill="#000" font-family="Futura" font-size="11">1,N</text>
	<line x1="416" y1="109" x2="66" y2="209" stroke="#000" stroke-width="1"/>
	<text x="333" y="120.07" fill="#000" font-family="Futura" font-size="11">1,N</text>
	<line x1="240" y1="280" x2="66" y2="209" stroke="#000" stroke-width="1"/>
	<text x="157" y="268.73" fill="#000" font-family="Futura" font-size="11">1,N</text>
	<g>
		<path d="M103 180 a14 14 90 0 1 14 14 V208 h-102 V194 a14 14 90 0 1 14 -14" fill="#FFF" stroke="#FFF" stroke-width="0"/>
		<path d="M117 208 v16 a14 14 90 0 1 -14 14 H29 a14 14 90 0 1 -14 -14 V208 H102" fill="#FFF" stroke="#FFF" stroke-width="0"/>
		<rect x="15" y="180" width="102" height="58" fill="none" rx="14" stroke="#000" stroke-width="1.5"/>
		<line x1="15" y1="208" x2="117" y2="208" stroke="#000" stroke-width="1.5"/>
		<text x="23" y="201.3" fill="#000" font-family="Copperplate" font-size="18">SODALES</text>
	</g>
</g>

<!-- Association QUIS ENIM -->
<g class="page_0_GiWOSoa3 diagram_page" visibility="visible">
	<line x1="66" y1="109" x2="416" y2="209" stroke="#000" stroke-width="1"/>
	<text x="128" y="119.5" fill="#000" font-family="Futura" font-size="11">1,N</text>
	<line x1="416" y1="109" x2="416" y2="209" stroke="#000" stroke-width="1"/>
	<text x="421" y="172" fill="#000" font-family="Futura" font-size="11">1,N</text>
	<line x1="240" y1="280" x2="416" y2="209" stroke="#000" stroke-width="1"/>
	<text x="304" y="269.04" fill="#000" font-family="Futura" font-size="11">1,N</text>
	<g>
		<path d="M458 180 a14 14 90 0 1 14 14 V208 h-112 V194 a14 14 90 0 1 14 -14" fill="#FFF" stroke="#FFF" stroke-width="0"/>
		<path d="M472 208 v16 a14 14 90 0 1 -14 14 H374 a14 14 90 0 1 -14 -14 V208 H112" fill="#FFF" stroke="#FFF" stroke-width="0"/>
		<rect x="360" y="180" width="112" height="58" fill="none" rx="14" stroke="#000" stroke-width="1.5"/>
		<line x1="360" y1="208" x2="472" y2="208" stroke="#000" stroke-width="1.5"/>
		<text x="367" y="201.3" fill="#000" font-family="Copperplate" font-size="18">QUIS ENIM</text>
	</g>
</g>

<!-- Entity DIGNISSIM -->
<g class="page_0_GiWOSoa3 diagram_page" visibility="visible">
	<g>
		<rect x="9" y="62" width="114" height="30" fill="#FFF" stroke="#FFF" stroke-width="0" opacity="1"/>
		<rect x="9" y="92" width="114" height="64" fill="#FFF" stroke="#FFF" stroke-width="0" opacity="1"/>
		<rect x="9" y="62" width="114" height="94" fill="none" stroke="#000" stroke-width="1.5" opacity="1"/>
		<line x1="9" y1="92" x2="123" y2="92" stroke="#000" stroke-width="1.5"/>
	</g>
	<text x="17" y="83.3" fill="#000" font-family="Copperplate" font-size="18">DIGNISSIM</text>
	<text x="17" y="109.1" fill="#000" font-family="Gill Sans" font-size="15">nec sem</text>
	<line x1="17" y1="112" x2="69" y2="112" stroke="#000" stroke-width="1"/>
	<text x="17" y="126.1" fill="#000" font-family="Gill Sans" font-size="15">nunc</text>
	<text x="17" y="143" fill="#000" font-family="Gill Sans" font-size="15">vulputate</text>
</g>

<!-- Entity IMPERDIET -->
<g class="page_0_GiWOSoa3 diagram_page" visibility="visible">
	<g>
		<rect x="357" y="62" width="118" height="30" fill="#FFF" stroke="#FFF" stroke-width="0" opacity="1"/>
		<rect x="357" y="92" width="118" height="64" fill="#FFF" stroke="#FFF" stroke-width="0" opacity="1"/>
		<rect x="357" y="62" width="118" height="94" fill="none" stroke="#000" stroke-width="1.5" opacity="1"/>
		<line x1="357" y1="92" x2="475" y2="92" stroke="#000" stroke-width="1.5"/>
	</g>
	<text x="366" y="83.3" fill="#000" font-family="Copperplate" font-size="18">IMPERDIET</text>
	<text x="365" y="109.1" fill="#000" font-family="Gill Sans" font-size="15">a praesent</text>
	<line x1="365" y1="112" x2="430" y2="112" stroke="#000" stroke-width="1"/>
	<text x="365" y="126.1" fill="#000" font-family="Gill Sans" font-size="15">nibh</text>
	<text x="365" y="143" fill="#000" font-family="Gill Sans" font-size="15">semper</text>
</g>

<!-- Entity TINCIDUNT -->
<g class="page_0_GiWOSoa3 diagram_page" visibility="visible">
	<g>
		<rect x="181" y="233" width="118" height="30" fill="#FFF" stroke="#FFF" stroke-width="0" opacity="1"/>
		<rect x="181" y="263" width="118" height="64" fill="#FFF" stroke="#FFF" stroke-width="0" opacity="1"/>
		<rect x="181" y="233" width="118" height="94" fill="none" stroke="#000" stroke-width="1.5" opacity="1"/>
		<line x1="181" y1="263" x2="299" y2="263" stroke="#000" stroke-width="1.5"/>
	</g>
	<text x="189" y="254.3" fill="#000" font-family="Copperplate" font-size="18">TINCIDUNT</text>
	<text x="189" y="280.1" fill="#000" font-family="Gill Sans" font-size="15">faucibus</text>
	<line x1="189" y1="283" x2="239" y2="283" stroke="#000" stroke-width="1"/>
	<text x="189" y="297.1" fill="#000" font-family="Gill Sans" font-size="15">orci</text>
	<text x="189" y="314" fill="#000" font-family="Gill Sans" font-size="15">cursus</text>
</g>
</svg>