<svg xmlns="http://www.w3.org/2000/svg" width="580" height="384" viewBox="0 0 580 384">
<rect id="frame" x="0" y="0" width="580" height="384" fill="none" stroke="none" stroke-width="0"/>

<!-- Association Quis -->
<g class="page_0_hoKkqoDu diagram_page" visibility="visible">
	<line x1="170" y1="155" x2="170" y2="47" stroke="#000" stroke-width="1"/>
	<text x="175" y="92" fill="#000" font-family="Futura" font-size="11">0,1</text>
	<line x1="284" y1="47" x2="170" y2="47" stroke="#000" stroke-width="1"/>
	<text x="218" y="63" fill="#000" font-family="Futura" font-size="11">1,N</text>
	<g>
		<path d="M185 18 a14 14 90 0 1 14 14 V46 h-58 V32 a14 14 90 0 1 14 -14" fill="#FFF" stroke="#FFF" stroke-width="0"/>
		<path d="M199 46 v16 a14 14 90 0 1 -14 14 H155 a14 14 90 0 1 -14 -14 V46 H58" fill="#FFF" stroke="#FFF" stroke-width="0"/>
		<rect x="141" y="18" width="58" height="58" fill="none" rx="14" stroke="#000" stroke-width="1.5"/>
		<line x1="141" y1="46" x2="199" y2="46" stroke="#000" stroke-width="1.5"/>
		<text x="149" y="39.3" fill="#000" font-family="Copperplate" font-size="18">Quis</text>
	</g>
</g>

<!-- Association Odio -->
<g class="page_0_hoKkqoDu diagram_page" visibility="visible">
	<line x1="284" y1="47" x2="407" y2="47" stroke="#000" stroke-width="1"/>
	<text x="331" y="63" fill="#000" font-family="Futura" font-size="11">1,N</text>
	<line x1="407" y1="155" x2="407" y2="47" stroke="#000" stroke-width="1"/>
	<text x="412" y="109" fill="#000" font-family="Futura" font-size="11">0,N</text>
	<g>
		<path d="M424 18 a14 14 90 0 1 14 14 V46 h-62 V32 a14 14 90 0 1 14 -14" fill="#FFF" stroke="#FFF" stroke-width="0"/>
		<path d="M438 46 v16 a14 14 90 0 1 -14 14 H390 a14 14 90 0 1 -14 -14 V46 H62" fill="#FFF" stroke="#FFF" stroke-width="0"/>
		<rect x="376" y="18" width="62" height="58" fill="none" rx="14" stroke="#000" stroke-width="1.5"/>
		<line x1="376" y1="46" x2="438" y2="46" stroke="#000" stroke-width="1.5"/>
		<text x="386" y="39.3" fill="#000" font-family="Copperplate" font-size="18">Odio</text>
		<text x="383" y="64.1" fill="#000" font-family="Gill Sans" font-size="15">suscipit</text>
	</g>
</g>

<!-- Association Ac -->
<g class="page_0_hoKkqoDu diagram_page" visibility="visible">
	<path d="M170 155 C138.33 187 100.67 187 57 155" fill="none" stroke="#000" stroke-width="1"/>
	<text x="109" y="169" fill="#000" font-family="Futura" font-size="11">0,1</text>
	<path d="M170 155 C137.67 123 100 123 57 155" fill="none" stroke="#000" stroke-width="1"/>
	<text x="108" y="149" fill="#000" font-family="Futura" font-size="11">0,N</text>
	<g>
		<path d="M62 126 a14 14 90 0 1 14 14 V154 h-38 V140 a14 14 90 0 1 14 -14" fill="#FFF" stroke="#FFF" stroke-width="0"/>
		<path d="M76 154 v16 a14 14 90 0 1 -14 14 H52 a14 14 90 0 1 -14 -14 V154 H38" fill="#FFF" stroke="#FFF" stroke-width="0"/>
		<rect x="38" y="126" width="38" height="58" fill="none" rx="14" stroke="#000" stroke-width="1.5"/>
		<line x1="38" y1="154" x2="76" y2="154" stroke="#000" stroke-width="1.5"/>
		<text x="46" y="147.3" fill="#000" font-family="Copperplate" font-size="18">Ac</text>
	</g>
</g>

<!-- Association Diam leo -->
<g class="page_0_hoKkqoDu diagram_page" visibility="visible">
	<line x1="170" y1="155" x2="284" y2="155" stroke="#000" stroke-width="1"/>
	<text x="213" y="147" fill="#000" font-family="Futura" font-size="11">1,N</text>
	<line x1="407" y1="155" x2="284" y2="155" stroke="#000" stroke-width="1"/>
	<text x="336" y="171" fill="#000" font-family="Futura" font-size="11">0,N</text>
	<g>
		<path d="M317 126 a14 14 90 0 1 14 14 V154 h-94 V140 a14 14 90 0 1 14 -14" fill="#FFF" stroke="#FFF" stroke-width="0"/>
		<path d="M331 154 v16 a14 14 90 0 1 -14 14 H251 a14 14 90 0 1 -14 -14 V154 H94" fill="#FFF" stroke="#FFF" stroke-width="0"/>
		<rect x="237" y="126" width="94" height="58" fill="none" rx="14" stroke="#000" stroke-width="1.5"/>
		<line x1="237" y1="154" x2="331" y2="154" stroke="#000" stroke-width="1.5"/>
		<text x="245" y="147.3" fill="#000" font-family="Copperplate" font-size="18">Diam leo</text>
	</g>
</g>

<!-- Association Pretium -->
<g class="page_0_hoKkqoDu diagram_page" visibility="visible">
	<path d="M407 155 C449 123 489 123 527 155" fill="none" stroke="#000" stroke-width="1"/>
	<text x="459" y="148" fill="#000" font-family="Futura" font-size="11">0,N</text>
	<path d="M407 155 C449 187 489 187 527 155" fill="none" stroke="#000" stroke-width="1"/>
	<text x="459" y="170" fill="#000" font-family="Futura" font-size="11">0,N</text>
	<g>
		<path d="M557 126 a14 14 90 0 1 14 14 V154 h-88 V140 a14 14 90 0 1 14 -14" fill="#FFF" stroke="#FFF" stroke-width="0"/>
		<path d="M571 154 v16 a14 14 90 0 1 -14 14 H497 a14 14 90 0 1 -14 -14 V154 H88" fill="#FFF" stroke="#FFF" stroke-width="0"/>
		<rect x="483" y="126" width="88" height="58" fill="none" rx="14" stroke="#000" stroke-width="1.5"/>
		<line x1="483" y1="154" x2="571" y2="154" stroke="#000" stroke-width="1.5"/>
		<text x="490" y="147.3" fill="#000" font-family="Copperplate" font-size="18">Pretium</text>
	</g>
</g>

<!-- Association Curae -->
<g class="page_0_hoKkqoDu diagram_page" visibility="visible">
	<line x1="170" y1="155" x2="284" y2="246" stroke="#000" stroke-width="1"/>
	<text x="213" y="183.29" fill="#000" font-family="Futura" font-size="11">0,N</text>
	<line x1="407" y1="337" x2="284" y2="246" stroke="#000" stroke-width="1"/>
	<text x="343" y="317.81" fill="#000" font-family="Futura" font-size="11">0,N</text>
	<g>
		<path d="M306 217 a14 14 90 0 1 14 14 V245 h-72 V231 a14 14 90 0 1 14 -14" fill="#FFF" stroke="#FFF" stroke-width="0"/>
		<path d="M320 245 v16 a14 14 90 0 1 -14 14 H262 a14 14 90 0 1 -14 -14 V245 H72" fill="#FFF" stroke="#FFF" stroke-width="0"/>
		<rect x="248" y="217" width="72" height="58" fill="none" rx="14" stroke="#000" stroke-width="1.5"/>
		<line x1="248" y1="245" x2="320" y2="245" stroke="#000" stroke-width="1.5"/>
		<text x="256" y="238.3" fill="#000" font-family="Copperplate" font-size="18">Curae</text>
		<text x="255" y="263.1" fill="#000" font-family="Gill Sans" font-size="15">pede</text>
	</g>
</g>

<!-- Association METUS -->
<g class="page_0_hoKkqoDu diagram_page" visibility="visible">
	<line x1="407" y1="337" x2="407" y2="246" stroke="#000" stroke-width="1"/>
	<text x="412" y="291" fill="#000" font-family="Futura" font-size="11">1,1</text>
	<line x1="407" y1="155" x2="407" y2="246" stroke="#000" stroke-width="1"/>
	<text x="412" y="209" fill="#000" font-family="Futura" font-size="11">0,N</text>
	<g>
		<path d="M432 217 a14 14 90 0 1 14 14 V245 h-78 V231 a14 14 90 0 1 14 -14" fill="#FFF" stroke="#FFF" stroke-width="0"/>
		<path d="M446 245 v16 a14 14 90 0 1 -14 14 H382 a14 14 90 0 1 -14 -14 V245 H78" fill="#FFF" stroke="#FFF" stroke-width="0"/>
		<rect x="368" y="217" width="78" height="58" fill="none" rx="14" stroke="#000" stroke-width="1.5"/>
		<line x1="368" y1="245" x2="446" y2="245" stroke="#000" stroke-width="1.5"/>
		<text x="375" y="238.3" fill="#000" font-family="Copperplate" font-size="18">METUS</text>
	</g>
</g>

<!-- Association Lorem -->
<g class="page_0_hoKkqoDu diagram_page" visibility="visible">
	<line x1="57" y1="337" x2="170" y2="337" stroke="#000" stroke-width="1"/>
	<text x="110" y="353" fill="#000" font-family="Futura" font-size="11">0,N</text>
	<line x1="407" y1="337" x2="170" y2="337" stroke="#000" stroke-width="1"/>
	<text x="343" y="353" fill="#000" font-family="Futura" font-size="11">0,N</text>
	<line x1="170" y1="155" x2="170" y2="337" stroke="#000" stroke-width="1"/>
	<text x="146" y="226" fill="#000" font-family="Futura" font-size="11">0,N</text>
	<g>
		<path d="M192 300 a14 14 90 0 1 14 14 V328 h-72 V314 a14 14 90 0 1 14 -14" fill="#FFF" stroke="#FFF" stroke-width="0"/>
		<path d="M206 328 v32 a14 14 90 0 1 -14 14 H148 a14 14 90 0 1 -14 -14 V328 H72" fill="#FFF" stroke="#FFF" stroke-width="0"/>
		<rect x="134" y="300" width="72" height="74" fill="none" rx="14" stroke="#000" stroke-width="1.5"/>
		<line x1="134" y1="328" x2="206" y2="328" stroke="#000" stroke-width="1.5"/>
		<text x="142" y="321.3" fill="#000" font-family="Copperplate" font-size="18">Lorem</text>
		<text x="141" y="346.1" fill="#000" font-family="Gill Sans" font-size="15">lacus</text>
		<text x="141" y="363.1" fill="#000" font-family="Gill Sans" font-size="15">feugiat</text>
	</g>
</g>

<!-- Entity Ipsum a -->
<g class="page_0_hoKkqoDu diagram_page" visibility="visible">
	<g>
		<rect x="242" y="9" width="84" height="30" fill="#FFF" stroke="#FFF" stroke-width="0" opacity="1"/>
		<rect x="242" y="39" width="84" height="46" fill="#FFF" stroke="#FFF" stroke-width="0" opacity="1"/>
		<rect x="242" y="9" width="84" height="76" fill="none" stroke="#000" stroke-width="1.5" opacity="1"/>
		<line x1="242" y1="39" x2="326" y2="39" stroke="#000" stroke-width="1.5"/>
	</g>
	<text x="251" y="30.3" fill="#000" font-family="Copperplate" font-size="18">Ipsum a</text>
	<text x="250" y="56.1" fill="#000" font-family="Gill Sans" font-size="15">semper</text>
	<line x1="250" y1="59" x2="297" y2="59" stroke="#000" stroke-width="1"/>
	<text x="250" y="73.1" fill="#000" font-family="Gill Sans" font-size="15">massa</text>
</g>

<!-- Entity Risus -->
<g class="page_0_hoKkqoDu diagram_page" visibility="visible">
	<g>
		<rect x="132" y="100" width="76" height="30" fill="#FFF" stroke="#FFF" stroke-width="0" opacity="1"/>
		<rect x="132" y="130" width="76" height="80" fill="#FFF" stroke="#FFF" stroke-width="0" opacity="1"/>
		<rect x="132" y="100" width="76" height="110" fill="none" stroke="#000" stroke-width="1.5" opacity="1"/>
		<line x1="132" y1="130" x2="208" y2="130" stroke="#000" stroke-width="1.5"/>
	</g>
	<text x="144" y="121.3" fill="#000" font-family="Copperplate" font-size="18">Risus</text>
	<text x="140" y="147.1" fill="#000" font-family="Gill Sans" font-size="15">euismod</text>
	<line x1="140" y1="150" x2="193" y2="150" stroke="#000" stroke-width="1"/>
	<text x="140" y="164.1" fill="#000" font-family="Gill Sans" font-size="15">semper</text>
	<text x="140" y="181.1" fill="#000" font-family="Gill Sans" font-size="15">dederit</text>
	<text x="140" y="198" fill="#000" font-family="Gill Sans" font-size="15">ribandum</text>
</g>

<!-- Entity Posuere -->
<g class="page_0_hoKkqoDu diagram_page" visibility="visible">
	<g>
		<rect x="360" y="117" width="94" height="30" fill="#FFF" stroke="#FFF" stroke-width="0" opacity="1"/>
		<rect x="360" y="147" width="94" height="46" fill="#FFF" stroke="#FFF" stroke-width="0" opacity="1"/>
		<rect x="360" y="117" width="94" height="76" fill="none" stroke="#000" stroke-width="1.5" opacity="1"/>
		<line x1="360" y1="147" x2="454" y2="147" stroke="#000" stroke-width="1.5"/>
	</g>
	<text x="369" y="138.3" fill="#000" font-family="Copperplate" font-size="18">Posuere</text>
	<text x="368" y="164.1" fill="#000" font-family="Gill Sans" font-size="15">semper</text>
	<line x1="368" y1="167" x2="415" y2="167" stroke="#000" stroke-width="1"/>
	<text x="368" y="181.1" fill="#000" font-family="Gill Sans" font-size="15">massa</text>
</g>

<!-- Entity Ultrices -->
<g class="page_0_hoKkqoDu diagram_page" visibility="visible">
	<g>
		<rect x="9" y="307" width="96" height="30" fill="#FFF" stroke="#FFF" stroke-width="0" opacity="1"/>
		<rect x="9" y="337" width="96" height="30" fill="#FFF" stroke="#FFF" stroke-width="0" opacity="1"/>
		<rect x="9" y="307" width="96" height="60" fill="none" stroke="#000" stroke-width="1.5" opacity="1"/>
		<line x1="9" y1="337" x2="105" y2="337" stroke="#000" stroke-width="1.5"/>
	</g>
	<text x="17" y="328.3" fill="#000" font-family="Copperplate" font-size="18">Ultrices</text>
	<text x="17" y="354.1" fill="#000" font-family="Gill Sans" font-size="15">libero</text>
	<line x1="17" y1="357" x2="54" y2="357" stroke="#000" stroke-width="1"/>
</g>

<!-- Entity Tellus -->
<g class="page_0_hoKkqoDu diagram_page" visibility="visible">
	<g>
		<rect x="367" y="299" width="80" height="30" fill="#FFF" stroke="#FFF" stroke-width="0" opacity="1"/>
		<rect x="367" y="329" width="80" height="46" fill="#FFF" stroke="#FFF" stroke-width="0" opacity="1"/>
		<rect x="367" y="299" width="80" height="76" fill="none" stroke="#000" stroke-width="1.5" opacity="1"/>
		<line x1="367" y1="329" x2="447" y2="329" stroke="#000" stroke-width="1.5"/>
	</g>
	<text x="375" y="320.3" fill="#000" font-family="Copperplate" font-size="18">Tellus</text>
	<text x="375" y="346.1" fill="#000" font-family="Gill Sans" font-size="15">domus</text>
	<line x1="375" y1="349" x2="418" y2="349" stroke="#000" stroke-width="1"/>
	<text x="375" y="363.1" fill="#000" font-family="Gill Sans" font-size="15">tempero</text>
</g>
</svg>