<svg xmlns="http://www.w3.org/2000/svg" width="386" height="203" viewBox="0 0 386 203">
<rect id="frame" x="0" y="0" width="386" height="203" fill="none" stroke="none" stroke-width="0"/>

<!-- Association LIGULA -->
<g class="page_0_bsEH80tu diagram_page" visibility="visible">
	<line x1="66" y1="56" x2="196" y2="56" stroke="#000" stroke-width="1"/>
	<text x="110" y="72" fill="#000" font-family="Futura" font-size="11">1,1</text>
	<line x1="323" y1="56" x2="196" y2="56" stroke="#000" stroke-width="1"/>
	<text x="263" y="72" fill="#000" font-family="Futura" font-size="11">1,N</text>
	<line x1="196" y1="156" x2="196" y2="56" stroke="#000" stroke-width="1"/>
	<text x="201" y="110" fill="#000" font-family="Futura" font-size="11">0,N</text>
	<g>
		<path d="M223 27 a14 14 90 0 1 14 14 V55 h-82 V41 a14 14 90 0 1 14 -14" fill="#FFF" stroke="#FFF" stroke-width="0"/>
		<path d="M237 55 v16 a14 14 90 0 1 -14 14 H169 a14 14 90 0 1 -14 -14 V55 H82" fill="#FFF" stroke="#FFF" stroke-width="0"/>
		<rect x="155" y="27" width="82" height="58" fill="none" rx="14" stroke="#000" stroke-width="1.5"/>
		<line x1="155" y1="55" x2="237" y2="55" stroke="#000" stroke-width="1.5"/>
		<text x="163" y="48.3" fill="#000" font-family="Copperplate" font-size="18">LIGULA</text>
		<text x="162" y="73.1" fill="#000" font-family="Gill Sans" font-size="15">metus</text>
	</g>
</g>

<!-- Association BIDENDUM -->
<g class="page_0_bsEH80tu diagram_page" visibility="visible">
	<path d="M196 156 C161.33 188 118 188 66 156" fill="none" stroke="#000" stroke-width="1"/>
	<text x="128" y="171" fill="#000" font-family="Futura" font-size="11">0,N</text>
	<path d="M196 156 C162 124 118.67 124 66 156" fill="none" stroke="#000" stroke-width="1"/>
	<text x="129" y="149" fill="#000" font-family="Futura" font-size="11">1,1</text>
	<g>
		<path d="M109 127 a14 14 90 0 1 14 14 V155 h-114 V141 a14 14 90 0 1 14 -14" fill="#FFF" stroke="#FFF" stroke-width="0"/>
		<path d="M123 155 v16 a14 14 90 0 1 -14 14 H23 a14 14 90 0 1 -14 -14 V155 H114" fill="#FFF" stroke="#FFF" stroke-width="0"/>
		<rect x="9" y="127" width="114" height="58" fill="none" rx="14" stroke="#000" stroke-width="1.5"/>
		<line x1="9" y1="155" x2="123" y2="155" stroke="#000" stroke-width="1.5"/>
		<text x="16" y="148.3" fill="#000" font-family="Copperplate" font-size="18">BIDENDUM</text>
		<text x="16" y="173.1" fill="#000" font-family="Gill Sans" font-size="15">consequat</text>
	</g>
</g>

<!-- Association FAUCIBUS -->
<g class="page_0_bsEH80tu diagram_page" visibility="visible">
	<line x1="196" y1="156" x2="323" y2="156" stroke="#000" stroke-width="1"/>
	<text x="245" y="172" fill="#000" font-family="Futura" font-size="11">1,1</text>
	<line x1="323" y1="56" x2="323" y2="156" stroke="#000" stroke-width="1"/>
	<text x="328" y="119" fill="#000" font-family="Futura" font-size="11">0,1</text>
	<g>
		<path d="M363 127 a14 14 90 0 1 14 14 V155 h-108 V141 a14 14 90 0 1 14 -14" fill="#FFF" stroke="#FFF" stroke-width="0"/>
		<path d="M377 155 v16 a14 14 90 0 1 -14 14 H283 a14 14 90 0 1 -14 -14 V155 H108" fill="#FFF" stroke="#FFF" stroke-width="0"/>
		<rect x="269" y="127" width="108" height="58" fill="none" rx="14" stroke="#000" stroke-width="1.5"/>
		<line x1="269" y1="155" x2="377" y2="155" stroke="#000" stroke-width="1.5"/>
		<text x="276" y="148.3" fill="#000" font-family="Copperplate" font-size="18">FAUCIBUS</text>
		<text x="276" y="173.1" fill="#000" font-family="Gill Sans" font-size="15">ipsum</text>
	</g>
</g>

<!-- Entity LACUS -->
<g class="page_0_bsEH80tu diagram_page" visibility="visible">
	<g>
		<rect x="27" y="18" width="78" height="30" fill="#FFF" stroke="#FFF" stroke-width="0" opacity="1"/>
		<rect x="27" y="48" width="78" height="46" fill="#FFF" stroke="#FFF" stroke-width="0" opacity="1"/>
		<rect x="27" y="18" width="78" height="76" fill="none" stroke="#000" stroke-width="1.5" opacity="1"/>
		<line x1="27" y1="48" x2="105" y2="48" stroke="#000" stroke-width="1.5"/>
	</g>
	<text x="35" y="39.3" fill="#000" font-family="Copperplate" font-size="18">LACUS</text>
	<text x="35" y="65.1" fill="#000" font-family="Gill Sans" font-size="15">blandit</text>
	<line x1="35" y1="68" x2="77" y2="68" stroke="#000" stroke-width="1"/>
	<text x="35" y="82.1" fill="#000" font-family="Gill Sans" font-size="15">elit</text>
</g>

<!-- Entity EROS -->
<g class="page_0_bsEH80tu diagram_page" visibility="visible">
	<g>
		<rect x="287" y="9" width="72" height="30" fill="#FFF" stroke="#FFF" stroke-width="0" opacity="1"/>
		<rect x="287" y="39" width="72" height="64" fill="#FFF" stroke="#FFF" stroke-width="0" opacity="1"/>
		<rect x="287" y="9" width="72" height="94" fill="none" stroke="#000" stroke-width="1.5" opacity="1"/>
		<line x1="287" y1="39" x2="359" y2="39" stroke="#000" stroke-width="1.5"/>
	</g>
	<text x="297" y="30.3" fill="#000" font-family="Copperplate" font-size="18">EROS</text>
	<text x="295" y="56.1" fill="#000" font-family="Gill Sans" font-size="15">congue</text>
	<line x1="295" y1="59" x2="340" y2="59" stroke="#000" stroke-width="1"/>
	<text x="295" y="73.1" fill="#000" font-family="Gill Sans" font-size="15">nibh</text>
	<text x="295" y="90" fill="#000" font-family="Gill Sans" font-size="15">tincidunt</text>
</g>

<!-- Entity TELLUS -->
<g class="page_0_bsEH80tu diagram_page" visibility="visible">
	<g>
		<rect x="152" y="118" width="88" height="30" fill="#FFF" stroke="#FFF" stroke-width="0" opacity="1"/>
		<rect x="152" y="148" width="88" height="46" fill="#FFF" stroke="#FFF" stroke-width="0" opacity="1"/>
		<rect x="152" y="118" width="88" height="76" fill="none" stroke="#000" stroke-width="1.5" opacity="1"/>
		<line x1="152" y1="148" x2="240" y2="148" stroke="#000" stroke-width="1.5"/>
	</g>
	<text x="161" y="139.3" fill="#000" font-family="Copperplate" font-size="18">TELLUS</text>
	<text x="160" y="165.1" fill="#000" font-family="Gill Sans" font-size="15">integer</text>
	<line x1="160" y1="168" x2="204" y2="168" stroke="#000" stroke-width="1"/>
	<text x="160" y="182.1" fill="#000" font-family="Gill Sans" font-size="15">odio</text>
</g>
</svg>