<svg xmlns="http://www.w3.org/2000/svg" width="296" height="270" viewBox="0 0 296 270">
<rect id="frame" x="0" y="0" width="296" height="270" fill="none" stroke="none" stroke-width="0"/>

<!-- Association XT -->
<g class="page_0_UdtEjR1a diagram_page" visibility="visible">
	<line x1="130" y1="56" x2="130" y2="152" stroke="#000" stroke-width="1"/>
	<text x="135" y="119" fill="#000" font-family="Futura" font-size="11">     </text>
	<polygon points="130 103 136 115 130 111 124 115" fill="#000" stroke-width="0"/>
	<line x1="48.69" y1="231.72" x2="130.69" y2="152.72" stroke="#000" stroke-width="1"/>
	<line x1="47.31" y1="230.28" x2="129.31" y2="151.28" stroke="#000" stroke-width="1"/>
	<text x="53.68" y="202" fill="#000" font-family="Futura" font-size="11">     </text>
	<line x1="222.35" y1="231.76" x2="129.35" y2="152.76" stroke="#000" stroke-width="1"/>
	<line x1="223.65" y1="230.24" x2="130.65" y2="151.24" stroke="#000" stroke-width="1"/>
	<text x="186.42" y="193" fill="#000" font-family="Futura" font-size="11">     </text>
	<g>
		<polygon points="130 123.13 105 166.43 155 166.43" stroke="#000" stroke-width="1.5" fill="#FFF"/>
		<text x="118" y="158" fill="#000" font-family="Copperplate" font-size="18">XT</text>
	</g>
</g>

<!-- Entity Personne -->
<g class="page_0_UdtEjR1a diagram_page" visibility="visible">
	<g>
		<rect x="77" y="9" width="106" height="30" fill="#FFF" stroke="#FFF" stroke-width="0" opacity="1"/>
		<rect x="77" y="39" width="106" height="64" fill="#FFF" stroke="#FFF" stroke-width="0" opacity="1"/>
		<rect x="77" y="9" width="106" height="94" fill="none" stroke="#000" stroke-width="1.5" opacity="1"/>
		<line x1="77" y1="39" x2="183" y2="39" stroke="#000" stroke-width="1.5"/>
	</g>
	<text x="86" y="30.3" fill="#000" font-family="Copperplate" font-size="18">Personne</text>
	<text x="85" y="56.1" fill="#000" font-family="Gill Sans" font-size="15">num SS</text>
	<line x1="85" y1="59" x2="131" y2="59" stroke="#000" stroke-width="1"/>
	<text x="85" y="73.1" fill="#000" font-family="Gill Sans" font-size="15">nom</text>
	<text x="85" y="90" fill="#000" font-family="Gill Sans" font-size="15">prénom</text>
</g>

<!-- Entity Homme -->
<g class="page_0_UdtEjR1a diagram_page" visibility="visible">
	<g>
		<rect x="9" y="210" width="78" height="30" fill="#FFF" stroke="#FFF" stroke-width="0" opacity="1"/>
		<rect x="9" y="240" width="78" height="12" fill="#FFF" stroke="#FFF" stroke-width="0" opacity="1"/>
		<rect x="9" y="210" width="78" height="42" fill="none" stroke="#000" stroke-width="1.5" opacity="1"/>
		<line x1="9" y1="240" x2="87" y2="240" stroke="#000" stroke-width="1.5"/>
	</g>
	<text x="17" y="231.3" fill="#000" font-family="Copperplate" font-size="18">Homme</text>
</g>

<!-- Entity Femme -->
<g class="page_0_UdtEjR1a diagram_page" visibility="visible">
	<g>
		<rect x="159" y="201" width="128" height="30" fill="#FFF" stroke="#FFF" stroke-width="0" opacity="1"/>
		<rect x="159" y="231" width="128" height="30" fill="#FFF" stroke="#FFF" stroke-width="0" opacity="1"/>
		<rect x="159" y="201" width="128" height="60" fill="none" stroke="#000" stroke-width="1.5" opacity="1"/>
		<line x1="159" y1="231" x2="287" y2="231" stroke="#000" stroke-width="1.5"/>
	</g>
	<text x="194" y="222.3" fill="#000" font-family="Copperplate" font-size="18">Femme</text>
	<text x="167" y="248.1" fill="#000" font-family="Gill Sans" font-size="15">nom de jeune fille</text>
</g>
</svg>