<svg xmlns="http://www.w3.org/2000/svg" width="533" height="346" viewBox="0 0 533 346">
<rect id="frame" x="0" y="0" width="533" height="346" fill="none" stroke="none" stroke-width="0"/>

<!-- Association Pharetra -->
<g class="page_0_hDUkEBrl diagram_page" visibility="visible">
	<line x1="325" y1="156" x2="325" y2="56" stroke="#000" stroke-width="1"/>
	<text x="330" y="110" fill="#000" font-family="Futura" font-size="11">0,N</text>
	<line x1="189" y1="56" x2="325" y2="56" stroke="#000" stroke-width="1"/>
	<text x="227" y="72" fill="#000" font-family="Futura" font-size="11">0,N</text>
	<line x1="464" y1="56" x2="325" y2="56" stroke="#000" stroke-width="1"/>
	<text x="380" y="72" fill="#000" font-family="Futura" font-size="11">0,N</text>
	<g>
		<path d="M361 27 a14 14 90 0 1 14 14 V55 h-100 V41 a14 14 90 0 1 14 -14" fill="#FFF" stroke="#FFF" stroke-width="0"/>
		<path d="M375 55 v16 a14 14 90 0 1 -14 14 H289 a14 14 90 0 1 -14 -14 V55 H100" fill="#FFF" stroke="#FFF" stroke-width="0"/>
		<rect x="275" y="27" width="100" height="58" fill="none" rx="14" stroke="#000" stroke-width="1.5"/>
		<line x1="275" y1="55" x2="375" y2="55" stroke="#000" stroke-width="1.5"/>
		<text x="282" y="48.3" fill="#000" font-family="Copperplate" font-size="18">Pharetra</text>
		<text x="282" y="73.1" fill="#000" font-family="Gill Sans" font-size="15">massa</text>
	</g>
</g>

<!-- Association Ultricies -->
<g class="page_0_hDUkEBrl diagram_page" visibility="visible">
	<line x1="59" y1="273" x2="59" y2="156" stroke="#000" stroke-width="1"/>
	<text x="64" y="201" fill="#000" font-family="Futura" font-size="11">1,1</text>
	<line x1="59" y1="56" x2="59" y2="156" stroke="#000" stroke-width="1"/>
	<text x="35" y="119" fill="#000" font-family="Futura" font-size="11">0,N</text>
	<g>
		<path d="M95 127 a14 14 90 0 1 14 14 V155 h-100 V141 a14 14 90 0 1 14 -14" fill="#FFF" stroke="#FFF" stroke-width="0"/>
		<path d="M109 155 v16 a14 14 90 0 1 -14 14 H23 a14 14 90 0 1 -14 -14 V155 H100" fill="#FFF" stroke="#FFF" stroke-width="0"/>
		<rect x="9" y="127" width="100" height="58" fill="none" rx="14" stroke="#000" stroke-width="1.5"/>
		<line x1="9" y1="155" x2="109" y2="155" stroke="#000" stroke-width="1.5"/>
		<text x="16" y="148.3" fill="#000" font-family="Copperplate" font-size="18">Ultricies</text>
	</g>
</g>

<!-- Association Imperdiet -->
<g class="page_0_hDUkEBrl diagram_page" visibility="visible">
	<line x1="59" y1="56" x2="189" y2="156" stroke="#000" stroke-width="1"/>
	<text x="109" y="88.39" fill="#000" font-family="Futura" font-size="11">0,N</text>
	<line x1="325" y1="156" x2="189" y2="156" stroke="#000" stroke-width="1"/>
	<text x="245" y="148" fill="#000" font-family="Futura" font-size="11">0,N</text>
	<line x1="189" y1="56" x2="189" y2="156" stroke="#000" stroke-width="1"/>
	<text x="194" y="102" fill="#000" font-family="Futura" font-size="11">0,N</text>
	<g>
		<path d="M226 127 a14 14 90 0 1 14 14 V155 h-102 V141 a14 14 90 0 1 14 -14" fill="#FFF" stroke="#FFF" stroke-width="0"/>
		<path d="M240 155 v16 a14 14 90 0 1 -14 14 H152 a14 14 90 0 1 -14 -14 V155 H102" fill="#FFF" stroke="#FFF" stroke-width="0"/>
		<rect x="138" y="127" width="102" height="58" fill="none" rx="14" stroke="#000" stroke-width="1.5"/>
		<line x1="138" y1="155" x2="240" y2="155" stroke="#000" stroke-width="1.5"/>
		<text x="146" y="148.3" fill="#000" font-family="Copperplate" font-size="18">Imperdiet</text>
	</g>
</g>

<!-- Association adipiscing -->
<g class="page_0_hDUkEBrl diagram_page" visibility="visible">
	<line x1="325" y1="156" x2="464" y2="156" stroke="#000" stroke-width="1"/>
	<text x="386" y="172" fill="#000" font-family="Futura" font-size="11">0,N</text>
	<line x1="464" y1="56" x2="464" y2="156" stroke="#000" stroke-width="1"/>
	<text x="469" y="110" fill="#000" font-family="Futura" font-size="11">0,N</text>
	<line x1="464" y1="273" x2="464" y2="156" stroke="#000" stroke-width="1"/>
	<text x="469" y="235" fill="#000" font-family="Futura" font-size="11">0,N</text>
	<g>
		<path d="M504 127 a14 14 90 0 1 14 14 V155 h-108 V141 a14 14 90 0 1 14 -14" fill="#FFF" stroke="#FFF" stroke-width="0"/>
		<path d="M518 155 v16 a14 14 90 0 1 -14 14 H424 a14 14 90 0 1 -14 -14 V155 H108" fill="#FFF" stroke="#FFF" stroke-width="0"/>
		<rect x="410" y="127" width="108" height="58" fill="none" rx="14" stroke="#000" stroke-width="1.5"/>
		<line x1="410" y1="155" x2="518" y2="155" stroke="#000" stroke-width="1.5"/>
		<text x="418" y="148.3" fill="#000" font-family="Copperplate" font-size="18">adipiscing</text>
	</g>
</g>

<!-- Association Porttitor -->
<g class="page_0_hDUkEBrl diagram_page" visibility="visible">
	<line x1="59" y1="273" x2="189" y2="273" stroke="#000" stroke-width="1"/>
	<text x="113" y="289" fill="#000" font-family="Futura" font-size="11">1,N</text>
	<path d="M325 156 C268.64 155.54 223.31 194.54 189 273" fill="none" stroke="#000" stroke-width="1"/>
	<text x="245" y="202.68" fill="#000" font-family="Futura" font-size="11">1,N</text>
	<g>
		<path d="M227 244 a14 14 90 0 1 14 14 V272 h-104 V258 a14 14 90 0 1 14 -14" fill="#FFF" stroke="#FFF" stroke-width="0"/>
		<path d="M241 272 v16 a14 14 90 0 1 -14 14 H151 a14 14 90 0 1 -14 -14 V272 H104" fill="#FFF" stroke="#FFF" stroke-width="0"/>
		<rect x="137" y="244" width="104" height="58" fill="none" rx="14" stroke="#000" stroke-width="1.5"/>
		<line x1="137" y1="272" x2="241" y2="272" stroke="#000" stroke-width="1.5"/>
		<text x="144" y="265.3" fill="#000" font-family="Copperplate" font-size="18">Porttitor</text>
	</g>
</g>

<!-- Association Mollis -->
<g class="page_0_hDUkEBrl diagram_page" visibility="visible">
	<path d="M325 156 C363.67 183.67 363.67 222.67 325 273" fill="none" stroke="#000" stroke-width="1"/>
	<text x="329" y="210" fill="#000" font-family="Futura" font-size="11">0,N</text>
	<path d="M325 156 C286.33 183.67 286.33 222.67 325 273" fill="none" stroke="#000" stroke-width="1"/>
	<text x="302" y="210" fill="#000" font-family="Futura" font-size="11">0,N</text>
	<g>
		<path d="M350 244 a14 14 90 0 1 14 14 V272 h-78 V258 a14 14 90 0 1 14 -14" fill="#FFF" stroke="#FFF" stroke-width="0"/>
		<path d="M364 272 v16 a14 14 90 0 1 -14 14 H300 a14 14 90 0 1 -14 -14 V272 H78" fill="#FFF" stroke="#FFF" stroke-width="0"/>
		<rect x="286" y="244" width="78" height="58" fill="none" rx="14" stroke="#000" stroke-width="1.5"/>
		<line x1="286" y1="272" x2="364" y2="272" stroke="#000" stroke-width="1.5"/>
		<text x="294" y="265.3" fill="#000" font-family="Copperplate" font-size="18">Mollis</text>
	</g>
</g>

<!-- Entity Egestas -->
<g class="page_0_hDUkEBrl diagram_page" visibility="visible">
	<g>
		<rect x="14" y="9" width="90" height="30" fill="#FFF" stroke="#FFF" stroke-width="0" opacity="1"/>
		<rect x="14" y="39" width="90" height="64" fill="#FFF" stroke="#FFF" stroke-width="0" opacity="1"/>
		<rect x="14" y="9" width="90" height="94" fill="none" stroke="#000" stroke-width="1.5" opacity="1"/>
		<line x1="14" y1="39" x2="104" y2="39" stroke="#000" stroke-width="1.5"/>
	</g>
	<text x="23" y="30.3" fill="#000" font-family="Copperplate" font-size="18">Egestas</text>
	<text x="22" y="56.1" fill="#000" font-family="Gill Sans" font-size="15">vivamus</text>
	<line x1="22" y1="59" x2="72" y2="59" stroke="#000" stroke-width="1"/>
	<text x="22" y="73.1" fill="#000" font-family="Gill Sans" font-size="15">semper</text>
	<text x="22" y="90" fill="#000" font-family="Gill Sans" font-size="15">aliquam</text>
</g>

<!-- Entity DATE -->
<g class="page_0_hDUkEBrl diagram_page" visibility="visible">
	<g>
		<rect x="156" y="26" width="66" height="30" fill="#FFF" stroke="#FFF" stroke-width="0" opacity="1"/>
		<rect x="156" y="56" width="66" height="30" fill="#FFF" stroke="#FFF" stroke-width="0" opacity="1"/>
		<rect x="156" y="26" width="66" height="60" fill="none" stroke="#000" stroke-width="1.5" opacity="1"/>
		<line x1="156" y1="56" x2="222" y2="56" stroke="#000" stroke-width="1.5"/>
	</g>
	<text x="165" y="47.3" fill="#000" font-family="Copperplate" font-size="18">DATE</text>
	<text x="164" y="73.1" fill="#000" font-family="Gill Sans" font-size="15">date</text>
	<line x1="164" y1="76" x2="192" y2="76" stroke="#000" stroke-width="1"/>
</g>

<!-- Entity Vitae justo -->
<g class="page_0_hDUkEBrl diagram_page" visibility="visible">
	<g>
		<rect x="404" y="18" width="120" height="30" fill="#FFF" stroke="#FFF" stroke-width="0" opacity="1"/>
		<rect x="404" y="48" width="120" height="46" fill="#FFF" stroke="#FFF" stroke-width="0" opacity="1"/>
		<rect x="404" y="18" width="120" height="76" fill="none" stroke="#000" stroke-width="1.5" opacity="1"/>
		<line x1="404" y1="48" x2="524" y2="48" stroke="#000" stroke-width="1.5"/>
	</g>
	<text x="413" y="39.3" fill="#000" font-family="Copperplate" font-size="18">Vitae justo</text>
	<text x="412" y="65.1" fill="#000" font-family="Gill Sans" font-size="15">lobortis</text>
	<line x1="412" y1="68" x2="461" y2="68" stroke="#000" stroke-width="1"/>
	<text x="412" y="82.1" fill="#000" font-family="Gill Sans" font-size="15">purus</text>
</g>

<!-- Entity Curabitur -->
<g class="page_0_hDUkEBrl diagram_page" visibility="visible">
	<g>
		<rect x="269" y="118" width="112" height="30" fill="#FFF" stroke="#FFF" stroke-width="0" opacity="1"/>
		<rect x="269" y="148" width="112" height="46" fill="#FFF" stroke="#FFF" stroke-width="0" opacity="1"/>
		<rect x="269" y="118" width="112" height="76" fill="none" stroke="#000" stroke-width="1.5" opacity="1"/>
		<line x1="269" y1="148" x2="381" y2="148" stroke="#000" stroke-width="1.5"/>
	</g>
	<text x="277" y="139.3" fill="#000" font-family="Copperplate" font-size="18">Curabitur</text>
	<text x="277" y="165.1" fill="#000" font-family="Gill Sans" font-size="15">blandit</text>
	<line x1="277" y1="168" x2="319" y2="168" stroke="#000" stroke-width="1"/>
	<text x="277" y="182.1" fill="#000" font-family="Gill Sans" font-size="15">suscipit</text>
</g>

<!-- Entity Rhoncus -->
<g class="page_0_hDUkEBrl diagram_page" visibility="visible">
	<g>
		<rect x="10" y="209" width="98" height="30" fill="#FFF" stroke="#FFF" stroke-width="0" opacity="1"/>
		<rect x="10" y="239" width="98" height="98" fill="#FFF" stroke="#FFF" stroke-width="0" opacity="1"/>
		<rect x="10" y="209" width="98" height="128" fill="none" stroke="#000" stroke-width="1.5" opacity="1"/>
		<line x1="10" y1="239" x2="108" y2="239" stroke="#000" stroke-width="1.5"/>
	</g>
	<text x="19" y="230.3" fill="#000" font-family="Copperplate" font-size="18">Rhoncus</text>
	<text x="18" y="256.1" fill="#000" font-family="Gill Sans" font-size="15">dolor a</text>
	<line x1="18" y1="259" x2="64" y2="259" stroke="#000" stroke-width="1"/>
	<text x="18" y="273.1" fill="#000" font-family="Gill Sans" font-size="15">bibendum</text>
	<text x="18" y="290.1" fill="#000" font-family="Gill Sans" font-size="15">euismod</text>
	<text x="18" y="307" fill="#000" font-family="Gill Sans" font-size="15">consectetuer</text>
	<text x="18" y="324" fill="#000" font-family="Gill Sans" font-size="15">leo</text>
</g>

<!-- Entity DATE2 -->
<g class="page_0_hDUkEBrl diagram_page" visibility="visible">
	<g>
		<rect x="431" y="243" width="66" height="30" fill="#FFF" stroke="#FFF" stroke-width="0" opacity="1"/>
		<rect x="431" y="273" width="66" height="30" fill="#FFF" stroke="#FFF" stroke-width="0" opacity="1"/>
		<rect x="431" y="243" width="66" height="60" fill="none" stroke="#000" stroke-width="1.5" opacity="1"/>
		<line x1="431" y1="273" x2="497" y2="273" stroke="#000" stroke-width="1.5"/>
	</g>
	<text x="440" y="264.3" fill="#000" font-family="Copperplate" font-size="18">DATE</text>
	<text x="439" y="290.1" fill="#000" font-family="Gill Sans" font-size="15">date</text>
	<line x1="439" y1="293" x2="467" y2="293" stroke="#000" stroke-width="1"/>
</g>
</svg>