<svg xmlns="http://www.w3.org/2000/svg" xml:space="preserve" viewBox="0 0 781.3 231.3" version="1.1"><g transform="matrix(1.25,0,0,-1.25,0,231.25)"><path d="m0 0h625v185h-625v-185zM25 110 25 110" fill="#fff"/><path d="m25 110h500" stroke="#ccc" stroke-miterlimit="10" stroke-width="8" fill="none"/><g fill="#fff"><path d="m475 110c25-40 75-40 100 0M475 110 475 110" stroke="#ccc" stroke-miterlimit="10" stroke-width="8"/><path d="m475 110c25 40 75 40 100 0" stroke="#ccc" stroke-miterlimit="10" stroke-width="8"/><path d="m25 160h100v-100h-100v100z"/></g><path d="m25 160h100v-100h-100v100z" stroke="#ccc" stroke-miterlimit="10" stroke-width="8" fill="none"/><path d="m43.3 81.2 12.1 61.6 19.7-44.5 20.4 44.5 10.8-61.6h-8.9l-5.5 34.6-17-37.2-16.5 37.3-6.2-34.6h-9zM192.7 127.7 192.7 127.7"/><path d="m192.7 127.7c9.8-9.8 9.8-25.6 0-35.4-9.8-9.8-25.6-9.8-35.4 0-9.8 9.8-9.8 25.6 0 35.4 9.8 9.8 25.6 9.8 35.4 0" stroke="#000" stroke-miterlimit="10" stroke-width="8" fill="#fff"/><path d="m225 160h100v-100h-100v100z" fill="#fff"/><path d="m225 160h100v-100h-100v100z" stroke="#ccc" stroke-miterlimit="10" stroke-width="8" fill="none"/><path d="m297.6 135.4v-10.2c-5 4.2-10.2 6.3-15.5 6.3-5.9 0-10.9-2.1-14.9-6.3-4.1-4.2-6.1-9.4-6.1-15.4 0-6 2-11.1 6.1-15.2 4.1-4.1 9-6.2 14.9-6.2 3 0 5.6 0.5 7.8 1.5 1.2 0.5 2.4 1.2 3.7 2 1.3 0.8 2.6 1.9 4 3v-10.4c-4.9-2.8-10.1-4.2-15.6-4.2-8.2 0-15.2 2.9-21 8.6-5.8 5.8-8.6 12.7-8.6 20.9 0 7.3 2.4 13.8 7.2 19.5 5.9 7 13.6 10.5 23 10.5 5.1 0 10.1-1.4 14.9-4.2zM392.7 127.7 392.7 127.7"/><path d="m392.7 127.7c9.8-9.8 9.8-25.6 0-35.4-9.8-9.8-25.6-9.8-35.4 0-9.8 9.8-9.8 25.6 0 35.4 9.8 9.8 25.6 9.8 35.4 0" stroke="#000" stroke-miterlimit="10" stroke-width="8" fill="#fff"/><path d="m425 160h100v-100h-100v100z" fill="#fff"/><path d="m425 160h100v-100h-100v100zM454.3 81.2 454.3 81.2" stroke="#ccc" stroke-miterlimit="10" stroke-width="8" fill="none"/><path d="m454.3 81.2v57.3h12c5.8 0 10.3-0.6 13.7-1.7 3.6-1.1 6.8-3 9.8-5.7 5.9-5.4 8.9-12.5 8.9-21.2 0-8.8-3.1-15.9-9.2-21.4-3.1-2.7-6.3-4.6-9.7-5.7-3.2-1.1-7.7-1.6-13.5-1.6h-11.9zm8.7 8.1h3.9c3.9 0 7.1 0.4 9.7 1.2 2.6 0.9 4.9 2.2 7 4.1 4.3 3.9 6.4 8.9 6.4 15.2 0 6.3-2.1 11.4-6.3 15.3-3.8 3.5-9.4 5.2-16.7 5.2h-3.9v-41z"/><path d="m592.7 127.7c9.8-9.8 9.8-25.6 0-35.4-9.8-9.8-25.6-9.8-35.4 0-9.8 9.8-9.8 25.6 0 35.4 9.8 9.8 25.6 9.8 35.4 0" stroke="#000" stroke-miterlimit="10" stroke-width="8" fill="#fff"/><path d="m25.8 25 2.1 10.5 3.4-7.6 3.5 7.6l1.8-10.5h-1.5l-0.9 5.9-2.9-6.4-2.8 6.4-1.1-5.9h-1.5zM42.4 28.1 42.4 28.1"/><path d="m42.4 28.1c0 0.9 0.3 1.6 1 2.3 0.6 0.6 1.4 1 2.3 1 0.9 0 1.7-0.3 2.3-1 0.6-0.6 1-1.4 1-2.3 0-0.9-0.3-1.7-1-2.3-0.6-0.6-1.4-0.9-2.4-0.9-0.9 0-1.7 0.3-2.3 1-0.6 0.6-0.9 1.4-0.9 2.4zm1.5 0c0-0.6 0.2-1.1 0.5-1.5 0.3-0.4 0.8-0.5 1.3-0.5 0.6 0 1 0.2 1.3 0.5 0.3 0.4 0.5 0.8 0.5 1.5 0 0.6-0.2 1.1-0.5 1.4-0.3 0.4-0.8 0.5-1.3 0.5-0.6 0-1-0.2-1.3-0.5-0.3-0.4-0.5-0.8-0.5-1.4z"/><path d="m59.4 35.7h1.4v-10.7h-1.4v0.6c-0.6-0.5-1.2-0.8-1.9-0.8-0.8 0-1.5 0.3-2.1 0.9-0.6 0.6-0.8 1.4-0.8 2.4 0 0.9 0.3 1.7 0.8 2.3 0.6 0.6 1.2 0.9 2.1 0.9 0.7 0 1.4-0.3 1.9-0.9v5.3zm-3.4-7.6c0-0.6 0.2-1.1 0.5-1.5 0.3-0.4 0.7-0.6 1.2-0.6 0.5 0 1 0.2 1.3 0.5 0.3 0.4 0.5 0.9 0.5 1.4 0 0.6-0.2 1.1-0.5 1.4-0.3 0.4-0.7 0.5-1.3 0.5-0.5 0-0.9-0.2-1.2-0.6-0.3-0.4-0.5-0.8-0.5-1.4z"/><path d="m72.6 27.8h-4.4c0-0.5 0.2-0.9 0.5-1.2 0.3-0.3 0.7-0.5 1.1-0.5 0.4 0 0.6 0.1 0.9 0.3 0.2 0.2 0.5 0.5 0.8 0.9l1.2-0.7c-0.2-0.3-0.4-0.6-0.6-0.8-0.2-0.2-0.4-0.4-0.7-0.5-0.2-0.1-0.5-0.2-0.8-0.3-0.3-0.1-0.6-0.1-0.9-0.1-0.9 0-1.7 0.3-2.2 0.9-0.6 0.6-0.8 1.4-0.8 2.4 0 1 0.3 1.8 0.8 2.4 0.5 0.6 1.3 0.9 2.2 0.9 0.9 0 1.6-0.3 2.2-0.9 0.5-0.6 0.8-1.4 0.8-2.4v-0.3zm-1.5 1.2c-0.2 0.8-0.7 1.1-1.4 1.1-0.2 0-0.3 0-0.5-0.1-0.1-0.1-0.3-0.1-0.4-0.2-0.1-0.1-0.2-0.2-0.3-0.4-0.1-0.1-0.1-0.3-0.2-0.5h2.9zm1 5.3-2.3-2.1-0.8 0.5 1.8 2.3 1.3-0.7z"/><path d="m78.5 35.7h1.4v-10.7h-1.4v10.7z"/><path d="m87.5 31.2v-6.2h-1.4v6.2h1.4zm-1.6 2.6c0 0.3 0.1 0.5 0.3 0.6 0.2 0.2 0.4 0.3 0.7 0.3 0.3 0 0.5-0.1 0.7-0.3 0.2-0.2 0.3-0.4 0.3-0.7 0-0.3-0.1-0.5-0.3-0.7-0.2-0.2-0.4-0.3-0.6-0.3-0.3 0-0.5 0.1-0.7 0.3-0.2 0.2-0.3 0.4-0.3 0.7z"/><path d="m97.3 30.1-1.2-0.6c-0.2 0.4-0.4 0.6-0.7 0.6-0.1 0-0.2 0-0.3-0.1-0.1-0.1-0.1-0.2-0.1-0.3 0-0.2 0.3-0.5 0.8-0.7 0.8-0.3 1.3-0.6 1.5-0.9 0.3-0.3 0.4-0.6 0.4-1.1 0-0.6-0.2-1.1-0.7-1.5-0.4-0.4-0.9-0.6-1.5-0.6-1 0-1.8 0.5-2.2 1.5l1.2 0.6c0.2-0.3 0.3-0.5 0.4-0.6 0.2-0.2 0.4-0.2 0.6-0.2 0.5 0 0.7 0.2 0.7 0.7 0 0.3-0.2 0.5-0.6 0.7-0.1 0.1-0.3 0.1-0.4 0.2-0.1 0.1-0.3 0.1-0.4 0.2-0.4 0.2-0.7 0.4-0.9 0.6-0.2 0.3-0.3 0.6-0.3 1 0 0.5 0.2 1 0.5 1.3 0.4 0.4 0.8 0.5 1.4 0.5 0.8 0 1.4-0.4 1.8-1.2z"/><path d="m107.9 31.2h1.4v-6.2h-1.4v0.6c-0.6-0.5-1.2-0.8-1.9-0.8-0.9 0-1.6 0.3-2.1 0.9-0.6 0.6-0.8 1.4-0.8 2.4 0 0.9 0.3 1.7 0.8 2.3 0.6 0.6 1.2 0.9 2.1 0.9 0.7 0 1.4-0.3 1.9-0.9v0.7zm-3.4-3.1c0-0.6 0.2-1.1 0.5-1.5 0.3-0.4 0.7-0.6 1.2-0.6 0.5 0 1 0.2 1.3 0.5 0.3 0.4 0.5 0.9 0.5 1.4 0 0.6-0.2 1.1-0.5 1.4-0.3 0.4-0.7 0.5-1.3 0.5-0.5 0-0.9-0.2-1.2-0.6-0.3-0.4-0.5-0.8-0.5-1.4z"/><path d="m116.9 29.8v-4.8h-1.4v4.8h-0.6v1.3h0.6v2.3h1.4v-2.3h1.1v-1.3h-1.1z"/><path d="m124.8 31.2v-6.2h-1.4v6.2h1.4zm-1.6 2.6c0 0.3 0.1 0.5 0.3 0.6 0.2 0.2 0.4 0.3 0.7 0.3 0.3 0 0.5-0.1 0.7-0.3 0.2-0.2 0.3-0.4 0.3-0.7 0-0.3-0.1-0.5-0.3-0.7-0.2-0.2-0.4-0.3-0.6-0.3-0.3 0-0.5 0.1-0.7 0.3-0.2 0.2-0.3 0.4-0.3 0.7z"/><path d="m130.7 28.1c0 0.9 0.3 1.6 1 2.3 0.6 0.6 1.4 1 2.3 1 0.9 0 1.7-0.3 2.3-1 0.6-0.6 1-1.4 1-2.3 0-0.9-0.3-1.7-1-2.3-0.6-0.6-1.4-0.9-2.4-0.9-0.9 0-1.7 0.3-2.3 1-0.6 0.6-0.9 1.4-0.9 2.4zm1.5 0c0-0.6 0.2-1.1 0.5-1.5 0.3-0.4 0.8-0.5 1.3-0.5 0.6 0 1 0.2 1.3 0.5 0.3 0.4 0.5 0.8 0.5 1.5 0 0.6-0.2 1.1-0.5 1.4-0.3 0.4-0.8 0.5-1.3 0.5-0.6 0-1-0.2-1.3-0.5-0.3-0.4-0.5-0.8-0.5-1.4z"/><path d="m143.2 31.2h1.4v-0.6c0.5 0.5 1.1 0.8 1.7 0.8 0.7 0 1.3-0.2 1.7-0.7 0.4-0.4 0.5-1 0.5-1.9v-3.8h-1.4v3.5c0 0.6-0.1 1-0.3 1.3-0.2 0.2-0.5 0.4-0.9 0.4-0.5 0-0.8-0.2-1-0.5-0.2-0.3-0.3-0.9-0.3-1.6v-3h-1.4v6.2z"/><path d="m170.5 34.3v-1.8c-0.9 0.7-1.7 1.1-2.7 1.1-1 0-1.9-0.4-2.5-1.1-0.7-0.7-1-1.6-1-2.6 0-1 0.3-1.9 1-2.6 0.7-0.7 1.5-1.1 2.5-1.1 0.5 0 1 0.1 1.3 0.3 0.2 0.1 0.4 0.2 0.6 0.3 0.2 0.1 0.4 0.3 0.7 0.5v-1.8c-0.9-0.5-1.7-0.7-2.7-0.7-1.4 0-2.6 0.5-3.6 1.5-1 1-1.5 2.2-1.5 3.6 0 1.3 0.4 2.4 1.2 3.3 1 1.2 2.3 1.8 3.9 1.8 0.9 0 1.7-0.2 2.6-0.7z"/><path d="m176.1 28.1c0 0.9 0.3 1.6 1 2.3 0.6 0.6 1.4 1 2.3 1 0.9 0 1.7-0.3 2.3-1 0.6-0.6 1-1.4 1-2.3 0-0.9-0.3-1.7-1-2.3-0.6-0.6-1.4-0.9-2.4-0.9-0.9 0-1.7 0.3-2.3 1-0.6 0.6-0.9 1.4-0.9 2.4zm1.5 0c0-0.6 0.2-1.1 0.5-1.5 0.3-0.4 0.8-0.5 1.3-0.5 0.6 0 1 0.2 1.3 0.5 0.3 0.4 0.5 0.8 0.5 1.5 0 0.6-0.2 1.1-0.5 1.4-0.3 0.4-0.8 0.5-1.3 0.5-0.6 0-1-0.2-1.3-0.5-0.3-0.4-0.5-0.8-0.5-1.4z"/><path d="m188.6 31.2h1.4v-0.6c0.5 0.5 1.1 0.8 1.7 0.8 0.7 0 1.3-0.2 1.7-0.7 0.4-0.4 0.5-1 0.5-1.9v-3.8h-1.4v3.5c0 0.6-0.1 1-0.3 1.3-0.2 0.2-0.5 0.4-0.9 0.4-0.5 0-0.8-0.2-1-0.5-0.2-0.3-0.3-0.9-0.3-1.6v-3h-1.4v6.2z"/><path d="m204.9 30.9v-1.9c-0.3 0.4-0.6 0.7-0.9 0.8-0.3 0.1-0.6 0.2-0.9 0.2-0.5 0-1-0.2-1.3-0.6-0.4-0.4-0.5-0.9-0.5-1.4 0-0.6 0.2-1 0.5-1.4 0.4-0.4 0.8-0.6 1.3-0.6 0.3 0 0.6 0.1 0.9 0.2 0.3 0.1 0.6 0.4 0.9 0.8v-1.9c-0.6-0.3-1.2-0.4-1.7-0.4-0.9 0-1.7 0.3-2.4 0.9-0.6 0.6-1 1.4-1 2.3 0 0.9 0.3 1.7 1 2.3 0.7 0.6 1.5 1 2.4 1 0.6 0 1.2-0.1 1.7-0.4z"/><path d="m216.2 27.8h-4.4c0-0.5 0.2-0.9 0.5-1.2 0.3-0.3 0.7-0.5 1.1-0.5 0.4 0 0.6 0.1 0.9 0.3 0.2 0.2 0.5 0.5 0.8 0.9l1.2-0.7c-0.2-0.3-0.4-0.6-0.6-0.8-0.2-0.2-0.4-0.4-0.7-0.5-0.2-0.1-0.5-0.2-0.8-0.3-0.3-0.1-0.6-0.1-0.9-0.1-0.9 0-1.7 0.3-2.2 0.9-0.6 0.6-0.8 1.4-0.8 2.4 0 1 0.3 1.8 0.8 2.4 0.5 0.6 1.3 0.9 2.2 0.9 0.9 0 1.6-0.3 2.2-0.9 0.5-0.6 0.8-1.4 0.8-2.4v-0.3zm-1.5 1.2c-0.2 0.8-0.7 1.1-1.4 1.1-0.2 0-0.3 0-0.5-0.1-0.1-0.1-0.3-0.1-0.4-0.2-0.1-0.1-0.2-0.2-0.3-0.4-0.1-0.1-0.1-0.3-0.2-0.5h2.9z"/><path d="m223.5 21.6h-1.4v9.5h1.4v-0.7c0.6 0.6 1.2 0.8 1.9 0.8 0.8 0 1.5-0.3 2.1-0.9 0.6-0.6 0.8-1.4 0.8-2.4 0-0.9-0.3-1.7-0.8-2.3-0.6-0.6-1.2-0.9-2.1-0.9-0.7 0-1.4 0.3-1.9 0.9v-4zm3.4 6.4c0 0.6-0.2 1.1-0.5 1.5-0.3 0.4-0.7 0.6-1.2 0.6-0.5 0-1-0.2-1.3-0.5-0.3-0.4-0.5-0.8-0.5-1.4 0-0.6 0.2-1 0.5-1.4 0.3-0.4 0.7-0.6 1.3-0.6 0.5 0 0.9 0.2 1.2 0.6 0.3 0.4 0.5 0.8 0.5 1.4z"/><path d="m235.7 29.8v-4.8h-1.4v4.8h-0.6v1.3h0.6v2.3h1.4v-2.3h1.1v-1.3h-1.1z"/><path d="m243.6 31.2v-3.5c0-1 0.4-1.5 1.2-1.5 0.8 0 1.2 0.5 1.2 1.5v3.5h1.4v-3.6c0-0.5-0.1-0.9-0.2-1.3-0.1-0.3-0.3-0.6-0.6-0.9-0.5-0.4-1.1-0.6-1.8-0.6-0.7 0-1.4 0.2-1.8 0.6-0.3 0.3-0.5 0.6-0.6 0.9-0.1 0.3-0.2 0.7-0.2 1.3v3.6h1.4z"/><path d="m259.2 27.8h-4.4c0-0.5 0.2-0.9 0.5-1.2 0.3-0.3 0.7-0.5 1.1-0.5 0.4 0 0.6 0.1 0.9 0.3 0.2 0.2 0.5 0.5 0.8 0.9l1.2-0.7c-0.2-0.3-0.4-0.6-0.6-0.8-0.2-0.2-0.4-0.4-0.7-0.5-0.2-0.1-0.5-0.2-0.8-0.3-0.3-0.1-0.6-0.1-0.9-0.1-0.9 0-1.7 0.3-2.2 0.9-0.6 0.6-0.8 1.4-0.8 2.4 0 1 0.3 1.8 0.8 2.4 0.5 0.6 1.3 0.9 2.2 0.9s1.6-0.3 2.2-0.9c0.5-0.6 0.8-1.4 0.8-2.4v-0.3zm-1.5 1.2c-0.2 0.8-0.7 1.1-1.4 1.1-0.2 0-0.3 0-0.5-0.1-0.1-0.1-0.3-0.1-0.4-0.2-0.1-0.1-0.2-0.2-0.3-0.4-0.1-0.1-0.1-0.3-0.2-0.5h2.9z"/><path d="m265.1 35.7h1.4v-10.7h-1.4v10.7z"/><path d="m272.7 35.7h1.4v-10.7h-1.4v10.7z"/><path d="m286 27.8h-4.4c0-0.5 0.2-0.9 0.5-1.2 0.3-0.3 0.7-0.5 1.1-0.5 0.4 0 0.6 0.1 0.9 0.3 0.2 0.2 0.5 0.5 0.8 0.9l1.2-0.7c-0.2-0.3-0.4-0.6-0.6-0.8-0.2-0.2-0.4-0.4-0.7-0.5-0.2-0.1-0.5-0.2-0.8-0.3-0.3-0.1-0.6-0.1-0.9-0.1-0.9 0-1.7 0.3-2.2 0.9-0.6 0.6-0.8 1.4-0.8 2.4 0 1 0.3 1.8 0.8 2.4 0.5 0.6 1.3 0.9 2.2 0.9 0.9 0 1.6-0.3 2.2-0.9 0.5-0.6 0.8-1.4 0.8-2.4v-0.3zm-1.5 1.2c-0.2 0.8-0.7 1.1-1.4 1.1-0.2 0-0.3 0-0.5-0.1-0.1-0.1-0.3-0.1-0.4-0.2-0.1-0.1-0.2-0.2-0.3-0.4-0.1-0.1-0.1-0.3-0.2-0.5h2.9z"/><path d="m304.8 35.7h1.4v-10.7h-1.4v0.6c-0.6-0.5-1.2-0.8-1.9-0.8-0.8 0-1.5 0.3-2.1 0.9-0.6 0.6-0.8 1.4-0.8 2.4 0 0.9 0.3 1.7 0.8 2.3 0.6 0.6 1.2 0.9 2.1 0.9 0.7 0 1.4-0.3 1.9-0.9v5.3zm-3.4-7.6c0-0.6 0.2-1.1 0.5-1.5 0.3-0.4 0.7-0.6 1.2-0.6 0.5 0 1 0.2 1.3 0.5 0.3 0.4 0.5 0.9 0.5 1.4 0 0.6-0.2 1.1-0.5 1.4-0.3 0.4-0.7 0.5-1.3 0.5-0.5 0-0.9-0.2-1.2-0.6-0.3-0.4-0.5-0.8-0.5-1.4z"/><path d="m318 27.8h-4.4c0-0.5 0.2-0.9 0.5-1.2 0.3-0.3 0.7-0.5 1.1-0.5 0.4 0 0.6 0.1 0.9 0.3 0.2 0.2 0.5 0.5 0.8 0.9l1.2-0.7c-0.2-0.3-0.4-0.6-0.6-0.8-0.2-0.2-0.4-0.4-0.7-0.5-0.2-0.1-0.5-0.2-0.8-0.3-0.3-0.1-0.6-0.1-0.9-0.1-0.9 0-1.7 0.3-2.2 0.9-0.6 0.6-0.8 1.4-0.8 2.4 0 1 0.3 1.8 0.8 2.4 0.5 0.6 1.3 0.9 2.2 0.9s1.6-0.3 2.2-0.9c0.5-0.6 0.8-1.4 0.8-2.4v-0.3zm-1.5 1.2c-0.2 0.8-0.7 1.1-1.4 1.1-0.2 0-0.3 0-0.5-0.1-0.1-0.1-0.3-0.1-0.4-0.2-0.1-0.1-0.2-0.2-0.3-0.4-0.1-0.1-0.1-0.3-0.2-0.5h2.9z"/><path d="m332.5 25v9.8h2.1c1 0 1.8-0.1 2.3-0.3 0.6-0.2 1.2-0.5 1.7-1 1-0.9 1.5-2.1 1.5-3.6 0-1.5-0.5-2.7-1.6-3.7-0.5-0.5-1.1-0.8-1.7-1-0.5-0.2-1.3-0.3-2.3-0.3h-2zm1.5 1.4h0.7c0.7 0 1.2 0.1 1.7 0.2 0.4 0.2 0.8 0.4 1.2 0.7 0.7 0.7 1.1 1.5 1.1 2.6 0 1.1-0.4 1.9-1.1 2.6-0.6 0.6-1.6 0.9-2.9 0.9h-0.7v-7z"/><path d="m345.7 28.1c0 0.9 0.3 1.6 1 2.3 0.6 0.6 1.4 1 2.3 1 0.9 0 1.7-0.3 2.3-1 0.6-0.6 1-1.4 1-2.3 0-0.9-0.3-1.7-1-2.3-0.6-0.6-1.4-0.9-2.4-0.9-0.9 0-1.7 0.3-2.3 1-0.6 0.6-0.9 1.4-0.9 2.4zm1.5 0c0-0.6 0.2-1.1 0.5-1.5 0.3-0.4 0.8-0.5 1.3-0.5 0.6 0 1 0.2 1.3 0.5 0.3 0.4 0.5 0.8 0.5 1.5 0 0.6-0.2 1.1-0.5 1.4-0.3 0.4-0.8 0.5-1.3 0.5-0.6 0-1-0.2-1.3-0.5-0.3-0.4-0.5-0.8-0.5-1.4z"/><path d="m358.2 31.2h1.4v-0.6c0.5 0.5 1.1 0.8 1.7 0.8 0.7 0 1.3-0.2 1.7-0.7 0.4-0.4 0.5-1 0.5-1.9v-3.8h-1.4v3.5c0 0.6-0.1 1-0.3 1.3-0.2 0.2-0.5 0.4-0.9 0.4-0.5 0-0.8-0.2-1-0.5-0.2-0.3-0.3-0.9-0.3-1.6v-3h-1.4v6.2z"/><path d="m369.6 31.2h1.4v-0.6c0.5 0.5 1.1 0.8 1.7 0.8 0.7 0 1.3-0.2 1.7-0.7 0.4-0.4 0.5-1 0.5-1.9v-3.8h-1.4v3.5c0 0.6-0.1 1-0.3 1.3-0.2 0.2-0.5 0.4-0.9 0.4-0.5 0-0.8-0.2-1-0.5-0.2-0.3-0.3-0.9-0.3-1.6v-3h-1.4v6.2z"/><path d="m386.7 27.8h-4.4c0-0.5 0.2-0.9 0.5-1.2 0.3-0.3 0.7-0.5 1.1-0.5 0.4 0 0.6 0.1 0.9 0.3 0.2 0.2 0.5 0.5 0.8 0.9l1.2-0.7c-0.2-0.3-0.4-0.6-0.6-0.8-0.2-0.2-0.4-0.4-0.7-0.5-0.2-0.1-0.5-0.2-0.8-0.3-0.3-0.1-0.6-0.1-0.9-0.1-0.9 0-1.7 0.3-2.2 0.9-0.6 0.6-0.8 1.4-0.8 2.4 0 1 0.3 1.8 0.8 2.4 0.5 0.6 1.3 0.9 2.2 0.9s1.6-0.3 2.2-0.9c0.5-0.6 0.8-1.4 0.8-2.4v-0.3zm-1.5 1.2c-0.2 0.8-0.7 1.1-1.4 1.1-0.2 0-0.3 0-0.5-0.1-0.1-0.1-0.3-0.1-0.4-0.2-0.1-0.1-0.2-0.2-0.3-0.4-0.1-0.1-0.1-0.3-0.2-0.5h2.9zm1 5.3-2.3-2.1-0.8 0.5 1.8 2.3 1.3-0.7z"/><path d="m398.3 27.8h-4.4c0-0.5 0.2-0.9 0.5-1.2 0.3-0.3 0.7-0.5 1.1-0.5 0.4 0 0.6 0.1 0.9 0.3 0.2 0.2 0.5 0.5 0.8 0.9l1.2-0.7c-0.2-0.3-0.4-0.6-0.6-0.8-0.2-0.2-0.4-0.4-0.7-0.5-0.2-0.1-0.5-0.2-0.8-0.3-0.3-0.1-0.6-0.1-0.9-0.1-0.9 0-1.7 0.3-2.2 0.9-0.6 0.6-0.8 1.4-0.8 2.4 0 1 0.3 1.8 0.8 2.4 0.5 0.6 1.3 0.9 2.2 0.9s1.6-0.3 2.2-0.9c0.5-0.6 0.8-1.4 0.8-2.4v-0.3zm-1.5 1.2c-0.2 0.8-0.7 1.1-1.4 1.1-0.2 0-0.3 0-0.5-0.1-0.1-0.1-0.3-0.1-0.4-0.2-0.1-0.1-0.2-0.2-0.3-0.4-0.1-0.1-0.1-0.3-0.2-0.5h2.9z"/><path d="m407.8 30.1-1.2-0.6c-0.2 0.4-0.4 0.6-0.7 0.6-0.1 0-0.2 0-0.3-0.1-0.1-0.1-0.1-0.2-0.1-0.3 0-0.2 0.3-0.5 0.8-0.7 0.8-0.3 1.3-0.6 1.5-0.9 0.3-0.3 0.4-0.6 0.4-1.1 0-0.6-0.2-1.1-0.7-1.5-0.4-0.4-0.9-0.6-1.5-0.6-1 0-1.8 0.5-2.2 1.5l1.2 0.6c0.2-0.3 0.3-0.5 0.4-0.6 0.2-0.2 0.4-0.2 0.6-0.2 0.5 0 0.7 0.2 0.7 0.7 0 0.3-0.2 0.5-0.6 0.7-0.1 0.1-0.3 0.1-0.4 0.2-0.1 0.1-0.3 0.1-0.4 0.2-0.4 0.2-0.7 0.4-0.9 0.6-0.2 0.3-0.3 0.6-0.3 1 0 0.5 0.2 1 0.5 1.3 0.4 0.4 0.8 0.5 1.4 0.5 0.8 0 1.4-0.4 1.8-1.2z"/><path d="m414 25.7c0 0.2 0.1 0.4 0.3 0.6 0.2 0.2 0.4 0.3 0.6 0.3 0.3 0 0.5-0.1 0.6-0.3 0.2-0.2 0.3-0.4 0.3-0.6 0-0.2-0.1-0.4-0.3-0.6-0.2-0.2-0.4-0.2-0.6-0.2s-0.5 0.1-0.6 0.3c-0.2 0.2-0.2 0.4-0.2 0.6z"/><path d="m430.8 25v10.5l7.2-7.5v6.8h1.5v-10.4l-7.1 7.5v-6.9h-1.5z"/><path d="m447.2 31.2v-6.2h-1.4v6.2h1.4zm-1.6 2.6c0 0.3 0.1 0.5 0.3 0.6 0.2 0.2 0.4 0.3 0.7 0.3 0.3 0 0.5-0.1 0.7-0.3 0.2-0.2 0.3-0.4 0.3-0.7 0-0.3-0.1-0.5-0.3-0.7-0.2-0.2-0.4-0.3-0.6-0.3-0.3 0-0.5 0.1-0.7 0.3-0.2 0.2-0.3 0.4-0.3 0.7z"/><path d="m458.3 30.9v-1.9c-0.3 0.4-0.6 0.7-0.9 0.8-0.3 0.1-0.6 0.2-0.9 0.2-0.5 0-1-0.2-1.3-0.6-0.4-0.4-0.5-0.9-0.5-1.4 0-0.6 0.2-1 0.5-1.4 0.4-0.4 0.8-0.6 1.3-0.6 0.3 0 0.6 0.1 0.9 0.2 0.3 0.1 0.6 0.4 0.9 0.8v-1.9c-0.6-0.3-1.2-0.4-1.7-0.4-0.9 0-1.7 0.3-2.4 0.9-0.6 0.6-1 1.4-1 2.3 0 0.9 0.3 1.7 1 2.3 0.7 0.6 1.5 1 2.4 1 0.6 0 1.2-0.1 1.7-0.4z"/><path d="m465.4 35.7v-6.5l2 2h1.9l-2.7-2.6 2.9-3.6h-1.8l-2 2.6-0.2-0.2v-2.4h-1.4v10.7h1.4z"/><path d="m480.4 27.8h-4.4c0-0.5 0.2-0.9 0.5-1.2 0.3-0.3 0.7-0.5 1.1-0.5 0.4 0 0.6 0.1 0.9 0.3 0.2 0.2 0.5 0.5 0.8 0.9l1.2-0.7c-0.2-0.3-0.4-0.6-0.6-0.8-0.2-0.2-0.4-0.4-0.7-0.5-0.2-0.1-0.5-0.2-0.8-0.3-0.3-0.1-0.6-0.1-0.9-0.1-0.9 0-1.7 0.3-2.2 0.9-0.6 0.6-0.8 1.4-0.8 2.4 0 1 0.3 1.8 0.8 2.4 0.5 0.6 1.3 0.9 2.2 0.9 0.9 0 1.6-0.3 2.2-0.9 0.5-0.6 0.8-1.4 0.8-2.4v-0.3zm-1.5 1.2c-0.2 0.8-0.7 1.1-1.4 1.1-0.2 0-0.3 0-0.5-0.1-0.1-0.1-0.3-0.1-0.4-0.2-0.1-0.1-0.2-0.2-0.3-0.4-0.1-0.1-0.1-0.3-0.2-0.5h2.9z"/><path d="m486.3 35.7h1.4v-10.7h-1.4v10.7z"/><path d="m494.2 25.7c0 0.2 0.1 0.4 0.3 0.6 0.2 0.2 0.4 0.3 0.6 0.3 0.3 0 0.5-0.1 0.6-0.3 0.2-0.2 0.3-0.4 0.3-0.6 0-0.2-0.1-0.4-0.3-0.6-0.2-0.2-0.4-0.2-0.6-0.2s-0.5 0.1-0.6 0.3c-0.2 0.2-0.2 0.4-0.2 0.6z"/><path d="m511 25v10.5l7.2-7.5v6.8h1.5v-10.4l-7.1 7.5v-6.9h-1.5z"/><path d="m527.4 31.2v-6.2h-1.4v6.2h1.4zm-1.6 2.6c0 0.3 0.1 0.5 0.3 0.6 0.2 0.2 0.4 0.3 0.7 0.3 0.3 0 0.5-0.1 0.7-0.3 0.2-0.2 0.3-0.4 0.3-0.7 0-0.3-0.1-0.5-0.3-0.7-0.2-0.2-0.4-0.3-0.6-0.3-0.3 0-0.5 0.1-0.7 0.3-0.2 0.2-0.3 0.4-0.3 0.7z"/><path d="m545.6 30.1-1.2-0.6c-0.2 0.4-0.4 0.6-0.7 0.6-0.1 0-0.2 0-0.3-0.1-0.1-0.1-0.1-0.2-0.1-0.3 0-0.2 0.3-0.5 0.8-0.7 0.8-0.3 1.3-0.6 1.5-0.9 0.3-0.3 0.4-0.6 0.4-1.1 0-0.6-0.2-1.1-0.7-1.5-0.4-0.4-0.9-0.6-1.5-0.6-1 0-1.8 0.5-2.2 1.5l1.2 0.6c0.2-0.3 0.3-0.5 0.4-0.6 0.2-0.2 0.4-0.2 0.6-0.2 0.5 0 0.7 0.2 0.7 0.7 0 0.3-0.2 0.5-0.6 0.7-0.1 0.1-0.3 0.1-0.4 0.2-0.1 0.1-0.3 0.1-0.4 0.2-0.4 0.2-0.7 0.4-0.9 0.6-0.2 0.3-0.3 0.6-0.3 1 0 0.5 0.2 1 0.5 1.3 0.4 0.4 0.8 0.5 1.4 0.5 0.8 0 1.4-0.4 1.8-1.2z"/><path d="m551.3 28.1c0 0.9 0.3 1.6 1 2.3 0.6 0.6 1.4 1 2.3 1 0.9 0 1.7-0.3 2.3-1 0.6-0.6 1-1.4 1-2.3 0-0.9-0.3-1.7-1-2.3-0.6-0.6-1.4-0.9-2.4-0.9-0.9 0-1.7 0.3-2.3 1-0.6 0.6-0.9 1.4-0.9 2.4zm1.5 0c0-0.6 0.2-1.1 0.5-1.5 0.3-0.4 0.8-0.5 1.3-0.5 0.6 0 1 0.2 1.3 0.5 0.3 0.4 0.5 0.8 0.5 1.5 0 0.6-0.2 1.1-0.5 1.4-0.3 0.4-0.8 0.5-1.3 0.5-0.6 0-1-0.2-1.3-0.5-0.3-0.4-0.5-0.8-0.5-1.4z"/><path d="m565.2 31.2v-3.5c0-1 0.4-1.5 1.2-1.5 0.8 0 1.2 0.5 1.2 1.5v3.5h1.4v-3.6c0-0.5-0.1-0.9-0.2-1.3-0.1-0.3-0.3-0.6-0.6-0.9-0.5-0.4-1.1-0.6-1.8-0.6-0.7 0-1.4 0.2-1.8 0.6-0.3 0.3-0.5 0.6-0.6 0.9-0.1 0.3-0.2 0.7-0.2 1.3v3.6h1.4z"/><path d="m575.2 31.2h1.4v-0.6c0.3 0.3 0.5 0.5 0.7 0.6 0.2 0.1 0.5 0.2 0.7 0.2 0.4 0 0.8-0.1 1.2-0.4l-0.6-1.3c-0.3 0.2-0.5 0.3-0.8 0.3-0.8 0-1.2-0.6-1.2-1.8v-3.2h-1.4v6.2z"/><path d="m585.8 31.2v-6.2h-1.4v6.2h1.4zm-1.6 2.6c0 0.3 0.1 0.5 0.3 0.6 0.2 0.2 0.4 0.3 0.7 0.3 0.3 0 0.5-0.1 0.7-0.3 0.2-0.2 0.3-0.4 0.3-0.7 0-0.3-0.1-0.5-0.3-0.7-0.2-0.2-0.4-0.3-0.6-0.3-0.3 0-0.5 0.1-0.7 0.3-0.2 0.2-0.3 0.4-0.3 0.7z"/><path d="m595.6 30.1-1.2-0.6c-0.2 0.4-0.4 0.6-0.7 0.6-0.1 0-0.2 0-0.3-0.1-0.1-0.1-0.1-0.2-0.1-0.3 0-0.2 0.3-0.5 0.8-0.7 0.8-0.3 1.3-0.6 1.5-0.9 0.3-0.3 0.4-0.6 0.4-1.1 0-0.6-0.2-1.1-0.7-1.5-0.4-0.4-0.9-0.6-1.5-0.6-1 0-1.8 0.5-2.2 1.5l1.2 0.6c0.2-0.3 0.3-0.5 0.4-0.6 0.2-0.2 0.4-0.2 0.6-0.2 0.5 0 0.7 0.2 0.7 0.7 0 0.3-0.2 0.5-0.6 0.7-0.1 0.1-0.3 0.1-0.4 0.2-0.1 0.1-0.3 0.1-0.4 0.2-0.4 0.2-0.7 0.4-0.9 0.6-0.2 0.3-0.3 0.6-0.3 1 0 0.5 0.2 1 0.5 1.3 0.4 0.4 0.8 0.5 1.4 0.5 0.8 0 1.4-0.4 1.8-1.2z"/><path d="m601.9 25.7c0 0.2 0.1 0.4 0.3 0.6 0.2 0.2 0.4 0.3 0.6 0.3 0.3 0 0.5-0.1 0.6-0.3 0.2-0.2 0.3-0.4 0.3-0.6 0-0.2-0.1-0.4-0.3-0.6-0.2-0.2-0.4-0.2-0.6-0.2s-0.5 0.1-0.6 0.3c-0.2 0.2-0.2 0.4-0.2 0.6z"/></g></svg>