<?xml version="1.0" standalone="no"?>
<!DOCTYPE svg PUBLIC "-//W3C//DTD SVG 20010904//EN"
 "http://www.w3.org/TR/2001/REC-SVG-20010904/DTD/svg10.dtd">
<svg version="1.0" xmlns="http://www.w3.org/2000/svg"
 width="512.000000pt" height="512.000000pt" viewBox="0 0 512.000000 512.000000"
 preserveAspectRatio="xMidYMid meet">
<metadata>
Created by potrace 1.11, written by Peter Selinger 2001-2013
</metadata>
<g transform="translate(0.000000,512.000000) scale(0.100000,-0.100000)"
fill="#000000" stroke="none">
<path d="M0 2570 l0 -2550 2550 0 2550 0 0 2550 0 2550 -2550 0 -2550 0 0
-2550z m4728 -2 l-3 -2173 -2172 -3 -2173 -2 0 2175 0 2175 2175 0 2175 0 -2
-2172z"/>
<path d="M1616 4110 c-2 -8 -128 -649 -280 -1425 -151 -775 -278 -1425 -282
-1443 l-7 -32 214 2 213 3 128 715 c70 393 134 757 143 808 10 52 21 90 25 85
4 -4 177 -393 385 -863 207 -470 380 -858 384 -862 3 -4 164 338 356 760 192
422 371 814 398 872 l50 105 102 -635 c56 -349 115 -715 130 -812 l28 -178
209 0 c181 0 208 2 208 16 0 8 -112 654 -250 1436 -137 781 -250 1430 -250
1441 0 13 -3 18 -10 11 -5 -5 -221 -473 -480 -1039 -259 -567 -474 -1033 -478
-1037 -4 -3 -144 305 -312 685 -565 1283 -619 1402 -624 1387z"/>
</g>
</svg>
