<svg xmlns:rdf="http://www.w3.org/1999/02/22-rdf-syntax-ns#" xmlns="http://www.w3.org/2000/svg" xmlns:cc="http://creativecommons.org/ns#" xmlns:dc="http://purl.org/dc/elements/1.1/" id="svg4285" xml:space="preserve" height="133.6" viewBox="0 0 352.15936 133.63885" width="352.2" version="1.1">
  <defs id="defs4289">
    <clipPath id="clipPath4359" clipPathUnits="userSpaceOnUse">
      <path id="path4361" d="m6 91.911h84v-57h-84v57z"/>
    </clipPath>
    <clipPath id="clipPath4365" clipPathUnits="userSpaceOnUse">
      <path id="path4367" d="m89.238 48.27-74.558-13.359-7.758 43.4 74.6 13.4 7.758-43.36z"/>
    </clipPath>
    <clipPath id="clipPath4375" clipPathUnits="userSpaceOnUse">
      <path id="path4377" d="m8 49h81v29h-81v-29z"/>
    </clipPath>
    <clipPath id="clipPath4389" clipPathUnits="userSpaceOnUse">
      <path id="path4391" d="m6 91.911h84v-58h-84v58z"/>
    </clipPath>
    <clipPath id="clipPath4395" clipPathUnits="userSpaceOnUse">
      <path id="path4397" d="m89.398 47.552-75.359-13.52-7.918 44.2 75.4 13.5 7.918-44.16z"/>
    </clipPath>
    <clipPath id="clipPath4405" clipPathUnits="userSpaceOnUse">
      <path id="path4407" d="m7 48h82v30h-82v-30z"/>
    </clipPath>
    <clipPath id="clipPath4423" clipPathUnits="userSpaceOnUse">
      <path id="path4425" d="m142.44 98.431h13.68v-11.52h-13.68v11.52z"/>
    </clipPath>
    <clipPath id="clipPath4433" clipPathUnits="userSpaceOnUse">
      <path id="path4435" d="m143 87h13v11h-13v-11z"/>
    </clipPath>
    <clipPath id="clipPath4445" clipPathUnits="userSpaceOnUse">
      <path id="path4447" d="m146.76 106.91h4.559v-35.039h-4.559v35.039z"/>
    </clipPath>
    <clipPath id="clipPath4455" clipPathUnits="userSpaceOnUse">
      <path id="path4457" d="m147 91h4v3h-4v-3z"/>
    </clipPath>
    <clipPath id="clipPath4467" clipPathUnits="userSpaceOnUse">
      <path id="path4469" d="m228.04 106.43h13.68v-11.52h-13.68v11.52z"/>
    </clipPath>
    <clipPath id="clipPath4477" clipPathUnits="userSpaceOnUse">
      <path id="path4479" d="m229 95h12v11h-12v-11z"/>
    </clipPath>
    <clipPath id="clipPath4489" clipPathUnits="userSpaceOnUse">
      <path id="path4491" d="m232.36 106.91h4.562v-27.039h-4.562v27.039z"/>
    </clipPath>
    <clipPath id="clipPath4499" clipPathUnits="userSpaceOnUse">
      <path id="path4501" d="m233 99h4v3h-4v-3z"/>
    </clipPath>
    <clipPath id="clipPath4511" clipPathUnits="userSpaceOnUse">
      <path id="path4513" d="m254.44 106.91h13.68v-10.879h-13.68v10.879z"/>
    </clipPath>
    <clipPath id="clipPath4521" clipPathUnits="userSpaceOnUse">
      <path id="path4523" d="m255 96h13v11h-13v-11z"/>
    </clipPath>
    <clipPath id="clipPath4533" clipPathUnits="userSpaceOnUse">
      <path id="path4535" d="m258.76 106.91h4.559v-26h-4.559v26z"/>
    </clipPath>
    <clipPath id="clipPath4543" clipPathUnits="userSpaceOnUse">
      <path id="path4545" d="m259 100h4v3h-4v-3z"/>
    </clipPath>
  </defs>
  <g id="g4293" transform="matrix(1.25 0 0 -1.25 0 133.64)">
    <g id="g4295">
      <path id="path4297" d="m121.12 83.298c0.488 0.4 0.9 0.9 1.3 1.5 0.4 0.6 0.8 1.2 1.1 1.8 0.3 0.7 0.6 1.3 0.9 2 0.2 0.7 0.5 1.3 0.7 1.9 0.2 0.7 0.4 1.4 0.5 2.1 0.1 0.7 0.1 1.4 0 2.125-0.117 0.739-0.422 1.176-0.922 1.313-0.492 0.144-1.07 0.129-1.734-0.047-0.699-0.188-1.352-0.481-1.953-0.875-0.594-0.399-1.164-0.867-1.704-1.406-0.531-0.543-1.027-1.11-1.484-1.703-0.461-0.594-0.871-1.172-1.234-1.735-0.844-1.242-1.602-2.515-2.266-3.828-0.668-1.312-1.199-2.687-1.594-4.125-0.179-0.492-0.34-1.094-0.484-1.812-0.137-0.711-0.188-1.418-0.156-2.125 0.031-0.7 0.191-1.321 0.484-1.875 0.301-0.563 0.801-0.915 1.5-1.063 0.727-0.144 1.457-0.164 2.188-0.062 0.7 0.1 1.5 0.3 2.2 0.5 0.7 0.3 1.5 0.6 2.2 0.9 0.7 0.3 1.4 0.7 2 1 0.6 0.3 1.3 0.7 1.9 1.1 0.6 0.4 1.3 0.8 1.9 1.156l1.938 1.14c0.125 0.1 0.3 0.2 0.5 0.3 0.2 0.1 0.4 0.3 0.6 0.4 0.2 0.1 0.4 0.3 0.6 0.4 0.2 0.1 0.4 0.1 0.5 0.2 0.2 0 0.379-0.125 0.422-0.375 0.051-0.242-0.023-0.406-0.219-0.5-0.199-0.211-0.465-0.375-0.797-0.5-0.324-0.125-0.609-0.261-0.859-0.406-0.699-0.418-1.391-0.844-2.078-1.281-0.68-0.438-1.375-0.867-2.094-1.281-1.148-0.7-2.312-1.391-3.5-2.078-1.18-0.696-2.43-1.239-3.75-1.625-0.594-0.188-1.23-0.305-1.906-0.36-0.668-0.051-1.305-0.008-1.906 0.125-0.594 0.137-1.137 0.391-1.625 0.766-0.481 0.375-0.829 0.922-1.047 1.64-0.18 0.618-0.262 1.258-0.25 1.9 0 0.7 0.1 1.4 0.2 2 0.1 0.7 0.3 1.3 0.6 2 0.2 0.6 0.5 1.2 0.7 1.8 1.1 2.8 2.5 5.3 4.2 7.6 0.4 0.5 0.8 1 1.2 1.5 0.4 0.5 0.8 1 1.3 1.5 0.5 0.5 1 0.9 1.5 1.3 0.5 0.4 1.1 0.7 1.7 0.9 0.5 0.2 1.1 0.4 1.8 0.4 0.7 0 1.25-0.132 1.75-0.515 0.489-0.375 0.797-0.852 0.922-1.422 0.125-0.574 0.16-1.152 0.11-1.734-0.118-1.387-0.434-2.758-0.954-4.11-0.523-1.344-1.074-2.64-1.656-3.89-0.312-0.618-0.633-1.231-0.953-1.844-0.312-0.617-0.68-1.199-1.094-1.75-0.199-0.156-0.398-0.227-0.593-0.203-0.2 0.031-0.368 0.109-0.5 0.234-0.125 0.125-0.2 0.273-0.219 0.453-0.012 0.2 0.1 0.4 0.3 0.516z"/>
      <path id="path4299" d="m129.61 82.255c0.77 0.4 1.5 0.9 2.2 1.4 0.7 0.5 1.4 1 2.2 1.6 0.3 0.8 0.6 1.5 1 2.2 0.4 0.7 0.8 1.4 1.1 2.1 0.4 0.6 0.8 1.3 1.2 1.9 0.4 0.6 0.8 1.3 1.2 1.9 0.4 0.6 0.7 1.1 1.1 1.7 0.4 0.6 0.9 1.1 1.5 1.4 0.3 0.2 0.6 0.3 1 0.4 0.4 0.1 0.719-0.062 0.906-0.5 0.133-0.273 0.164-0.546 0.094-0.828-0.062-0.281-0.18-0.57-0.344-0.859-0.156-0.281-0.328-0.555-0.515-0.813-0.188-0.261-0.344-0.492-0.469-0.687-0.918-1.555-1.969-3.023-3.156-4.406-1.18-1.387-2.453-2.684-3.828-3.891-0.118-0.324-0.246-0.668-0.391-1.031-0.137-0.367-0.258-0.75-0.359-1.156-0.094-0.399-0.153-0.789-0.172-1.172-0.024-0.375 0.023-0.727 0.14-1.047 0.3 0.1 0.5 0.1 0.8 0.2 0.2 0 0.4 0.1 0.6 0.1 0.2 0 0.3 0.1 0.3 0.1 0.8 0.2 1.5 0.5 2.2 0.8 0.7 0.3 1.4 0.7 2.2 1 0.2 0.1 0.4 0.2 0.7 0.4 0.3 0.2 0.5 0.2 0.8 0.1 0.289-0.187 0.336-0.375 0.14-0.562-0.187-0.18-0.367-0.309-0.531-0.391l-4.391-2.031c-0.418-0.2-0.828-0.399-1.234-0.594-0.406-0.199-0.828-0.328-1.266-0.391-0.386-0.086-0.703-0.054-0.953 0.094-0.25 0.145-0.433 0.352-0.547 0.625-0.105 0.27-0.156 0.566-0.156 0.9 0 0.3 0 0.6 0.1 0.9 0.1 0.6 0.3 1.3 0.5 1.921-0.992-0.793-2.055-1.523-3.187-2.187-0.258-0.074-0.477-0.008-0.657 0.203-0.187 0.219-0.129 0.4 0.2 0.594zm7.469 5.953c1.125 1.2 2.1 2.6 3 4 0.4 0.6 0.8 1.2 1.2 2 0 0.1 0.1 0.3 0.2 0.5 0.1 0.2 0.2 0.4 0.2 0.625-0.356-0.21-0.684-0.484-0.985-0.828-0.293-0.336-0.539-0.617-0.734-0.843-0.543-0.637-1.047-1.309-1.516-2.016-0.468-0.699-0.937-1.418-1.406-2.156-0.242-0.438-0.477-0.871-0.703-1.297-0.219-0.418-0.434-0.844-0.641-1.281 0.2 0.2 0.5 0.4 0.7 0.7 0.2 0.2 0.4 0.5 0.7 0.703z"/>
      <path id="path4301" d="m144.63 85.388c0.101 0.1 0.3 0.2 0.7 0.4 0.4 0.2 0.7 0.3 1.1 0.4 0.4 0.1 0.7 0.1 0.9 0.1 0.27-0.043 0.383-0.277 0.344-0.703-0.043-0.231-0.137-0.469-0.281-0.719-0.149-0.25-0.25-0.496-0.313-0.734-0.137-0.344-0.258-0.774-0.359-1.282-0.094-0.5-0.016-0.898 0.234-1.187 0.457-0.012 0.9 0.1 1.5 0.3 0.5 0.2 1 0.4 1.4 0.6 0.1 0.1 0.4 0.2 0.7 0.4 0.3 0.2 0.7 0.5 1.1 0.7 0.4 0.2 0.7 0.4 1.1 0.5 0.3 0.1 0.5 0.1 0.641-0.031 0.125-0.18 0.078-0.383-0.141-0.61-0.211-0.218-0.484-0.429-0.828-0.625-0.343-0.187-0.695-0.371-1.047-0.547-0.343-0.179-0.562-0.296-0.656-0.359-0.555-0.324-1.109-0.648-1.672-0.969-0.562-0.324-1.152-0.558-1.765-0.703-0.532-0.125-0.918-0.043-1.157 0.25-0.23 0.301-0.367 0.692-0.406 1.172-0.031 0.5 0 1 0.1 1.6 0.1 0.6 0.2 1.1 0.3 1.578-0.574-0.293-1.14-0.559-1.703-0.797-0.554-0.231-1.086-0.496-1.593-0.797-0.45-0.25-0.899-0.527-1.344-0.828-0.289-0.106-0.524-0.055-0.703 0.156-0.188 0.219-0.129 0.4 0.2 0.594l3.734 2.172zm3.922 8.218c0.101 0.3 0.3 0.6 0.5 0.9 0.3 0.3 0.5 0.5 0.9 0.7 0.3 0.2 0.7 0.3 1 0.5 0.4 0.1 0.7 0.2 1.1 0.3 0.9 0.1 1.8 0.2 2.8 0.1 0.2 0 0.332-0.008 0.531-0.047 0.207-0.032 0.305-0.164 0.297-0.391-0.012-0.125-0.07-0.242-0.172-0.344-0.094-0.105-0.211-0.148-0.344-0.125-0.761 0.094-1.547 0.086-2.359-0.015-0.813-0.106-1.527-0.403-2.141-0.891-0.25-0.18-0.418-0.402-0.5-0.672-0.086-0.273-0.218-0.492-0.406-0.656-0.242-0.219-0.516-0.242-0.828-0.063-0.305 0.176-0.414 0.426-0.328 0.75z"/>
      <path id="path4303" d="m152.43 73.755c0.675 0.3 1.3 0.6 2 0.9 0.7 0.3 1.3 0.5 2 0.813l0.125 0.297c0.426 1.3 0.9 2.5 1.3 3.8 0.4 1.2 0.8 2.5 1.2 3.782-0.398-0.274-0.812-0.516-1.25-0.735-0.437-0.218-0.859-0.359-1.265-0.422-0.406-0.054-0.781-0.015-1.125 0.11-0.344 0.133-0.625 0.426-0.844 0.875-0.219 0.394-0.305 0.769-0.25 1.125-0.125-0.063-0.258-0.156-0.391-0.281-0.136-0.118-0.281-0.219-0.437-0.313-0.148-0.086-0.297-0.168-0.453-0.25-0.149-0.074-0.297-0.105-0.453-0.094-0.227-0.011-0.367 0.086-0.422 0.297-0.063 0.2 0 0.4 0.2 0.5 0.6 0.4 1.2 0.8 1.9 1.1 0.6 0.4 1.3 0.7 2 1 0.6 0.3 1.3 0.5 2 0.8 0.8 0.2 1.5 0.3 2.2 0.3 0.313-0.012 0.563-0.074 0.75-0.187 0.195-0.117 0.207-0.36 0.031-0.735-0.093-0.136-0.203-0.23-0.328-0.281-0.117-0.043-0.234-0.07-0.359-0.078h-0.719c-0.219 0-0.433-0.012-0.641-0.031-0.054 0-0.183-0.024-0.39-0.063-0.211-0.031-0.453-0.078-0.735-0.14-0.281-0.055-0.589-0.133-0.921-0.235-0.325-0.105-0.637-0.246-0.938-0.422-0.148-0.105-0.277-0.242-0.391-0.406-0.105-0.156-0.167-0.324-0.187-0.5-0.023-0.168 0.008-0.328 0.094-0.484 0.093-0.149 0.258-0.246 0.5-0.297 0.582-0.137 1.156-0.063 1.7 0.2 0.6 0.3 1 0.7 1.3 1.2 0.1 0.1 0.3 0.3 0.4 0.5 0.1 0.2 0.3 0.4 0.5 0.5 0.2 0.1 0.4 0.1 0.5 0.1 0.144-0.063 0.242-0.168 0.297-0.313 0.051-0.136 0.07-0.296 0.062-0.484-0.011-0.18-0.054-0.336-0.125-0.469-0.531-1.273-1.039-2.527-1.515-3.765-0.469-1.239-0.938-2.489-1.407-3.75 0.8 1.2 1.7 2.4 2.6 3.6 0.4 0.6 0.9 1.1 1.4 1.5 0.5 0.5 1 1 1.5 1.468l1.579 1.25c0.125 0.1 0.2 0.1 0.4 0.2 0.1 0.1 0.3 0.1 0.39-0.032 0.133-0.043 0.207-0.156 0.219-0.343 0.019-0.18-0.031-0.325-0.156-0.438-2.293-1.605-4.258-3.555-5.891-5.844-0.594-0.812-1.109-1.625-1.547-2.437l1.203 0.359c0.625 0.2 1.3 0.4 1.9 0.6 0.7 0.2 1.3 0.4 2 0.6 0.2 0.1 0.4 0.1 0.7 0.2 0.2 0.1 0.4 0 0.656-0.156 0.187-0.145 0.273-0.332 0.265-0.563-0.011-0.226-0.117-0.422-0.312-0.578-0.199-0.113-0.422-0.18-0.672-0.203-0.242-0.02-0.465-0.047-0.672-0.078l-2.109-0.453c-0.586-0.157-1.18-0.305-1.781-0.454-0.606-0.156-1.2-0.32-1.782-0.5-0.343-0.656-0.668-1.332-0.968-2.031-0.293-0.695-0.559-1.398-0.797-2.109-0.137-0.375-0.262-0.75-0.375-1.125-0.117-0.375-0.262-0.774-0.438-1.203-0.105-0.27-0.308-0.43-0.609-0.485-0.293-0.062-0.524 0.11-0.688 0.516-0.062 0.137-0.07 0.266-0.015 0.4 0.1 0.1 0.1 0.2 0.2 0.39l0.813 2.063c0.425 1 0.8 2 1.2 3.015l-1.984-0.797c-0.106-0.039-0.235-0.109-0.391-0.203-0.148-0.093-0.305-0.172-0.469-0.234-0.156-0.063-0.312-0.113-0.469-0.156-0.156-0.039-0.273-0.02-0.359 0.062-0.187 0.106-0.269 0.246-0.25 0.4 0 0.2 0.1 0.3 0.3 0.344z"/>
      <path id="path4305" d="m165.13 85.216c0.656 0.3 1.3 0.6 1.9 0.9 0.6 0.4 1.2 0.7 1.9 1 0.1 0.1 0.4 0.3 0.7 0.5 0.3 0.2 0.6 0.5 1 0.7 0.3 0.2 0.6 0.4 0.9 0.5 0.3 0.1 0.5 0 0.718-0.203 0.125-0.199 0.149-0.399 0.078-0.594-0.062-0.199-0.179-0.402-0.343-0.609-0.168-0.211-0.352-0.407-0.547-0.594-0.188-0.188-0.328-0.34-0.422-0.453-0.375-0.418-0.727-0.871-1.047-1.36-0.312-0.492-0.449-0.996-0.406-1.515 0.5 0 0.9 0.2 1.4 0.5 0.5 0.3 0.9 0.5 1.3 0.7 1.2 0.7 2.4 1.4 3.5 2.2 0.6 0.5 1.2 0.9 1.7 1.4 0.2 0.2 0.5 0.2 0.7 0.1 0.258-0.137 0.375-0.359 0.344-0.672-0.031-0.242-0.125-0.477-0.281-0.703-0.149-0.231-0.278-0.477-0.391-0.734-0.105-0.211-0.203-0.5-0.297-0.875-0.094-0.368-0.078-0.688 0.047-0.969 0.313-0.125 0.672-0.117 1.1 0 0.4 0.1 0.7 0.3 1 0.4 1.1 0.5 2.1 1 3 1.6 0.2 0.1 0.4 0.2 0.7 0.4 0.3 0.2 0.5 0.1 0.625-0.11 0.133-0.23 0.125-0.414-0.031-0.547-0.157-0.125-0.325-0.23-0.5-0.312l-2.469-1.422c-0.524-0.281-1.102-0.602-1.735-0.953-0.625-0.344-1.261-0.465-1.906-0.36-0.48 0.094-0.773 0.336-0.875 0.735-0.094 0.406-0.09 0.8 0 1.172l0.469 1.437c-0.657-0.367-1.289-0.742-1.891-1.125-0.606-0.387-1.234-0.75-1.891-1.094-0.273-0.187-0.593-0.406-0.968-0.656-0.368-0.25-0.758-0.492-1.172-0.719-0.418-0.23-0.828-0.406-1.235-0.531-0.398-0.117-0.758-0.125-1.078-0.031-0.324 0.082-0.508 0.273-0.547 0.578-0.043 0.3 0 0.6 0.1 1 0.1 0.4 0.3 0.8 0.6 1.3 0.3 0.5 0.5 0.9 0.8 1.359l-0.891-0.515c-1.023-0.469-1.762-0.829-2.219-1.079-0.449-0.242-0.804-0.398-1.062-0.468-0.145-0.063-0.266-0.063-0.36 0-0.101 0.07-0.175 0.156-0.218 0.25-0.051 0.101-0.063 0.207-0.032 0.3 0 0.1 0.1 0.2 0.2 0.266z"/>
      <path id="path4307" d="m183.21 86.735c0.445 0.3 0.9 0.6 1.4 0.9 0.5 0.3 1 0.6 1.5 0.9 0.3 0.6 0.7 1.1 1.3 1.6 0.6 0.4 1.2 0.7 1.9 0.9 0.4 0.1 0.8 0.1 1.2 0.1 0.476-0.012 0.863-0.172 1.156-0.484 0.196-0.188 0.258-0.407 0.188-0.657-0.075-0.242-0.215-0.476-0.422-0.703-0.199-0.218-0.43-0.422-0.688-0.609-0.261-0.188-0.449-0.328-0.562-0.422-0.449-0.324-0.946-0.578-1.485-0.766-0.543-0.187-1.105-0.281-1.687-0.281h-0.156c0.156-0.574 0.422-1 0.797-1.281 0.382-0.274 0.832-0.461 1.343-0.563 0.508-0.105 1.024-0.121 1.547-0.046 0.5 0.1 1 0.2 1.5 0.3 0.6 0.2 1.2 0.4 1.8 0.6 0.6 0.2 1.1 0.5 1.7 0.8 0.2 0.2 0.5 0.3 0.8 0.4 0.3 0.1 0.5 0.3 0.7 0.4 0.2 0.1 0.3 0.1 0.547-0.032 0.207-0.086 0.25-0.257 0.125-0.515-0.125-0.219-0.305-0.375-0.532-0.469-0.218-0.086-0.418-0.172-0.593-0.266l-1.86-1c-1.168-0.574-2.32-1.062-3.453-1.468-0.512-0.149-1.039-0.227-1.578-0.235-0.531 0-1.031 0.078-1.5 0.235-0.469 0.164-0.902 0.414-1.297 0.75-0.398 0.343-0.695 0.789-0.891 1.343-0.074 0.196-0.136 0.399-0.187 0.61-0.055 0.207-0.059 0.398-0.016 0.578-0.273-0.149-0.539-0.32-0.797-0.516-0.261-0.187-0.492-0.355-0.687-0.5-0.125-0.062-0.289-0.172-0.484-0.328-0.2-0.156-0.407-0.183-0.625-0.078-0.157 0.094-0.235 0.227-0.235 0.406-0.008 0.2 0.1 0.3 0.2 0.375zm3.875 1.422c0.613 0.1 1.2 0.3 1.8 0.6 0.6 0.3 1.1 0.7 1.4 1.219-0.367 0.101-0.719 0.113-1.062 0.031-0.344-0.074-0.665-0.203-0.954-0.391-0.281-0.179-0.531-0.398-0.75-0.656-0.211-0.262-0.355-0.527-0.437-0.797z"/>
      <path id="path4309" d="m196.66 87.81c0.5 0.3 1 0.6 1.5 1 0.5 0.4 1.1 0.7 1.6 1 0.6 0.3 1.1 0.6 1.7 0.9 0.6 0.3 1.1 0.4 1.7 0.5 0.2 0 0.39-0.008 0.546-0.047 0.157-0.031 0.29-0.136 0.407-0.312 0.039-0.094 0.051-0.199 0.031-0.313-0.012-0.105-0.039-0.199-0.078-0.281-0.031-0.074-0.059-0.148-0.078-0.219-0.024-0.074-0.008-0.117 0.047-0.125 0.195-0.093 0.39-0.136 0.578-0.125 0.2 0 0.4 0.1 0.5 0.1 0.8 0.2 1.6 0.5 2.3 1 0.8 0.5 1.4 1 2.1 1.5 0.2 0.1 0.5 0.1 0.6 0.1 0.164-0.062 0.274-0.18 0.328-0.344 0.051-0.156 0.047-0.343-0.015-0.562-0.063-0.219-0.18-0.403-0.344-0.547-0.398-0.293-0.797-0.57-1.203-0.828-0.406-0.25-0.813-0.508-1.219-0.766-0.918-0.594-1.851-1.18-2.797-1.75-0.937-0.562-1.867-1.187-2.781-1.875 0.5 0.1 1.1 0.2 1.6 0.3 0.4 0 0.8 0 1.2 0 0.425-0.012 0.867-0.059 1.328-0.141 0.133-0.043 0.332-0.105 0.593-0.187 0.27-0.086 0.458-0.121 0.563-0.109 0.164-0.043 0.344-0.032 0.5 0 0.2 0.1 0.4 0.1 0.5 0.2 1.2 0.5 2.3 1.1 3.3 1.8 0.1 0.1 0.3 0.2 0.5 0.4 0.3 0.2 0.5 0.5 0.8 0.7 0.3 0.2 0.6 0.4 0.8 0.5 0.2 0.1 0.4 0.1 0.594-0.031 0.113-0.125 0.14-0.258 0.078-0.391-0.055-0.136-0.141-0.265-0.266-0.39-0.117-0.125-0.246-0.242-0.39-0.344-0.149-0.094-0.25-0.172-0.313-0.234-0.68-0.493-1.351-0.996-2.016-1.516-0.656-0.512-1.335-0.977-2.031-1.391-0.437-0.293-0.824-0.492-1.156-0.593-0.336-0.102-0.656-0.149-0.969-0.141-0.312 0.012-0.636 0.074-0.968 0.188-0.336 0.125-0.735 0.253-1.204 0.39-0.531 0.164-1.074 0.238-1.625 0.219-0.543-0.012-1.07-0.102-1.578-0.266-0.273-0.105-0.539-0.215-0.797-0.328-0.25-0.101-0.484-0.207-0.703-0.312-0.281-0.145-0.558-0.332-0.828-0.563-0.273-0.226-0.543-0.383-0.812-0.469-0.282-0.101-0.508-0.035-0.672 0.204-0.157 0.242-0.219 0.476-0.188 0.7 0.1 0.3 0.4 0.6 0.7 0.8 0.3 0.2 0.6 0.4 0.9 0.5 0.9 0.6 1.8 1.1 2.7 1.7 0.9 0.6 1.8 1.2 2.6 1.766-0.469-0.043-0.934-0.008-1.391 0.109-0.449 0.125-0.75 0.391-0.906 0.797-0.605-0.062-1.23-0.262-1.875-0.594-0.648-0.324-1.226-0.609-1.734-0.859-0.367-0.242-0.731-0.469-1.094-0.688-0.367-0.211-0.719-0.433-1.062-0.671-0.149-0.075-0.274-0.102-0.391-0.079-0.125 0.02-0.223 0.079-0.297 0.172-0.082 0.102-0.113 0.211-0.094 0.3 0 0.1 0.1 0.2 0.2 0.329z"/>
      <path id="path4311" d="m228.55 92.349c0.101 0.1 0.3 0.2 0.7 0.4 0.4 0.2 0.7 0.3 1.1 0.4 0.4 0.1 0.7 0.1 0.9 0.1 0.269-0.043 0.383-0.278 0.344-0.703-0.043-0.231-0.137-0.469-0.282-0.719-0.148-0.25-0.25-0.496-0.312-0.734-0.137-0.344-0.258-0.774-0.359-1.282-0.094-0.5-0.016-0.898 0.234-1.187 0.457-0.012 0.9 0.1 1.5 0.3 0.5 0.2 1 0.4 1.4 0.6 0.1 0.1 0.4 0.2 0.7 0.4 0.3 0.2 0.7 0.5 1.1 0.7 0.4 0.2 0.7 0.4 1.1 0.5 0.3 0.1 0.5 0.1 0.641-0.031 0.125-0.18 0.078-0.383-0.141-0.61-0.211-0.219-0.484-0.429-0.828-0.625-0.344-0.187-0.695-0.371-1.047-0.547-0.343-0.179-0.562-0.297-0.656-0.359-0.555-0.324-1.109-0.648-1.672-0.969-0.562-0.324-1.152-0.558-1.765-0.703-0.532-0.125-0.918-0.043-1.157 0.25-0.23 0.301-0.367 0.691-0.406 1.172-0.031 0.5 0 1 0.1 1.6 0.1 0.6 0.2 1.1 0.3 1.579-0.574-0.293-1.14-0.559-1.703-0.797-0.555-0.231-1.086-0.496-1.594-0.797-0.449-0.25-0.898-0.528-1.343-0.828-0.289-0.106-0.524-0.055-0.703 0.156-0.188 0.219-0.129 0.4 0.2 0.594l3.735 2.172zm3.922 8.218c0.101 0.3 0.3 0.6 0.5 0.9 0.3 0.3 0.5 0.5 0.9 0.7 0.3 0.2 0.7 0.3 1 0.5 0.4 0.1 0.7 0.2 1.1 0.3 0.9 0.1 1.8 0.2 2.8 0.1 0.2 0 0.332-0.007 0.531-0.046 0.207-0.032 0.305-0.164 0.297-0.391-0.012-0.125-0.071-0.242-0.172-0.344-0.094-0.105-0.211-0.148-0.344-0.125-0.762 0.094-1.547 0.086-2.359-0.015-0.813-0.106-1.528-0.403-2.141-0.891-0.25-0.18-0.418-0.402-0.5-0.672-0.086-0.273-0.219-0.492-0.406-0.656-0.242-0.219-0.516-0.242-0.828-0.063-0.305 0.176-0.414 0.426-0.328 0.75z"/>
      <path id="path4313" d="m236.49 91.134c0.656 0.3 1.3 0.7 1.8 1.1 0.6 0.4 1.2 0.8 1.8 1.2 0.2 0.1 0.4 0.2 0.6 0.4 0.2 0.1 0.4 0.2 0.6 0.3 0.4 0.2 0.9 0.4 1.5 0.6 0.6 0.2 1.1 0.3 1.6 0.2 0.176-0.043 0.332-0.133 0.469-0.266 0.133-0.125 0.211-0.265 0.235-0.422 0.019-0.156-0.012-0.304-0.094-0.437-0.074-0.137-0.231-0.23-0.469-0.281-0.148-0.063-0.32-0.086-0.516-0.063-0.199 0.031-0.398 0.047-0.593 0.047-0.367 0-0.727-0.043-1.078-0.125-0.356-0.074-0.688-0.215-1-0.422-0.5-0.281-0.852-0.672-1.047-1.172-0.2-0.492-0.078-0.976 0.359-1.453 0.414-0.437 0.914-0.711 1.5-0.812 0.594-0.094 1.203-0.086 1.8 0 0.6 0.1 1.2 0.3 1.8 0.5 0.6 0.2 1.1 0.5 1.6 0.7 0.6 0.2 1.1 0.5 1.6 0.8 0.5 0.3 0.9 0.6 1.2 0.8 0.2 0.1 0.4 0.1 0.531-0.016 0.176-0.156 0.211-0.343 0.11-0.562-0.063-0.199-0.231-0.359-0.5-0.484-0.262-0.125-0.492-0.227-0.688-0.297-1.023-0.606-2.101-1.18-3.234-1.719-1.137-0.531-2.313-0.844-3.531-0.938-0.532-0.074-1.059-0.027-1.578 0.141-0.512 0.164-0.95 0.414-1.313 0.75-0.367 0.344-0.625 0.758-0.781 1.25-0.156 0.5-0.125 1 0.1 1.641v0.031c-0.282-0.18-0.555-0.371-0.813-0.578-0.25-0.199-0.516-0.375-0.797-0.531-0.148-0.118-0.324-0.258-0.531-0.422-0.199-0.168-0.406-0.242-0.625-0.219-0.227-0.023-0.375 0.086-0.438 0.328-0.062 0.2 0 0.4 0.2 0.516z"/>
      <path id="path4315" d="m253.75 94.427c0.102 0.1 0.3 0.2 0.7 0.4 0.4 0.2 0.7 0.3 1.1 0.4 0.4 0.1 0.7 0.1 0.9 0.1 0.27-0.043 0.383-0.277 0.344-0.703-0.043-0.231-0.137-0.469-0.281-0.719-0.149-0.25-0.25-0.496-0.313-0.734-0.137-0.344-0.258-0.774-0.359-1.282-0.094-0.5-0.016-0.898 0.234-1.187 0.457-0.012 0.9 0.1 1.5 0.3 0.5 0.2 1 0.4 1.4 0.6 0.1 0.1 0.4 0.2 0.7 0.4 0.3 0.2 0.7 0.5 1.1 0.7 0.4 0.2 0.7 0.4 1.1 0.5 0.3 0.1 0.5 0.1 0.641-0.031 0.125-0.18 0.078-0.383-0.141-0.61-0.21-0.218-0.484-0.429-0.828-0.625-0.343-0.187-0.695-0.371-1.046-0.547-0.344-0.179-0.563-0.296-0.657-0.359-0.554-0.324-1.109-0.648-1.672-0.969-0.562-0.324-1.152-0.558-1.765-0.703-0.532-0.125-0.918-0.043-1.156 0.25-0.231 0.301-0.368 0.692-0.407 1.172-0.031 0.5 0 1 0.1 1.6 0.1 0.6 0.2 1.1 0.3 1.578-0.575-0.293-1.141-0.559-1.704-0.797-0.554-0.231-1.086-0.496-1.593-0.797-0.45-0.25-0.899-0.527-1.344-0.828-0.289-0.106-0.524-0.055-0.703 0.156-0.188 0.219-0.129 0.4 0.2 0.594l3.734 2.172zm3.922 8.218c0.101 0.3 0.3 0.6 0.5 0.9 0.3 0.3 0.5 0.5 0.9 0.7 0.3 0.2 0.7 0.3 1 0.5 0.4 0.1 0.7 0.2 1.1 0.3 0.9 0.1 1.8 0.2 2.8 0.1 0.2 0 0.332-0.008 0.531-0.047 0.207-0.032 0.305-0.164 0.297-0.391-0.012-0.125-0.07-0.242-0.172-0.344-0.094-0.105-0.211-0.148-0.344-0.125-0.761 0.094-1.546 0.086-2.359-0.015-0.813-0.106-1.527-0.403-2.141-0.891-0.25-0.18-0.418-0.402-0.5-0.672-0.086-0.273-0.218-0.492-0.406-0.656-0.242-0.219-0.516-0.242-0.828-0.063-0.305 0.176-0.414 0.426-0.328 0.75z"/>
      <path id="path4317" d="m109.86 42.095c0.657 0.3 1.3 0.7 1.9 1.1 0.6 0.4 1.2 0.8 1.9 1.2 0.1 0.1 0.4 0.2 0.6 0.4 0.3 0.2 0.6 0.3 0.8 0.3 0.3 0.1 0.5 0 0.641-0.078 0.145-0.106 0.188-0.371 0.125-0.797-0.055-0.305-0.18-0.637-0.375-1-0.199-0.355-0.359-0.711-0.484-1.062l-0.813-2.047c-0.094-0.168-0.179-0.336-0.25-0.5-0.062-0.157-0.121-0.313-0.172-0.469 0.7 0.9 1.4 1.9 2.2 2.8 0.8 0.9 1.6 1.7 2.5 2.5 0.5 0.5 1.1 0.9 1.8 1.3 0.7 0.4 1.4 0.6 2.1 0.6 0.414-0.043 0.676-0.196 0.782-0.453 0.113-0.25 0.14-0.539 0.078-0.86-0.063-0.312-0.172-0.636-0.328-0.968-0.157-0.325-0.297-0.579-0.422-0.766l-1.453-2.188c0.562 0.2 1.1 0.4 1.6 0.6 0.5 0.2 1.1 0.5 1.6 0.7 0.1 0.1 0.3 0.2 0.5 0.3 0.2 0.2 0.5 0.3 0.7 0.5 0.3 0.1 0.5 0.2 0.7 0.2 0.2 0 0.305-0.117 0.328-0.375 0.008-0.187-0.09-0.371-0.297-0.547-0.211-0.168-0.453-0.328-0.734-0.484-0.274-0.149-0.547-0.289-0.828-0.422-0.274-0.125-0.469-0.219-0.594-0.281-0.156-0.086-0.531-0.258-1.125-0.516-0.586-0.25-1.227-0.523-1.922-0.812-0.699-0.293-1.359-0.563-1.984-0.813-0.618-0.242-1.028-0.383-1.235-0.422-0.168-0.019-0.304 0.035-0.406 0.172-0.105 0.145-0.156 0.305-0.156 0.5 0 0.2 0.1 0.4 0.2 0.5 0.1 0.2 0.4 0.3 0.7 0.4 0.4 0 0.8 0.2 1.1 0.5 0.3 0.3 0.6 0.6 0.9 0.9 0.5 0.6 0.9 1.2 1.2 1.8 0.1 0.1 0.2 0.3 0.3 0.6 0.1 0.3 0.2 0.6 0.3 0.782-0.417-0.063-0.824-0.2-1.218-0.407-0.399-0.211-0.778-0.453-1.141-0.734-0.367-0.281-0.715-0.586-1.047-0.906-0.324-0.313-0.621-0.594-0.89-0.844-0.774-0.711-1.497-1.469-2.172-2.281-0.68-0.805-1.325-1.641-1.938-2.516l-0.969-1.312-2.187-5.625c-0.137-0.29-0.297-0.704-0.484-1.235-0.196-0.539-0.426-1.07-0.688-1.594-0.258-0.519-0.547-0.953-0.859-1.296-0.321-0.344-0.696-0.493-1.125-0.454-0.313 0.055-0.524 0.184-0.641 0.391-0.113 0.211-0.144 0.469-0.094 0.8 0 0.3 0.1 0.6 0.3 1 0.1 0.3 0.3 0.7 0.4 1 0.2 0.3 0.3 0.6 0.4 0.9 0.1 0.2 0.2 0.4 0.3 0.5 0.6 1.1 1.2 2.1 1.9 3.1 0.7 1 1.4 2 2 3 0.5 1.2 0.9 2.4 1.3 3.6 0.4 1.2 0.8 2.4 1.2 3.594-0.48-0.18-0.949-0.418-1.406-0.719-0.461-0.293-0.886-0.543-1.281-0.75-0.211-0.125-0.438-0.305-0.688-0.531-0.25-0.219-0.511-0.321-0.781-0.297-0.226-0.024-0.379 0.086-0.453 0.328-0.07 0.2 0 0.4 0.2 0.516z"/>
      <path id="path4319" d="m129.44 45.532c0.5 0.2 1 0.5 1.6 0.7 0.6 0.2 1.1 0.4 1.6 0.6 0.3 0.2 0.7 0.4 1.1 0.5 0.4 0.1 0.8 0.1 1.156-0.062 0.219-0.149 0.313-0.352 0.282-0.609 0.2 0 0.4 0 0.547-0.11 0.375-0.312 0.523-0.711 0.453-1.187-0.063-0.469-0.227-0.934-0.485-1.391 0.114-0.137 0.282-0.258 0.5-0.359 0.438-0.219 0.899-0.297 1.391-0.235 0.5 0.1 1 0.2 1.4 0.3 0.1 0 0.3 0.1 0.6 0.3 0.2 0.2 0.5 0.3 0.8 0.4 0.3 0.1 0.5 0.2 0.7 0.3 0.2 0.1 0.4 0 0.5-0.141 0.113-0.199 0.109-0.375-0.016-0.531-0.117-0.156-0.281-0.289-0.5-0.39-0.211-0.094-0.429-0.196-0.656-0.297-0.219-0.094-0.371-0.157-0.453-0.188-0.375-0.156-0.777-0.293-1.203-0.406-0.43-0.117-0.852-0.188-1.266-0.219-0.406-0.031-0.808-0.008-1.203 0.078-0.398 0.082-0.75 0.258-1.062 0.532l-0.782-0.985c-0.293-0.305-0.621-0.617-0.984-0.937-0.355-0.313-0.742-0.586-1.156-0.813-0.406-0.23-0.844-0.383-1.313-0.469-0.468-0.093-0.918-0.066-1.343 0.079-0.543 0.195-0.875 0.476-1 0.843-0.118 0.375-0.11 0.8 0 1.2 0.1 0.4 0.3 0.8 0.6 1.2 0.3 0.4 0.5 0.8 0.8 1.032l0.672 0.797c-0.575-0.25-1.137-0.532-1.688-0.844-0.555-0.305-1.102-0.621-1.641-0.953-0.105-0.055-0.23-0.137-0.375-0.25-0.148-0.106-0.296-0.203-0.453-0.297-0.148-0.086-0.293-0.149-0.437-0.188-0.133-0.043-0.254-0.039-0.36 0.016-0.195 0.082-0.289 0.219-0.281 0.4 0 0.2 0.1 0.3 0.2 0.422l3.906 2.078zm1.422-1.265c-0.093-0.106-0.265-0.313-0.515-0.625-0.25-0.313-0.469-0.633-0.657-0.954-0.179-0.324-0.277-0.625-0.296-0.906-0.012-0.273 0.164-0.418 0.531-0.437 0.676-0.055 1.3 0 1.9 0.2 0.6 0.2 1.1 0.6 1.6 1 0.2 0.2 0.4 0.4 0.5 0.6 0.2 0.2 0.3 0.4 0.4 0.656-0.156 0.332-0.258 0.691-0.297 1.078-0.043 0.4 0 0.7 0.2 1.047-0.731-0.117-1.375-0.328-1.938-0.641-0.562-0.304-1.062-0.668-1.5-1.093z"/>
      <path id="path4321" d="m140.5 44.653c0.656 0.3 1.3 0.6 1.9 0.9 0.6 0.4 1.2 0.7 1.9 1 0.1 0.1 0.4 0.3 0.7 0.5 0.3 0.2 0.6 0.5 1 0.7 0.3 0.2 0.6 0.4 0.9 0.5 0.3 0.1 0.5 0 0.719-0.203 0.125-0.199 0.148-0.398 0.078-0.593-0.063-0.2-0.18-0.403-0.344-0.61-0.168-0.211-0.352-0.406-0.547-0.594-0.187-0.187-0.328-0.339-0.422-0.453-0.375-0.418-0.726-0.871-1.047-1.359-0.312-0.492-0.449-0.996-0.406-1.516 0.5 0 0.9 0.2 1.4 0.5 0.5 0.3 0.9 0.5 1.3 0.7 1.2 0.7 2.4 1.4 3.5 2.2 0.6 0.5 1.2 0.9 1.7 1.4 0.2 0.2 0.5 0.2 0.7 0.1 0.258-0.136 0.375-0.359 0.344-0.671-0.031-0.243-0.125-0.477-0.281-0.704-0.148-0.23-0.277-0.476-0.391-0.734-0.105-0.211-0.203-0.5-0.297-0.875-0.093-0.367-0.078-0.687 0.047-0.969 0.313-0.125 0.672-0.117 1.1 0 0.4 0.1 0.7 0.3 1 0.4 1.1 0.5 2.1 1 3 1.6 0.2 0.1 0.4 0.2 0.7 0.4 0.3 0.2 0.5 0.1 0.625-0.109 0.133-0.231 0.125-0.414-0.031-0.547-0.156-0.125-0.324-0.231-0.5-0.313l-2.469-1.422c-0.523-0.281-1.101-0.601-1.734-0.953-0.625-0.343-1.262-0.465-1.907-0.359-0.48 0.094-0.773 0.336-0.875 0.734-0.093 0.407-0.089 0.8 0 1.172l0.469 1.438c-0.656-0.368-1.289-0.743-1.891-1.125-0.605-0.387-1.234-0.75-1.89-1.094-0.274-0.188-0.594-0.406-0.969-0.656-0.367-0.25-0.758-0.493-1.172-0.719-0.418-0.231-0.828-0.406-1.234-0.531-0.399-0.118-0.758-0.125-1.079-0.032-0.324 0.082-0.507 0.274-0.546 0.579-0.043 0.3 0 0.6 0.1 1 0.1 0.4 0.3 0.8 0.6 1.3 0.3 0.5 0.5 0.9 0.8 1.36l-0.891-0.516c-1.023-0.469-1.761-0.828-2.218-1.078-0.45-0.242-0.805-0.399-1.063-0.469-0.144-0.062-0.266-0.062-0.359 0-0.102 0.07-0.176 0.156-0.219 0.25-0.051 0.102-0.063 0.207-0.031 0.3 0 0.1 0.1 0.2 0.2 0.265z"/>
      <path id="path4323" d="m158.5 46.177c0.52 0.3 1 0.6 1.5 1 0.5 0.3 1.1 0.7 1.7 1.125-0.094 0.5 0 1 0.3 1.4 0.3 0.5 0.7 0.7 1.3 0.7 0.375-0.023 0.625-0.183 0.75-0.484 0.125-0.305 0.097-0.609-0.079-0.922-0.187-0.336-0.437-0.617-0.75-0.844 0.176-0.086 0.395-0.117 0.657-0.093 0.562-0.012 1.1 0.1 1.7 0.4 0.6 0.3 1.1 0.6 1.5 0.9 0.5 0.2 0.8 0.2 0.906-0.078 0.145-0.25 0.114-0.562-0.093-0.937-0.106-0.219-0.231-0.5-0.375-0.844-0.149-0.344-0.266-0.688-0.36-1.031-0.086-0.344-0.121-0.672-0.109-0.985 0.008-0.312 0.125-0.547 0.344-0.703 0.144-0.148 0.488-0.121 1 0.1 0.6 0.2 1.3 0.5 2.2 1 0.3 0.1 0.6 0.3 0.9 0.5 0.3 0.2 0.6 0.4 1 0.6 0.1 0 0.2 0.1 0.3 0.2 0.2 0.1 0.3 0.2 0.4 0.2 0.1 0.1 0.3 0.1 0.4 0 0.125-0.023 0.195-0.152 0.219-0.39 0.008-0.125-0.043-0.246-0.157-0.36-0.117-0.117-0.242-0.215-0.375-0.297-0.136-0.085-0.281-0.164-0.437-0.234-0.148-0.062-0.258-0.109-0.328-0.141l-1.578-0.875c-0.274-0.179-0.61-0.402-1.016-0.671-0.406-0.262-0.828-0.493-1.266-0.688-0.429-0.187-0.851-0.305-1.265-0.344-0.418-0.031-0.75 0.114-1 0.438-0.156 0.176-0.258 0.367-0.297 0.578-0.043 0.219-0.055 0.441-0.031 0.7 0 0.2 0.1 0.5 0.1 0.7 0 0.2 0.1 0.4 0.1 0.64l0.203 1.328c-0.125-0.043-0.386-0.132-0.781-0.265-0.387-0.137-0.813-0.246-1.281-0.328-0.469-0.075-0.918-0.102-1.344-0.078-0.43 0.019-0.758 0.16-0.984 0.4 0 0-0.11-0.07-0.329-0.203-0.21-0.125-0.449-0.277-0.718-0.453-0.262-0.179-0.539-0.371-0.828-0.578-0.293-0.211-0.524-0.371-0.688-0.484-0.148-0.075-0.32-0.188-0.516-0.344-0.199-0.156-0.378-0.195-0.546-0.109-0.164 0.093-0.254 0.226-0.266 0.406-0.02 0.2 0 0.3 0.2 0.422z"/>
      <path id="path4325" d="m187.32 53.317c0.477 0 0.9 0 1.4 0.1 0.5 0.1 0.9 0.1 1.4 0.2 0.6 1.2 1.3 2.4 2.1 3.7 0.8 1.3 1.6 2.4 2.6 3.3 0.2 0.1 0.4 0.3 0.6 0.4 0.2 0.2 0.4 0.3 0.6 0.3 0.3 0 0.461-0.07 0.61-0.266 0.156-0.199 0.203-0.414 0.14-0.64-0.093-0.531-0.339-1.059-0.734-1.578-0.398-0.512-0.734-0.969-1.016-1.375-0.343-0.555-0.714-1.094-1.109-1.625-0.387-0.532-0.781-1.047-1.187-1.547l2.25 0.7 3.8 1.484c0.175 0.1 0.4 0.2 0.5 0.2 0.2 0.1 0.379-0.008 0.547-0.203 0.176-0.2 0.235-0.414 0.172-0.641-0.062-0.219-0.195-0.383-0.39-0.484-1.157-0.512-2.375-0.938-3.657-1.282-1.273-0.336-2.527-0.625-3.765-0.875l-0.532-0.156c-0.281-0.312-0.586-0.625-0.906-0.937-0.312-0.313-0.64-0.625-0.984-0.938-0.156-0.273-0.293-0.547-0.406-0.828-0.106-0.281-0.211-0.574-0.313-0.875-0.043-0.074-0.105-0.273-0.187-0.594-0.075-0.324-0.149-0.652-0.219-0.984-0.063-0.324-0.11-0.625-0.141-0.906-0.031-0.274-0.008-0.403 0.078-0.391 0.551-0.094 1.133-0.023 1.8 0.2 0.6 0.2 1.2 0.5 1.6 0.6 0.6 0.3 1.2 0.5 1.8 0.8 0.6 0.2 1.1 0.5 1.7 0.8 0.2 0.1 0.4 0.1 0.6 0.2 0.2 0 0.375-0.105 0.375-0.437-0.012-0.242-0.164-0.418-0.453-0.531-0.293-0.106-0.528-0.204-0.703-0.297l-2.688-1.235c-0.305-0.156-0.719-0.375-1.25-0.656-0.531-0.273-1.074-0.5-1.625-0.687-0.543-0.188-1.047-0.25-1.516-0.188-0.468 0.063-0.777 0.395-0.921 1-0.106 0.582-0.043 1.2 0.2 1.8 0.2 0.6 0.5 1.3 0.8 1.969-1.125-0.906-2.313-1.726-3.563-2.453-0.148-0.074-0.269-0.094-0.375-0.063-0.113 0.04-0.203 0.11-0.266 0.204-0.062 0.101-0.078 0.211-0.046 0.3 0 0.1 0.1 0.2 0.2 0.3 0.9 0.5 1.7 1 2.5 1.6 0.8 0.6 1.6 1.2 2.3 1.844l0.469 0.984c-0.398-0.062-0.824-0.152-1.281-0.265-0.461-0.117-0.84-0.106-1.141 0.031-0.219 0.102-0.308 0.274-0.265 0.5 0.1 0.2 0.2 0.4 0.4 0.39zm6.75 4.266c0.114 0.2 0.2 0.4 0.3 0.6 0.1 0.2 0.2 0.4 0.3 0.64-0.242-0.273-0.461-0.547-0.656-0.828-0.199-0.273-0.367-0.492-0.5-0.656-0.438-0.563-0.856-1.125-1.25-1.688-0.399-0.562-0.758-1.156-1.078-1.781 1.1 1.2 2 2.4 2.8 3.719z"/>
      <path id="path4327" d="m195.61 49.216c0.52 0.3 1 0.6 1.5 1 0.5 0.3 1.1 0.7 1.7 1.125-0.093 0.5 0 1 0.3 1.4 0.3 0.5 0.7 0.7 1.3 0.7 0.375-0.023 0.625-0.183 0.75-0.484 0.125-0.305 0.097-0.609-0.078-0.922-0.188-0.336-0.438-0.617-0.75-0.844 0.175-0.086 0.394-0.117 0.656-0.093 0.562-0.012 1.1 0.1 1.7 0.4 0.6 0.3 1.1 0.6 1.5 0.9 0.5 0.2 0.8 0.2 0.907-0.078 0.144-0.25 0.113-0.562-0.094-0.937-0.106-0.219-0.231-0.5-0.375-0.844-0.149-0.344-0.266-0.687-0.36-1.031-0.086-0.344-0.121-0.672-0.109-0.985 0.008-0.312 0.125-0.546 0.344-0.703 0.144-0.148 0.488-0.121 1 0.1 0.6 0.2 1.3 0.5 2.2 1 0.3 0.1 0.6 0.3 0.9 0.5 0.3 0.2 0.6 0.4 1 0.6 0.1 0 0.2 0.1 0.3 0.2 0.2 0.1 0.3 0.2 0.4 0.2 0.1 0.1 0.3 0.1 0.4 0 0.125-0.023 0.195-0.152 0.219-0.39 0.008-0.125-0.043-0.246-0.156-0.36-0.118-0.117-0.243-0.214-0.375-0.296-0.137-0.086-0.282-0.165-0.438-0.235-0.148-0.062-0.258-0.109-0.328-0.14l-1.578-0.875c-0.274-0.18-0.609-0.403-1.016-0.672-0.406-0.262-0.828-0.493-1.265-0.688-0.43-0.187-0.852-0.305-1.266-0.344-0.418-0.031-0.75 0.114-1 0.438-0.156 0.176-0.258 0.367-0.297 0.578-0.043 0.219-0.055 0.441-0.031 0.7 0 0.2 0.1 0.5 0.1 0.7 0 0.2 0.1 0.4 0.1 0.64l0.203 1.329c-0.125-0.043-0.386-0.133-0.781-0.266-0.387-0.137-0.812-0.246-1.281-0.328-0.469-0.074-0.918-0.102-1.344-0.078-0.43 0.019-0.758 0.16-0.984 0.4 0 0-0.11-0.071-0.328-0.204-0.211-0.125-0.45-0.277-0.719-0.453-0.262-0.179-0.539-0.371-0.828-0.578-0.293-0.211-0.524-0.371-0.688-0.484-0.148-0.074-0.32-0.188-0.515-0.344-0.2-0.156-0.379-0.195-0.547-0.109-0.164 0.093-0.254 0.226-0.266 0.406-0.019 0.2 0 0.3 0.2 0.422z"/>
      <path id="path4329" d="m210.06 50.368c0.293 0.2 0.7 0.4 1.1 0.7 0.5 0.3 1 0.6 1.5 0.8 0.5 0.3 1 0.5 1.5 0.8 0.5 0.2 0.9 0.5 1.2 0.6 0.2 0.1 0.5 0.2 1 0.4 0.5 0.2 0.9 0.4 1.4 0.5 0.5 0.2 1 0.3 1.4 0.4 0.5 0.1 0.8 0.1 1.016-0.031 0.332-0.262 0.406-0.516 0.219-0.766-0.18-0.25-0.403-0.414-0.672-0.484l-1.735-0.328c-0.355-0.137-0.652-0.289-0.89-0.454-0.231-0.156-0.496-0.351-0.797-0.578-0.117-0.117-0.324-0.351-0.625-0.703-0.305-0.355-0.594-0.73-0.875-1.125-0.273-0.398-0.484-0.781-0.641-1.156-0.156-0.367-0.14-0.621 0.047-0.766 0.164-0.105 0.422-0.105 0.8 0 0.3 0.1 0.7 0.2 1 0.4 0.4 0.2 0.7 0.4 1 0.6 0.3 0.2 0.5 0.3 0.6 0.4 0.7 0.5 1.3 1.1 1.7 1.6 0.2 0.3 0.5 0.3 0.7 0.1 0.289-0.168 0.399-0.422 0.329-0.766-0.043-0.199-0.122-0.359-0.235-0.484-0.125-0.149-0.242-0.281-0.344-0.406-0.105-0.118-0.187-0.282-0.25-0.5-0.086-0.2-0.101-0.34-0.047-0.422 0.063-0.086 0.157-0.137 0.282-0.157 0.375-0.023 0.8 0 1.4 0.2 0.5 0.1 1.1 0.3 1.7 0.6 0.6 0.2 1.1 0.5 1.7 0.8 0.6 0.3 1 0.6 1.4 0.8 0.1 0 0.2 0.1 0.4 0.2 0.2 0.1 0.4 0.2 0.5 0.3 0.2 0.1 0.4 0.1 0.5 0.2 0.2 0 0.328-0.059 0.422-0.204 0.113-0.148 0.113-0.292 0-0.437-0.105-0.137-0.258-0.258-0.453-0.359-0.188-0.106-0.387-0.204-0.594-0.297-0.199-0.094-0.351-0.172-0.453-0.235-0.418-0.25-0.84-0.492-1.266-0.718-0.429-0.219-0.871-0.454-1.328-0.704-0.304-0.156-0.625-0.339-0.969-0.546-0.343-0.211-0.71-0.399-1.093-0.563-0.375-0.156-0.762-0.277-1.157-0.359-0.398-0.086-0.765-0.078-1.109 0.015-0.461 0.157-0.742 0.391-0.844 0.703-0.105 0.321-0.121 0.672-0.047 1.047l-0.984-0.718c-0.43-0.293-0.871-0.594-1.328-0.907-0.461-0.312-0.945-0.515-1.453-0.609-0.469-0.063-0.899 0.008-1.281 0.203-0.387 0.207-0.61 0.555-0.672 1.047-0.024 0.3 0.1 0.6 0.2 1 0.2 0.4 0.4 0.8 0.7 1.3 0.3 0.5 0.6 0.9 1 1.3 0.4 0.4 0.7 0.7 1 0.906-0.179-0.074-0.461-0.215-0.843-0.422-0.387-0.211-0.825-0.465-1.313-0.766-0.492-0.292-1-0.601-1.531-0.921-0.532-0.325-1.024-0.621-1.469-0.891-0.137-0.094-0.266-0.125-0.391-0.094s-0.222 0.086-0.296 0.172c-0.083 0.082-0.118 0.188-0.11 0.3 0 0.1 0.1 0.2 0.2 0.312z"/>
      <path id="path4331" d="m227.05 51.774c0.656 0.3 1.3 0.7 1.8 1.1 0.6 0.4 1.2 0.8 1.8 1.2 0.2 0.1 0.4 0.2 0.6 0.4 0.2 0.1 0.4 0.2 0.6 0.3 0.4 0.2 0.9 0.4 1.5 0.6 0.6 0.2 1.1 0.3 1.6 0.2 0.176-0.043 0.332-0.133 0.469-0.266 0.133-0.125 0.211-0.266 0.234-0.422 0.02-0.156-0.012-0.305-0.094-0.437-0.074-0.137-0.23-0.231-0.468-0.282-0.149-0.062-0.321-0.086-0.516-0.062-0.199 0.031-0.398 0.047-0.594 0.047-0.367 0-0.726-0.043-1.078-0.125-0.355-0.074-0.687-0.215-1-0.422-0.5-0.281-0.851-0.672-1.047-1.172-0.199-0.492-0.078-0.977 0.36-1.453 0.414-0.438 0.914-0.711 1.5-0.813 0.593-0.093 1.203-0.086 1.8 0 0.6 0.1 1.2 0.3 1.8 0.5 0.6 0.2 1.1 0.5 1.6 0.7 0.6 0.2 1.1 0.5 1.6 0.8 0.5 0.3 0.9 0.6 1.2 0.8 0.2 0.1 0.4 0.1 0.531-0.016 0.176-0.156 0.211-0.344 0.109-0.562-0.062-0.2-0.23-0.36-0.5-0.485-0.261-0.125-0.492-0.226-0.687-0.297-1.024-0.605-2.102-1.179-3.234-1.718-1.137-0.532-2.313-0.844-3.532-0.938-0.531-0.074-1.058-0.027-1.578 0.141-0.512 0.164-0.949 0.414-1.312 0.75-0.368 0.343-0.625 0.758-0.782 1.25-0.156 0.5-0.125 1 0.1 1.64v0.032c-0.281-0.18-0.555-0.371-0.812-0.579-0.25-0.199-0.516-0.375-0.797-0.531-0.149-0.117-0.324-0.258-0.531-0.422-0.2-0.168-0.407-0.242-0.625-0.218-0.227-0.024-0.375 0.086-0.438 0.328-0.062 0.2 0 0.4 0.2 0.515z"/>
      <path id="path4333" d="m240.65 52.895c0.446 0.3 0.9 0.6 1.4 0.9 0.5 0.3 1 0.6 1.5 0.9 0.3 0.6 0.7 1.1 1.3 1.6 0.6 0.4 1.2 0.7 1.9 0.9 0.4 0.1 0.8 0.1 1.2 0.1 0.477-0.012 0.864-0.172 1.157-0.484 0.195-0.188 0.257-0.406 0.187-0.656-0.074-0.243-0.215-0.477-0.422-0.704-0.199-0.218-0.429-0.421-0.687-0.609-0.262-0.187-0.45-0.328-0.563-0.422-0.449-0.324-0.945-0.578-1.484-0.765-0.543-0.188-1.106-0.282-1.688-0.282h-0.156c0.156-0.574 0.422-1 0.797-1.281 0.383-0.273 0.832-0.461 1.344-0.562 0.508-0.106 1.023-0.122 1.547-0.047 0.5 0.1 1 0.2 1.5 0.3 0.6 0.2 1.2 0.4 1.8 0.6 0.6 0.2 1.1 0.5 1.7 0.8 0.2 0.2 0.5 0.3 0.8 0.4 0.3 0.1 0.5 0.3 0.7 0.4 0.2 0.1 0.3 0.1 0.547-0.031 0.207-0.086 0.25-0.258 0.125-0.516-0.125-0.219-0.305-0.375-0.531-0.469-0.219-0.086-0.418-0.172-0.594-0.265l-1.859-1c-1.168-0.575-2.321-1.063-3.454-1.469-0.511-0.149-1.039-0.227-1.578-0.235-0.531 0-1.031 0.079-1.5 0.235-0.468 0.164-0.902 0.414-1.297 0.75-0.398 0.344-0.695 0.789-0.89 1.344-0.074 0.195-0.137 0.398-0.188 0.609-0.054 0.207-0.058 0.398-0.015 0.578-0.274-0.148-0.539-0.32-0.797-0.516-0.262-0.187-0.492-0.355-0.688-0.5-0.125-0.062-0.289-0.171-0.484-0.328-0.199-0.156-0.406-0.183-0.625-0.078-0.156 0.094-0.234 0.227-0.234 0.406-0.008 0.2 0.1 0.3 0.2 0.375zm3.875 1.422c0.614 0.1 1.2 0.3 1.8 0.6 0.6 0.3 1.1 0.7 1.4 1.219-0.367 0.101-0.718 0.113-1.062 0.031-0.344-0.074-0.664-0.203-0.953-0.391-0.281-0.179-0.531-0.398-0.75-0.656-0.211-0.262-0.356-0.527-0.438-0.797z"/>
      <path id="path4335" d="m254.18 54.017c0.519 0.3 1 0.6 1.5 1 0.5 0.3 1.1 0.7 1.7 1.125-0.094 0.5 0 1 0.3 1.4 0.3 0.5 0.7 0.7 1.3 0.7 0.375-0.023 0.625-0.183 0.75-0.484 0.125-0.305 0.098-0.61-0.078-0.922-0.187-0.336-0.437-0.617-0.75-0.844 0.176-0.086 0.395-0.117 0.656-0.094 0.563-0.011 1.1 0.1 1.7 0.4 0.6 0.3 1.1 0.6 1.5 0.9 0.5 0.2 0.8 0.2 0.906-0.078 0.145-0.25 0.113-0.562-0.094-0.937-0.105-0.219-0.23-0.5-0.375-0.844-0.148-0.344-0.265-0.688-0.359-1.031-0.086-0.344-0.121-0.672-0.109-0.985 0.007-0.312 0.125-0.547 0.343-0.703 0.145-0.148 0.489-0.121 1 0.1 0.6 0.2 1.3 0.5 2.2 1 0.3 0.1 0.6 0.3 0.9 0.5 0.3 0.2 0.6 0.4 1 0.6 0.1 0 0.2 0.1 0.3 0.2 0.2 0.1 0.3 0.2 0.4 0.2 0.1 0.1 0.3 0.1 0.4 0 0.125-0.023 0.195-0.152 0.218-0.39 0.008-0.125-0.043-0.247-0.156-0.36-0.117-0.117-0.242-0.215-0.375-0.297-0.137-0.086-0.281-0.164-0.437-0.234-0.149-0.063-0.258-0.109-0.328-0.141l-1.579-0.875c-0.273-0.179-0.609-0.402-1.015-0.672-0.406-0.261-0.828-0.492-1.266-0.687-0.43-0.188-0.851-0.305-1.265-0.344-0.418-0.031-0.75 0.113-1 0.438-0.157 0.175-0.258 0.367-0.297 0.578-0.043 0.219-0.055 0.441-0.032 0.7 0 0.2 0.1 0.5 0.1 0.7 0 0.2 0.1 0.4 0.1 0.64l0.203 1.328c-0.125-0.043-0.387-0.133-0.781-0.265-0.387-0.137-0.813-0.246-1.282-0.328-0.468-0.075-0.918-0.102-1.343-0.079-0.43 0.02-0.758 0.161-0.985 0.4 0 0-0.109-0.07-0.328-0.203-0.211-0.125-0.449-0.277-0.719-0.453-0.261-0.18-0.539-0.371-0.828-0.578-0.293-0.211-0.523-0.371-0.687-0.484-0.149-0.075-0.321-0.188-0.516-0.344-0.199-0.156-0.379-0.196-0.547-0.11-0.164 0.094-0.254 0.227-0.265 0.407-0.02 0.2 0 0.3 0.2 0.422z"/>
      <path id="path4337" d="m110.73 3.696c0.957 0.5 1.9 1 2.8 1.5 0.9 0.5 1.9 1 2.8 1.5 0.2 0.1 0.4 0.2 0.6 0.4 0.2 0.1 0.5 0.2 0.7 0 0.207-0.117 0.328-0.234 0.36-0.359 0.039-0.125 0.031-0.262-0.032-0.406-0.06-0.137-0.14-0.274-0.25-0.407-0.1-0.136-0.2-0.246-0.29-0.328-0.28-0.312-0.51-0.636-0.71-0.968-0.18-0.336-0.37-0.672-0.56-1.016-0.09-0.168-0.17-0.344-0.23-0.531-0.063-0.18-0.126-0.367-0.188-0.563-0.137-0.531-0.07-0.808 0.203-0.828 0.27-0.012 0.6 0.1 1 0.3 0.4 0.2 0.8 0.4 1.2 0.7 0.4 0.3 0.6 0.5 0.7 0.593l0.328 0.266c-0.094 0.414-0.078 0.8 0 1.3 0.1 0.5 0.4 0.9 0.7 1.3 0.2 0.2 0.4 0.5 0.7 0.7 0.3 0.2 0.6 0.3 1 0.2 0.406-0.074 0.609-0.281 0.609-0.625 0-0.336-0.07-0.648-0.203-0.937-0.18-0.387-0.399-0.746-0.656-1.079-0.262-0.335-0.555-0.656-0.876-0.968 0.321-0.106 0.661-0.153 1.016-0.141 0.4 0 0.7 0.1 1.1 0.2 0.4 0.1 0.7 0.2 1 0.3 0.3 0.1 0.7 0.2 0.9 0.4 0.3 0.1 0.5 0.2 0.8 0.3 0.2 0.1 0.5 0.3 0.7 0.4 0.2 0.1 0.4 0.1 0.547-0.063 0.175-0.156 0.203-0.328 0.078-0.516-0.063-0.167-0.203-0.32-0.422-0.453-0.211-0.125-0.434-0.242-0.672-0.343-0.242-0.094-0.48-0.18-0.719-0.25-0.242-0.075-0.437-0.125-0.594-0.157-0.511-0.179-1.027-0.336-1.546-0.468-0.524-0.125-1.047-0.184-1.578-0.172-0.512-0.024-0.934 0.097-1.266 0.359-0.344-0.336-0.699-0.641-1.063-0.922-0.355-0.281-0.699-0.543-1.031-0.781-0.273-0.199-0.609-0.383-1.016-0.547-0.406-0.168-0.796-0.246-1.171-0.234-0.368 0.019-0.664 0.144-0.891 0.375-0.219 0.226-0.262 0.644-0.125 1.2 0.2 1.1 0.6 2.1 1.1 3.265-0.344-0.156-0.688-0.32-1.032-0.484-0.343-0.156-0.695-0.313-1.046-0.469-0.399-0.187-0.774-0.386-1.126-0.594-0.343-0.21-0.695-0.433-1.046-0.671-0.149-0.063-0.309-0.125-0.485-0.188-0.164-0.062-0.328 0-0.484 0.188-0.125 0.269-0.063 0.5 0.2 0.64z"/>
      <path id="path4339" d="m129.76 6.974c0.5 0.2 1 0.5 1.6 0.7 0.6 0.2 1.1 0.4 1.6 0.6 0.3 0.2 0.7 0.4 1.1 0.5 0.4 0.1 0.8 0.1 1.157-0.063 0.218-0.148 0.312-0.351 0.281-0.609 0.2 0 0.4 0 0.547-0.109 0.375-0.313 0.523-0.711 0.453-1.188-0.063-0.469-0.227-0.934-0.484-1.391 0.113-0.136 0.281-0.257 0.5-0.359 0.437-0.219 0.898-0.297 1.39-0.234 0.5 0.1 1 0.2 1.4 0.3 0.1 0 0.3 0.1 0.6 0.3 0.2 0.2 0.5 0.3 0.8 0.4 0.3 0.1 0.5 0.2 0.7 0.3 0.2 0.1 0.4 0 0.5-0.14 0.114-0.199 0.11-0.375-0.015-0.531-0.117-0.157-0.282-0.289-0.5-0.391-0.211-0.094-0.43-0.195-0.657-0.297-0.218-0.094-0.371-0.156-0.453-0.187-0.375-0.157-0.777-0.293-1.203-0.407-0.429-0.117-0.851-0.187-1.265-0.218-0.407-0.032-0.809-0.008-1.204 0.078-0.398 0.082-0.75 0.258-1.062 0.531l-0.78-0.984c-0.3-0.305-0.62-0.618-0.99-0.938-0.35-0.312-0.74-0.586-1.15-0.812-0.41-0.231-0.85-0.383-1.32-0.469-0.469-0.094-0.918-0.067-1.344 0.078-0.543 0.195-0.875 0.477-1 0.844-0.117 0.375-0.11 0.8 0 1.2 0.1 0.4 0.3 0.8 0.6 1.2 0.3 0.4 0.5 0.8 0.8 1.031l0.672 0.797c-0.574-0.25-1.137-0.531-1.688-0.844-0.554-0.304-1.101-0.621-1.64-0.953-0.106-0.055-0.231-0.137-0.375-0.25-0.149-0.105-0.297-0.203-0.453-0.297-0.149-0.086-0.293-0.148-0.438-0.187-0.133-0.043-0.254-0.039-0.359 0.015-0.196 0.082-0.289 0.219-0.282 0.4 0 0.2 0.1 0.3 0.2 0.421l3.907 2.079zm1.422-1.266c-0.09-0.106-0.26-0.313-0.51-0.625-0.25-0.313-0.47-0.633-0.66-0.953-0.18-0.324-0.278-0.625-0.297-0.906-0.012-0.274 0.164-0.418 0.531-0.438 0.676-0.055 1.3 0 1.9 0.2 0.6 0.2 1.1 0.6 1.6 1 0.2 0.2 0.4 0.4 0.5 0.6 0.2 0.2 0.3 0.4 0.4 0.656-0.156 0.332-0.258 0.692-0.297 1.078-0.043 0.4 0 0.7 0.2 1.047-0.73-0.117-1.375-0.328-1.937-0.64-0.563-0.305-1.063-0.668-1.5-1.094z"/>
      <path id="path4341" d="m143.96 11.239c0.477 0 0.9 0 1.4 0.1 0.5 0.1 0.9 0.1 1.4 0.2 0.6 1.2 1.3 2.4 2.1 3.7 0.8 1.3 1.6 2.4 2.6 3.3 0.2 0.1 0.4 0.3 0.6 0.4 0.2 0.2 0.4 0.3 0.6 0.3 0.3 0 0.461-0.07 0.609-0.266 0.157-0.199 0.204-0.414 0.141-0.64-0.094-0.532-0.34-1.059-0.734-1.578-0.399-0.512-0.735-0.969-1.016-1.375-0.344-0.555-0.715-1.094-1.109-1.625-0.387-0.532-0.782-1.047-1.188-1.547l2.25 0.7 3.8 1.485c0.176 0.1 0.4 0.2 0.5 0.2 0.2 0.1 0.379-0.008 0.547-0.204 0.176-0.199 0.234-0.414 0.172-0.64-0.063-0.219-0.196-0.383-0.391-0.485-1.156-0.511-2.375-0.937-3.656-1.281-1.274-0.336-2.527-0.625-3.766-0.875l-0.531-0.156c-0.281-0.313-0.586-0.625-0.906-0.938-0.313-0.312-0.641-0.625-0.985-0.937-0.156-0.273-0.293-0.547-0.406-0.828-0.105-0.281-0.211-0.574-0.312-0.875-0.043-0.074-0.106-0.274-0.188-0.594-0.074-0.324-0.148-0.652-0.219-0.984-0.062-0.325-0.109-0.625-0.14-0.907-0.031-0.273-0.008-0.402 0.078-0.39 0.551-0.094 1.133-0.024 1.8 0.2 0.6 0.2 1.2 0.5 1.6 0.6 0.6 0.3 1.2 0.5 1.8 0.8 0.6 0.2 1.1 0.5 1.7 0.8 0.2 0.1 0.4 0.1 0.6 0.2 0.2 0 0.375-0.105 0.375-0.437 0-0.242-0.16-0.418-0.45-0.532-0.29-0.105-0.52-0.203-0.7-0.296l-2.687-1.235c-0.305-0.156-0.719-0.375-1.25-0.656-0.532-0.273-1.075-0.5-1.625-0.688-0.543-0.187-1.047-0.25-1.516-0.187-0.469 0.062-0.777 0.394-0.922 1-0.105 0.582-0.043 1.2 0.2 1.8 0.2 0.6 0.5 1.3 0.8 1.969-1.125-0.906-2.312-1.727-3.562-2.453-0.149-0.074-0.27-0.094-0.375-0.063-0.114 0.039-0.203 0.11-0.266 0.203-0.062 0.102-0.078 0.211-0.047 0.3 0 0.1 0.1 0.2 0.2 0.3 0.9 0.5 1.7 1 2.5 1.6 0.8 0.6 1.6 1.2 2.3 1.844l0.469 0.984c-0.399-0.062-0.825-0.152-1.282-0.265-0.461-0.117-0.839-0.106-1.14 0.031-0.219 0.102-0.309 0.273-0.266 0.5 0.1 0.2 0.2 0.4 0.4 0.39zm6.75 4.266c0.113 0.2 0.2 0.4 0.3 0.6 0.1 0.2 0.2 0.4 0.3 0.64-0.243-0.273-0.461-0.547-0.657-0.828-0.199-0.273-0.367-0.492-0.5-0.656-0.437-0.563-0.855-1.125-1.25-1.688-0.398-0.562-0.757-1.156-1.078-1.781 1.1 1.2 2 2.4 2.8 3.719z"/>
      <path id="path4343" d="m152.25 7.134c0.519 0.3 1 0.6 1.5 1 0.5 0.3 1.1 0.7 1.7 1.125-0.094 0.5 0 1 0.3 1.4 0.3 0.5 0.7 0.7 1.3 0.7 0.375-0.023 0.625-0.183 0.75-0.484 0.125-0.305 0.098-0.609-0.078-0.922-0.187-0.336-0.437-0.617-0.75-0.844 0.176-0.086 0.395-0.117 0.657-0.093 0.562-0.012 1.1 0.1 1.7 0.4 0.6 0.3 1.1 0.6 1.5 0.9 0.5 0.2 0.8 0.2 0.906-0.078 0.145-0.25 0.113-0.562-0.094-0.937-0.105-0.219-0.23-0.5-0.375-0.844-0.148-0.344-0.265-0.688-0.359-1.031-0.086-0.344-0.121-0.672-0.109-0.985 0.007-0.312 0.125-0.547 0.343-0.703 0.145-0.148 0.489-0.121 1 0.1 0.6 0.2 1.3 0.5 2.2 1 0.3 0.1 0.6 0.3 0.9 0.5 0.3 0.2 0.6 0.4 1 0.6 0.1 0 0.2 0.1 0.3 0.2 0.2 0.1 0.3 0.2 0.4 0.2 0.1 0.1 0.3 0.1 0.4 0 0.125-0.023 0.195-0.152 0.219-0.39 0.007-0.125-0.043-0.246-0.157-0.36-0.117-0.117-0.242-0.214-0.375-0.297-0.136-0.085-0.281-0.164-0.437-0.234-0.149-0.062-0.258-0.109-0.328-0.141l-1.57-0.875c-0.274-0.179-0.61-0.402-1.016-0.671-0.406-0.262-0.828-0.493-1.266-0.688-0.429-0.187-0.851-0.305-1.265-0.344-0.418-0.031-0.75 0.114-1 0.438-0.157 0.176-0.258 0.367-0.297 0.578-0.043 0.219-0.055 0.441-0.031 0.7 0 0.2 0.1 0.5 0.1 0.7 0 0.2 0.1 0.4 0.1 0.64l0.203 1.328c-0.125-0.042-0.387-0.132-0.781-0.265-0.387-0.137-0.813-0.246-1.281-0.328-0.469-0.074-0.918-0.102-1.344-0.078-0.43 0.019-0.758 0.16-0.985 0.4 0 0-0.109-0.07-0.328-0.203-0.211-0.125-0.449-0.277-0.718-0.453-0.262-0.179-0.54-0.371-0.829-0.578-0.293-0.211-0.523-0.371-0.687-0.484-0.149-0.074-0.32-0.188-0.516-0.344-0.199-0.156-0.379-0.195-0.547-0.109-0.164 0.093-0.254 0.226-0.265 0.406-0.02 0.2 0 0.3 0.2 0.422z"/>
      <path id="path4345" d="m166.81 8.333c0.446 0.3 0.9 0.6 1.4 0.9 0.5 0.3 1 0.6 1.5 0.9 0.3 0.6 0.7 1.1 1.3 1.6 0.6 0.4 1.2 0.7 1.9 0.9 0.4 0.1 0.8 0.1 1.2 0.1 0.476-0.012 0.863-0.172 1.156-0.485 0.195-0.187 0.258-0.406 0.187-0.656-0.074-0.242-0.215-0.476-0.422-0.703-0.199-0.219-0.429-0.422-0.687-0.609-0.262-0.188-0.449-0.329-0.563-0.422-0.449-0.325-0.945-0.578-1.484-0.766-0.543-0.187-1.105-0.281-1.687-0.281h-0.157c0.157-0.574 0.422-1 0.797-1.281 0.383-0.274 0.832-0.461 1.344-0.563 0.508-0.105 1.023-0.121 1.547-0.047 0.5 0.1 1 0.2 1.5 0.3 0.6 0.2 1.2 0.4 1.8 0.6 0.6 0.2 1.1 0.5 1.7 0.8 0.2 0.2 0.5 0.3 0.8 0.4 0.3 0.1 0.5 0.3 0.7 0.4 0.2 0.1 0.3 0.1 0.547-0.031 0.207-0.086 0.25-0.258 0.125-0.516-0.125-0.218-0.305-0.375-0.531-0.468-0.219-0.086-0.418-0.172-0.594-0.266l-1.859-1c-1.168-0.574-2.321-1.062-3.453-1.469-0.512-0.148-1.039-0.226-1.579-0.234-0.531 0-1.031 0.078-1.5 0.234-0.468 0.164-0.902 0.414-1.296 0.75-0.399 0.344-0.696 0.789-0.891 1.344-0.074 0.195-0.137 0.399-0.187 0.609-0.055 0.207-0.059 0.399-0.016 0.579-0.274-0.149-0.539-0.321-0.797-0.516-0.262-0.188-0.492-0.356-0.687-0.5-0.126-0.063-0.29-0.172-0.485-0.328-0.199-0.156-0.406-0.184-0.625-0.078-0.156 0.093-0.234 0.226-0.234 0.406-0.008 0.2 0.1 0.3 0.2 0.375zm3.876 1.422c0.613 0.1 1.2 0.3 1.8 0.6 0.6 0.3 1.1 0.7 1.4 1.218-0.368 0.102-0.719 0.114-1.063 0.032-0.344-0.075-0.664-0.204-0.953-0.391-0.281-0.18-0.531-0.398-0.75-0.656-0.211-0.262-0.355-0.528-0.437-0.797z"/>
      <path id="path4347" d="m196.43 14.599c0.238-0.606 0.383-1.235 0.437-1.891 0.8 1.2 1.7 2.4 2.6 3.5 0.9 1.2 1.9 2.3 2.9 3.4 1 1.1 2 2.1 3 3.1 1 1 2.1 2 3.3 2.9 1 0.8 2.2 1.5 3.4 2.3 1.2 0.7 2.5 1.2 3.8 1.4 0.6 0.1 1.2 0.1 1.719-0.156 0.55-0.199 0.914-0.617 1.093-1.25 0.145-0.594 0.125-1.188-0.062-1.781-0.188-0.586-0.418-1.149-0.688-1.688-0.617-1.305-1.355-2.543-2.218-3.719-0.868-1.179-1.668-2.386-2.407-3.625-0.281-0.492-0.57-0.976-0.859-1.453-0.293-0.469-0.559-0.949-0.797-1.437 1.1 1.3 2.2 2.6 3.4 3.8 1.2 1.2 2.4 2.4 3.6 3.6 1 0.9 2.1 1.9 3.2 2.9 1.1 1 2.4 1.7 3.7 2.2 0.2 0.1 0.4 0.1 0.7 0.2 0.3 0.1 0.5 0.1 0.8 0.2 0.3 0 0.476-0.028 0.656-0.141 0.176-0.117 0.254-0.328 0.235-0.641-0.043-0.418-0.243-0.824-0.594-1.218-0.344-0.399-0.637-0.735-0.875-1.016-0.762-0.93-1.559-1.867-2.391-2.812-0.824-0.95-1.605-1.934-2.344-2.954-0.73-1.011-1.382-2.07-1.953-3.171-0.562-1.094-0.953-2.243-1.172-3.438-0.043-0.281-0.07-0.562-0.078-0.844 0-0.273 0.032-0.523 0.094-0.75 0.07-0.23 0.207-0.422 0.406-0.578 0.196-0.156 0.477-0.234 0.844-0.234 0.7 0 1.4 0.1 2.1 0.4 0.7 0.2 1.4 0.5 2.1 0.7 0.7 0.3 1.3 0.6 2 0.906s1.297 0.7 1.9 1l1.859 1c0.133 0.1 0.3 0.1 0.4 0.2 0.1 0.1 0.2 0.1 0.375-0.016 0.156-0.074 0.234-0.203 0.234-0.39 0.008-0.18-0.059-0.309-0.203-0.391-0.606-0.355-1.211-0.684-1.813-0.984-0.593-0.293-1.179-0.606-1.75-0.938-0.656-0.344-1.32-0.683-1.984-1.015-0.656-0.325-1.309-0.641-1.953-0.954-0.356-0.156-0.746-0.312-1.172-0.468-0.43-0.149-0.859-0.266-1.297-0.36-0.43-0.086-0.859-0.105-1.297-0.062-0.43 0.051-0.82 0.207-1.172 0.469-0.336 0.238-0.578 0.531-0.734 0.875-0.149 0.351-0.227 0.722-0.234 1.1 0 0.4 0 0.8 0.1 1.2 0.1 0.4 0.2 0.8 0.4 1.1 0.3 0.9 0.7 1.8 1.2 2.6 0.5 0.8 1 1.6 1.5 2.4 0.1 0.1 0.4 0.5 0.8 1.1 0.5 0.6 1 1.3 1.6 2.1 0.6 0.8 1.2 1.6 1.8 2.4 0.6 0.8 1.1 1.5 1.5 2.062-0.406-0.136-0.809-0.304-1.203-0.5-0.387-0.187-0.75-0.398-1.094-0.625-0.649-0.418-1.266-0.855-1.859-1.312-0.586-0.449-1.157-0.918-1.719-1.406-1.125-1-2.199-2.039-3.219-3.11-1.023-1.074-2.023-2.183-3-3.328-2.023-2.387-3.887-4.828-5.594-7.328-0.105-0.168-0.215-0.367-0.328-0.594-0.117-0.23-0.273-0.422-0.469-0.578-0.199-0.144-0.414-0.16-0.64-0.047-0.231 0.117-0.371 0.305-0.422 0.563-0.043 0.3 0.1 0.6 0.3 0.9 0.3 0.3 0.4 0.6 0.6 0.828l1.422 2.297c0.851 1.4 1.7 2.8 2.5 4.1 0.8 1.4 1.7 2.7 2.5 4.1 0.5 0.8 1 1.6 1.5 2.4 0.5 0.8 1 1.6 1.4 2.4 0.1 0.2 0.2 0.4 0.3 0.8 0.2 0.3 0.3 0.7 0.4 1 0.1 0.4 0.2 0.7 0.2 1.1 0 0.344-0.105 0.582-0.312 0.719-0.274 0.156-0.59 0.219-0.953 0.187-0.367-0.031-0.742-0.109-1.125-0.234-0.375-0.117-0.742-0.262-1.094-0.437-0.355-0.168-0.648-0.297-0.875-0.391-1.375-0.637-2.684-1.402-3.922-2.297-1.23-0.898-2.402-1.883-3.515-2.953-2.618-2.531-4.961-5.289-7.032-8.266-0.336-0.48-0.652-0.949-0.953-1.406-0.305-0.449-0.609-0.906-0.922-1.375-0.218-1.055-0.586-2.101-1.093-3.141-0.512-1.031-1.079-1.921-1.704-2.671-0.218-0.25-0.445-0.426-0.671-0.532-0.231-0.113-0.434-0.156-0.61-0.125-0.168 0.024-0.281 0.102-0.344 0.235-0.062 0.136-0.027 0.4 0.1 0.6 0.3 0.9 0.8 1.8 1.2 2.6 0.5 0.8 1 1.6 1.5 2.4 0.3 0.9 0.4 1.8 0.3 2.734-0.011 0.133-0.058 0.289-0.14 0.469-0.086 0.175-0.149 0.359-0.188 0.547-0.043 0.187-0.062 0.363-0.062 0.5 0 0.2 0.1 0.3 0.2 0.5 0.2 0.2 0.4 0.2 0.6 0.1 0.227-0.062 0.383-0.195 0.469-0.39z"/>
      <path id="path4349" d="m229.45 13.454c0.656 0.3 1.3 0.7 1.8 1.1 0.6 0.4 1.2 0.8 1.8 1.2 0.2 0.1 0.4 0.2 0.6 0.4 0.2 0.1 0.4 0.2 0.6 0.3 0.4 0.2 0.9 0.4 1.5 0.6 0.6 0.2 1.1 0.3 1.6 0.2 0.176-0.043 0.332-0.133 0.469-0.265 0.133-0.125 0.211-0.266 0.235-0.422 0.019-0.156-0.012-0.305-0.094-0.438-0.074-0.136-0.231-0.23-0.469-0.281-0.148-0.062-0.32-0.086-0.516-0.062-0.199 0.031-0.398 0.046-0.593 0.046-0.368 0-0.727-0.043-1.078-0.125-0.356-0.074-0.688-0.214-1-0.421-0.5-0.282-0.852-0.672-1.047-1.172-0.2-0.493-0.079-0.977 0.359-1.453 0.414-0.438 0.914-0.711 1.5-0.813 0.594-0.094 1.203-0.086 1.8 0 0.6 0.1 1.2 0.3 1.8 0.5 0.6 0.2 1.1 0.5 1.6 0.7 0.6 0.2 1.1 0.5 1.6 0.8 0.5 0.3 0.9 0.6 1.2 0.8 0.2 0.1 0.4 0.1 0.531-0.015 0.176-0.156 0.211-0.344 0.11-0.563-0.063-0.199-0.231-0.359-0.5-0.484-0.262-0.125-0.492-0.227-0.688-0.297-1.023-0.605-2.101-1.18-3.234-1.719-1.137-0.531-2.313-0.843-3.531-0.937-0.532-0.074-1.059-0.028-1.578 0.14-0.512 0.164-0.95 0.414-1.313 0.75-0.367 0.344-0.625 0.758-0.781 1.25-0.156 0.5-0.125 1 0.1 1.641v0.031c-0.282-0.179-0.555-0.371-0.813-0.578-0.25-0.199-0.516-0.375-0.797-0.531-0.148-0.117-0.324-0.258-0.531-0.422-0.199-0.168-0.406-0.242-0.625-0.219-0.227-0.023-0.375 0.086-0.438 0.328-0.062 0.2 0 0.4 0.2 0.516z"/>
      <path id="path4351" d="m243.13 14.575c0.656 0.3 1.3 0.6 1.8 1 0.6 0.4 1.2 0.7 1.8 1.1 0.4 0.2 0.8 0.4 1.2 0.6 0.4 0.2 0.9 0.3 1.3 0.5 0.5 0.2 1.1 0.4 1.6 0.4 0.2 0 0.441-0.071 0.609-0.266 0.176-0.199 0.207-0.418 0.094-0.656-0.063-0.168-0.172-0.293-0.328-0.375-0.149-0.075-0.321-0.125-0.516-0.157-0.199-0.023-0.391-0.043-0.578-0.062-0.188-0.012-0.36-0.024-0.516-0.031-0.367-0.055-0.73-0.196-1.094-0.422-0.367-0.231-0.703-0.496-1.015-0.797-0.406-0.356-0.774-0.805-1.094-1.344-0.031-0.062-0.086-0.183-0.156-0.359-0.074-0.168-0.141-0.344-0.203-0.531-0.063-0.188-0.11-0.368-0.141-0.532-0.031-0.156 0-0.265 0.094-0.328 0.07-0.086 0.191-0.101 0.359-0.047 0.2 0.1 0.3 0.1 0.5 0.2 0.2 0.1 0.3 0.2 0.4 0.3 0.1 0.1 0.2 0.2 0.3 0.2 0.4 0.3 0.8 0.6 1.2 0.9 0.4 0.3 0.7 0.6 1.1 0.968l1.688 1.782c0.375 0.9 0.8 1.9 1.2 2.8 0.4 0.9 0.8 1.9 1.3 2.8 0.3 0.6 0.6 1.2 0.9 1.9 0.3 0.6 0.7 1.3 1 1.9 0.4 0.6 0.7 1.2 1.2 1.8 0.4 0.6 0.9 1.1 1.5 1.5 0.2 0.1 0.3 0.1 0.5 0.2 0.2 0.1 0.3 0.1 0.5 0 0.282-0.031 0.489-0.121 0.625-0.266 0.145-0.148 0.235-0.328 0.266-0.547 0.039-0.218 0.035-0.461-0.016-0.718-0.043-0.25-0.109-0.469-0.203-0.657-0.375-0.781-0.82-1.531-1.328-2.25-0.5-0.718-1.012-1.437-1.531-2.156-0.793-1.137-1.594-2.242-2.406-3.312-0.813-1.075-1.68-2.11-2.594-3.11-0.094-0.375-0.188-0.742-0.281-1.093-0.086-0.344-0.18-0.7-0.282-1.063-0.043-0.137-0.089-0.297-0.14-0.484-0.055-0.188-0.106-0.391-0.156-0.61-0.043-0.211-0.075-0.422-0.094-0.64-0.024-0.211-0.016-0.375 0.015-0.5 0.5 0.1 0.9 0.2 1.4 0.4 0.5 0.2 0.9 0.4 1.3 0.7 0.7 0.3 1.4 0.7 2.1 1.2 0.7 0.5 1.4 0.9 2 1.3 0.1 0.1 0.2 0.1 0.3 0.1 0.1 0 0.3 0 0.4 0 0.125-0.011 0.203-0.07 0.235-0.171 0.039-0.094 0.015-0.235-0.078-0.422-0.118-0.211-0.305-0.371-0.563-0.485-0.25-0.117-0.461-0.218-0.625-0.312-0.711-0.418-1.414-0.852-2.109-1.297-0.688-0.449-1.368-0.899-2.032-1.344-0.199-0.117-0.421-0.258-0.671-0.422-0.25-0.168-0.516-0.312-0.797-0.437-0.274-0.133-0.543-0.211-0.813-0.235-0.273-0.019-0.531 0.039-0.781 0.172-0.25 0.18-0.418 0.391-0.5 0.641-0.086 0.25-0.117 0.523-0.094 0.8 0 0.3 0.1 0.6 0.1 0.9 0.1 0.3 0.1 0.5 0.2 0.7 0 0.1 0 0.2 0 0.3 0 0.1 0.1 0.2 0.1 0.328l-1.812-1.812c-0.188-0.219-0.403-0.453-0.641-0.703-0.242-0.242-0.508-0.461-0.797-0.656-0.281-0.188-0.578-0.333-0.89-0.438-0.305-0.102-0.61-0.125-0.922-0.062-0.531 0.117-0.871 0.332-1.016 0.656-0.137 0.32-0.152 0.695-0.047 1.1 0.1 0.4 0.3 0.9 0.6 1.3 0.3 0.5 0.6 0.9 0.9 1.282l-0.922-0.469c-0.25-0.156-0.547-0.36-0.891-0.61s-0.664-0.402-0.953-0.453c-0.148-0.074-0.269-0.09-0.375-0.047-0.102 0.051-0.18 0.129-0.234 0.235-0.051 0.101-0.067 0.211-0.047 0.3 0 0.1 0.1 0.2 0.2 0.281zm10.734 4.703c0.625 0.8 1.2 1.5 1.8 2.3 0.6 0.8 1.2 1.6 1.7 2.4 0.2 0.4 0.5 0.8 0.7 1.1 0.2 0.4 0.5 0.8 0.7 1.2 0.1 0.2 0.2 0.4 0.4 0.8 0.2 0.4 0.3 0.7 0.3 0.985-0.344-0.168-0.656-0.446-0.937-0.829-0.282-0.386-0.508-0.687-0.672-0.906-0.555-0.711-1.059-1.433-1.516-2.172-0.461-0.742-0.891-1.5-1.297-2.281l-1.328-2.844 0.2 0.25z"/>
      <path id="path4353" d="m273.7 20.11c0.52 0.9 1.1 1.9 1.6 2.9 0.5 1 1.1 1.9 1.7 2.8 0.3 0.5 0.6 0.9 1 1.3 0.3 0.4 0.7 0.8 1 1.2 0.1 0.2 0.2 0.3 0.4 0.5 0.2 0.2 0.3 0.3 0.5 0.3 0.2 0 0.425-0.074 0.593-0.281 0.176-0.211 0.223-0.43 0.141-0.656-0.063-0.168-0.168-0.309-0.313-0.422-0.148-0.118-0.293-0.246-0.437-0.391-0.231-0.199-0.445-0.414-0.641-0.641-0.187-0.218-0.386-0.437-0.593-0.656-0.387-0.398-0.743-0.82-1.063-1.265-0.312-0.45-0.637-0.899-0.969-1.344-0.312-0.461-0.605-0.934-0.875-1.422-0.261-0.481-0.531-0.961-0.812-1.438-0.086-0.168-0.196-0.418-0.328-0.75-0.137-0.324-0.321-0.492-0.547-0.5-0.211-0.023-0.36 0.051-0.453 0.219-0.086 0.164-0.078 0.3 0 0.453zm-1.656-4.031c0.375 0 0.602-0.078 0.688-0.328 0.082-0.242 0.062-0.516-0.063-0.828-0.117-0.313-0.32-0.602-0.609-0.86-0.282-0.25-0.617-0.39-1-0.421-0.407-0.012-0.657 0.101-0.75 0.343-0.094 0.239-0.078 0.5 0 0.8 0.1 0.3 0.3 0.6 0.6 0.8 0.3 0.3 0.6 0.4 1 0.437z"/>
    </g>
    <g id="g4355">
      <g id="g4357" clip-path="url(#clipPath4359)">
        <g id="g4363" clip-path="url(#clipPath4365)">
          <g id="g4369" transform="translate(0 -.088913)">
            <g id="g4371">
              <g id="g4373" clip-path="url(#clipPath4375)">
                <g id="g4379">
                  <g id="g4381" transform="matrix(-1 -.18367 -.18367 1 0 107)">
                    <path id="path4383" d="m-2.725-30.465c-8.311-8.468-17.483-15.997-27.519-22.266-13.799-8.624-29.007-14.976-44.842-18.662" stroke="#3e2219" stroke-miterlimit="10" stroke-width="0.784" fill="none"/>
                  </g>
                </g>
              </g>
            </g>
          </g>
        </g>
      </g>
    </g>
    <g id="g4385">
      <g id="g4387" clip-path="url(#clipPath4389)">
        <g id="g4393" clip-path="url(#clipPath4395)">
          <g id="g4399" transform="translate(0 -.088913)">
            <g id="g4401">
              <g id="g4403" clip-path="url(#clipPath4405)">
                <g id="g4409">
                  <g id="g4411" transform="matrix(-1 -.18367 -.18367 1 0 107)">
                    <path id="path4413" d="m-1.952-30.483c-8.627-8.39-18.111-15.917-28.304-22.27-13.953-8.699-29.008-15.206-44.844-19.439" stroke="#3e2219" stroke-miterlimit="10" stroke-width="0.784" fill="none"/>
                  </g>
                </g>
              </g>
            </g>
          </g>
        </g>
      </g>
    </g>
    <g id="g4415">
      <path id="path4417" d="m10.824 79.54c-1.219 0.094-2.422 0.254-3.609 0.484-1.188 0.227-2.383 0.407-3.578 0.532-0.086-0.387-0.153-0.797-0.203-1.235-0.055-0.426-0.055-0.832 0-1.219 0.125-0.593 0.336-1.062 0.64-1.406 0.164-0.176 0.235-0.379 0.203-0.609-0.023-0.227-0.14-0.391-0.359-0.485-0.211-0.093-0.402-0.093-0.578 0-0.18 0.086-0.34 0.215-0.485 0.391-0.136 0.18-0.257 0.375-0.359 0.594-0.094 0.219-0.164 0.39-0.203 0.515-0.188 0.625-0.258 1.25-0.203 1.9 0.1 0.6 0.1 1.3 0.2 1.9 0.1 0.4 0.2 0.7 0.4 0.9 0.2 0.2 0.5 0.2 1 0 0.571-0.231 1.164-0.422 1.782-0.578 0.625-0.157 1.25-0.289 1.875-0.391 0.582-0.055 1.156-0.094 1.718-0.125 0.571-0.023 1.2 0 1.8 0.1 0.2 0.1 0.4 0 0.578-0.141 0.133-0.136 0.207-0.296 0.219-0.484 0.02-0.18-0.031-0.344-0.156-0.5s-0.324-0.226-0.594-0.203z"/>
    </g>
    <g id="g4419">
      <g id="g4421" clip-path="url(#clipPath4423)">
        <g id="g4427" transform="translate(0 -.088913)">
          <g id="g4429">
            <g id="g4431" clip-path="url(#clipPath4433)">
              <g id="g4437">
                <path id="path4439" d="m143.4 97.398h12v-9.598h-12v9.598z" fill="#fefffe"/>
              </g>
            </g>
          </g>
        </g>
      </g>
    </g>
    <g id="g4441">
      <g id="g4443" clip-path="url(#clipPath4445)">
        <g id="g4449" transform="translate(0 -.088913)">
          <g id="g4451">
            <g id="g4453" clip-path="url(#clipPath4455)">
              <g id="g4459">
                <path id="path4461" d="m149.73 93.52c0.375 0 0.598-0.122 0.672-0.36 0.082-0.242 0.047-0.508-0.109-0.797-0.148-0.293-0.375-0.554-0.688-0.781-0.304-0.23-0.64-0.344-1.015-0.344-0.387 0.02-0.617 0.149-0.688 0.391-0.074 0.25-0.039 0.5 0.1 0.8 0.2 0.3 0.4 0.5 0.7 0.8 0.3 0.2 0.7 0.3 1 0.344z"/>
              </g>
            </g>
          </g>
        </g>
      </g>
    </g>
    <g id="g4463">
      <g id="g4465" clip-path="url(#clipPath4467)">
        <g id="g4471" transform="translate(0 -.088913)">
          <g id="g4473">
            <g id="g4475" clip-path="url(#clipPath4477)">
              <g id="g4481">
                <path id="path4483" d="m229 105.4h12v-9.598h-12v9.598z" fill="#fefffe"/>
              </g>
            </g>
          </g>
        </g>
      </g>
    </g>
    <g id="g4485">
      <g id="g4487" clip-path="url(#clipPath4489)">
        <g id="g4493" transform="translate(0 -.088913)">
          <g id="g4495">
            <g id="g4497" clip-path="url(#clipPath4499)">
              <g id="g4503">
                <path id="path4505" d="m235.33 101.52c0.375 0 0.598-0.122 0.672-0.36 0.082-0.242 0.047-0.508-0.109-0.797-0.149-0.293-0.375-0.554-0.688-0.781-0.305-0.23-0.641-0.344-1.015-0.344-0.387 0.02-0.618 0.149-0.688 0.391-0.074 0.25-0.039 0.5 0.1 0.8 0.2 0.3 0.4 0.5 0.7 0.8 0.3 0.2 0.7 0.3 1 0.344z"/>
              </g>
            </g>
          </g>
        </g>
      </g>
    </g>
    <g id="g4507">
      <g id="g4509" clip-path="url(#clipPath4511)">
        <g id="g4515" transform="translate(0 -.088913)">
          <g id="g4517">
            <g id="g4519" clip-path="url(#clipPath4521)">
              <g id="g4525">
                <path id="path4527" d="m255.4 107h12v-10.398h-12v10.398z" fill="#fefffe"/>
              </g>
            </g>
          </g>
        </g>
      </g>
    </g>
    <g id="g4529">
      <g id="g4531" clip-path="url(#clipPath4533)">
        <g id="g4537" transform="translate(0 -.088913)">
          <g id="g4539">
            <g id="g4541" clip-path="url(#clipPath4543)">
              <g id="g4547">
                <path id="path4549" d="m261.73 102.56c0.375 0 0.598-0.121 0.672-0.36 0.082-0.242 0.047-0.508-0.109-0.797-0.148-0.293-0.375-0.554-0.688-0.781-0.304-0.23-0.64-0.344-1.015-0.344-0.387 0.02-0.617 0.149-0.688 0.391-0.074 0.25-0.039 0.5 0.1 0.8 0.2 0.3 0.4 0.5 0.7 0.8 0.3 0.2 0.7 0.3 1 0.344z"/>
              </g>
            </g>
          </g>
        </g>
      </g>
    </g>
  </g>
</svg>
