<svg xmlns:rdf="http://www.w3.org/1999/02/22-rdf-syntax-ns#" xmlns="http://www.w3.org/2000/svg" xmlns:cc="http://creativecommons.org/ns#" xmlns:dc="http://purl.org/dc/elements/1.1/" xml:space="preserve" height="77.9" viewBox="0 0 589.13312 77.851898" width="589.1" version="1.1"><style>.style0{fill:	#fefffe;}.style1{clip-path:	url(#clipPath4059);}.style2{clip-path:	url(#clipPath4069);}.style3{stroke:	#000;stroke-width:	3.456;stroke-miterlimit:	10;fill:	none;}.style4{stroke:	#000;stroke-width:	3.456;stroke-miterlimit:	10;fill:	#fff;}</style><defs><clipPath clipPathUnits="userSpaceOnUse"><path d="m0 48.926h252.13v-49.645h-252.13v49.645z"/></clipPath><clipPath clipPathUnits="userSpaceOnUse"><path d="m0 0h252v48h-252v-48z"/></clipPath></defs><g transform="matrix(1.25 0 0 -1.25 0 77.852)"><g><g><path d="m224.79 27.864c1.52 0.6 3.1 1.1 4.7 1.6 1.6 0.5 3.2 0.9 4.7 1.4 1 0.5 2.1 1 3.3 1.3 1.2 0.3 2.3 0.1 3.312-0.453 0.602-0.461 0.828-1.07 0.672-1.828 0.5 0.1 1.063-0.078 1.594-0.453 0.988-0.992 1.332-2.172 1.031-3.547-0.305-1.367-0.871-2.695-1.703-3.984 0.301-0.375 0.754-0.758 1.359-1.141 1.219-0.762 2.547-1.105 3.985-1.031 1.4 0.1 2.8 0.3 4.1 0.7 0.4 0.1 1 0.3 1.7 0.7 0.8 0.4 1.5 0.7 2.3 1.1 0.8 0.3 1.5 0.6 2.2 0.7 0.7 0.1 1.144-0.058 1.375-0.515 0.3-0.606 0.257-1.117-0.125-1.531-0.375-0.418-0.887-0.762-1.532-1.032-0.648-0.261-1.312-0.508-2-0.734-0.679-0.231-1.132-0.383-1.359-0.453-1.137-0.387-2.336-0.696-3.594-0.922-1.25-0.231-2.484-0.344-3.703-0.344s-2.402 0.172-3.547 0.516c-1.136 0.344-2.121 0.929-2.953 1.765l-2.5-2.625c-0.918-0.836-1.949-1.668-3.094-2.5-1.136-0.836-2.328-1.535-3.578-2.109-1.25-0.57-2.562-0.93-3.937-1.078-1.367-0.156-2.656 0.031-3.875 0.562-1.524 0.688-2.418 1.579-2.688 2.672-0.261 1.102-0.164 2.3 0.3 3.5 0.5 1.2 1.1 2.4 1.9 3.5 0.8 1.1 1.6 2.1 2.4 2.859l2.172 2.157c-1.75-0.606-3.465-1.29-5.14-2.047-1.668-0.762-3.34-1.559-5.016-2.391-0.305-0.156-0.684-0.371-1.141-0.641-0.449-0.261-0.902-0.507-1.359-0.734-0.461-0.23-0.899-0.402-1.313-0.516-0.418-0.117-0.777-0.058-1.078 0.172-0.531 0.301-0.758 0.719-0.687 1.2 0.1 0.5 0.3 0.9 0.8 1.141l11.859 5.141zm3.875-4c-0.305-0.305-0.855-0.872-1.656-1.704-0.805-0.836-1.508-1.711-2.11-2.625-0.605-0.906-0.964-1.761-1.078-2.562-0.117-0.805 0.36-1.277 1.422-1.422 1.977-0.305 3.86-0.23 5.6 0.2 1.8 0.5 3.4 1.3 4.8 2.6 0.6 0.6 1.2 1.2 1.7 1.7 0.5 0.5 1 1.1 1.4 1.812-0.375 0.988-0.586 2.051-0.625 3.188-0.043 1.1 0.2 2.1 0.9 2.968-2.137-0.148-4.059-0.601-5.766-1.359-1.711-0.762-3.246-1.715-4.609-2.859z"/><path d="m257.17 22.614c0.844 0.5 2.3 1.2 4.3 2.3 2 1.1 4.2 2.1 6.3 3.1 2.2 1 4.2 1.7 6 2 1.8 0.4 3 0.1 3.422-0.906 0.301-0.762 0.203-1.5-0.297-2.219-0.492-0.719-0.851-1.387-1.078-2l-1.37-3.187c0.988 0.6 2 1.1 3 1.6 1 0.5 2 0.9 3 1.4 2.4 1.3 4.9 2.7 7.5 4.1 2.6 1.4 5.2 2.6 7.9 3.3 1 0.2 1.9 0.2 2.6 0 0.758-0.188 1.348-0.528 1.766-1.016 0.414-0.492 0.625-1.137 0.625-1.938 0-0.804-0.309-1.656-0.922-2.562-0.68-1.063-1.418-2.016-2.219-2.859-0.793-0.836-1.609-1.747-2.453-2.735-0.148-0.23-0.414-0.539-0.797-0.922-0.375-0.375-0.777-0.808-1.203-1.297-0.418-0.492-0.797-0.984-1.141-1.484-0.336-0.492-0.539-0.93-0.609-1.312 0.531-0.149 1.191-0.149 2 0 0.8 0.2 1.6 0.4 2.4 0.6 0.8 0.3 1.6 0.6 2.3 0.9 0.7 0.3 1.3 0.5 1.7 0.687l4.672 2.047c0.301 0.2 0.7 0.4 1.2 0.7 0.5 0.3 1 0.6 1.5 0.8 0.5 0.3 1 0.5 1.5 0.8 0.5 0.2 0.9 0.3 1.2 0.3 0.7 0 1.031-0.343 1.031-1.031 0-0.68-0.304-1.211-0.906-1.594-0.687-0.375-1.414-0.734-2.172-1.078-0.761-0.344-1.558-0.703-2.39-1.078-1.063-0.617-2.09-1.152-3.078-1.609-0.993-0.45-2.016-0.938-3.079-1.469-0.605-0.313-1.574-0.758-2.906-1.328-1.336-0.563-2.668-0.973-4-1.235-1.324-0.269-2.48-0.234-3.469 0.11-0.992 0.344-1.484 1.273-1.484 2.8 0 0.8 0.2 1.4 0.6 2 0.4 0.6 0.8 1.2 1.3 1.8 0.5 0.6 1 1.1 1.6 1.7 0.6 0.5 1.1 1 1.5 1.5 0.5 0.4 1.2 1.2 2.3 2.4 1.1 1.2 1.7 2.4 2 3.422-2.055-0.23-4.125-0.765-6.219-1.609-2.086-0.836-4-1.703-5.75-2.609-2.199-1.063-4.48-2.262-6.844-3.594-2.355-1.336-4.402-2.914-6.14-4.735-0.387-0.304-0.789-0.476-1.203-0.515-0.418-0.031-0.821 0.047-1.204 0.234-0.375 0.188-0.664 0.469-0.859 0.844-0.187 0.383-0.203 0.879-0.047 1.5 0.2 0.7 0.8 1.3 1.7 1.8 0.4 0.6 0.8 1.3 1.1 2.1 0.4 0.8 0.6 1.3 0.8 1.4 0.2 0.5 0.3 1.1 0.5 1.7 0.2 0.6 0.3 1.2 0.4 1.766-0.843-0.231-1.683-0.497-2.515-0.797-0.836-0.305-1.481-0.532-1.938-0.688-1.062-0.449-2.125-0.887-3.187-1.312-1.063-0.418-2.133-0.891-3.203-1.422-0.606-0.305-1.157-0.606-1.657-0.906-0.492-0.305-1.039-0.571-1.64-0.797-0.461-0.231-0.899-0.289-1.313-0.172-0.414 0.113-0.738 0.285-0.969 0.515-0.226 0.227-0.32 0.508-0.281 0.8 0 0.3 0.3 0.6 0.8 0.86z"/><path d="m309.01 22.723c2.351 1.1 4.6 2.3 6.8 3.5 2.2 1.3 4.4 2.7 6.6 4.2 1.1 2.1 2.2 4.2 3.5 6.1 1.3 2 2.5 3.9 3.8 5.8 1.3 1.7 2.6 3.5 3.9 5.3 1.3 1.8 2.6 3.6 4 5.3 1.1 1.5 2.4 3.1 3.7 4.6 1.3 1.6 2.9 2.8 4.6 3.8 0.8 0.5 1.9 0.8 3.1 1 1.2 0.2 2.051-0.367 2.5-1.656 0.313-0.836 0.332-1.652 0.063-2.453-0.262-0.793-0.664-1.59-1.203-2.391-0.531-0.793-1.102-1.554-1.703-2.281-0.606-0.719-1.102-1.344-1.485-1.875-3.043-4.336-6.445-8.383-10.203-12.141-3.762-3.761-7.808-7.242-12.14-10.437-0.375-0.906-0.813-1.875-1.313-2.906-0.492-1.024-0.93-2.106-1.312-3.25-0.375-1.137-0.641-2.258-0.797-3.36-0.149-1.105-0.106-2.152 0.125-3.14 0.8 0.2 1.6 0.3 2.3 0.3 0.6 0.1 1.2 0.1 1.7 0.2 0.5 0 0.9 0.1 1 0.2 2.3 0.5 4.5 1.1 6.7 1.8 2.2 0.8 4.4 1.6 6.5 2.5 0.6 0.2 1.3 0.5 2.2 0.9 0.8 0.5 1.6 0.5 2.2 0.1 0.832-0.606 0.945-1.157 0.344-1.657-0.606-0.492-1.172-0.851-1.703-1.078l-13.235-4.906c-1.293-0.449-2.546-0.922-3.765-1.422-1.211-0.492-2.461-0.773-3.75-0.859-1.149-0.145-2.063 0.027-2.75 0.515-0.68 0.5-1.153 1.145-1.422 1.938-0.262 0.801-0.356 1.676-0.281 2.6 0.1 0.9 0.2 1.8 0.5 2.7 0.5 1.8 1.2 3.6 2.1 5.469-3.117-2.055-6.386-3.918-9.812-5.594-0.762-0.148-1.383 0.102-1.875 0.75-0.5 0.645-0.289 1.2 0.6 1.641zm23.14 15.625c3.571 3.3 6.8 7 9.8 10.8 1.4 1.6 2.7 3.4 3.9 5.5 0.1 0.4 0.4 0.9 0.7 1.4 0.3 0.6 0.6 1.2 0.8 1.781-1.063-0.531-2.071-1.258-3.016-2.172-0.949-0.918-1.727-1.68-2.328-2.281-1.75-1.75-3.387-3.594-4.906-5.531-1.524-1.938-3.043-3.934-4.563-5.985-0.836-1.219-1.633-2.418-2.39-3.594-0.762-1.179-1.485-2.371-2.172-3.578 0.7 0.5 1.4 1.1 2.1 1.8 0.7 0.6 1.4 1.3 2.1 1.875z"/><path d="m353.77 28.207c0.301 0.1 1 0.4 2.1 0.9 1.1 0.5 2.2 0.8 3.2 1 1.1 0.2 2 0.2 2.8 0 0.758-0.188 1.024-0.891 0.797-2.11-0.156-0.679-0.484-1.359-0.984-2.047-0.492-0.687-0.852-1.371-1.078-2.046-0.45-0.993-0.887-2.211-1.313-3.657-0.418-1.437-0.281-2.617 0.406-3.531 1.289-0.156 2.711-0.008 4.3 0.5 1.6 0.5 3 0.9 4.3 1.4 0.4 0.1 1.1 0.5 2.2 1.1 1.1 0.6 2.2 1.2 3.4 1.8 1.2 0.6 2.3 1 3.2 1.2 1 0.3 1.6 0.2 1.829-0.281 0.3-0.531 0.109-1.105-0.579-1.719-0.679-0.605-1.531-1.156-2.562-1.656-1.023-0.492-2.07-0.945-3.141-1.359-1.062-0.418-1.746-0.703-2.047-0.86-1.668-0.836-3.359-1.652-5.078-2.453-1.711-0.793-3.476-1.34-5.297-1.64-1.593-0.227-2.699 0.109-3.312 1.015-0.606 0.914-0.906 2.078-0.906 3.5 0 1.4 0.2 2.9 0.6 4.6 0.4 1.6 0.9 3.1 1.3 4.5-1.75-0.687-3.465-1.32-5.14-1.89-1.668-0.563-3.297-1.227-4.891-1.985-1.367-0.617-2.731-1.297-4.094-2.047-0.844-0.23-1.508-0.023-2 0.625-0.5 0.645-0.289 1.2 0.6 1.641l11.406 5.484zm13.329 23.016c0.382 1 1 1.8 1.8 2.6 0.8 0.7 1.7 1.3 2.7 1.8 1 0.5 2 0.8 3.1 1.1 1.1 0.3 2.1 0.5 3.1 0.6 2.7 0.2 5.4 0 8.094-0.344 0.5 0 0.969-0.078 1.531-0.234 0.571-0.149 0.821-0.563 0.75-1.25-0.074-0.375-0.265-0.7-0.578-0.969-0.305-0.262-0.64-0.356-1.015-0.281-2.211 0.457-4.512 0.629-6.907 0.515-2.386-0.117-4.531-0.82-6.437-2.109-0.762-0.461-1.293-1.07-1.594-1.828-0.305-0.762-0.758-1.367-1.359-1.813-0.762-0.617-1.563-0.621-2.407-0.015-0.836 0.613-1.101 1.375-0.796 2.281z"/><path d="m376.7 22.614c0.844 0.5 2.3 1.2 4.3 2.3 2.1 1.1 4.2 2.1 6.3 3.1 2.2 1 4.2 1.7 6 2 1.8 0.4 3 0.1 3.421-0.906 0.301-0.762 0.204-1.5-0.296-2.219-0.493-0.719-0.852-1.387-1.079-2l-1.375-3.187c0.989 0.6 2 1.1 3 1.6 1 0.5 2 0.9 3 1.4 2.4 1.3 4.9 2.7 7.5 4.1 2.6 1.4 5.2 2.6 7.9 3.3 1 0.2 1.9 0.2 2.6 0 0.757-0.188 1.347-0.528 1.765-1.016 0.414-0.492 0.625-1.137 0.625-1.938 0-0.804-0.308-1.656-0.922-2.562-0.679-1.063-1.418-2.016-2.218-2.859-0.793-0.836-1.61-1.747-2.454-2.735-0.148-0.23-0.414-0.539-0.796-0.922-0.375-0.375-0.778-0.808-1.204-1.297-0.418-0.492-0.796-0.984-1.14-1.484-0.336-0.492-0.539-0.93-0.61-1.312 0.532-0.149 1.192-0.149 2 0 0.8 0.2 1.6 0.4 2.4 0.6 0.8 0.3 1.6 0.6 2.3 0.9 0.7 0.3 1.3 0.5 1.7 0.687l4.672 2.047c0.301 0.2 0.7 0.4 1.2 0.7 0.5 0.3 1 0.6 1.5 0.8 0.5 0.3 1 0.5 1.5 0.8 0.5 0.2 0.9 0.3 1.2 0.3 0.7 0 1.031-0.343 1.031-1.031 0-0.68-0.305-1.211-0.906-1.594-0.688-0.375-1.414-0.734-2.172-1.078-0.762-0.344-1.559-0.703-2.391-1.078-1.062-0.617-2.09-1.152-3.078-1.609-0.992-0.45-2.016-0.938-3.078-1.469-0.606-0.313-1.574-0.758-2.906-1.328-1.336-0.563-2.668-0.973-4-1.235-1.325-0.269-2.481-0.234-3.469 0.11-0.992 0.344-1.485 1.273-1.485 2.8 0 0.8 0.2 1.4 0.6 2 0.4 0.6 0.8 1.2 1.3 1.8 0.5 0.6 1 1.1 1.6 1.7 0.6 0.5 1.1 1 1.5 1.5 0.5 0.4 1.2 1.2 2.3 2.4 1.1 1.2 1.7 2.4 2 3.422-2.055-0.23-4.125-0.765-6.219-1.609-2.086-0.836-4-1.703-5.75-2.609-2.199-1.063-4.48-2.262-6.843-3.594-2.356-1.336-4.403-2.914-6.141-4.735-0.387-0.304-0.789-0.476-1.203-0.515-0.418-0.031-0.82 0.047-1.203 0.234-0.375 0.188-0.664 0.469-0.86 0.844-0.187 0.383-0.203 0.879-0.046 1.5 0.2 0.7 0.8 1.3 1.7 1.8 0.4 0.6 0.8 1.3 1.1 2.1 0.4 0.8 0.6 1.3 0.8 1.4 0.2 0.5 0.3 1.1 0.5 1.7 0.2 0.6 0.3 1.2 0.4 1.766-0.844-0.231-1.684-0.497-2.516-0.797-0.836-0.305-1.48-0.532-1.937-0.688-1.063-0.449-2.125-0.887-3.188-1.312-1.062-0.418-2.133-0.891-3.203-1.422-0.606-0.305-1.156-0.606-1.656-0.906-0.493-0.305-1.039-0.571-1.641-0.797-0.461-0.231-0.898-0.289-1.312-0.172-0.414 0.113-0.739 0.285-0.969 0.515-0.227 0.227-0.321 0.508-0.281 0.8 0 0.3 0.3 0.6 0.8 0.86z"/><path d="m428.76 22.723c1.363 0.7 2.8 1.4 4.3 2.3 1.5 0.8 3 1.6 4.5 2.2 1 1.8 2.4 3.2 4.2 4.3 1.8 1.1 3.8 1.8 5.8 2.2 1.1 0.1 2.3 0.1 3.718-0.016 1.407-0.148 2.485-0.714 3.235-1.703 0.539-0.605 0.676-1.25 0.406-1.937-0.273-0.68-0.73-1.324-1.375-1.938-0.648-0.605-1.371-1.156-2.172-1.656-0.793-0.492-1.375-0.852-1.75-1.078-1.375-0.836-2.883-1.461-4.516-1.875-1.625-0.418-3.277-0.555-4.953-0.406h-0.453c0.301-1.668 0.985-2.961 2.047-3.875 1.063-0.907 2.316-1.575 3.766-2 1.445-0.418 2.945-0.59 4.5-0.516 1.6 0.1 3 0.2 4.3 0.5 1.8 0.4 3.6 0.8 5.4 1.4 1.8 0.6 3.5 1.2 5.1 2 0.8 0.4 1.5 0.7 2.3 1.1 0.8 0.3 1.5 0.7 2.2 1.1 0.5 0.2 1.1 0.1 1.64-0.219 0.571-0.305 0.633-0.797 0.188-1.484-0.387-0.606-0.922-1.024-1.609-1.25-0.68-0.231-1.282-0.461-1.813-0.688l-5.703-2.515c-3.5-1.368-6.961-2.5-10.375-3.407-1.523-0.312-3.063-0.41-4.625-0.296-1.555 0.113-2.996 0.457-4.328 1.031-1.324 0.57-2.524 1.39-3.594 2.453-1.062 1.062-1.82 2.43-2.266 4.109-0.156 0.602-0.293 1.207-0.406 1.813-0.117 0.613-0.094 1.2 0.1 1.719-0.844-0.387-1.668-0.829-2.469-1.329-0.793-0.492-1.492-0.921-2.094-1.296-0.387-0.157-0.883-0.446-1.484-0.86-0.606-0.418-1.215-0.433-1.828-0.047-0.446 0.301-0.649 0.719-0.61 1.2 0 0.5 0.3 0.9 0.7 1.016zm11.625 3.203c1.82 0.1 3.6 0.5 5.3 1.4 1.7 0.8 3.2 1.9 4.5 3.204-1.063 0.375-2.11 0.484-3.141 0.328-1.023-0.149-1.969-0.45-2.844-0.907-0.875-0.461-1.656-1.046-2.344-1.765-0.679-0.719-1.167-1.461-1.468-2.219z"/></g><path d="m203.33 35.328h35.199v-29.602h-35.199v29.602z" class="style0"/><path d="m360.13 60.129h46.398v-20h-46.398v20z" class="style0"/><path d="m367.66 38.852c-1.086 0.32-1.804 0.945-2.156 1.875-0.355 0.926-0.438 1.93-0.25 3 0.2 1.1 0.6 2.2 1.2 3.3 0.6 1.1 1.4 2 2.4 2.7 0.9 0.7 1.9 1.1 3.1 1.2 1.1 0.1 2.266-0.278 3.422-1.11 1.344-1.086 1.961-2.351 1.859-3.797-0.094-1.437-0.621-2.781-1.578-4.031-0.961-1.242-2.172-2.199-3.641-2.875-1.468-0.668-2.914-0.746-4.328-0.234zm0.782 2.109c0.632-0.187 1.351-0.058 2.2 0.4 0.8 0.4 1.5 1 2.1 1.7 0.6 0.7 1 1.4 1.1 2.1 0.2 0.738-0.039 1.332-0.61 1.781-0.773 0.633-1.574 0.743-2.406 0.328-0.836-0.406-1.539-1.043-2.109-1.906-0.574-0.867-0.946-1.746-1.11-2.64-0.156-0.899 0.118-1.477 0.829-1.735z"/></g><g><g class="style1"><g transform="translate(0 -.71848)"><g><g class="style2"><g><g transform="matrix(1,0,0,-1,0,63)"><path d="m1.727 38.953h215.84" class="style3"/></g><g transform="matrix(1,0,0,-1,0,63)"><path d="m195.97 38.953c10.801 17.3 32.4 17.3 43.2 0" class="style3"/></g><g transform="matrix(1,0,0,-1,0,63)"><path d="m195.97 38.953c10.801-17.281 32.398-17.281 43.2 0" class="style3"/></g><g transform="matrix(1,0,0,-1,0,63)"><path d="m1.727 17.355h43.203v43.199h-43.203v-43.199z" class="style4"/></g><path d="m9.676 11.6 5.2 26.8 8.547-19.344 8.8 19.3 4.703-26.75h-3.844l-2.406 15.015-7.359-16.156-7.157 16.172-2.672-15.031h-3.89z"/><g transform="matrix(1,0,0,-1,0,63)"><path d="m74.129 31.273c4.238 4.2 4.2 11.1 0 15.282-4.242 4.238-11.039 4.238-15.281 0-4.239-4.16-4.239-11.043 0-15.282 4.242-4.16 11.039-4.16 15.3 0" class="style4"/></g><g transform="matrix(1,0,0,-1,0,63)"><path d="m88.047 17.355h43.199v43.199h-43.199v-43.199z" class="style4"/></g><path d="m119.49 35.191v-4.453c-2.168 1.813-4.414 2.719-6.734 2.719-2.555 0-4.703-0.918-6.453-2.75-1.762-1.824-2.641-4.059-2.641-6.703 0-2.617 0.879-4.82 2.641-6.609 1.758-1.793 3.914-2.688 6.469-2.688 1.3 0 2.4 0.2 3.4 0.6 0.5 0.2 1 0.5 1.6 0.9 0.6 0.4 1.1 0.8 1.8 1.312v-4.515c-2.148-1.219-4.402-1.829-6.765-1.829-3.555 0-6.586 1.239-9.094 3.719-2.512 2.508-3.766 5.531-3.766 9.1 0 3.2 1 6 3.1 8.5 2.6 3 5.9 4.6 10 4.6 2.2 0 4.382-0.606 6.468-1.813z"/><g transform="matrix(1,0,0,-1,0,63)"><path d="m160.45 31.273c4.239 4.2 4.2 11.1 0 15.282-4.16 4.238-11.043 4.238-15.281 0-4.16-4.16-4.16-11.043 0-15.282 4.238-4.16 11.121-4.16 15.3 0" class="style4"/></g><g transform="matrix(1,0,0,-1,0,63)"><path d="m174.45 17.355h43.117v43.199h-43.117v-43.199z" class="style4"/></g><path d="m187.11 11.645v24.875h5.219c2.5 0 4.473-0.247 5.922-0.735 1.562-0.492 2.976-1.312 4.25-2.469 2.562-2.343 3.844-5.421 3.844-9.234 0-3.824-1.34-6.918-4.016-9.281-1.344-1.18-2.75-2-4.219-2.469-1.375-0.461-3.324-0.687-5.843-0.687h-5.157zm3.75 3.531h1.688c1.687 0 3.1 0.2 4.2 0.5 1.1 0.4 2.1 1 3 1.8 1.9 1.7 2.8 3.9 2.8 6.6 0 2.727-0.918 4.941-2.75 6.641-1.636 1.507-4.058 2.265-7.265 2.265h-1.688v-17.812z"/><g transform="matrix(1,0,0,-1,0,63)"><path d="m246.85 31.273c4.16 4.2 4.2 11.1 0 15.282-4.239 4.238-11.121 4.238-15.282 0-4.238-4.16-4.238-11.043 0-15.282 4.161-4.16 11.043-4.16 15.3 0" class="style4"/></g></g></g></g></g></g></g></g></svg>