<svg viewBox="0 0 589 77" xmlns="http://www.w3.org/2000/svg"><g stroke="#000"><path d="M311.3 53c1.7-.1 2-.2 3.7-.7q.7-.2 2.1-1L320 50l2.7-.9q1.4-.2 1.7.7.6 1.1-.1 1.9t-2 1.3a41 41 0 0 1-8.6 2.6c-1.6.3-1.8.4-3.4.4s-.8-3 1-3z"/><path d="m321.4 49.6 5.4-2.9 7.9-3.8a31 31 0 0 1 7.5-2.5q3.3-.8 4.3 1 .5 1.5-.4 2.9t-1.3 2.5l-1.8 4 3.8-2q1.8-1 3.7-1.8l9.4-5.1q4.9-2.8 9.9-4.2a7 7 0 0 1 3.2 0q1.5.4 2.2 1.3.9.9.8 2.4t-1.1 3.2q-1.3 2.1-2.8 3.6a89 89 0 0 0-7.8 9.7q1 .3 2.5 0l3-.7 3-1.2 2-.8 5.9-2.6 1.5-.9 1.9-1 1.8-1 1.5-.3q1.4 0 1.3 1.3 0 1.2-1.1 2l-2.7 1.3-3 1.3a47 47 0 0 1-7.7 3.9l-3.6 1.6q-2.6 1.1-5 1.6-2.5.5-4.4-.1-1.8-.7-1.8-3.5 0-1.5.7-2.5l1.6-2.3 2-2.1 2-1.9 2.8-3a11 11 0 0 0 2.5-4.3q-3.9.5-7.8 2L356 48l-8.5 4.5a33 33 0 0 0-7.7 6l-1.5.6-1.5-.3q-.7-.4-1-1.1-.4-.6-.1-1.9t2-2.2q.8-1.1 1.5-2.6.7-1.6 1-1.8l.6-2.1.5-2.2a42 42 0 0 0-5.6 1.8l-8 3.4-2 1.2-2 1q-1 .4-1.7.2-.8-.3-1.2-.7t-.4-1 1-1z"/><path d="M386.2 49.5q4.5-2.1 8.5-4.4 4.2-2.4 8.3-5.3 2-4 4.4-7.6l4.7-7.2 4.9-6.7q2.4-3.4 5-6.6 2.1-3 4.6-5.7 2.5-3 5.8-4.8 1.5-.9 3.8-1.2 2.3-.4 3.2 2 .6 1.5 0 3.1-.5 1.5-1.5 3l-2 2.9-2 2.3q-5.6 8.1-12.7 15.2t-15.2 13l-1.6 3.6a35 35 0 0 0-2.7 8.3q-.1 2 .2 4 1.5-.4 2.9-.4l2.1-.3 1.3-.2a92 92 0 0 0 19.2-6.5q1.6-1 2.8-.2 1.5 1.2.4 2.1l-2.1 1.4-16.6 6-4.7 1.9q-2.2 1-4.7 1-2.1.3-3.4-.6a5 5 0 0 1-1.8-2.4q-.4-1.5-.3-3.3 0-1.6.6-3.4a41 41 0 0 1 2.6-6.8q-5.8 4-12.3 7-1.5.3-2.3-1-1-1 .7-2zm29-19.6a117 117 0 0 0 17-20.3l1-1.8 1-2.2q-2 1-3.8 2.7l-3 2.9a77 77 0 0 0-6 6.9l-8.7 12-2.8 4.4 2.7-2.2z"/><path d="m442.2 42.6 2.6-1.1q2.1-.9 4-1.3 2-.3 3.5 0 1.5.5 1 2.7a7 7 0 0 1-1.2 2.5q-.9 1.4-1.4 2.6l-1.6 4.6q-.8 2.6.5 4.4 2.4.3 5.4-.6l5.3-1.8q.7-.2 2.8-1.4l4.2-2.2a18 18 0 0 1 4-1.5q1.9-.6 2.3.3.6 1-.7 2.2-1.2 1-3.2 2a54 54 0 0 1-6.5 2.8l-6.3 3q-3.3 1.6-6.6 2.1-3 .4-4.2-1.2a8 8 0 0 1-1.1-4.4q0-2.6.7-5.8.8-3 1.7-5.6l-6.5 2.4a56 56 0 0 0-11.2 5q-1.5.4-2.5-.8t.8-2z"/><path d="m470.8 49.6 5.4-2.9 7.9-3.8a31 31 0 0 1 7.5-2.5q3.3-.8 4.3 1 .6 1.5-.4 2.9t-1.3 2.5l-1.8 4 3.8-2 3.7-1.8 9.4-5.1q4.9-2.8 9.9-4.2a7 7 0 0 1 3.2 0q1.5.4 2.2 1.3.9.9.8 2.4t-1.1 3.2q-1.3 2.1-2.8 3.6a89 89 0 0 0-7.8 9.7q1 .3 2.5 0l3-.7 3-1.2 2-.8 5.9-2.6 1.5-.9 1.9-1 1.8-1 1.5-.3q1.4 0 1.3 1.3 0 1.2-1.1 2l-2.7 1.3-3 1.3q-2 1.2-3.9 2l-7.4 3.5q-2.6 1.1-5 1.6-2.5.5-4.4-.1-1.8-.7-1.8-3.5 0-1.5.7-2.5l1.6-2.3 2-2.1 2-1.9 2.8-3a11 11 0 0 0 2.5-4.3q-3.9.5-7.8 2l-7.2 3.3q-4.1 2-8.5 4.5a33 33 0 0 0-7.7 6l-1.5.6-1.5-.3q-.7-.4-1-1.1-.4-.6-.1-1.9t2-2.2q.8-1.1 1.5-2.6.7-1.6 1-1.8l.6-2.1.5-2.2a42 42 0 0 0-5.6 1.8l-8 3.4-2 1.2-2 1q-1 .4-1.7.2-.8-.3-1.2-.7t-.4-1 1-1z"/><path d="m536 49.5 5.3-2.9q2.8-1.6 5.6-2.8 1.9-3.3 5.3-5.3t7.2-2.8h4.7q2.5.4 4 2.2 1 1 .5 2.4a7 7 0 0 1-1.7 2.4q-1.2 1.2-2.7 2l-2.2 1.4a21 21 0 0 1-11.8 2.9h-.6a8 8 0 0 0 2.6 4.8q1.9 1.8 4.7 2.5 2.6.8 5.6.7t5.4-.7a67 67 0 0 0 13-4.2l3-1.4q1.4-.6 2.7-1.4 1-.2 2 .3 1.1.6.3 1.9-.8 1.1-2 1.5l-2.3.9-7.1 3.1q-6.6 2.7-13 4.3a21 21 0 0 1-5.8.4q-3-.3-5.4-1.3-2.4-1.1-4.5-3-2-2-2.8-5.2l-.5-2.3a4 4 0 0 1 .1-2.1q-1.5.6-3 1.6l-2.7 1.6-1.8 1.1a2 2 0 0 1-2.3 0q-.9-.5-.8-1.4 0-1 .9-1.3zm14.5-4q3.4-.2 6.6-1.8 3.2-1.5 5.6-4a8 8 0 0 0-4-.4 11 11 0 0 0-6.4 3.3q-1.4 1.5-1.8 2.8zm-91-16.2A4 4 0 0 1 457 27a7 7 0 0 1-.4-3.8q.4-2 1.5-4.1a10 10 0 0 1 3-3.4 7 7 0 0 1 4-1.5q2-.1 4.2 1.4 2.5 2.1 2.3 4.8a9 9 0 0 1-2 5A12 12 0 0 1 465 29a7 7 0 0 1-5.4.3zm1-2.6q1.2.3 2.8-.5t2.6-2.1q1.2-1.4 1.4-2.7a2 2 0 0 0-.8-2.2q-1.5-1.2-3-.4-1.6.8-2.6 2.4t-1.4 3.3 1 2.1z"/><path d="M272 65c10.3-.1 13.3-3 17.4-6.7m-17.4-25c10.3 0 13.3 3 17.4 6.6M2.2 21.7h54v54h-54z" fill="none" stroke-miterlimit="10" stroke-width="4.3"/><path d="m12 64.3 6.6-33.5L29.3 55l11-24.2 5.9 33.5h-4.8l-3-18.8L29 65.7l-8.9-20.2-3.3 18.8z"/><path d="M92.7 39.1a13.5 13.5 0 1 1-19.1 0 13.7 13.7 0 0 1 19 0M110 21.7h54v54h-54z" fill="none" stroke-miterlimit="10" stroke-width="4.3"/><path d="M149.4 34.8v5.6a13 13 0 0 0-8.5-3.4q-4.7 0-8 3.4t-3.3 8.4 3.3 8.2 8 3.4q2.4 0 4.3-.8l2-1 2.3-1.7v5.6a17 17 0 0 1-8.5 2.3q-6.6 0-11.4-4.6-4.7-4.8-4.7-11.4 0-6 3.9-10.6 4.9-5.7 12.5-5.8 4.2 0 8 2.3z"/><path d="M200.6 39.1a13.5 13.5 0 1 1-19.1 0 13.7 13.7 0 0 1 19 0M218 21.7h54v54h-54z" fill="none" stroke-miterlimit="10" stroke-width="4.3"/><path d="M233.9 64.2v-31h6.5q4.7 0 7.4.8 3 1 5.3 3.1 4.8 4.4 4.8 11.6t-5 11.6a15 15 0 0 1-5.3 3 24 24 0 0 1-7.3 1H234zm4.7-4.4h2q3.3 0 5.3-.6 2-.8 3.8-2.3 3.5-3.1 3.5-8.2t-3.5-8.3q-3-3-9-2.9h-2.2z"/><path d="M308.5 39.1a13.6 13.6 0 0 1 0 19.1 13.5 13.5 0 0 1-19 0 13.5 13.5 0 0 1 0-19 13.7 13.7 0 0 1 19 0M56.2 48.6h13.4m27 0h13.5m53.9 0h13.6m26.9 0h13.6" fill="none" stroke-miterlimit="10" stroke-width="4.3"/></g></svg>
